<svg version="1.1" viewBox="0.0 0.0 600.0 371.0" fill="none" stroke="none" stroke-linecap="square" stroke-miterlimit="10" width="600" height="371" xmlns:xlink="http://www.w3.org/1999/xlink" xmlns="http://www.w3.org/2000/svg"><path fill="#ffffff" fill-opacity="0.0" d="M0 0L600.0 0L600.0 371.0L0 371.0L0 0Z" fill-rule="nonzero"/><path stroke="#eeeeee" stroke-width="1.0" stroke-linecap="butt" d="M82.3615 216.2049L82.3615 232.2049" fill-rule="nonzero"/><path stroke="#eeeeee" stroke-width="1.0" stroke-linecap="butt" d="M205.43076 269.37714L205.43076 285.37714" fill-rule="nonzero"/><path stroke="#eeeeee" stroke-width="1.0" stroke-linecap="butt" d="M328.5 223.5559L328.5 239.5559" fill-rule="nonzero"/><path stroke="#eeeeee" stroke-width="1.0" stroke-linecap="butt" d="M451.56924 73.84053L451.56924 89.84053" fill-rule="nonzero"/><path stroke="#eeeeee" stroke-width="1.0" stroke-linecap="butt" d="M574.6385 131.42337L574.6385 147.42337" fill-rule="nonzero"/><clipPath id="id_0"><path d="M75.55 61.416668L581.45 61.416668L581.45 306.45L75.55 306.45L75.55 61.416668Z" clip-rule="nonzero"/></clipPath><path stroke="#ab3635" stroke-width="2.0" stroke-linecap="butt" clip-path="url(#id_0)" d="M82.3615 232.2049L205.43076 285.37714L328.5 239.5559L451.56924 89.84053L574.6385 147.42337" fill-rule="nonzero"/><path fill="#ab3635" clip-path="url(#id_0)" d="M82.3615 227.7049L86.8615 232.2049L82.3615 236.7049L77.8615 232.2049Z" fill-rule="nonzero"/><path fill="#ab3635" clip-path="url(#id_0)" d="M205.43076 280.87714L209.93076 285.37714L205.43076 289.87714L200.93076 285.37714Z" fill-rule="nonzero"/><path fill="#ab3635" clip-path="url(#id_0)" d="M328.5 235.0559L333.0 239.5559L328.5 244.0559L324.0 239.5559Z" fill-rule="nonzero"/><path fill="#ab3635" clip-path="url(#id_0)" d="M451.56924 85.34053L456.06924 89.84053L451.56924 94.34053L447.06924 89.84053Z" fill-rule="nonzero"/><path fill="#ab3635" clip-path="url(#id_0)" d="M574.6385 142.92337L579.1385 147.42337L574.6385 151.92337L570.1385 147.42337Z" fill-rule="nonzero"/><path stroke="#ffffff" stroke-width="3.0" stroke-linejoin="round" stroke-linecap="round" d="M73.78338 212.31427L74.65838 212.2049Q74.81463 212.93927 75.174 213.28302Q75.53338 213.61115 76.06463 213.61115Q76.68963 213.61115 77.1115 213.18927Q77.53338 212.75177 77.53338 212.11115Q77.53338 211.50177 77.14275 211.11115Q76.75213 210.72052 76.14275 210.72052Q75.89275 210.72052 75.51775 210.81427L75.6115 210.04865Q75.70525 210.04865 75.75213 210.04865Q76.31463 210.04865 76.76775 209.7674Q77.22088 209.47052 77.22088 208.86115Q77.22088 208.37677 76.89275 208.06427Q76.56463 207.73615 76.049 207.73615Q75.53338 207.73615 75.18963 208.06427Q74.84588 208.37677 74.75213 209.03302L73.87713 208.87677Q74.03338 207.98615 74.59588 207.50177Q75.174 207.0174 76.01775 207.0174Q76.6115 207.0174 77.09588 207.2674Q77.59588 207.5174 77.84588 207.9549Q78.1115 208.3924 78.1115 208.87677Q78.1115 209.34552 77.8615 209.72052Q77.62713 210.09552 77.12713 210.3299Q77.76775 210.47052 78.1115 210.93927Q78.47088 211.3924 78.47088 212.09552Q78.47088 213.03302 77.78338 213.68927Q77.09588 214.3299 76.06463 214.3299Q75.1115 214.3299 74.4865 213.7674Q73.87713 213.2049 73.78338 212.31427ZM79.78338 210.67365Q79.78338 209.40802 80.03338 208.6424Q80.299 207.86115 80.81463 207.43927Q81.33025 207.0174 82.1115 207.0174Q82.68963 207.0174 83.1115 207.25177Q83.549 207.48615 83.83025 207.92365Q84.12713 208.36115 84.28338 208.98615Q84.43963 209.61115 84.43963 210.67365Q84.43963 211.93927 84.174 212.72052Q83.924 213.48615 83.40838 213.90802Q82.89275 214.3299 82.1115 214.3299Q81.08025 214.3299 80.4865 213.5799Q79.78338 212.68927 79.78338 210.67365ZM80.674 210.67365Q80.674 212.43927 81.08025 213.03302Q81.50213 213.61115 82.1115 213.61115Q82.72088 213.61115 83.12713 213.03302Q83.549 212.43927 83.549 210.67365Q83.549 208.90802 83.12713 208.3299Q82.72088 207.75177 82.09588 207.75177Q81.50213 207.75177 81.12713 208.25177Q80.674 208.90802 80.674 210.67365ZM85.78338 212.31427L86.65838 212.2049Q86.81463 212.93927 87.174 213.28302Q87.53338 213.61115 88.06463 213.61115Q88.68963 213.61115 89.1115 213.18927Q89.53338 212.75177 89.53338 212.11115Q89.53338 211.50177 89.14275 211.11115Q88.75213 210.72052 88.14275 210.72052Q87.89275 210.72052 87.51775 210.81427L87.6115 210.04865Q87.70525 210.04865 87.75213 210.04865Q88.31463 210.04865 88.76775 209.7674Q89.22088 209.47052 89.22088 208.86115Q89.22088 208.37677 88.89275 208.06427Q88.56463 207.73615 88.049 207.73615Q87.53338 207.73615 87.18963 208.06427Q86.84588 208.37677 86.75213 209.03302L85.87713 208.87677Q86.03338 207.98615 86.59588 207.50177Q87.174 207.0174 88.01775 207.0174Q88.6115 207.0174 89.09588 207.2674Q89.59588 207.5174 89.84588 207.9549Q90.1115 208.3924 90.1115 208.87677Q90.1115 209.34552 89.8615 209.72052Q89.62713 210.09552 89.12713 210.3299Q89.76775 210.47052 90.1115 210.93927Q90.47088 211.3924 90.47088 212.09552Q90.47088 213.03302 89.78338 213.68927Q89.09588 214.3299 88.06463 214.3299Q87.1115 214.3299 86.4865 213.7674Q85.87713 213.2049 85.78338 212.31427Z" fill-rule="nonzero"/><path fill="#ab3635" d="M73.78338 212.31427L74.65838 212.2049Q74.81463 212.93927 75.174 213.28302Q75.53338 213.61115 76.06463 213.61115Q76.68963 213.61115 77.1115 213.18927Q77.53338 212.75177 77.53338 212.11115Q77.53338 211.50177 77.14275 211.11115Q76.75213 210.72052 76.14275 210.72052Q75.89275 210.72052 75.51775 210.81427L75.6115 210.04865Q75.70525 210.04865 75.75213 210.04865Q76.31463 210.04865 76.76775 209.7674Q77.22088 209.47052 77.22088 208.86115Q77.22088 208.37677 76.89275 208.06427Q76.56463 207.73615 76.049 207.73615Q75.53338 207.73615 75.18963 208.06427Q74.84588 208.37677 74.75213 209.03302L73.87713 208.87677Q74.03338 207.98615 74.59588 207.50177Q75.174 207.0174 76.01775 207.0174Q76.6115 207.0174 77.09588 207.2674Q77.59588 207.5174 77.84588 207.9549Q78.1115 208.3924 78.1115 208.87677Q78.1115 209.34552 77.8615 209.72052Q77.62713 210.09552 77.12713 210.3299Q77.76775 210.47052 78.1115 210.93927Q78.47088 211.3924 78.47088 212.09552Q78.47088 213.03302 77.78338 213.68927Q77.09588 214.3299 76.06463 214.3299Q75.1115 214.3299 74.4865 213.7674Q73.87713 213.2049 73.78338 212.31427ZM79.78338 210.67365Q79.78338 209.40802 80.03338 208.6424Q80.299 207.86115 80.81463 207.43927Q81.33025 207.0174 82.1115 207.0174Q82.68963 207.0174 83.1115 207.25177Q83.549 207.48615 83.83025 207.92365Q84.12713 208.36115 84.28338 208.98615Q84.43963 209.61115 84.43963 210.67365Q84.43963 211.93927 84.174 212.72052Q83.924 213.48615 83.40838 213.90802Q82.89275 214.3299 82.1115 214.3299Q81.08025 214.3299 80.4865 213.5799Q79.78338 212.68927 79.78338 210.67365ZM80.674 210.67365Q80.674 212.43927 81.08025 213.03302Q81.50213 213.61115 82.1115 213.61115Q82.72088 213.61115 83.12713 213.03302Q83.549 212.43927 83.549 210.67365Q83.549 208.90802 83.12713 208.3299Q82.72088 207.75177 82.09588 207.75177Q81.50213 207.75177 81.12713 208.25177Q80.674 208.90802 80.674 210.67365ZM85.78338 212.31427L86.65838 212.2049Q86.81463 212.93927 87.174 213.28302Q87.53338 213.61115 88.06463 213.61115Q88.68963 213.61115 89.1115 213.18927Q89.53338 212.75177 89.53338 212.11115Q89.53338 211.50177 89.14275 211.11115Q88.75213 210.72052 88.14275 210.72052Q87.89275 210.72052 87.51775 210.81427L87.6115 210.04865Q87.70525 210.04865 87.75213 210.04865Q88.31463 210.04865 88.76775 209.7674Q89.22088 209.47052 89.22088 208.86115Q89.22088 208.37677 88.89275 208.06427Q88.56463 207.73615 88.049 207.73615Q87.53338 207.73615 87.18963 208.06427Q86.84588 208.37677 86.75213 209.03302L85.87713 208.87677Q86.03338 207.98615 86.59588 207.50177Q87.174 207.0174 88.01775 207.0174Q88.6115 207.0174 89.09588 207.2674Q89.59588 207.5174 89.84588 207.9549Q90.1115 208.3924 90.1115 208.87677Q90.1115 209.34552 89.8615 209.72052Q89.62713 210.09552 89.12713 210.3299Q89.76775 210.47052 90.1115 210.93927Q90.47088 211.3924 90.47088 212.09552Q90.47088 213.03302 89.78338 213.68927Q89.09588 214.3299 88.06463 214.3299Q87.1115 214.3299 86.4865 213.7674Q85.87713 213.2049 85.78338 212.31427Z" fill-rule="nonzero"/><path stroke="#ffffff" stroke-width="3.0" stroke-linejoin="round" stroke-linecap="round" d="M201.19638 263.50214Q200.6495 263.299 200.38388 262.924Q200.11826 262.549 200.11826 262.0334Q200.11826 261.25214 200.68076 260.7209Q201.24326 260.18964 202.18076 260.18964Q203.11826 260.18964 203.68076 260.7365Q204.25888 261.2834 204.25888 262.06464Q204.25888 262.56464 203.99326 262.93964Q203.74326 263.299 203.212 263.50214Q203.86826 263.70526 204.212 264.18964Q204.55576 264.674 204.55576 265.33026Q204.55576 266.25214 203.8995 266.87714Q203.25888 267.50214 202.19638 267.50214Q201.13388 267.50214 200.47763 266.87714Q199.837 266.2365 199.837 265.299Q199.837 264.6115 200.18076 264.14276Q200.54013 263.6584 201.19638 263.50214ZM201.0245 262.00214Q201.0245 262.51776 201.35263 262.8459Q201.68076 263.1584 202.19638 263.1584Q202.712 263.1584 203.0245 262.8459Q203.35263 262.51776 203.35263 262.049Q203.35263 261.56464 203.00888 261.2365Q202.68076 260.9084 202.19638 260.9084Q201.68076 260.9084 201.35263 261.2365Q201.0245 261.549 201.0245 262.00214ZM200.74326 265.31464Q200.74326 265.68964 200.91513 266.049Q201.10263 266.39276 201.44638 266.5959Q201.80576 266.7834 202.212 266.7834Q202.837 266.7834 203.24326 266.37714Q203.6495 265.9709 203.6495 265.3459Q203.6495 264.70526 203.22763 264.299Q202.80576 263.87714 202.18076 263.87714Q201.55576 263.87714 201.1495 264.2834Q200.74326 264.68964 200.74326 265.31464ZM210.3995 261.9709L209.54013 262.0334Q209.41513 261.51776 209.19638 261.2834Q208.837 260.9084 208.32138 260.9084Q207.8995 260.9084 207.587 261.14276Q207.16513 261.45526 206.93076 262.0334Q206.69638 262.6115 206.68076 263.68964Q206.99326 263.20526 207.44638 262.9709Q207.91513 262.7365 208.41513 262.7365Q209.30576 262.7365 209.91513 263.39276Q210.54013 264.0334 210.54013 265.049Q210.54013 265.7209 210.24326 266.299Q209.94638 266.87714 209.43076 267.18964Q208.93076 267.50214 208.29013 267.50214Q207.19638 267.50214 206.49326 266.68964Q205.80576 265.87714 205.80576 264.0334Q205.80576 261.95526 206.57138 261.00214Q207.24326 260.18964 208.36826 260.18964Q209.22763 260.18964 209.75888 260.674Q210.30576 261.14276 210.3995 261.9709ZM206.82138 265.06464Q206.82138 265.51776 207.00888 265.93964Q207.19638 266.3459 207.54013 266.56464Q207.8995 266.7834 208.2745 266.7834Q208.837 266.7834 209.22763 266.33026Q209.63388 265.87714 209.63388 265.1115Q209.63388 264.3615 209.22763 263.93964Q208.837 263.50214 208.24326 263.50214Q207.6495 263.50214 207.22763 263.93964Q206.82138 264.3615 206.82138 265.06464Z" fill-rule="nonzero"/><path fill="#ab3635" d="M201.19638 263.50214Q200.6495 263.299 200.38388 262.924Q200.11826 262.549 200.11826 262.0334Q200.11826 261.25214 200.68076 260.7209Q201.24326 260.18964 202.18076 260.18964Q203.11826 260.18964 203.68076 260.7365Q204.25888 261.2834 204.25888 262.06464Q204.25888 262.56464 203.99326 262.93964Q203.74326 263.299 203.212 263.50214Q203.86826 263.70526 204.212 264.18964Q204.55576 264.674 204.55576 265.33026Q204.55576 266.25214 203.8995 266.87714Q203.25888 267.50214 202.19638 267.50214Q201.13388 267.50214 200.47763 266.87714Q199.837 266.2365 199.837 265.299Q199.837 264.6115 200.18076 264.14276Q200.54013 263.6584 201.19638 263.50214ZM201.0245 262.00214Q201.0245 262.51776 201.35263 262.8459Q201.68076 263.1584 202.19638 263.1584Q202.712 263.1584 203.0245 262.8459Q203.35263 262.51776 203.35263 262.049Q203.35263 261.56464 203.00888 261.2365Q202.68076 260.9084 202.19638 260.9084Q201.68076 260.9084 201.35263 261.2365Q201.0245 261.549 201.0245 262.00214ZM200.74326 265.31464Q200.74326 265.68964 200.91513 266.049Q201.10263 266.39276 201.44638 266.5959Q201.80576 266.7834 202.212 266.7834Q202.837 266.7834 203.24326 266.37714Q203.6495 265.9709 203.6495 265.3459Q203.6495 264.70526 203.22763 264.299Q202.80576 263.87714 202.18076 263.87714Q201.55576 263.87714 201.1495 264.2834Q200.74326 264.68964 200.74326 265.31464ZM210.3995 261.9709L209.54013 262.0334Q209.41513 261.51776 209.19638 261.2834Q208.837 260.9084 208.32138 260.9084Q207.8995 260.9084 207.587 261.14276Q207.16513 261.45526 206.93076 262.0334Q206.69638 262.6115 206.68076 263.68964Q206.99326 263.20526 207.44638 262.9709Q207.91513 262.7365 208.41513 262.7365Q209.30576 262.7365 209.91513 263.39276Q210.54013 264.0334 210.54013 265.049Q210.54013 265.7209 210.24326 266.299Q209.94638 266.87714 209.43076 267.18964Q208.93076 267.50214 208.29013 267.50214Q207.19638 267.50214 206.49326 266.68964Q205.80576 265.87714 205.80576 264.0334Q205.80576 261.95526 206.57138 261.00214Q207.24326 260.18964 208.36826 260.18964Q209.22763 260.18964 209.75888 260.674Q210.30576 261.14276 210.3995 261.9709ZM206.82138 265.06464Q206.82138 265.51776 207.00888 265.93964Q207.19638 266.3459 207.54013 266.56464Q207.8995 266.7834 208.2745 266.7834Q208.837 266.7834 209.22763 266.33026Q209.63388 265.87714 209.63388 265.1115Q209.63388 264.3615 209.22763 263.93964Q208.837 263.50214 208.24326 263.50214Q207.6495 263.50214 207.22763 263.93964Q206.82138 264.3615 206.82138 265.06464Z" fill-rule="nonzero"/><path stroke="#ffffff" stroke-width="3.0" stroke-linejoin="round" stroke-linecap="round" d="M324.53125 220.71214L324.53125 221.5559L319.79688 221.5559Q319.79688 221.2434 319.90625 220.94652Q320.09375 220.46214 320.48438 219.9934Q320.875 219.52464 321.64062 218.91527Q322.79688 217.94652 323.20312 217.39964Q323.625 216.83714 323.625 216.33714Q323.625 215.8059 323.25 215.46214Q322.875 215.10277 322.28125 215.10277Q321.64062 215.10277 321.25 215.47777Q320.875 215.85277 320.875 216.52464L319.96875 216.4309Q320.0625 215.4309 320.65625 214.89964Q321.26562 214.3684 322.29688 214.3684Q323.32812 214.3684 323.92188 214.94652Q324.53125 215.50902 324.53125 216.35277Q324.53125 216.79027 324.34375 217.21214Q324.17188 217.6184 323.76562 218.08714Q323.35938 218.54027 322.40625 219.33714Q321.625 219.9934 321.39062 220.2434Q321.17188 220.47777 321.03125 220.71214L324.53125 220.71214ZM325.96875 215.33714L325.96875 214.4934L330.60938 214.4934L330.60938 215.1809Q329.92188 215.89964 329.25 217.10277Q328.57812 218.3059 328.21875 219.58714Q327.95312 220.4934 327.875 221.5559L326.96875 221.5559Q326.98438 220.71214 327.29688 219.52464Q327.625 218.32152 328.21875 217.21214Q328.8125 216.10277 329.48438 215.33714L325.96875 215.33714ZM331.92188 219.66527L332.79688 219.5559Q332.95312 220.29027 333.3125 220.63402Q333.67188 220.96214 334.20312 220.96214Q334.82812 220.96214 335.25 220.54027Q335.67188 220.10277 335.67188 219.46214Q335.67188 218.85277 335.28125 218.46214Q334.89062 218.07152 334.28125 218.07152Q334.03125 218.07152 333.65625 218.16527L333.75 217.39964Q333.84375 217.39964 333.89062 217.39964Q334.45312 217.39964 334.90625 217.1184Q335.35938 216.82152 335.35938 216.21214Q335.35938 215.72777 335.03125 215.41527Q334.70312 215.08714 334.1875 215.08714Q333.67188 215.08714 333.32812 215.41527Q332.98438 215.72777 332.89062 216.38402L332.01562 216.22777Q332.17188 215.33714 332.73438 214.85277Q333.3125 214.3684 334.15625 214.3684Q334.75 214.3684 335.23438 214.6184Q335.73438 214.8684 335.98438 215.3059Q336.25 215.7434 336.25 216.22777Q336.25 216.69652 336.0 217.07152Q335.76562 217.44652 335.26562 217.6809Q335.90625 217.82152 336.25 218.29027Q336.60938 218.7434 336.60938 219.44652Q336.60938 220.38402 335.92188 221.04027Q335.23438 221.6809 334.20312 221.6809Q333.25 221.6809 332.625 221.1184Q332.01562 220.5559 331.92188 219.66527Z" fill-rule="nonzero"/><path fill="#ab3635" d="M324.53125 220.71214L324.53125 221.5559L319.79688 221.5559Q319.79688 221.2434 319.90625 220.94652Q320.09375 220.46214 320.48438 219.9934Q320.875 219.52464 321.64062 218.91527Q322.79688 217.94652 323.20312 217.39964Q323.625 216.83714 323.625 216.33714Q323.625 215.8059 323.25 215.46214Q322.875 215.10277 322.28125 215.10277Q321.64062 215.10277 321.25 215.47777Q320.875 215.85277 320.875 216.52464L319.96875 216.4309Q320.0625 215.4309 320.65625 214.89964Q321.26562 214.3684 322.29688 214.3684Q323.32812 214.3684 323.92188 214.94652Q324.53125 215.50902 324.53125 216.35277Q324.53125 216.79027 324.34375 217.21214Q324.17188 217.6184 323.76562 218.08714Q323.35938 218.54027 322.40625 219.33714Q321.625 219.9934 321.39062 220.2434Q321.17188 220.47777 321.03125 220.71214L324.53125 220.71214ZM325.96875 215.33714L325.96875 214.4934L330.60938 214.4934L330.60938 215.1809Q329.92188 215.89964 329.25 217.10277Q328.57812 218.3059 328.21875 219.58714Q327.95312 220.4934 327.875 221.5559L326.96875 221.5559Q326.98438 220.71214 327.29688 219.52464Q327.625 218.32152 328.21875 217.21214Q328.8125 216.10277 329.48438 215.33714L325.96875 215.33714ZM331.92188 219.66527L332.79688 219.5559Q332.95312 220.29027 333.3125 220.63402Q333.67188 220.96214 334.20312 220.96214Q334.82812 220.96214 335.25 220.54027Q335.67188 220.10277 335.67188 219.46214Q335.67188 218.85277 335.28125 218.46214Q334.89062 218.07152 334.28125 218.07152Q334.03125 218.07152 333.65625 218.16527L333.75 217.39964Q333.84375 217.39964 333.89062 217.39964Q334.45312 217.39964 334.90625 217.1184Q335.35938 216.82152 335.35938 216.21214Q335.35938 215.72777 335.03125 215.41527Q334.70312 215.08714 334.1875 215.08714Q333.67188 215.08714 333.32812 215.41527Q332.98438 215.72777 332.89062 216.38402L332.01562 216.22777Q332.17188 215.33714 332.73438 214.85277Q333.3125 214.3684 334.15625 214.3684Q334.75 214.3684 335.23438 214.6184Q335.73438 214.8684 335.98438 215.3059Q336.25 215.7434 336.25 216.22777Q336.25 216.69652 336.0 217.07152Q335.76562 217.44652 335.26562 217.6809Q335.90625 217.82152 336.25 218.29027Q336.60938 218.7434 336.60938 219.44652Q336.60938 220.38402 335.92188 221.04027Q335.23438 221.6809 334.20312 221.6809Q333.25 221.6809 332.625 221.1184Q332.01562 220.5559 331.92188 219.66527Z" fill-rule="nonzero"/><path stroke="#ffffff" stroke-width="3.0" stroke-linejoin="round" stroke-linecap="round" d="M444.33487 67.96553Q443.788 67.762405 443.52237 67.387405Q443.25674 67.012405 443.25674 66.49678Q443.25674 65.71553 443.81924 65.18428Q444.38174 64.65303 445.31924 64.65303Q446.25674 64.65303 446.81924 65.199905Q447.39737 65.74678 447.39737 66.52803Q447.39737 67.02803 447.13174 67.40303Q446.88174 67.762405 446.3505 67.96553Q447.00674 68.168655 447.3505 68.65303Q447.69424 69.137405 447.69424 69.793655Q447.69424 70.71553 447.038 71.34053Q446.39737 71.96553 445.33487 71.96553Q444.27237 71.96553 443.61612 71.34053Q442.9755 70.699905 442.9755 69.762405Q442.9755 69.074905 443.31924 68.606155Q443.67862 68.12178 444.33487 67.96553ZM444.163 66.46553Q444.163 66.981155 444.49112 67.30928Q444.81924 67.62178 445.33487 67.62178Q445.8505 67.62178 446.163 67.30928Q446.49112 66.981155 446.49112 66.512405Q446.49112 66.02803 446.14737 65.699905Q445.81924 65.37178 445.33487 65.37178Q444.81924 65.37178 444.49112 65.699905Q444.163 66.012405 444.163 66.46553ZM443.88174 69.77803Q443.88174 70.15303 444.05362 70.512405Q444.24112 70.856155 444.58487 71.05928Q444.94424 71.24678 445.3505 71.24678Q445.9755 71.24678 446.38174 70.84053Q446.788 70.43428 446.788 69.80928Q446.788 69.168655 446.36612 68.762405Q445.94424 68.34053 445.31924 68.34053Q444.69424 68.34053 444.288 68.74678Q443.88174 69.15303 443.88174 69.77803ZM450.33487 67.96553Q449.788 67.762405 449.52237 67.387405Q449.25674 67.012405 449.25674 66.49678Q449.25674 65.71553 449.81924 65.18428Q450.38174 64.65303 451.31924 64.65303Q452.25674 64.65303 452.81924 65.199905Q453.39737 65.74678 453.39737 66.52803Q453.39737 67.02803 453.13174 67.40303Q452.88174 67.762405 452.3505 67.96553Q453.00674 68.168655 453.3505 68.65303Q453.69424 69.137405 453.69424 69.793655Q453.69424 70.71553 453.038 71.34053Q452.39737 71.96553 451.33487 71.96553Q450.27237 71.96553 449.61612 71.34053Q448.9755 70.699905 448.9755 69.762405Q448.9755 69.074905 449.31924 68.606155Q449.67862 68.12178 450.33487 67.96553ZM450.163 66.46553Q450.163 66.981155 450.49112 67.30928Q450.81924 67.62178 451.33487 67.62178Q451.8505 67.62178 452.163 67.30928Q452.49112 66.981155 452.49112 66.512405Q452.49112 66.02803 452.14737 65.699905Q451.81924 65.37178 451.33487 65.37178Q450.81924 65.37178 450.49112 65.699905Q450.163 66.012405 450.163 66.46553ZM449.88174 69.77803Q449.88174 70.15303 450.05362 70.512405Q450.24112 70.856155 450.58487 71.05928Q450.94424 71.24678 451.3505 71.24678Q451.9755 71.24678 452.38174 70.84053Q452.788 70.43428 452.788 69.80928Q452.788 69.168655 452.36612 68.762405Q451.94424 68.34053 451.31924 68.34053Q450.69424 68.34053 450.288 68.74678Q449.88174 69.15303 449.88174 69.77803ZM457.80362 71.84053L457.80362 70.12178L454.69424 70.12178L454.69424 69.324905L457.95987 64.68428L458.67862 64.68428L458.67862 69.324905L459.64737 69.324905L459.64737 70.12178L458.67862 70.12178L458.67862 71.84053L457.80362 71.84053ZM457.80362 69.324905L457.80362 66.09053L455.55362 69.324905L457.80362 69.324905Z" fill-rule="nonzero"/><path fill="#ab3635" d="M444.33487 67.96553Q443.788 67.762405 443.52237 67.387405Q443.25674 67.012405 443.25674 66.49678Q443.25674 65.71553 443.81924 65.18428Q444.38174 64.65303 445.31924 64.65303Q446.25674 64.65303 446.81924 65.199905Q447.39737 65.74678 447.39737 66.52803Q447.39737 67.02803 447.13174 67.40303Q446.88174 67.762405 446.3505 67.96553Q447.00674 68.168655 447.3505 68.65303Q447.69424 69.137405 447.69424 69.793655Q447.69424 70.71553 447.038 71.34053Q446.39737 71.96553 445.33487 71.96553Q444.27237 71.96553 443.61612 71.34053Q442.9755 70.699905 442.9755 69.762405Q442.9755 69.074905 443.31924 68.606155Q443.67862 68.12178 444.33487 67.96553ZM444.163 66.46553Q444.163 66.981155 444.49112 67.30928Q444.81924 67.62178 445.33487 67.62178Q445.8505 67.62178 446.163 67.30928Q446.49112 66.981155 446.49112 66.512405Q446.49112 66.02803 446.14737 65.699905Q445.81924 65.37178 445.33487 65.37178Q444.81924 65.37178 444.49112 65.699905Q444.163 66.012405 444.163 66.46553ZM443.88174 69.77803Q443.88174 70.15303 444.05362 70.512405Q444.24112 70.856155 444.58487 71.05928Q444.94424 71.24678 445.3505 71.24678Q445.9755 71.24678 446.38174 70.84053Q446.788 70.43428 446.788 69.80928Q446.788 69.168655 446.36612 68.762405Q445.94424 68.34053 445.31924 68.34053Q444.69424 68.34053 444.288 68.74678Q443.88174 69.15303 443.88174 69.77803ZM450.33487 67.96553Q449.788 67.762405 449.52237 67.387405Q449.25674 67.012405 449.25674 66.49678Q449.25674 65.71553 449.81924 65.18428Q450.38174 64.65303 451.31924 64.65303Q452.25674 64.65303 452.81924 65.199905Q453.39737 65.74678 453.39737 66.52803Q453.39737 67.02803 453.13174 67.40303Q452.88174 67.762405 452.3505 67.96553Q453.00674 68.168655 453.3505 68.65303Q453.69424 69.137405 453.69424 69.793655Q453.69424 70.71553 453.038 71.34053Q452.39737 71.96553 451.33487 71.96553Q450.27237 71.96553 449.61612 71.34053Q448.9755 70.699905 448.9755 69.762405Q448.9755 69.074905 449.31924 68.606155Q449.67862 68.12178 450.33487 67.96553ZM450.163 66.46553Q450.163 66.981155 450.49112 67.30928Q450.81924 67.62178 451.33487 67.62178Q451.8505 67.62178 452.163 67.30928Q452.49112 66.981155 452.49112 66.512405Q452.49112 66.02803 452.14737 65.699905Q451.81924 65.37178 451.33487 65.37178Q450.81924 65.37178 450.49112 65.699905Q450.163 66.012405 450.163 66.46553ZM449.88174 69.77803Q449.88174 70.15303 450.05362 70.512405Q450.24112 70.856155 450.58487 71.05928Q450.94424 71.24678 451.3505 71.24678Q451.9755 71.24678 452.38174 70.84053Q452.788 70.43428 452.788 69.80928Q452.788 69.168655 452.36612 68.762405Q451.94424 68.34053 451.31924 68.34053Q450.69424 68.34053 450.288 68.74678Q449.88174 69.15303 449.88174 69.77803ZM457.80362 71.84053L457.80362 70.12178L454.69424 70.12178L454.69424 69.324905L457.95987 64.68428L458.67862 64.68428L458.67862 69.324905L459.64737 69.324905L459.64737 70.12178L458.67862 70.12178L458.67862 71.84053L457.80362 71.84053ZM457.80362 69.324905L457.80362 66.09053L455.55362 69.324905L457.80362 69.324905Z" fill-rule="nonzero"/><path stroke="#ffffff" stroke-width="3.0" stroke-linejoin="round" stroke-linecap="round" d="M570.60724 124.01712L569.74786 124.07962Q569.62286 123.563995 569.4041 123.32962Q569.04474 122.95462 568.5291 122.95462Q568.10724 122.95462 567.79474 123.188995Q567.37286 123.501495 567.1385 124.07962Q566.9041 124.657745 566.8885 125.73587Q567.201 125.251495 567.6541 125.01712Q568.12286 124.782745 568.62286 124.782745Q569.5135 124.782745 570.12286 125.438995Q570.74786 126.07962 570.74786 127.095245Q570.74786 127.76712 570.451 128.34525Q570.1541 128.92337 569.6385 129.23587Q569.1385 129.54837 568.49786 129.54837Q567.4041 129.54837 566.701 128.73587Q566.0135 127.92337 566.0135 126.07962Q566.0135 124.001495 566.7791 123.04837Q567.451 122.23587 568.576 122.23587Q569.43536 122.23587 569.9666 122.720245Q570.5135 123.188995 570.60724 124.01712ZM567.0291 127.11087Q567.0291 127.563995 567.2166 127.98587Q567.4041 128.39212 567.74786 128.61087Q568.10724 128.82962 568.48224 128.82962Q569.04474 128.82962 569.43536 128.3765Q569.8416 127.92337 569.8416 127.157745Q569.8416 126.407745 569.43536 125.98587Q569.04474 125.54837 568.451 125.54837Q567.85724 125.54837 567.43536 125.98587Q567.0291 126.407745 567.0291 127.11087ZM574.87286 129.42337L574.87286 127.70462L571.7635 127.70462L571.7635 126.907745L575.0291 122.26712L575.74786 122.26712L575.74786 126.907745L576.7166 126.907745L576.7166 127.70462L575.74786 127.70462L575.74786 129.42337L574.87286 129.42337ZM574.87286 126.907745L574.87286 123.67337L572.62286 126.907745L574.87286 126.907745ZM578.18536 127.76712L579.0291 127.688995Q579.1385 128.28275 579.43536 128.564Q579.74786 128.82962 580.2166 128.82962Q580.62286 128.82962 580.91974 128.64212Q581.23224 128.45462 581.41974 128.14212Q581.62286 127.82962 581.74786 127.313995Q581.8885 126.782745 581.8885 126.23587Q581.8885 126.17337 581.8885 126.04837Q581.62286 126.470245 581.1541 126.73587Q580.701 127.001495 580.16974 127.001495Q579.2791 127.001495 578.66974 126.36087Q578.06036 125.70462 578.06036 124.657745Q578.06036 123.563995 578.701 122.907745Q579.3416 122.23587 580.31036 122.23587Q580.99786 122.23587 581.576 122.61087Q582.1541 122.98587 582.451 123.688995Q582.7635 124.376495 582.7635 125.70462Q582.7635 127.063995 582.4666 127.876495Q582.16974 128.689 581.576 129.1265Q580.98224 129.54837 580.201 129.54837Q579.35724 129.54837 578.826 129.07962Q578.29474 128.61087 578.18536 127.76712ZM581.7791 124.61087Q581.7791 123.845245 581.37286 123.407745Q580.98224 122.970245 580.41974 122.970245Q579.826 122.970245 579.3885 123.45462Q578.951 123.92337 578.951 124.688995Q578.951 125.36087 579.35724 125.79837Q579.7791 126.220245 580.3885 126.220245Q580.99786 126.220245 581.3885 125.79837Q581.7791 125.36087 581.7791 124.61087Z" fill-rule="nonzero"/><path fill="#ab3635" d="M570.60724 124.01712L569.74786 124.07962Q569.62286 123.563995 569.4041 123.32962Q569.04474 122.95462 568.5291 122.95462Q568.10724 122.95462 567.79474 123.188995Q567.37286 123.501495 567.1385 124.07962Q566.9041 124.657745 566.8885 125.73587Q567.201 125.251495 567.6541 125.01712Q568.12286 124.782745 568.62286 124.782745Q569.5135 124.782745 570.12286 125.438995Q570.74786 126.07962 570.74786 127.095245Q570.74786 127.76712 570.451 128.34525Q570.1541 128.92337 569.6385 129.23587Q569.1385 129.54837 568.49786 129.54837Q567.4041 129.54837 566.701 128.73587Q566.0135 127.92337 566.0135 126.07962Q566.0135 124.001495 566.7791 123.04837Q567.451 122.23587 568.576 122.23587Q569.43536 122.23587 569.9666 122.720245Q570.5135 123.188995 570.60724 124.01712ZM567.0291 127.11087Q567.0291 127.563995 567.2166 127.98587Q567.4041 128.39212 567.74786 128.61087Q568.10724 128.82962 568.48224 128.82962Q569.04474 128.82962 569.43536 128.3765Q569.8416 127.92337 569.8416 127.157745Q569.8416 126.407745 569.43536 125.98587Q569.04474 125.54837 568.451 125.54837Q567.85724 125.54837 567.43536 125.98587Q567.0291 126.407745 567.0291 127.11087ZM574.87286 129.42337L574.87286 127.70462L571.7635 127.70462L571.7635 126.907745L575.0291 122.26712L575.74786 122.26712L575.74786 126.907745L576.7166 126.907745L576.7166 127.70462L575.74786 127.70462L575.74786 129.42337L574.87286 129.42337ZM574.87286 126.907745L574.87286 123.67337L572.62286 126.907745L574.87286 126.907745ZM578.18536 127.76712L579.0291 127.688995Q579.1385 128.28275 579.43536 128.564Q579.74786 128.82962 580.2166 128.82962Q580.62286 128.82962 580.91974 128.64212Q581.23224 128.45462 581.41974 128.14212Q581.62286 127.82962 581.74786 127.313995Q581.8885 126.782745 581.8885 126.23587Q581.8885 126.17337 581.8885 126.04837Q581.62286 126.470245 581.1541 126.73587Q580.701 127.001495 580.16974 127.001495Q579.2791 127.001495 578.66974 126.36087Q578.06036 125.70462 578.06036 124.657745Q578.06036 123.563995 578.701 122.907745Q579.3416 122.23587 580.31036 122.23587Q580.99786 122.23587 581.576 122.61087Q582.1541 122.98587 582.451 123.688995Q582.7635 124.376495 582.7635 125.70462Q582.7635 127.063995 582.4666 127.876495Q582.16974 128.689 581.576 129.1265Q580.98224 129.54837 580.201 129.54837Q579.35724 129.54837 578.826 129.07962Q578.29474 128.61087 578.18536 127.76712ZM581.7791 124.61087Q581.7791 123.845245 581.37286 123.407745Q580.98224 122.970245 580.41974 122.970245Q579.826 122.970245 579.3885 123.45462Q578.951 123.92337 578.951 124.688995Q578.951 125.36087 579.35724 125.79837Q579.7791 126.220245 580.3885 126.220245Q580.99786 126.220245 581.3885 125.79837Q581.7791 125.36087 581.7791 124.61087Z" fill-rule="nonzero"/><path fill="#555555" d="M318.98438 349.45L321.73438 342.29376L322.75 342.29376L325.6875 349.45L324.60938 349.45L323.76562 347.27814L320.78125 347.27814L319.98438 349.45L318.98438 349.45ZM321.04688 346.5125L323.48438 346.5125L322.73438 344.52814Q322.39062 343.6219 322.21875 343.04376Q322.09375 343.73126 321.84375 344.40314L321.04688 346.5125ZM326.65625 349.45L326.65625 344.2625L327.45312 344.2625L327.45312 344.9969Q328.01562 344.15314 329.09375 344.15314Q329.5625 344.15314 329.95312 344.325Q330.35938 344.48126 330.54688 344.7625Q330.75 345.02814 330.82812 345.40314Q330.875 345.65314 330.875 346.2625L330.875 349.45L330.0 349.45L330.0 346.29376Q330.0 345.7625 329.89062 345.4969Q329.79688 345.23126 329.53125 345.075Q329.26562 344.90314 328.92188 344.90314Q328.35938 344.90314 327.9375 345.2625Q327.53125 345.6219 327.53125 346.6219L327.53125 349.45L326.65625 349.45ZM332.32812 346.85626Q332.32812 345.41876 333.14062 344.71564Q333.79688 344.15314 334.76562 344.15314Q335.82812 344.15314 336.5 344.85626Q337.1875 345.54376 337.1875 346.77814Q337.1875 347.77814 336.89062 348.35626Q336.59375 348.9344 336.01562 349.2625Q335.4375 349.575 334.76562 349.575Q333.67188 349.575 333.0 348.8719Q332.32812 348.16876 332.32812 346.85626ZM333.23438 346.85626Q333.23438 347.85626 333.67188 348.35626Q334.10938 348.84064 334.76562 348.84064Q335.42188 348.84064 335.84375 348.34064Q336.28125 347.84064 336.28125 346.825Q336.28125 345.8719 335.84375 345.3719Q335.40625 344.8719 334.76562 344.8719Q334.10938 344.8719 333.67188 345.3719Q333.23438 345.85626 333.23438 346.85626Z" fill-rule="nonzero"/><path fill="#555555" d="M27.784388 238.48021Q28.237513 237.82396 28.440638 237.27708L29.112513 237.54271Q28.831263 238.32396 28.221888 239.08958Q28.675013 239.88646 28.675013 240.83958Q28.675013 241.82396 28.206263 242.62083Q27.737513 243.40208 26.893763 243.82396Q26.034388 244.24583 24.971888 244.24583Q23.909388 244.24583 23.050013 243.82396Q22.175013 243.38646 21.721888 242.60521Q21.268763 241.80833 21.268763 240.82396Q21.268763 239.83958 21.737513 239.04271Q22.206263 238.24583 23.050013 237.82396Q23.893763 237.40208 24.971888 237.40208Q25.846888 237.40208 26.550013 237.68333Q27.253138 237.94896 27.784388 238.48021ZM26.565638 240.57396Q26.800013 239.74583 27.253138 239.21458Q26.487513 238.38646 24.971888 238.38646Q24.096888 238.38646 23.456263 238.68333Q22.800013 238.98021 22.440638 239.54271Q22.081263 240.10521 22.081263 240.82396Q22.081263 241.88646 22.815638 242.58958Q23.534388 243.27708 24.971888 243.27708Q26.362513 243.27708 27.112513 242.58958Q27.862513 241.90208 27.862513 240.82396Q27.862513 240.30833 27.675013 239.87083Q27.378138 240.30833 27.253138 240.80833L26.565638 240.57396ZM28.550013 232.62083L27.784388 232.62083Q28.675013 233.23021 28.675013 234.27708Q28.675013 234.73021 28.503138 235.13646Q28.315638 235.52708 28.050013 235.73021Q27.784388 235.91771 27.393763 235.99583Q27.143763 236.04271 26.581263 236.04271L23.362513 236.04271L23.362513 235.16771L26.237513 235.16771Q26.925013 235.16771 27.175013 235.10521Q27.518763 235.02708 27.721888 234.76146Q27.909388 234.49583 27.909388 234.08958Q27.909388 233.69896 27.706263 233.35521Q27.503138 233.01146 27.159388 232.87083Q26.800013 232.71458 26.143763 232.71458L23.362513 232.71458L23.362513 231.83958L28.550013 231.83958L28.550013 232.62083ZM27.909388 226.63646Q28.331263 227.12083 28.503138 227.57396Q28.675013 228.02708 28.675013 228.54271Q28.675013 229.40208 28.253138 229.87083Q27.831263 230.32396 27.175013 230.32396Q26.800013 230.32396 26.487513 230.15208Q26.175013 229.98021 25.987513 229.69896Q25.784388 229.41771 25.690638 229.05833Q25.628138 228.80833 25.565638 228.27708Q25.440638 227.21458 25.253138 226.71458Q25.081263 226.71458 25.034388 226.71458Q24.487513 226.71458 24.268763 226.96458Q23.971888 227.29271 23.971888 227.96458Q23.971888 228.57396 24.190638 228.87083Q24.409388 229.16771 24.956263 229.30833L24.846888 230.16771Q24.284388 230.05833 23.956263 229.79271Q23.612513 229.51146 23.440638 229.01146Q23.253138 228.49583 23.253138 227.82396Q23.253138 227.16771 23.409388 226.76146Q23.565638 226.33958 23.800013 226.15208Q24.034388 225.94896 24.393763 225.87083Q24.612513 225.82396 25.206263 225.82396L26.378138 225.82396Q27.596888 225.82396 27.925013 225.77708Q28.253138 225.71458 28.550013 225.54271L28.550013 226.46458Q28.268763 226.60521 27.909388 226.63646ZM25.940638 226.71458Q26.143763 227.19896 26.284388 228.15208Q26.362513 228.68333 26.456263 228.91771Q26.550013 229.13646 26.737513 229.26146Q26.925013 229.38646 27.159388 229.38646Q27.503138 229.38646 27.737513 229.12083Q27.971888 228.85521 27.971888 228.33958Q27.971888 227.82396 27.753138 227.43333Q27.534388 227.04271 27.143763 226.85521Q26.846888 226.71458 26.268763 226.71458L25.940638 226.71458ZM28.550013 224.02708L23.362513 224.02708L23.362513 223.23021L24.096888 223.23021Q23.253138 222.66771 23.253138 221.58958Q23.253138 221.12083 23.425013 220.73021Q23.581263 220.32396 23.862513 220.13646Q24.128138 219.93333 24.503138 219.85521Q24.753138 219.80833 25.362513 219.80833L28.550013 219.80833L28.550013 220.68333L25.393763 220.68333Q24.862513 220.68333 24.596888 220.79271Q24.331263 220.88646 24.175013 221.15208Q24.003138 221.41771 24.003138 221.76146Q24.003138 222.32396 24.362513 222.74583Q24.721888 223.15208 25.721888 223.15208L28.550013 223.15208L28.550013 224.02708ZM27.768763 216.10521L28.534388 215.98021Q28.612513 216.35521 28.612513 216.63646Q28.612513 217.12083 28.471888 217.38646Q28.315638 217.65208 28.065638 217.76146Q27.815638 217.85521 27.034388 217.85521L24.050013 217.85521L24.050013 218.51146L23.362513 218.51146L23.362513 217.85521L22.081263 217.85521L21.550013 216.99583L23.362513 216.99583L23.362513 216.10521L24.050013 216.10521L24.050013 216.99583L27.081263 216.99583Q27.456263 216.99583 27.565638 216.94896Q27.675013 216.90208 27.737513 216.79271Q27.800013 216.68333 27.800013 216.49583Q27.800013 216.33958 27.768763 216.10521ZM22.409388 215.01146L21.393763 215.01146L21.393763 214.13646L22.409388 214.13646L22.409388 215.01146ZM28.550013 215.01146L23.362513 215.01146L23.362513 214.13646L28.550013 214.13646L28.550013 215.01146ZM28.550013 208.65208L27.893763 208.65208Q28.675013 209.15208 28.675013 210.10521Q28.675013 210.73021 28.331263 211.26146Q27.987513 211.77708 27.378138 212.05833Q26.753138 212.33958 25.956263 212.33958Q25.190638 212.33958 24.565638 212.08958Q23.925013 211.82396 23.596888 211.30833Q23.253138 210.79271 23.253138 210.15208Q23.253138 209.68333 23.456263 209.32396Q23.643763 208.94896 23.956263 208.71458L21.393763 208.71458L21.393763 207.83958L28.550013 207.83958L28.550013 208.65208ZM25.956263 211.43333Q26.956263 211.43333 27.456263 211.02708Q27.940638 210.60521 27.940638 210.02708Q27.940638 209.44896 27.471888 209.05833Q27.003138 208.65208 26.034388 208.65208Q24.971888 208.65208 24.471888 209.05833Q23.971888 209.46458 23.971888 210.05833Q23.971888 210.65208 24.456263 211.04271Q24.925013 211.43333 25.956263 211.43333ZM27.909388 202.63646Q28.331263 203.12083 28.503138 203.57396Q28.675013 204.02708 28.675013 204.54271Q28.675013 205.40208 28.253138 205.87083Q27.831263 206.32396 27.175013 206.32396Q26.800013 206.32396 26.487513 206.15208Q26.175013 205.98021 25.987513 205.69896Q25.784388 205.41771 25.690638 205.05833Q25.628138 204.80833 25.565638 204.27708Q25.440638 203.21458 25.253138 202.71458Q25.081263 202.71458 25.034388 202.71458Q24.487513 202.71458 24.268763 202.96458Q23.971888 203.29271 23.971888 203.96458Q23.971888 204.57396 24.190638 204.87083Q24.409388 205.16771 24.956263 205.30833L24.846888 206.16771Q24.284388 206.05833 23.956263 205.79271Q23.612513 205.51146 23.440638 205.01146Q23.253138 204.49583 23.253138 203.82396Q23.253138 203.16771 23.409388 202.76146Q23.565638 202.33958 23.800013 202.15208Q24.034388 201.94896 24.393763 201.87083Q24.612513 201.82396 25.206263 201.82396L26.378138 201.82396Q27.596888 201.82396 27.925013 201.77708Q28.253138 201.71458 28.550013 201.54271L28.550013 202.46458Q28.268763 202.60521 27.909388 202.63646ZM25.940638 202.71458Q26.143763 203.19896 26.284388 204.15208Q26.362513 204.68333 26.456263 204.91771Q26.550013 205.13646 26.737513 205.26146Q26.925013 205.38646 27.159388 205.38646Q27.503138 205.38646 27.737513 205.12083Q27.971888 204.85521 27.971888 204.33958Q27.971888 203.82396 27.753138 203.43333Q27.534388 203.04271 27.143763 202.85521Q26.846888 202.71458 26.268763 202.71458L25.940638 202.71458ZM28.550013 196.65208L27.893763 196.65208Q28.675013 197.15208 28.675013 198.10521Q28.675013 198.73021 28.331263 199.26146Q27.987513 199.77708 27.378138 200.05833Q26.753138 200.33958 25.956263 200.33958Q25.190638 200.33958 24.565638 200.08958Q23.925013 199.82396 23.596888 199.30833Q23.253138 198.79271 23.253138 198.15208Q23.253138 197.68333 23.456263 197.32396Q23.643763 196.94896 23.956263 196.71458L21.393763 196.71458L21.393763 195.83958L28.550013 195.83958L28.550013 196.65208ZM25.956263 199.43333Q26.956263 199.43333 27.456263 199.02708Q27.940638 198.60521 27.940638 198.02708Q27.940638 197.44896 27.471888 197.05833Q27.003138 196.65208 26.034388 196.65208Q24.971888 196.65208 24.471888 197.05833Q23.971888 197.46458 23.971888 198.05833Q23.971888 198.65208 24.456263 199.04271Q24.925013 199.43333 25.956263 199.43333ZM26.878138 190.48021L26.987513 189.55833Q27.784388 189.77708 28.237513 190.37083Q28.675013 190.94896 28.675013 191.83958Q28.675013 192.98021 27.971888 193.65208Q27.268763 194.32396 26.003138 194.32396Q24.690638 194.32396 23.971888 193.65208Q23.253138 192.96458 23.253138 191.90208Q23.253138 190.85521 23.956263 190.19896Q24.659388 189.54271 25.940638 189.54271Q26.018763 189.54271 26.175013 189.54271L26.175013 193.40208Q27.034388 193.35521 27.487513 192.93333Q27.940638 192.49583 27.940638 191.83958Q27.940638 191.35521 27.690638 191.01146Q27.440638 190.66771 26.878138 190.48021ZM25.456263 193.35521L25.456263 190.46458Q24.800013 190.52708 24.471888 190.79271Q23.971888 191.21458 23.971888 191.88646Q23.971888 192.49583 24.378138 192.90208Q24.784388 193.30833 25.456263 193.35521ZM28.550013 181.65208L27.893763 181.65208Q28.675013 182.15208 28.675013 183.10521Q28.675013 183.73021 28.331263 184.26146Q27.987513 184.77708 27.378138 185.05833Q26.753138 185.33958 25.956263 185.33958Q25.190638 185.33958 24.565638 185.08958Q23.925013 184.82396 23.596888 184.30833Q23.253138 183.79271 23.253138 183.15208Q23.253138 182.68333 23.456263 182.32396Q23.643763 181.94896 23.956263 181.71458L21.393763 181.71458L21.393763 180.83958L28.550013 180.83958L28.550013 181.65208ZM25.956263 184.43333Q26.956263 184.43333 27.456263 184.02708Q27.940638 183.60521 27.940638 183.02708Q27.940638 182.44896 27.471888 182.05833Q27.003138 181.65208 26.034388 181.65208Q24.971888 181.65208 24.471888 182.05833Q23.971888 182.46458 23.971888 183.05833Q23.971888 183.65208 24.456263 184.04271Q24.925013 184.43333 25.956263 184.43333ZM26.878138 175.48021L26.987513 174.55833Q27.784388 174.77708 28.237513 175.37083Q28.675013 175.94896 28.675013 176.83958Q28.675013 177.98021 27.971888 178.65208Q27.268763 179.32396 26.003138 179.32396Q24.690638 179.32396 23.971888 178.65208Q23.253138 177.96458 23.253138 176.90208Q23.253138 175.85521 23.956263 175.19896Q24.659388 174.54271 25.940638 174.54271Q26.018763 174.54271 26.175013 174.54271L26.175013 178.40208Q27.034388 178.35521 27.487513 177.93333Q27.940638 177.49583 27.940638 176.83958Q27.940638 176.35521 27.690638 176.01146Q27.440638 175.66771 26.878138 175.48021ZM25.456263 178.35521L25.456263 175.46458Q24.800013 175.52708 24.471888 175.79271Q23.971888 176.21458 23.971888 176.88646Q23.971888 177.49583 24.378138 177.90208Q24.784388 178.30833 25.456263 178.35521ZM30.534388 170.02708L23.362513 170.02708L23.362513 169.23021L24.034388 169.23021Q23.643763 168.93333 23.456263 168.58958Q23.253138 168.23021 23.253138 167.71458Q23.253138 167.05833 23.596888 166.55833Q23.925013 166.04271 24.550013 165.79271Q25.175013 165.52708 25.925013 165.52708Q26.706263 165.52708 27.346888 165.80833Q27.987513 166.08958 28.331263 166.63646Q28.675013 167.18333 28.675013 167.77708Q28.675013 168.21458 28.487513 168.57396Q28.300013 168.91771 28.018763 169.15208L30.534388 169.15208L30.534388 170.02708ZM25.987513 169.23021Q26.987513 169.23021 27.471888 168.82396Q27.940638 168.41771 27.940638 167.83958Q27.940638 167.26146 27.456263 166.83958Q26.956263 166.41771 25.909388 166.41771Q24.925013 166.41771 24.440638 166.82396Q23.940638 167.23021 23.940638 167.80833Q23.940638 168.37083 24.471888 168.80833Q24.987513 169.23021 25.987513 169.23021ZM26.878138 160.48021L26.987513 159.55833Q27.784388 159.77708 28.237513 160.37083Q28.675013 160.94896 28.675013 161.83958Q28.675013 162.98021 27.971888 163.65208Q27.268763 164.32396 26.003138 164.32396Q24.690638 164.32396 23.971888 163.65208Q23.253138 162.96458 23.253138 161.90208Q23.253138 160.85521 23.956263 160.19896Q24.659388 159.54271 25.940638 159.54271Q26.018763 159.54271 26.175013 159.54271L26.175013 163.40208Q27.034388 163.35521 27.487513 162.93333Q27.940638 162.49583 27.940638 161.83958Q27.940638 161.35521 27.690638 161.01146Q27.440638 160.66771 26.878138 160.48021ZM25.456263 163.35521L25.456263 160.46458Q24.800013 160.52708 24.471888 160.79271Q23.971888 161.21458 23.971888 161.88646Q23.971888 162.49583 24.378138 162.90208Q24.784388 163.30833 25.456263 163.35521ZM27.003138 158.37083L26.862513 157.51146Q27.393763 157.43333 27.675013 157.10521Q27.940638 156.76146 27.940638 156.16771Q27.940638 155.55833 27.706263 155.26146Q27.456263 154.96458 27.112513 154.96458Q26.815638 154.96458 26.643763 155.23021Q26.534388 155.41771 26.346888 156.13646Q26.112513 157.08958 25.940638 157.46458Q25.753138 157.83958 25.440638 158.04271Q25.128138 158.23021 24.737513 158.23021Q24.393763 158.23021 24.096888 158.07396Q23.800013 157.91771 23.612513 157.63646Q23.456263 157.43333 23.362513 157.08958Q23.253138 156.73021 23.253138 156.32396Q23.253138 155.71458 23.425013 155.26146Q23.596888 154.79271 23.909388 154.57396Q24.206263 154.33958 24.706263 154.26146L24.815638 155.12083Q24.425013 155.18333 24.206263 155.46458Q23.971888 155.74583 23.971888 156.26146Q23.971888 156.85521 24.175013 157.12083Q24.362513 157.38646 24.643763 157.38646Q24.815638 157.38646 24.940638 157.27708Q25.081263 157.16771 25.175013 156.93333Q25.221888 156.80833 25.409388 156.15208Q25.659388 155.23021 25.815638 154.87083Q25.971888 154.49583 26.284388 154.29271Q26.581263 154.07396 27.018763 154.07396Q27.471888 154.07396 27.862513 154.32396Q28.237513 154.57396 28.456263 155.05833Q28.675013 155.54271 28.675013 156.15208Q28.675013 157.16771 28.253138 157.69896Q27.831263 158.23021 27.003138 158.37083ZM27.003138 154.37083L26.862513 153.51146Q27.393763 153.43333 27.675013 153.10521Q27.940638 152.76146 27.940638 152.16771Q27.940638 151.55833 27.706263 151.26146Q27.456263 150.96458 27.112513 150.96458Q26.815638 150.96458 26.643763 151.23021Q26.534388 151.41771 26.346888 152.13646Q26.112513 153.08958 25.940638 153.46458Q25.753138 153.83958 25.440638 154.04271Q25.128138 154.23021 24.737513 154.23021Q24.393763 154.23021 24.096888 154.07396Q23.800013 153.91771 23.612513 153.63646Q23.456263 153.43333 23.362513 153.08958Q23.253138 152.73021 23.253138 152.32396Q23.253138 151.71458 23.425013 151.26146Q23.596888 150.79271 23.909388 150.57396Q24.206263 150.33958 24.706263 150.26146L24.815638 151.12083Q24.425013 151.18333 24.206263 151.46458Q23.971888 151.74583 23.971888 152.26146Q23.971888 152.85521 24.175013 153.12083Q24.362513 153.38646 24.643763 153.38646Q24.815638 153.38646 24.940638 153.27708Q25.081263 153.16771 25.175013 152.93333Q25.221888 152.80833 25.409388 152.15208Q25.659388 151.23021 25.815638 150.87083Q25.971888 150.49583 26.284388 150.29271Q26.581263 150.07396 27.018763 150.07396Q27.471888 150.07396 27.862513 150.32396Q28.237513 150.57396 28.456263 151.05833Q28.675013 151.54271 28.675013 152.15208Q28.675013 153.16771 28.253138 153.69896Q27.831263 154.23021 27.003138 154.37083ZM25.956263 150.35521Q24.518763 150.35521 23.815638 149.54271Q23.253138 148.88646 23.253138 147.91771Q23.253138 146.85521 23.956263 146.18333Q24.643763 145.49583 25.878138 145.49583Q26.878138 145.49583 27.456263 145.79271Q28.034388 146.08958 28.362513 146.66771Q28.675013 147.24583 28.675013 147.91771Q28.675013 149.01146 27.971888 149.68333Q27.268763 150.35521 25.956263 150.35521ZM25.956263 149.44896Q26.956263 149.44896 27.456263 149.01146Q27.940638 148.57396 27.940638 147.91771Q27.940638 147.26146 27.440638 146.83958Q26.940638 146.40208 25.925013 146.40208Q24.971888 146.40208 24.471888 146.83958Q23.971888 147.27708 23.971888 147.91771Q23.971888 148.57396 24.471888 149.01146Q24.956263 149.44896 25.956263 149.44896ZM27.909388 140.63646Q28.331263 141.12083 28.503138 141.57396Q28.675013 142.02708 28.675013 142.54271Q28.675013 143.40208 28.253138 143.87083Q27.831263 144.32396 27.175013 144.32396Q26.800013 144.32396 26.487513 144.15208Q26.175013 143.98021 25.987513 143.69896Q25.784388 143.41771 25.690638 143.05833Q25.628138 142.80833 25.565638 142.27708Q25.440638 141.21458 25.253138 140.71458Q25.081263 140.71458 25.034388 140.71458Q24.487513 140.71458 24.268763 140.96458Q23.971888 141.29271 23.971888 141.96458Q23.971888 142.57396 24.190638 142.87083Q24.409388 143.16771 24.956263 143.30833L24.846888 144.16771Q24.284388 144.05833 23.956263 143.79271Q23.612513 143.51146 23.440638 143.01146Q23.253138 142.49583 23.253138 141.82396Q23.253138 141.16771 23.409388 140.76146Q23.565638 140.33958 23.800013 140.15208Q24.034388 139.94896 24.393763 139.87083Q24.612513 139.82396 25.206263 139.82396L26.378138 139.82396Q27.596888 139.82396 27.925013 139.77708Q28.253138 139.71458 28.550013 139.54271L28.550013 140.46458Q28.268763 140.60521 27.909388 140.63646ZM25.940638 140.71458Q26.143763 141.19896 26.284388 142.15208Q26.362513 142.68333 26.456263 142.91771Q26.550013 143.13646 26.737513 143.26146Q26.925013 143.38646 27.159388 143.38646Q27.503138 143.38646 27.737513 143.12083Q27.971888 142.85521 27.971888 142.33958Q27.971888 141.82396 27.753138 141.43333Q27.534388 141.04271 27.143763 140.85521Q26.846888 140.71458 26.268763 140.71458L25.940638 140.71458ZM27.003138 138.37083L26.862513 137.51146Q27.393763 137.43333 27.675013 137.10521Q27.940638 136.76146 27.940638 136.16771Q27.940638 135.55833 27.706263 135.26146Q27.456263 134.96458 27.112513 134.96458Q26.815638 134.96458 26.643763 135.23021Q26.534388 135.41771 26.346888 136.13646Q26.112513 137.08958 25.940638 137.46458Q25.753138 137.83958 25.440638 138.04271Q25.128138 138.23021 24.737513 138.23021Q24.393763 138.23021 24.096888 138.07396Q23.800013 137.91771 23.612513 137.63646Q23.456263 137.43333 23.362513 137.08958Q23.253138 136.73021 23.253138 136.32396Q23.253138 135.71458 23.425013 135.26146Q23.596888 134.79271 23.909388 134.57396Q24.206263 134.33958 24.706263 134.26146L24.815638 135.12083Q24.425013 135.18333 24.206263 135.46458Q23.971888 135.74583 23.971888 136.26146Q23.971888 136.85521 24.175013 137.12083Q24.362513 137.38646 24.643763 137.38646Q24.815638 137.38646 24.940638 137.27708Q25.081263 137.16771 25.175013 136.93333Q25.221888 136.80833 25.409388 136.15208Q25.659388 135.23021 25.815638 134.87083Q25.971888 134.49583 26.284388 134.29271Q26.581263 134.07396 27.018763 134.07396Q27.471888 134.07396 27.862513 134.32396Q28.237513 134.57396 28.456263 135.05833Q28.675013 135.54271 28.675013 136.15208Q28.675013 137.16771 28.253138 137.69896Q27.831263 138.23021 27.003138 138.37083Z" fill-rule="nonzero"/><path fill="#555555" d="M64.97188 306.41876Q64.97188 305.15314 65.22188 304.3875Q65.4875 303.60626 66.00313 303.1844Q66.51875 302.7625 67.3 302.7625Q67.87813 302.7625 68.3 302.9969Q68.7375 303.23126 69.01875 303.66876Q69.31563 304.10626 69.47188 304.73126Q69.62813 305.35626 69.62813 306.41876Q69.62813 307.6844 69.3625 308.46564Q69.1125 309.23126 68.59688 309.65314Q68.08125 310.075 67.3 310.075Q66.26875 310.075 65.675 309.325Q64.97188 308.4344 64.97188 306.41876ZM65.8625 306.41876Q65.8625 308.1844 66.26875 308.77814Q66.69063 309.35626 67.3 309.35626Q67.90938 309.35626 68.31563 308.77814Q68.7375 308.1844 68.7375 306.41876Q68.7375 304.65314 68.31563 304.075Q67.90938 303.4969 67.28438 303.4969Q66.69063 303.4969 66.31563 303.9969Q65.8625 304.65314 65.8625 306.41876Z" fill-rule="nonzero"/><path fill="#555555" d="M57.58125 247.84792L57.58125 248.69167L52.846874 248.69167Q52.846874 248.37917 52.95625 248.08229Q53.14375 247.59792 53.534374 247.12917Q53.925 246.66042 54.690624 246.05104Q55.846874 245.08229 56.253124 244.53542Q56.675 243.97292 56.675 243.47292Q56.675 242.94167 56.3 242.59792Q55.925 242.23854 55.33125 242.23854Q54.690624 242.23854 54.3 242.61354Q53.925 242.98854 53.925 243.66042L53.01875 243.56667Q53.1125 242.56667 53.70625 242.03542Q54.315624 241.50417 55.346874 241.50417Q56.378124 241.50417 56.971874 242.08229Q57.58125 242.64479 57.58125 243.48854Q57.58125 243.92604 57.39375 244.34792Q57.221874 244.75417 56.815624 245.22292Q56.409374 245.67604 55.45625 246.47292Q54.675 247.12917 54.440624 247.37917Q54.221874 247.61354 54.08125 247.84792L57.58125 247.84792ZM58.971874 246.81667L59.89375 246.73854Q59.9875 247.41042 60.3625 247.75417Q60.7375 248.09792 61.26875 248.09792Q61.89375 248.09792 62.33125 247.61354Q62.784374 247.12917 62.784374 246.34792Q62.784374 245.59792 62.3625 245.16042Q61.940624 244.72292 61.253124 244.72292Q60.83125 244.72292 60.4875 244.92604Q60.14375 245.11354 59.940624 245.41042L59.128124 245.30104L59.815624 241.62917L63.378124 241.62917L63.378124 242.47292L60.51875 242.47292L60.128124 244.39479Q60.784374 243.94167 61.4875 243.94167Q62.425 243.94167 63.065624 244.59792Q63.70625 245.23854 63.70625 246.26979Q63.70625 247.23854 63.14375 247.94167Q62.45625 248.81667 61.26875 248.81667Q60.284374 248.81667 59.659374 248.26979Q59.05 247.72292 58.971874 246.81667ZM64.97188 245.16042Q64.97188 243.89479 65.22188 243.12917Q65.4875 242.34792 66.00313 241.92604Q66.51875 241.50417 67.3 241.50417Q67.87813 241.50417 68.3 241.73854Q68.7375 241.97292 69.01875 242.41042Q69.31563 242.84792 69.47188 243.47292Q69.62813 244.09792 69.62813 245.16042Q69.62813 246.42604 69.3625 247.20729Q69.1125 247.97292 68.59688 248.39479Q68.08125 248.81667 67.3 248.81667Q66.26875 248.81667 65.675 248.06667Q64.97188 247.17604 64.97188 245.16042ZM65.8625 245.16042Q65.8625 246.92604 66.26875 247.51979Q66.69063 248.09792 67.3 248.09792Q67.90938 248.09792 68.31563 247.51979Q68.7375 246.92604 68.7375 245.16042Q68.7375 243.39479 68.31563 242.81667Q67.90938 242.23854 67.28438 242.23854Q66.69063 242.23854 66.31563 242.73854Q65.8625 243.39479 65.8625 245.16042Z" fill-rule="nonzero"/><path fill="#555555" d="M52.971874 185.55833L53.89375 185.48021Q53.9875 186.15208 54.3625 186.49583Q54.7375 186.83958 55.26875 186.83958Q55.89375 186.83958 56.33125 186.35521Q56.784374 185.87083 56.784374 185.08958Q56.784374 184.33958 56.3625 183.90208Q55.940624 183.46458 55.253124 183.46458Q54.83125 183.46458 54.4875 183.66771Q54.14375 183.85521 53.940624 184.15208L53.128124 184.04271L53.815624 180.37083L57.378124 180.37083L57.378124 181.21458L54.51875 181.21458L54.128124 183.13646Q54.784374 182.68333 55.4875 182.68333Q56.425 182.68333 57.065624 183.33958Q57.70625 183.98021 57.70625 185.01146Q57.70625 185.98021 57.14375 186.68333Q56.45625 187.55833 55.26875 187.55833Q54.284374 187.55833 53.659374 187.01146Q53.05 186.46458 52.971874 185.55833ZM58.971874 183.90208Q58.971874 182.63646 59.221874 181.87083Q59.4875 181.08958 60.003124 180.66771Q60.51875 180.24583 61.3 180.24583Q61.878124 180.24583 62.3 180.48021Q62.7375 180.71458 63.01875 181.15208Q63.315624 181.58958 63.471874 182.21458Q63.628124 182.83958 63.628124 183.90208Q63.628124 185.16771 63.3625 185.94896Q63.1125 186.71458 62.596874 187.13646Q62.08125 187.55833 61.3 187.55833Q60.26875 187.55833 59.675 186.80833Q58.971874 185.91771 58.971874 183.90208ZM59.8625 183.90208Q59.8625 185.66771 60.26875 186.26146Q60.690624 186.83958 61.3 186.83958Q61.909374 186.83958 62.315624 186.26146Q62.7375 185.66771 62.7375 183.90208Q62.7375 182.13646 62.315624 181.55833Q61.909374 180.98021 61.284374 180.98021Q60.690624 180.98021 60.315624 181.48021Q59.8625 182.13646 59.8625 183.90208ZM64.97188 183.90208Q64.97188 182.63646 65.22188 181.87083Q65.4875 181.08958 66.00313 180.66771Q66.51875 180.24583 67.3 180.24583Q67.87813 180.24583 68.3 180.48021Q68.7375 180.71458 69.01875 181.15208Q69.31563 181.58958 69.47188 182.21458Q69.62813 182.83958 69.62813 183.90208Q69.62813 185.16771 69.3625 185.94896Q69.1125 186.71458 68.59688 187.13646Q68.08125 187.55833 67.3 187.55833Q66.26875 187.55833 65.675 186.80833Q64.97188 185.91771 64.97188 183.90208ZM65.8625 183.90208Q65.8625 185.66771 66.26875 186.26146Q66.69063 186.83958 67.3 186.83958Q67.90938 186.83958 68.31563 186.26146Q68.7375 185.66771 68.7375 183.90208Q68.7375 182.13646 68.31563 181.55833Q67.90938 180.98021 67.28438 180.98021Q66.69063 180.98021 66.31563 181.48021Q65.8625 182.13646 65.8625 183.90208Z" fill-rule="nonzero"/><path fill="#555555" d="M53.01875 119.95625L53.01875 119.1125L57.659374 119.1125L57.659374 119.8Q56.971874 120.51875 56.3 121.72188Q55.628124 122.925 55.26875 124.20625Q55.003124 125.1125 54.925 126.175L54.01875 126.175Q54.034374 125.33125 54.346874 124.14375Q54.675 122.94063 55.26875 121.83125Q55.8625 120.72188 56.534374 119.95625L53.01875 119.95625ZM58.971874 124.3L59.89375 124.22188Q59.9875 124.89375 60.3625 125.2375Q60.7375 125.58125 61.26875 125.58125Q61.89375 125.58125 62.33125 125.09688Q62.784374 124.6125 62.784374 123.83125Q62.784374 123.08125 62.3625 122.64375Q61.940624 122.20625 61.253124 122.20625Q60.83125 122.20625 60.4875 122.40938Q60.14375 122.59688 59.940624 122.89375L59.128124 122.78438L59.815624 119.1125L63.378124 119.1125L63.378124 119.95625L60.51875 119.95625L60.128124 121.87813Q60.784374 121.425 61.4875 121.425Q62.425 121.425 63.065624 122.08125Q63.70625 122.72188 63.70625 123.75313Q63.70625 124.72188 63.14375 125.425Q62.45625 126.3 61.26875 126.3Q60.284374 126.3 59.659374 125.75313Q59.05 125.20625 58.971874 124.3ZM64.97188 122.64375Q64.97188 121.37813 65.22188 120.6125Q65.4875 119.83125 66.00313 119.40938Q66.51875 118.9875 67.3 118.9875Q67.87813 118.9875 68.3 119.22188Q68.7375 119.45625 69.01875 119.89375Q69.31563 120.33125 69.47188 120.95625Q69.62813 121.58125 69.62813 122.64375Q69.62813 123.90938 69.3625 124.69063Q69.1125 125.45625 68.59688 125.87813Q68.08125 126.3 67.3 126.3Q66.26875 126.3 65.675 125.55Q64.97188 124.65938 64.97188 122.64375ZM65.8625 122.64375Q65.8625 124.40938 66.26875 125.00313Q66.69063 125.58125 67.3 125.58125Q67.90938 125.58125 68.31563 125.00313Q68.7375 124.40938 68.7375 122.64375Q68.7375 120.87813 68.31563 120.3Q67.90938 119.72188 67.28438 119.72188Q66.69063 119.72188 66.31563 120.22188Q65.8625 120.87813 65.8625 122.64375Z" fill-rule="nonzero"/><path fill="#555555" d="M50.26875 64.916664L49.39375 64.916664L49.39375 59.322914Q49.08125 59.61979 48.565624 59.93229Q48.05 60.229164 47.64375 60.36979L47.64375 59.52604Q48.378124 59.18229 48.925 58.697914Q49.4875 58.197914 49.70625 57.729164L50.26875 57.729164L50.26875 64.916664ZM52.971874 61.385414Q52.971874 60.11979 53.221874 59.354164Q53.4875 58.572914 54.003124 58.15104Q54.51875 57.729164 55.3 57.729164Q55.878124 57.729164 56.3 57.96354Q56.7375 58.197914 57.01875 58.635414Q57.315624 59.072914 57.471874 59.697914Q57.628124 60.322914 57.628124 61.385414Q57.628124 62.65104 57.3625 63.43229Q57.1125 64.197914 56.596874 64.61979Q56.08125 65.041664 55.3 65.041664Q54.26875 65.041664 53.675 64.291664Q52.971874 63.40104 52.971874 61.385414ZM53.8625 61.385414Q53.8625 63.15104 54.26875 63.74479Q54.690624 64.322914 55.3 64.322914Q55.909374 64.322914 56.315624 63.74479Q56.7375 63.15104 56.7375 61.385414Q56.7375 59.61979 56.315624 59.041664Q55.909374 58.46354 55.284374 58.46354Q54.690624 58.46354 54.315624 58.96354Q53.8625 59.61979 53.8625 61.385414ZM58.971874 61.385414Q58.971874 60.11979 59.221874 59.354164Q59.4875 58.572914 60.003124 58.15104Q60.51875 57.729164 61.3 57.729164Q61.878124 57.729164 62.3 57.96354Q62.7375 58.197914 63.01875 58.635414Q63.315624 59.072914 63.471874 59.697914Q63.628124 60.322914 63.628124 61.385414Q63.628124 62.65104 63.3625 63.43229Q63.1125 64.197914 62.596874 64.61979Q62.08125 65.041664 61.3 65.041664Q60.26875 65.041664 59.675 64.291664Q58.971874 63.40104 58.971874 61.385414ZM59.8625 61.385414Q59.8625 63.15104 60.26875 63.74479Q60.690624 64.322914 61.3 64.322914Q61.909374 64.322914 62.315624 63.74479Q62.7375 63.15104 62.7375 61.385414Q62.7375 59.61979 62.315624 59.041664Q61.909374 58.46354 61.284374 58.46354Q60.690624 58.46354 60.315624 58.96354Q59.8625 59.61979 59.8625 61.385414ZM64.97188 61.385414Q64.97188 60.11979 65.22188 59.354164Q65.4875 58.572914 66.00313 58.15104Q66.51875 57.729164 67.3 57.729164Q67.87813 57.729164 68.3 57.96354Q68.7375 58.197914 69.01875 58.635414Q69.31563 59.072914 69.47188 59.697914Q69.62813 60.322914 69.62813 61.385414Q69.62813 62.65104 69.3625 63.43229Q69.1125 64.197914 68.59688 64.61979Q68.08125 65.041664 67.3 65.041664Q66.26875 65.041664 65.675 64.291664Q64.97188 63.40104 64.97188 61.385414ZM65.8625 61.385414Q65.8625 63.15104 66.26875 63.74479Q66.69063 64.322914 67.3 64.322914Q67.90938 64.322914 68.31563 63.74479Q68.7375 63.15104 68.7375 61.385414Q68.7375 59.61979 68.31563 59.041664Q67.90938 58.46354 67.28438 58.46354Q66.69063 58.46354 66.31563 58.96354Q65.8625 59.61979 65.8625 61.385414Z" fill-rule="nonzero"/><path fill="#555555" d="M75.39275 320.60626L75.39275 321.45L70.65838 321.45Q70.65838 321.1375 70.76775 320.84064Q70.95525 320.35626 71.34588 319.8875Q71.7365 319.41876 72.50213 318.8094Q73.65838 317.84064 74.06463 317.29376Q74.4865 316.73126 74.4865 316.23126Q74.4865 315.7 74.1115 315.35626Q73.7365 314.9969 73.14275 314.9969Q72.50213 314.9969 72.1115 315.3719Q71.7365 315.7469 71.7365 316.41876L70.83025 316.325Q70.924 315.325 71.51775 314.79376Q72.12713 314.2625 73.15838 314.2625Q74.18963 314.2625 74.78338 314.84064Q75.39275 315.40314 75.39275 316.2469Q75.39275 316.6844 75.20525 317.10626Q75.03338 317.5125 74.62713 317.98126Q74.22088 318.4344 73.26775 319.23126Q72.4865 319.8875 72.25213 320.1375Q72.03338 320.3719 71.89275 320.60626L75.39275 320.60626ZM76.78338 317.91876Q76.78338 316.65314 77.03338 315.8875Q77.299 315.10626 77.81463 314.6844Q78.33025 314.2625 79.1115 314.2625Q79.68963 314.2625 80.1115 314.4969Q80.549 314.73126 80.83025 315.16876Q81.12713 315.60626 81.28338 316.23126Q81.43963 316.85626 81.43963 317.91876Q81.43963 319.1844 81.174 319.96564Q80.924 320.73126 80.40838 321.15314Q79.89275 321.575 79.1115 321.575Q78.08025 321.575 77.4865 320.825Q76.78338 319.9344 76.78338 317.91876ZM77.674 317.91876Q77.674 319.6844 78.08025 320.27814Q78.50213 320.85626 79.1115 320.85626Q79.72088 320.85626 80.12713 320.27814Q80.549 319.6844 80.549 317.91876Q80.549 316.15314 80.12713 315.575Q79.72088 314.9969 79.09588 314.9969Q78.50213 314.9969 78.12713 315.4969Q77.674 316.15314 77.674 317.91876ZM86.08025 321.45L85.20525 321.45L85.20525 315.85626Q84.89275 316.15314 84.37713 316.46564Q83.8615 316.7625 83.45525 316.90314L83.45525 316.0594Q84.18963 315.71564 84.7365 315.23126Q85.299 314.73126 85.51775 314.2625L86.08025 314.2625L86.08025 321.45ZM88.90838 319.79376L89.75213 319.71564Q89.8615 320.3094 90.15838 320.59064Q90.47088 320.85626 90.93963 320.85626Q91.34588 320.85626 91.64275 320.66876Q91.95525 320.48126 92.14275 320.16876Q92.34588 319.85626 92.47088 319.34064Q92.6115 318.8094 92.6115 318.2625Q92.6115 318.2 92.6115 318.075Q92.34588 318.4969 91.87713 318.7625Q91.424 319.02814 90.89275 319.02814Q90.00213 319.02814 89.39275 318.3875Q88.78338 317.73126 88.78338 316.6844Q88.78338 315.59064 89.424 314.9344Q90.06463 314.2625 91.03338 314.2625Q91.72088 314.2625 92.299 314.6375Q92.87713 315.0125 93.174 315.71564Q93.4865 316.40314 93.4865 317.73126Q93.4865 319.09064 93.18963 319.90314Q92.89275 320.71564 92.299 321.15314Q91.70525 321.575 90.924 321.575Q90.08025 321.575 89.549 321.10626Q89.01775 320.6375 88.90838 319.79376ZM92.50213 316.6375Q92.50213 315.8719 92.09588 315.4344Q91.70525 314.9969 91.14275 314.9969Q90.549 314.9969 90.1115 315.48126Q89.674 315.95 89.674 316.71564Q89.674 317.3875 90.08025 317.825Q90.50213 318.2469 91.1115 318.2469Q91.72088 318.2469 92.1115 317.825Q92.50213 317.3875 92.50213 316.6375Z" fill-rule="nonzero"/><path fill="#555555" d="M198.462 320.60626L198.462 321.45L193.72763 321.45Q193.72763 321.1375 193.837 320.84064Q194.0245 320.35626 194.41513 319.8875Q194.80576 319.41876 195.57138 318.8094Q196.72763 317.84064 197.13388 317.29376Q197.55576 316.73126 197.55576 316.23126Q197.55576 315.7 197.18076 315.35626Q196.80576 314.9969 196.212 314.9969Q195.57138 314.9969 195.18076 315.3719Q194.80576 315.7469 194.80576 316.41876L193.8995 316.325Q193.99326 315.325 194.587 314.79376Q195.19638 314.2625 196.22763 314.2625Q197.25888 314.2625 197.85263 314.84064Q198.462 315.40314 198.462 316.2469Q198.462 316.6844 198.2745 317.10626Q198.10263 317.5125 197.69638 317.98126Q197.29013 318.4344 196.337 319.23126Q195.55576 319.8875 195.32138 320.1375Q195.10263 320.3719 194.962 320.60626L198.462 320.60626ZM199.85263 317.91876Q199.85263 316.65314 200.10263 315.8875Q200.36826 315.10626 200.88388 314.6844Q201.3995 314.2625 202.18076 314.2625Q202.75888 314.2625 203.18076 314.4969Q203.61826 314.73126 203.8995 315.16876Q204.19638 315.60626 204.35263 316.23126Q204.50888 316.85626 204.50888 317.91876Q204.50888 319.1844 204.24326 319.96564Q203.99326 320.73126 203.47763 321.15314Q202.962 321.575 202.18076 321.575Q201.1495 321.575 200.55576 320.825Q199.85263 319.9344 199.85263 317.91876ZM200.74326 317.91876Q200.74326 319.6844 201.1495 320.27814Q201.57138 320.85626 202.18076 320.85626Q202.79013 320.85626 203.19638 320.27814Q203.61826 319.6844 203.61826 317.91876Q203.61826 316.15314 203.19638 315.575Q202.79013 314.9969 202.16513 314.9969Q201.57138 314.9969 201.19638 315.4969Q200.74326 316.15314 200.74326 317.91876ZM210.462 320.60626L210.462 321.45L205.72763 321.45Q205.72763 321.1375 205.837 320.84064Q206.0245 320.35626 206.41513 319.8875Q206.80576 319.41876 207.57138 318.8094Q208.72763 317.84064 209.13388 317.29376Q209.55576 316.73126 209.55576 316.23126Q209.55576 315.7 209.18076 315.35626Q208.80576 314.9969 208.212 314.9969Q207.57138 314.9969 207.18076 315.3719Q206.80576 315.7469 206.80576 316.41876L205.8995 316.325Q205.99326 315.325 206.587 314.79376Q207.19638 314.2625 208.22763 314.2625Q209.25888 314.2625 209.85263 314.84064Q210.462 315.40314 210.462 316.2469Q210.462 316.6844 210.2745 317.10626Q210.10263 317.5125 209.69638 317.98126Q209.29013 318.4344 208.337 319.23126Q207.55576 319.8875 207.32138 320.1375Q207.10263 320.3719 206.962 320.60626L210.462 320.60626ZM211.85263 317.91876Q211.85263 316.65314 212.10263 315.8875Q212.36826 315.10626 212.88388 314.6844Q213.3995 314.2625 214.18076 314.2625Q214.75888 314.2625 215.18076 314.4969Q215.61826 314.73126 215.8995 315.16876Q216.19638 315.60626 216.35263 316.23126Q216.50888 316.85626 216.50888 317.91876Q216.50888 319.1844 216.24326 319.96564Q215.99326 320.73126 215.47763 321.15314Q214.962 321.575 214.18076 321.575Q213.1495 321.575 212.55576 320.825Q211.85263 319.9344 211.85263 317.91876ZM212.74326 317.91876Q212.74326 319.6844 213.1495 320.27814Q213.57138 320.85626 214.18076 320.85626Q214.79013 320.85626 215.19638 320.27814Q215.61826 319.6844 215.61826 317.91876Q215.61826 316.15314 215.19638 315.575Q214.79013 314.9969 214.16513 314.9969Q213.57138 314.9969 213.19638 315.4969Q212.74326 316.15314 212.74326 317.91876Z" fill-rule="nonzero"/><path fill="#555555" d="M321.53125 320.60626L321.53125 321.45L316.79688 321.45Q316.79688 321.1375 316.90625 320.84064Q317.09375 320.35626 317.48438 319.8875Q317.875 319.41876 318.64062 318.8094Q319.79688 317.84064 320.20312 317.29376Q320.625 316.73126 320.625 316.23126Q320.625 315.7 320.25 315.35626Q319.875 314.9969 319.28125 314.9969Q318.64062 314.9969 318.25 315.3719Q317.875 315.7469 317.875 316.41876L316.96875 316.325Q317.0625 315.325 317.65625 314.79376Q318.26562 314.2625 319.29688 314.2625Q320.32812 314.2625 320.92188 314.84064Q321.53125 315.40314 321.53125 316.2469Q321.53125 316.6844 321.34375 317.10626Q321.17188 317.5125 320.76562 317.98126Q320.35938 318.4344 319.40625 319.23126Q318.625 319.8875 318.39062 320.1375Q318.17188 320.3719 318.03125 320.60626L321.53125 320.60626ZM322.92188 317.91876Q322.92188 316.65314 323.17188 315.8875Q323.4375 315.10626 323.95312 314.6844Q324.46875 314.2625 325.25 314.2625Q325.82812 314.2625 326.25 314.4969Q326.6875 314.73126 326.96875 315.16876Q327.26562 315.60626 327.42188 316.23126Q327.57812 316.85626 327.57812 317.91876Q327.57812 319.1844 327.3125 319.96564Q327.0625 320.73126 326.54688 321.15314Q326.03125 321.575 325.25 321.575Q324.21875 321.575 323.625 320.825Q322.92188 319.9344 322.92188 317.91876ZM323.8125 317.91876Q323.8125 319.6844 324.21875 320.27814Q324.64062 320.85626 325.25 320.85626Q325.85938 320.85626 326.26562 320.27814Q326.6875 319.6844 326.6875 317.91876Q326.6875 316.15314 326.26562 315.575Q325.85938 314.9969 325.23438 314.9969Q324.64062 314.9969 324.26562 315.4969Q323.8125 316.15314 323.8125 317.91876ZM333.53125 320.60626L333.53125 321.45L328.79688 321.45Q328.79688 321.1375 328.90625 320.84064Q329.09375 320.35626 329.48438 319.8875Q329.875 319.41876 330.64062 318.8094Q331.79688 317.84064 332.20312 317.29376Q332.625 316.73126 332.625 316.23126Q332.625 315.7 332.25 315.35626Q331.875 314.9969 331.28125 314.9969Q330.64062 314.9969 330.25 315.3719Q329.875 315.7469 329.875 316.41876L328.96875 316.325Q329.0625 315.325 329.65625 314.79376Q330.26562 314.2625 331.29688 314.2625Q332.32812 314.2625 332.92188 314.84064Q333.53125 315.40314 333.53125 316.2469Q333.53125 316.6844 333.34375 317.10626Q333.17188 317.5125 332.76562 317.98126Q332.35938 318.4344 331.40625 319.23126Q330.625 319.8875 330.39062 320.1375Q330.17188 320.3719 330.03125 320.60626L333.53125 320.60626ZM338.21875 321.45L337.34375 321.45L337.34375 315.85626Q337.03125 316.15314 336.51562 316.46564Q336.0 316.7625 335.59375 316.90314L335.59375 316.0594Q336.32812 315.71564 336.875 315.23126Q337.4375 314.73126 337.65625 314.2625L338.21875 314.2625L338.21875 321.45Z" fill-rule="nonzero"/><path fill="#555555" d="M444.6005 320.60626L444.6005 321.45L439.86612 321.45Q439.86612 321.1375 439.9755 320.84064Q440.163 320.35626 440.55362 319.8875Q440.94424 319.41876 441.70987 318.8094Q442.86612 317.84064 443.27237 317.29376Q443.69424 316.73126 443.69424 316.23126Q443.69424 315.7 443.31924 315.35626Q442.94424 314.9969 442.3505 314.9969Q441.70987 314.9969 441.31924 315.3719Q440.94424 315.7469 440.94424 316.41876L440.038 316.325Q440.13174 315.325 440.7255 314.79376Q441.33487 314.2625 442.36612 314.2625Q443.39737 314.2625 443.99112 314.84064Q444.6005 315.40314 444.6005 316.2469Q444.6005 316.6844 444.413 317.10626Q444.24112 317.5125 443.83487 317.98126Q443.42862 318.4344 442.4755 319.23126Q441.69424 319.8875 441.45987 320.1375Q441.24112 320.3719 441.1005 320.60626L444.6005 320.60626ZM445.99112 317.91876Q445.99112 316.65314 446.24112 315.8875Q446.50674 315.10626 447.02237 314.6844Q447.538 314.2625 448.31924 314.2625Q448.89737 314.2625 449.31924 314.4969Q449.75674 314.73126 450.038 315.16876Q450.33487 315.60626 450.49112 316.23126Q450.64737 316.85626 450.64737 317.91876Q450.64737 319.1844 450.38174 319.96564Q450.13174 320.73126 449.61612 321.15314Q449.1005 321.575 448.31924 321.575Q447.288 321.575 446.69424 320.825Q445.99112 319.9344 445.99112 317.91876ZM446.88174 317.91876Q446.88174 319.6844 447.288 320.27814Q447.70987 320.85626 448.31924 320.85626Q448.92862 320.85626 449.33487 320.27814Q449.75674 319.6844 449.75674 317.91876Q449.75674 316.15314 449.33487 315.575Q448.92862 314.9969 448.30362 314.9969Q447.70987 314.9969 447.33487 315.4969Q446.88174 316.15314 446.88174 317.91876ZM456.6005 320.60626L456.6005 321.45L451.86612 321.45Q451.86612 321.1375 451.9755 320.84064Q452.163 320.35626 452.55362 319.8875Q452.94424 319.41876 453.70987 318.8094Q454.86612 317.84064 455.27237 317.29376Q455.69424 316.73126 455.69424 316.23126Q455.69424 315.7 455.31924 315.35626Q454.94424 314.9969 454.3505 314.9969Q453.70987 314.9969 453.31924 315.3719Q452.94424 315.7469 452.94424 316.41876L452.038 316.325Q452.13174 315.325 452.7255 314.79376Q453.33487 314.2625 454.36612 314.2625Q455.39737 314.2625 455.99112 314.84064Q456.6005 315.40314 456.6005 316.2469Q456.6005 316.6844 456.413 317.10626Q456.24112 317.5125 455.83487 317.98126Q455.42862 318.4344 454.4755 319.23126Q453.69424 319.8875 453.45987 320.1375Q453.24112 320.3719 453.1005 320.60626L456.6005 320.60626ZM462.6005 320.60626L462.6005 321.45L457.86612 321.45Q457.86612 321.1375 457.9755 320.84064Q458.163 320.35626 458.55362 319.8875Q458.94424 319.41876 459.70987 318.8094Q460.86612 317.84064 461.27237 317.29376Q461.69424 316.73126 461.69424 316.23126Q461.69424 315.7 461.31924 315.35626Q460.94424 314.9969 460.3505 314.9969Q459.70987 314.9969 459.31924 315.3719Q458.94424 315.7469 458.94424 316.41876L458.038 316.325Q458.13174 315.325 458.7255 314.79376Q459.33487 314.2625 460.36612 314.2625Q461.39737 314.2625 461.99112 314.84064Q462.6005 315.40314 462.6005 316.2469Q462.6005 316.6844 462.413 317.10626Q462.24112 317.5125 461.83487 317.98126Q461.42862 318.4344 460.4755 319.23126Q459.69424 319.8875 459.45987 320.1375Q459.24112 320.3719 459.1005 320.60626L462.6005 320.60626Z" fill-rule="nonzero"/><path fill="#555555" d="M567.66974 320.60626L567.66974 321.45L562.93536 321.45Q562.93536 321.1375 563.04474 320.84064Q563.23224 320.35626 563.62286 319.8875Q564.0135 319.41876 564.7791 318.8094Q565.93536 317.84064 566.3416 317.29376Q566.7635 316.73126 566.7635 316.23126Q566.7635 315.7 566.3885 315.35626Q566.0135 314.9969 565.41974 314.9969Q564.7791 314.9969 564.3885 315.3719Q564.0135 315.7469 564.0135 316.41876L563.10724 316.325Q563.201 315.325 563.79474 314.79376Q564.4041 314.2625 565.43536 314.2625Q566.4666 314.2625 567.06036 314.84064Q567.66974 315.40314 567.66974 316.2469Q567.66974 316.6844 567.48224 317.10626Q567.31036 317.5125 566.9041 317.98126Q566.49786 318.4344 565.54474 319.23126Q564.7635 319.8875 564.5291 320.1375Q564.31036 320.3719 564.16974 320.60626L567.66974 320.60626ZM569.06036 317.91876Q569.06036 316.65314 569.31036 315.8875Q569.576 315.10626 570.0916 314.6844Q570.60724 314.2625 571.3885 314.2625Q571.9666 314.2625 572.3885 314.4969Q572.826 314.73126 573.10724 315.16876Q573.4041 315.60626 573.56036 316.23126Q573.7166 316.85626 573.7166 317.91876Q573.7166 319.1844 573.451 319.96564Q573.201 320.73126 572.68536 321.15314Q572.16974 321.575 571.3885 321.575Q570.35724 321.575 569.7635 320.825Q569.06036 319.9344 569.06036 317.91876ZM569.951 317.91876Q569.951 319.6844 570.35724 320.27814Q570.7791 320.85626 571.3885 320.85626Q571.99786 320.85626 572.4041 320.27814Q572.826 319.6844 572.826 317.91876Q572.826 316.15314 572.4041 315.575Q571.99786 314.9969 571.37286 314.9969Q570.7791 314.9969 570.4041 315.4969Q569.951 316.15314 569.951 317.91876ZM579.66974 320.60626L579.66974 321.45L574.93536 321.45Q574.93536 321.1375 575.04474 320.84064Q575.23224 320.35626 575.62286 319.8875Q576.0135 319.41876 576.7791 318.8094Q577.93536 317.84064 578.3416 317.29376Q578.7635 316.73126 578.7635 316.23126Q578.7635 315.7 578.3885 315.35626Q578.0135 314.9969 577.41974 314.9969Q576.7791 314.9969 576.3885 315.3719Q576.0135 315.7469 576.0135 316.41876L575.10724 316.325Q575.201 315.325 575.79474 314.79376Q576.4041 314.2625 577.43536 314.2625Q578.4666 314.2625 579.06036 314.84064Q579.66974 315.40314 579.66974 316.2469Q579.66974 316.6844 579.48224 317.10626Q579.31036 317.5125 578.9041 317.98126Q578.49786 318.4344 577.54474 319.23126Q576.7635 319.8875 576.5291 320.1375Q576.31036 320.3719 576.16974 320.60626L579.66974 320.60626ZM581.06036 319.5594L581.93536 319.45Q582.0916 320.1844 582.451 320.52814Q582.81036 320.85626 583.3416 320.85626Q583.9666 320.85626 584.3885 320.4344Q584.81036 319.9969 584.81036 319.35626Q584.81036 318.7469 584.41974 318.35626Q584.0291 317.96564 583.41974 317.96564Q583.16974 317.96564 582.79474 318.0594L582.8885 317.29376Q582.98224 317.29376 583.0291 317.29376Q583.5916 317.29376 584.04474 317.0125Q584.49786 316.71564 584.49786 316.10626Q584.49786 315.6219 584.16974 315.3094Q583.8416 314.98126 583.326 314.98126Q582.81036 314.98126 582.4666 315.3094Q582.12286 315.6219 582.0291 316.27814L581.1541 316.1219Q581.31036 315.23126 581.87286 314.7469Q582.451 314.2625 583.29474 314.2625Q583.8885 314.2625 584.37286 314.5125Q584.87286 314.7625 585.12286 315.2Q585.3885 315.6375 585.3885 316.1219Q585.3885 316.59064 585.1385 316.96564Q584.9041 317.34064 584.4041 317.575Q585.04474 317.71564 585.3885 318.1844Q585.74786 318.6375 585.74786 319.34064Q585.74786 320.27814 585.06036 320.9344Q584.37286 321.575 583.3416 321.575Q582.3885 321.575 581.7635 321.0125Q581.1541 320.45 581.06036 319.5594Z" fill-rule="nonzero"/><path fill="#555555" d="M109.453125 37.55L109.453125 23.2375L120.078125 23.2375L120.078125 25.659374L112.34375 25.659374L112.34375 28.83125L119.53125 28.83125L119.53125 31.2375L112.34375 31.2375L112.34375 35.14375L120.34375 35.14375L120.34375 37.55L109.453125 37.55ZM131.875 37.55L129.125 37.55L129.125 32.253124Q129.125 30.58125 128.95312 30.096874Q128.78125 29.596874 128.375 29.33125Q127.984375 29.05 127.421875 29.05Q126.71875 29.05 126.140625 29.440624Q125.578125 29.83125 125.359375 30.471874Q125.15625 31.1125 125.15625 32.846874L125.15625 37.55L122.421875 37.55L122.421875 27.175L124.96875 27.175L124.96875 28.70625Q126.328125 26.940624 128.39062 26.940624Q129.29688 26.940624 130.04688 27.26875Q130.79688 27.596874 131.17188 28.1125Q131.5625 28.6125 131.71875 29.26875Q131.875 29.909374 131.875 31.096874L131.875 37.55ZM139.1875 27.175L139.1875 29.3625L137.3125 29.3625L137.3125 33.55Q137.3125 34.815624 137.35938 35.034374Q137.42188 35.2375 137.60938 35.378124Q137.8125 35.503124 138.07812 35.503124Q138.45312 35.503124 139.1875 35.2375L139.42188 37.378124Q138.45312 37.784374 137.25 37.784374Q136.5 37.784374 135.90625 37.534374Q135.3125 37.284374 135.03125 36.89375Q134.76562 36.4875 134.65625 35.815624Q134.5625 35.346874 134.5625 33.89375L134.5625 29.3625L133.29688 29.3625L133.29688 27.175L134.5625 27.175L134.5625 25.1125L137.3125 23.51875L137.3125 27.175L139.1875 27.175ZM144.0625 37.55L141.3125 37.55L141.3125 27.175L143.875 27.175L143.875 28.659374Q144.51562 27.6125 145.03125 27.284374Q145.5625 26.940624 146.23438 26.940624Q147.17188 26.940624 148.03125 27.45625L147.1875 29.846874Q146.5 29.409374 145.90625 29.409374Q145.32812 29.409374 144.92188 29.721874Q144.51562 30.034374 144.28125 30.878124Q144.0625 31.70625 144.0625 34.346874L144.0625 37.55ZM151.48438 30.346874L149.0 29.89375Q149.42188 28.39375 150.4375 27.675Q151.46875 26.940624 153.48438 26.940624Q155.32812 26.940624 156.21875 27.378124Q157.125 27.815624 157.48438 28.4875Q157.85938 29.14375 157.85938 30.940624L157.82812 34.14375Q157.82812 35.503124 157.95312 36.159374Q158.09375 36.8 158.45312 37.55L155.73438 37.55Q155.625 37.26875 155.46875 36.7375Q155.40625 36.4875 155.375 36.409374Q154.67188 37.096874 153.85938 37.440624Q153.0625 37.784374 152.15625 37.784374Q150.5625 37.784374 149.64062 36.925Q148.71875 36.05 148.71875 34.721874Q148.71875 33.83125 149.125 33.14375Q149.54688 32.45625 150.29688 32.096874Q151.0625 31.721874 152.5 31.45625Q154.42188 31.096874 155.15625 30.784374L155.15625 30.503124Q155.15625 29.721874 154.76562 29.39375Q154.375 29.05 153.29688 29.05Q152.5625 29.05 152.14062 29.33125Q151.73438 29.6125 151.48438 30.346874ZM155.15625 32.565624Q154.625 32.7375 153.48438 32.9875Q152.34375 33.2375 152.0 33.471874Q151.45312 33.846874 151.45312 34.440624Q151.45312 35.003124 151.875 35.425Q152.3125 35.846874 152.98438 35.846874Q153.71875 35.846874 154.39062 35.3625Q154.89062 34.9875 155.04688 34.45625Q155.15625 34.096874 155.15625 33.1125L155.15625 32.565624ZM169.95312 37.55L167.40625 37.55L167.40625 36.01875Q166.76562 36.909374 165.89062 37.346874Q165.03125 37.784374 164.15625 37.784374Q162.375 37.784374 161.09375 36.346874Q159.82812 34.909374 159.82812 32.33125Q159.82812 29.690624 161.0625 28.315624Q162.29688 26.940624 164.20312 26.940624Q165.9375 26.940624 167.20312 28.39375L167.20312 23.2375L169.95312 23.2375L169.95312 37.55ZM162.625 32.14375Q162.625 33.8 163.07812 34.534374Q163.75 35.6125 164.9375 35.6125Q165.89062 35.6125 166.54688 34.815624Q167.21875 34.003124 167.21875 32.409374Q167.21875 30.6125 166.5625 29.83125Q165.92188 29.05 164.92188 29.05Q163.9375 29.05 163.28125 29.83125Q162.625 30.596874 162.625 32.14375ZM174.48438 30.346874L172.0 29.89375Q172.42188 28.39375 173.4375 27.675Q174.46875 26.940624 176.48438 26.940624Q178.32812 26.940624 179.21875 27.378124Q180.125 27.815624 180.48438 28.4875Q180.85938 29.14375 180.85938 30.940624L180.82812 34.14375Q180.82812 35.503124 180.95312 36.159374Q181.09375 36.8 181.45312 37.55L178.73438 37.55Q178.625 37.26875 178.46875 36.7375Q178.40625 36.4875 178.375 36.409374Q177.67188 37.096874 176.85938 37.440624Q176.0625 37.784374 175.15625 37.784374Q173.5625 37.784374 172.64062 36.925Q171.71875 36.05 171.71875 34.721874Q171.71875 33.83125 172.125 33.14375Q172.54688 32.45625 173.29688 32.096874Q174.0625 31.721874 175.5 31.45625Q177.42188 31.096874 178.15625 30.784374L178.15625 30.503124Q178.15625 29.721874 177.76562 29.39375Q177.375 29.05 176.29688 29.05Q175.5625 29.05 175.14062 29.33125Q174.73438 29.6125 174.48438 30.346874ZM178.15625 32.565624Q177.625 32.7375 176.48438 32.9875Q175.34375 33.2375 175.0 33.471874Q174.45312 33.846874 174.45312 34.440624Q174.45312 35.003124 174.875 35.425Q175.3125 35.846874 175.98438 35.846874Q176.71875 35.846874 177.39062 35.3625Q177.89062 34.9875 178.04688 34.45625Q178.15625 34.096874 178.15625 33.1125L178.15625 32.565624ZM198.95312 37.55L196.40625 37.55L196.40625 36.01875Q195.76562 36.909374 194.89062 37.346874Q194.03125 37.784374 193.15625 37.784374Q191.375 37.784374 190.09375 36.346874Q188.82812 34.909374 188.82812 32.33125Q188.82812 29.690624 190.0625 28.315624Q191.29688 26.940624 193.20312 26.940624Q194.9375 26.940624 196.20312 28.39375L196.20312 23.2375L198.95312 23.2375L198.95312 37.55ZM191.625 32.14375Q191.625 33.8 192.07812 34.534374Q192.75 35.6125 193.9375 35.6125Q194.89062 35.6125 195.54688 34.815624Q196.21875 34.003124 196.21875 32.409374Q196.21875 30.6125 195.5625 29.83125Q194.92188 29.05 193.92188 29.05Q192.9375 29.05 192.28125 29.83125Q191.625 30.596874 191.625 32.14375ZM207.4375 34.253124L210.17188 34.70625Q209.65625 36.20625 208.51562 37.003124Q207.375 37.784374 205.67188 37.784374Q202.95312 37.784374 201.65625 36.01875Q200.64062 34.596874 200.64062 32.440624Q200.64062 29.8625 201.98438 28.409374Q203.32812 26.940624 205.39062 26.940624Q207.70312 26.940624 209.03125 28.471874Q210.375 30.003124 210.32812 33.159374L203.45312 33.159374Q203.48438 34.378124 204.10938 35.065624Q204.75 35.7375 205.6875 35.7375Q206.34375 35.7375 206.78125 35.39375Q207.21875 35.034374 207.4375 34.253124ZM207.59375 31.471874Q207.5625 30.284374 206.96875 29.675Q206.39062 29.05 205.5625 29.05Q204.65625 29.05 204.07812 29.690624Q203.48438 30.346874 203.5 31.471874L207.59375 31.471874ZM218.4375 25.76875L218.4375 23.2375L221.1875 23.2375L221.1875 25.76875L218.4375 25.76875ZM218.4375 37.55L218.4375 27.175L221.1875 27.175L221.1875 37.55L218.4375 37.55ZM223.23438 27.175L225.76562 27.175L225.76562 28.596874Q227.125 26.940624 229.0 26.940624Q229.98438 26.940624 230.71875 27.3625Q231.45312 27.76875 231.92188 28.596874Q232.60938 27.76875 233.39062 27.3625Q234.1875 26.940624 235.09375 26.940624Q236.23438 26.940624 237.01562 27.409374Q237.8125 27.878124 238.20312 28.76875Q238.48438 29.440624 238.48438 30.925L238.48438 37.55L235.73438 37.55L235.73438 31.628124Q235.73438 30.08125 235.45312 29.628124Q235.07812 29.05 234.28125 29.05Q233.70312 29.05 233.1875 29.409374Q232.6875 29.753124 232.46875 30.425Q232.25 31.096874 232.25 32.565624L232.25 37.55L229.5 37.55L229.5 31.8625Q229.5 30.346874 229.34375 29.909374Q229.20312 29.471874 228.89062 29.26875Q228.59375 29.05 228.0625 29.05Q227.4375 29.05 226.92188 29.39375Q226.42188 29.721874 226.1875 30.378124Q225.96875 31.01875 225.96875 32.503124L225.96875 37.55L223.23438 37.55L223.23438 27.175ZM240.4375 25.76875L240.4375 23.2375L243.1875 23.2375L243.1875 25.76875L240.4375 25.76875ZM240.4375 37.55L240.4375 27.175L243.1875 27.175L243.1875 37.55L240.4375 37.55ZM245.1875 38.2375L248.3125 38.6125Q248.39062 39.159374 248.67188 39.3625Q249.0625 39.659374 249.90625 39.659374Q250.98438 39.659374 251.51562 39.33125Q251.875 39.128124 252.0625 38.64375Q252.1875 38.3 252.1875 37.378124L252.1875 35.8625Q250.96875 37.55 249.09375 37.55Q247.0 37.55 245.78125 35.784374Q244.82812 34.378124 244.82812 32.3Q244.82812 29.690624 246.07812 28.315624Q247.32812 26.940624 249.20312 26.940624Q251.125 26.940624 252.375 28.628124L252.375 27.175L254.9375 27.175L254.9375 36.4875Q254.9375 38.315624 254.625 39.221874Q254.32812 40.14375 253.78125 40.659374Q253.23438 41.175 252.3125 41.45625Q251.40625 41.753124 250.01562 41.753124Q247.375 41.753124 246.26562 40.846874Q245.17188 39.95625 245.17188 38.565624Q245.17188 38.425 245.1875 38.2375ZM247.64062 32.14375Q247.64062 33.8 248.26562 34.565624Q248.90625 35.33125 249.84375 35.33125Q250.85938 35.33125 251.54688 34.55Q252.25 33.753124 252.25 32.221874Q252.25 30.6125 251.57812 29.83125Q250.92188 29.05 249.90625 29.05Q248.90625 29.05 248.26562 29.815624Q247.64062 30.58125 247.64062 32.14375ZM260.0625 37.55L257.3125 37.55L257.3125 27.175L259.875 27.175L259.875 28.659374Q260.51562 27.6125 261.03125 27.284374Q261.5625 26.940624 262.23438 26.940624Q263.17188 26.940624 264.03125 27.45625L263.1875 29.846874Q262.5 29.409374 261.90625 29.409374Q261.32812 29.409374 260.92188 29.721874Q260.51562 30.034374 260.28125 30.878124Q260.0625 31.70625 260.0625 34.346874L260.0625 37.55ZM267.48438 30.346874L265.0 29.89375Q265.42188 28.39375 266.4375 27.675Q267.46875 26.940624 269.48438 26.940624Q271.32812 26.940624 272.21875 27.378124Q273.125 27.815624 273.48438 28.4875Q273.85938 29.14375 273.85938 30.940624L273.82812 34.14375Q273.82812 35.503124 273.95312 36.159374Q274.09375 36.8 274.45312 37.55L271.73438 37.55Q271.625 37.26875 271.46875 36.7375Q271.40625 36.4875 271.375 36.409374Q270.67188 37.096874 269.85938 37.440624Q269.0625 37.784374 268.15625 37.784374Q266.5625 37.784374 265.64062 36.925Q264.71875 36.05 264.71875 34.721874Q264.71875 33.83125 265.125 33.14375Q265.54688 32.45625 266.29688 32.096874Q267.0625 31.721874 268.5 31.45625Q270.42188 31.096874 271.15625 30.784374L271.15625 30.503124Q271.15625 29.721874 270.76562 29.39375Q270.375 29.05 269.29688 29.05Q268.5625 29.05 268.14062 29.33125Q267.73438 29.6125 267.48438 30.346874ZM271.15625 32.565624Q270.625 32.7375 269.48438 32.9875Q268.34375 33.2375 268.0 33.471874Q267.45312 33.846874 267.45312 34.440624Q267.45312 35.003124 267.875 35.425Q268.3125 35.846874 268.98438 35.846874Q269.71875 35.846874 270.39062 35.3625Q270.89062 34.9875 271.04688 34.45625Q271.15625 34.096874 271.15625 33.1125L271.15625 32.565624ZM285.875 37.55L283.125 37.55L283.125 32.253124Q283.125 30.58125 282.95312 30.096874Q282.78125 29.596874 282.375 29.33125Q281.98438 29.05 281.42188 29.05Q280.71875 29.05 280.14062 29.440624Q279.57812 29.83125 279.35938 30.471874Q279.15625 31.1125 279.15625 32.846874L279.15625 37.55L276.42188 37.55L276.42188 27.175L278.96875 27.175L278.96875 28.70625Q280.32812 26.940624 282.39062 26.940624Q283.29688 26.940624 284.04688 27.26875Q284.79688 27.596874 285.17188 28.1125Q285.5625 28.6125 285.71875 29.26875Q285.875 29.909374 285.875 31.096874L285.875 37.55ZM293.1875 27.175L293.1875 29.3625L291.3125 29.3625L291.3125 33.55Q291.3125 34.815624 291.35938 35.034374Q291.42188 35.2375 291.60938 35.378124Q291.8125 35.503124 292.07812 35.503124Q292.45312 35.503124 293.1875 35.2375L293.42188 37.378124Q292.45312 37.784374 291.25 37.784374Q290.5 37.784374 289.90625 37.534374Q289.3125 37.284374 289.03125 36.89375Q288.76562 36.4875 288.65625 35.815624Q288.5625 35.346874 288.5625 33.89375L288.5625 29.3625L287.29688 29.3625L287.29688 27.175L288.5625 27.175L288.5625 25.1125L291.3125 23.51875L291.3125 27.175L293.1875 27.175ZM301.4375 34.253124L304.17188 34.70625Q303.65625 36.20625 302.51562 37.003124Q301.375 37.784374 299.67188 37.784374Q296.95312 37.784374 295.65625 36.01875Q294.64062 34.596874 294.64062 32.440624Q294.64062 29.8625 295.98438 28.409374Q297.32812 26.940624 299.39062 26.940624Q301.70312 26.940624 303.03125 28.471874Q304.375 30.003124 304.32812 33.159374L297.45312 33.159374Q297.48438 34.378124 298.10938 35.065624Q298.75 35.7375 299.6875 35.7375Q300.34375 35.7375 300.78125 35.39375Q301.21875 35.034374 301.4375 34.253124ZM301.59375 31.471874Q301.5625 30.284374 300.96875 29.675Q300.39062 29.05 299.5625 29.05Q298.65625 29.05 298.07812 29.690624Q297.48438 30.346874 297.5 31.471874L301.59375 31.471874ZM305.46875 34.596874L308.21875 34.175Q308.40625 34.971874 308.9375 35.39375Q309.46875 35.8 310.4375 35.8Q311.5 35.8 312.04688 35.409374Q312.40625 35.14375 312.40625 34.675Q312.40625 34.3625 312.20312 34.159374Q312.0 33.971874 311.29688 33.8Q307.96875 33.065624 307.07812 32.45625Q305.84375 31.628124 305.84375 30.128124Q305.84375 28.784374 306.90625 27.8625Q307.98438 26.940624 310.21875 26.940624Q312.34375 26.940624 313.375 27.64375Q314.42188 28.33125 314.8125 29.690624L312.21875 30.159374Q312.04688 29.565624 311.57812 29.2375Q311.125 28.909374 310.26562 28.909374Q309.1875 28.909374 308.71875 29.221874Q308.40625 29.440624 308.40625 29.76875Q308.40625 30.065624 308.67188 30.26875Q309.04688 30.55 311.23438 31.05Q313.42188 31.55 314.29688 32.26875Q315.15625 33.003124 315.15625 34.3Q315.15625 35.7375 313.96875 36.76875Q312.78125 37.784374 310.4375 37.784374Q308.32812 37.784374 307.07812 36.925Q305.84375 36.065624 305.46875 34.596874ZM323.35938 27.175L325.92188 27.175L325.92188 28.70625Q326.42188 27.925 327.26562 27.440624Q328.10938 26.940624 329.15625 26.940624Q330.95312 26.940624 332.20312 28.3625Q333.46875 29.76875 333.46875 32.3Q333.46875 34.909374 332.20312 36.346874Q330.9375 37.784374 329.125 37.784374Q328.26562 37.784374 327.5625 37.440624Q326.875 37.096874 326.10938 36.26875L326.10938 41.503124L323.35938 41.503124L323.35938 27.175ZM326.07812 32.190624Q326.07812 33.940624 326.76562 34.784374Q327.45312 35.6125 328.45312 35.6125Q329.40625 35.6125 330.04688 34.846874Q330.6875 34.065624 330.6875 32.33125Q330.6875 30.690624 330.03125 29.909374Q329.375 29.1125 328.40625 29.1125Q327.40625 29.1125 326.73438 29.89375Q326.07812 30.659374 326.07812 32.190624ZM334.79688 32.221874Q334.79688 30.846874 335.46875 29.565624Q336.15625 28.284374 337.39062 27.6125Q338.625 26.940624 340.14062 26.940624Q342.5 26.940624 344.0 28.471874Q345.5 30.003124 345.5 32.33125Q345.5 34.690624 343.98438 36.2375Q342.46875 37.784374 340.15625 37.784374Q338.73438 37.784374 337.4375 37.14375Q336.15625 36.4875 335.46875 35.253124Q334.79688 34.003124 334.79688 32.221874ZM337.60938 32.3625Q337.60938 33.909374 338.34375 34.7375Q339.07812 35.55 340.15625 35.55Q341.23438 35.55 341.95312 34.7375Q342.6875 33.909374 342.6875 32.346874Q342.6875 30.815624 341.95312 30.003124Q341.23438 29.175 340.15625 29.175Q339.07812 29.175 338.34375 30.003124Q337.60938 30.815624 337.60938 32.3625ZM350.0625 37.55L347.3125 37.55L347.3125 27.175L349.875 27.175L349.875 28.659374Q350.51562 27.6125 351.03125 27.284374Q351.5625 26.940624 352.23438 26.940624Q353.17188 26.940624 354.03125 27.45625L353.1875 29.846874Q352.5 29.409374 351.90625 29.409374Q351.32812 29.409374 350.92188 29.721874Q350.51562 30.034374 350.28125 30.878124Q350.0625 31.70625 350.0625 34.346874L350.0625 37.55ZM363.48438 30.346874L361.0 29.89375Q361.42188 28.39375 362.4375 27.675Q363.46875 26.940624 365.48438 26.940624Q367.32812 26.940624 368.21875 27.378124Q369.125 27.815624 369.48438 28.4875Q369.85938 29.14375 369.85938 30.940624L369.82812 34.14375Q369.82812 35.503124 369.95312 36.159374Q370.09375 36.8 370.45312 37.55L367.73438 37.55Q367.625 37.26875 367.46875 36.7375Q367.40625 36.4875 367.375 36.409374Q366.67188 37.096874 365.85938 37.440624Q365.0625 37.784374 364.15625 37.784374Q362.5625 37.784374 361.64062 36.925Q360.71875 36.05 360.71875 34.721874Q360.71875 33.83125 361.125 33.14375Q361.54688 32.45625 362.29688 32.096874Q363.0625 31.721874 364.5 31.45625Q366.42188 31.096874 367.15625 30.784374L367.15625 30.503124Q367.15625 29.721874 366.76562 29.39375Q366.375 29.05 365.29688 29.05Q364.5625 29.05 364.14062 29.33125Q363.73438 29.6125 363.48438 30.346874ZM367.15625 32.565624Q366.625 32.7375 365.48438 32.9875Q364.34375 33.2375 364.0 33.471874Q363.45312 33.846874 363.45312 34.440624Q363.45312 35.003124 363.875 35.425Q364.3125 35.846874 364.98438 35.846874Q365.71875 35.846874 366.39062 35.3625Q366.89062 34.9875 367.04688 34.45625Q367.15625 34.096874 367.15625 33.1125L367.15625 32.565624ZM381.875 37.55L379.125 37.55L379.125 32.253124Q379.125 30.58125 378.95312 30.096874Q378.78125 29.596874 378.375 29.33125Q377.98438 29.05 377.42188 29.05Q376.71875 29.05 376.14062 29.440624Q375.57812 29.83125 375.35938 30.471874Q375.15625 31.1125 375.15625 32.846874L375.15625 37.55L372.42188 37.55L372.42188 27.175L374.96875 27.175L374.96875 28.70625Q376.32812 26.940624 378.39062 26.940624Q379.29688 26.940624 380.04688 27.26875Q380.79688 27.596874 381.17188 28.1125Q381.5625 28.6125 381.71875 29.26875Q381.875 29.909374 381.875 31.096874L381.875 37.55ZM383.79688 32.221874Q383.79688 30.846874 384.46875 29.565624Q385.15625 28.284374 386.39062 27.6125Q387.625 26.940624 389.14062 26.940624Q391.5 26.940624 393.0 28.471874Q394.5 30.003124 394.5 32.33125Q394.5 34.690624 392.98438 36.2375Q391.46875 37.784374 389.15625 37.784374Q387.73438 37.784374 386.4375 37.14375Q385.15625 36.4875 384.46875 35.253124Q383.79688 34.003124 383.79688 32.221874ZM386.60938 32.3625Q386.60938 33.909374 387.34375 34.7375Q388.07812 35.55 389.15625 35.55Q390.23438 35.55 390.95312 34.7375Q391.6875 33.909374 391.6875 32.346874Q391.6875 30.815624 390.95312 30.003124Q390.23438 29.175 389.15625 29.175Q388.07812 29.175 387.34375 30.003124Q386.60938 30.815624 386.60938 32.3625ZM408.4375 34.253124L411.17188 34.70625Q410.65625 36.20625 409.51562 37.003124Q408.375 37.784374 406.67188 37.784374Q403.95312 37.784374 402.65625 36.01875Q401.64062 34.596874 401.64062 32.440624Q401.64062 29.8625 402.98438 28.409374Q404.32812 26.940624 406.39062 26.940624Q408.70312 26.940624 410.03125 28.471874Q411.375 30.003124 411.32812 33.159374L404.45312 33.159374Q404.48438 34.378124 405.10938 35.065624Q405.75 35.7375 406.6875 35.7375Q407.34375 35.7375 407.78125 35.39375Q408.21875 35.034374 408.4375 34.253124ZM408.59375 31.471874Q408.5625 30.284374 407.96875 29.675Q407.39062 29.05 406.5625 29.05Q405.65625 29.05 405.07812 29.690624Q404.48438 30.346874 404.5 31.471874L408.59375 31.471874ZM413.23438 27.175L415.76562 27.175L415.76562 28.596874Q417.125 26.940624 419.0 26.940624Q419.98438 26.940624 420.71875 27.3625Q421.45312 27.76875 421.92188 28.596874Q422.60938 27.76875 423.39062 27.3625Q424.1875 26.940624 425.09375 26.940624Q426.23438 26.940624 427.01562 27.409374Q427.8125 27.878124 428.20312 28.76875Q428.48438 29.440624 428.48438 30.925L428.48438 37.55L425.73438 37.55L425.73438 31.628124Q425.73438 30.08125 425.45312 29.628124Q425.07812 29.05 424.28125 29.05Q423.70312 29.05 423.1875 29.409374Q422.6875 29.753124 422.46875 30.425Q422.25 31.096874 422.25 32.565624L422.25 37.55L419.5 37.55L419.5 31.8625Q419.5 30.346874 419.34375 29.909374Q419.20312 29.471874 418.89062 29.26875Q418.59375 29.05 418.0625 29.05Q417.4375 29.05 416.92188 29.39375Q416.42188 29.721874 416.1875 30.378124Q415.96875 31.01875 415.96875 32.503124L415.96875 37.55L413.23438 37.55L413.23438 27.175ZM436.46875 23.2375L442.1875 23.2375Q443.89062 23.2375 444.71875 23.378124Q445.5625 23.51875 446.21875 23.971874Q446.875 24.409374 447.3125 25.159374Q447.75 25.909374 447.75 26.83125Q447.75 27.846874 447.20312 28.690624Q446.67188 29.51875 445.75 29.940624Q447.04688 30.315624 447.75 31.2375Q448.45312 32.159374 448.45312 33.39375Q448.45312 34.378124 448.0 35.3Q447.54688 36.221874 446.76562 36.784374Q445.98438 37.33125 444.82812 37.45625Q444.10938 37.534374 441.34375 37.55L436.46875 37.55L436.46875 23.2375ZM439.35938 25.6125L439.35938 28.925L441.25 28.925Q442.9375 28.925 443.34375 28.878124Q444.09375 28.784374 444.51562 28.3625Q444.9375 27.940624 444.9375 27.253124Q444.9375 26.58125 444.5625 26.175Q444.20312 25.753124 443.48438 25.659374Q443.0625 25.6125 441.01562 25.6125L439.35938 25.6125ZM439.35938 31.315624L439.35938 35.14375L442.03125 35.14375Q443.59375 35.14375 444.01562 35.05Q444.65625 34.925 445.0625 34.471874Q445.46875 34.01875 445.46875 33.26875Q445.46875 32.6125 445.15625 32.175Q444.84375 31.721874 444.25 31.51875Q443.65625 31.315624 441.6875 31.315624L439.35938 31.315624ZM452.48438 30.346874L450.0 29.89375Q450.42188 28.39375 451.4375 27.675Q452.46875 26.940624 454.48438 26.940624Q456.32812 26.940624 457.21875 27.378124Q458.125 27.815624 458.48438 28.4875Q458.85938 29.14375 458.85938 30.940624L458.82812 34.14375Q458.82812 35.503124 458.95312 36.159374Q459.09375 36.8 459.45312 37.55L456.73438 37.55Q456.625 37.26875 456.46875 36.7375Q456.40625 36.4875 456.375 36.409374Q455.67188 37.096874 454.85938 37.440624Q454.0625 37.784374 453.15625 37.784374Q451.5625 37.784374 450.64062 36.925Q449.71875 36.05 449.71875 34.721874Q449.71875 33.83125 450.125 33.14375Q450.54688 32.45625 451.29688 32.096874Q452.0625 31.721874 453.5 31.45625Q455.42188 31.096874 456.15625 30.784374L456.15625 30.503124Q456.15625 29.721874 455.76562 29.39375Q455.375 29.05 454.29688 29.05Q453.5625 29.05 453.14062 29.33125Q452.73438 29.6125 452.48438 30.346874ZM456.15625 32.565624Q455.625 32.7375 454.48438 32.9875Q453.34375 33.2375 453.0 33.471874Q452.45312 33.846874 452.45312 34.440624Q452.45312 35.003124 452.875 35.425Q453.3125 35.846874 453.98438 35.846874Q454.71875 35.846874 455.39062 35.3625Q455.89062 34.9875 456.04688 34.45625Q456.15625 34.096874 456.15625 33.1125L456.15625 32.565624ZM468.26562 37.55L468.26562 36.003124Q467.70312 36.83125 466.76562 37.315624Q465.84375 37.784374 464.82812 37.784374Q463.78125 37.784374 462.95312 37.33125Q462.125 36.8625 461.75 36.034374Q461.375 35.20625 461.375 33.7375L461.375 27.175L464.125 27.175L464.125 31.940624Q464.125 34.128124 464.26562 34.628124Q464.42188 35.1125 464.8125 35.409374Q465.21875 35.690624 465.84375 35.690624Q466.54688 35.690624 467.09375 35.315624Q467.65625 34.925 467.85938 34.3625Q468.0625 33.784374 468.0625 31.55L468.0625 27.175L470.8125 27.175L470.8125 37.55L468.26562 37.55ZM476.0625 37.55L473.3125 37.55L473.3125 27.175L475.875 27.175L475.875 28.659374Q476.51562 27.6125 477.03125 27.284374Q477.5625 26.940624 478.23438 26.940624Q479.17188 26.940624 480.03125 27.45625L479.1875 29.846874Q478.5 29.409374 477.90625 29.409374Q477.32812 29.409374 476.92188 29.721874Q476.51562 30.034374 476.28125 30.878124Q476.0625 31.70625 476.0625 34.346874L476.0625 37.55ZM488.26562 37.55L488.26562 36.003124Q487.70312 36.83125 486.76562 37.315624Q485.84375 37.784374 484.82812 37.784374Q483.78125 37.784374 482.95312 37.33125Q482.125 36.8625 481.75 36.034374Q481.375 35.20625 481.375 33.7375L481.375 27.175L484.125 27.175L484.125 31.940624Q484.125 34.128124 484.26562 34.628124Q484.42188 35.1125 484.8125 35.409374Q485.21875 35.690624 485.84375 35.690624Q486.54688 35.690624 487.09375 35.315624Q487.65625 34.925 487.85938 34.3625Q488.0625 33.784374 488.0625 31.55L488.0625 27.175L490.8125 27.175L490.8125 37.55L488.26562 37.55Z" fill-rule="nonzero"/></svg>