<svg version="1.1" viewBox="0.0 0.0 542.0 398.0" fill="none" stroke="none" stroke-linecap="square" stroke-miterlimit="10" width="542" height="398" xmlns:xlink="http://www.w3.org/1999/xlink" xmlns="http://www.w3.org/2000/svg"><path fill="#ffffff" fill-opacity="0.0" d="M0 0L542.0 0L542.0 398.0L0 398.0L0 0Z" fill-rule="nonzero"/><path fill="#d18485" d="M328.30685 77.666664C373.09366 77.666664 415.65326 97.19959 444.85513 131.15703L386.581 181.27017C371.98007 164.29146 350.70026 154.525 328.30685 154.525Z" fill-rule="nonzero"/><path fill="#cf9456" d="M444.85513 131.15703C456.8999 145.1633 466.3214 161.22598 472.66772 178.57466L400.4873 204.97899C397.31415 196.30466 392.6034 188.27332 386.581 181.27017Z" fill-rule="nonzero"/><path fill="#ab3635" d="M325.2433 77.6972C326.26434 77.67684 327.28558 77.666664 328.30685 77.666664L328.30685 154.525C327.79623 154.525 327.2856 154.53009 326.7751 154.54027Z" fill-rule="nonzero"/><path fill="#c1cee0" d="M270.256 89.04953C287.7327 81.92166 306.37268 78.073364 325.2433 77.6972L326.7751 154.54027C317.33978 154.72835 308.01978 156.6525 299.28143 160.21643Z" fill-rule="nonzero"/><path fill="#bda4a4" d="M182.34984 279.60532C156.9923 202.85378 195.40973 119.5756 270.256 89.04953L299.28143 160.21643C261.8583 175.47946 242.64958 217.11856 255.32835 255.49432Z" fill-rule="nonzero"/><path fill="#ad3f83" d="M472.66772 178.57466C491.73328 230.69339 481.22556 289.0422 445.17584 331.2355C409.12613 373.4288 353.1324 392.91464 298.6767 382.21722C244.221 371.51984 199.75948 332.30032 182.34984 279.60532L255.32835 255.49432C264.03317 281.84183 286.26392 301.45157 313.4918 306.8003C340.71964 312.149 368.7165 302.40607 386.74136 281.30942C404.7662 260.21277 410.02008 231.03836 400.4873 204.97899Z" fill-rule="nonzero"/><path fill="#555555" d="M367.32187 125.77123L365.94687 125.77123L365.94687 120.59936Q365.19687 121.30248 364.18124 121.64623L364.18124 120.39623Q364.7125 120.22436 365.3375 119.73998Q365.97812 119.23998 366.2125 118.58373L367.32187 118.58373L367.32187 125.77123ZM369.75937 123.86498L371.0875 123.70873Q371.15 124.22436 371.43124 124.48998Q371.7125 124.75561 372.10312 124.75561Q372.525 124.75561 372.80624 124.44311Q373.10312 124.11498 373.10312 123.56811Q373.10312 123.05248 372.82187 122.75561Q372.55624 122.44311 372.15 122.44311Q371.88437 122.44311 371.525 122.53686L371.68124 121.42748Q372.22812 121.44311 372.525 121.19311Q372.82187 120.92748 372.82187 120.50561Q372.82187 120.14623 372.60312 119.92748Q372.38437 119.70873 372.025 119.70873Q371.68124 119.70873 371.43124 119.95873Q371.18124 120.19311 371.13437 120.66186L369.86874 120.45873Q369.99374 119.80248 370.25937 119.41186Q370.525 119.02123 370.99374 118.80248Q371.47812 118.58373 372.07187 118.58373Q373.0875 118.58373 373.69687 119.22436Q374.19687 119.75561 374.19687 120.41186Q374.19687 121.36498 373.16562 121.92748Q373.775 122.05248 374.13437 122.52123Q374.50937 122.97436 374.50937 123.61498Q374.50937 124.56811 373.82187 125.23998Q373.13437 125.89623 372.11874 125.89623Q371.15 125.89623 370.50937 125.33373Q369.86874 124.77123 369.75937 123.86498ZM376.07187 124.39623L377.44687 124.39623L377.44687 125.38061Q377.44687 125.97436 377.3375 126.31811Q377.22812 126.66186 376.94687 126.92748Q376.66562 127.20873 376.22812 127.36498L375.9625 126.80248Q376.36874 126.66186 376.54062 126.42748Q376.72812 126.19311 376.72812 125.77123L376.07187 125.77123L376.07187 124.39623ZM378.80624 119.98998L378.80624 118.70873L383.50937 118.70873L383.50937 119.70873Q382.91562 120.27123 382.30624 121.34936Q381.7125 122.41186 381.4 123.61498Q381.0875 124.81811 381.0875 125.77123L379.775 125.77123Q379.80624 124.28686 380.38437 122.73998Q380.9625 121.19311 381.93124 119.98998L378.80624 119.98998ZM384.82187 120.38061Q384.82187 119.41186 385.24374 118.95873Q385.66562 118.48998 386.38437 118.48998Q387.13437 118.48998 387.55624 118.95873Q387.97812 119.41186 387.97812 120.38061Q387.97812 121.34936 387.55624 121.81811Q387.13437 122.27123 386.41562 122.27123Q385.66562 122.27123 385.24374 121.81811Q384.82187 121.34936 384.82187 120.38061ZM385.88437 120.36498Q385.88437 121.06811 386.05624 121.30248Q386.16562 121.48998 386.38437 121.48998Q386.60312 121.48998 386.72812 121.30248Q386.88437 121.06811 386.88437 120.36498Q386.88437 119.67748 386.72812 119.44311Q386.60312 119.25561 386.38437 119.25561Q386.16562 119.25561 386.05624 119.42748Q385.88437 119.67748 385.88437 120.36498ZM387.43124 126.05248L386.41562 126.05248L390.22812 118.48998L391.2125 118.48998L387.43124 126.05248ZM389.65 124.16186Q389.65 123.20873 390.07187 122.73998Q390.49374 122.27123 391.22812 122.27123Q391.9625 122.27123 392.38437 122.73998Q392.80624 123.20873 392.80624 124.16186Q392.80624 125.13061 392.38437 125.59936Q391.9625 126.05248 391.24374 126.05248Q390.49374 126.05248 390.07187 125.59936Q389.65 125.13061 389.65 124.16186ZM390.7125 124.16186Q390.7125 124.86498 390.88437 125.09936Q390.99374 125.27123 391.2125 125.27123Q391.43124 125.27123 391.55624 125.09936Q391.7125 124.86498 391.7125 124.16186Q391.7125 123.45873 391.55624 123.22436Q391.43124 123.05248 391.2125 123.05248Q390.99374 123.05248 390.88437 123.22436Q390.7125 123.45873 390.7125 124.16186Z" fill-rule="nonzero"/><path fill="#555555" d="M419.35498 172.85382L420.72998 172.7132Q420.79248 173.18195 421.07373 173.44757Q421.3706 173.7132 421.7456 173.7132Q422.16748 173.7132 422.46436 173.36945Q422.76123 173.0257 422.76123 172.32257Q422.76123 171.66632 422.46436 171.3382Q422.16748 170.99445 421.69873 170.99445Q421.10498 170.99445 420.63623 171.5257L419.52686 171.36945L420.22998 167.63507L423.85498 167.63507L423.85498 168.91632L421.27686 168.91632L421.0581 170.13507Q421.51123 169.9007 421.9956 169.9007Q422.90186 169.9007 423.54248 170.57257Q424.1831 171.22882 424.1831 172.29132Q424.1831 173.18195 423.66748 173.86945Q422.96436 174.82257 421.72998 174.82257Q420.72998 174.82257 420.10498 174.29132Q419.47998 173.76007 419.35498 172.85382ZM425.60498 173.32257L426.97998 173.32257L426.97998 174.30695Q426.97998 174.9007 426.8706 175.24445Q426.76123 175.5882 426.47998 175.85382Q426.19873 176.13507 425.76123 176.29132L425.4956 175.72882Q425.90186 175.5882 426.07373 175.35382Q426.26123 175.11945 426.26123 174.69757L425.60498 174.69757L425.60498 173.32257ZM428.33936 168.91632L428.33936 167.63507L433.04248 167.63507L433.04248 168.63507Q432.44873 169.19757 431.83936 170.2757Q431.2456 171.3382 430.9331 172.54132Q430.6206 173.74445 430.6206 174.69757L429.3081 174.69757Q429.33936 173.2132 429.91748 171.66632Q430.4956 170.11945 431.46436 168.91632L428.33936 168.91632ZM434.35498 169.30695Q434.35498 168.3382 434.77686 167.88507Q435.19873 167.41632 435.91748 167.41632Q436.66748 167.41632 437.08936 167.88507Q437.51123 168.3382 437.51123 169.30695Q437.51123 170.2757 437.08936 170.74445Q436.66748 171.19757 435.94873 171.19757Q435.19873 171.19757 434.77686 170.74445Q434.35498 170.2757 434.35498 169.30695ZM435.41748 169.29132Q435.41748 169.99445 435.58936 170.22882Q435.69873 170.41632 435.91748 170.41632Q436.13623 170.41632 436.26123 170.22882Q436.41748 169.99445 436.41748 169.29132Q436.41748 168.60382 436.26123 168.36945Q436.13623 168.18195 435.91748 168.18195Q435.69873 168.18195 435.58936 168.35382Q435.41748 168.60382 435.41748 169.29132ZM436.96436 174.97882L435.94873 174.97882L439.76123 167.41632L440.7456 167.41632L436.96436 174.97882ZM439.1831 173.0882Q439.1831 172.13507 439.60498 171.66632Q440.02686 171.19757 440.76123 171.19757Q441.4956 171.19757 441.91748 171.66632Q442.33936 172.13507 442.33936 173.0882Q442.33936 174.05695 441.91748 174.5257Q441.4956 174.97882 440.77686 174.97882Q440.02686 174.97882 439.60498 174.5257Q439.1831 174.05695 439.1831 173.0882ZM440.2456 173.0882Q440.2456 173.79132 440.41748 174.0257Q440.52686 174.19757 440.7456 174.19757Q440.96436 174.19757 441.08936 174.0257Q441.2456 173.79132 441.2456 173.0882Q441.2456 172.38507 441.08936 172.1507Q440.96436 171.97882 440.7456 171.97882Q440.52686 171.97882 440.41748 172.1507Q440.2456 172.38507 440.2456 173.0882Z" fill-rule="nonzero"/><path fill="#555555" d="M353.69962 347.85345L355.07462 347.71283Q355.13712 348.18158 355.41837 348.4472Q355.71524 348.71283 356.09024 348.71283Q356.51212 348.71283 356.809 348.36908Q357.10587 348.02533 357.10587 347.3222Q357.10587 346.66595 356.809 346.33783Q356.51212 345.99408 356.04337 345.99408Q355.44962 345.99408 354.98087 346.52533L353.8715 346.36908L354.57462 342.6347L358.19962 342.6347L358.19962 343.91595L355.6215 343.91595L355.40274 345.1347Q355.85587 344.90033 356.34024 344.90033Q357.2465 344.90033 357.88712 345.5722Q358.52774 346.22845 358.52774 347.29095Q358.52774 348.18158 358.01212 348.86908Q357.309 349.8222 356.07462 349.8222Q355.07462 349.8222 354.44962 349.29095Q353.82462 348.7597 353.69962 347.85345ZM362.01212 342.5097Q363.04337 342.5097 363.63712 343.24408Q364.32462 344.1347 364.32462 346.16595Q364.32462 348.1972 363.6215 349.08783Q363.04337 349.8222 362.01212 349.8222Q360.96524 349.8222 360.32462 349.02533Q359.684 348.21283 359.684 346.15033Q359.684 344.1347 360.38712 343.24408Q360.96524 342.5097 362.01212 342.5097ZM362.01212 343.65033Q361.76212 343.65033 361.559 343.80658Q361.3715 343.96283 361.26212 344.36908Q361.1215 344.90033 361.1215 346.16595Q361.1215 347.43158 361.2465 347.90033Q361.3715 348.36908 361.559 348.52533Q361.76212 348.68158 362.01212 348.68158Q362.26212 348.68158 362.44962 348.52533Q362.65274 348.36908 362.7465 347.9472Q362.90274 347.43158 362.90274 346.16595Q362.90274 344.90033 362.76212 344.43158Q362.63712 343.96283 362.44962 343.80658Q362.26212 343.65033 362.01212 343.65033ZM365.94962 348.3222L367.32462 348.3222L367.32462 349.30658Q367.32462 349.90033 367.21524 350.24408Q367.10587 350.58783 366.82462 350.85345Q366.54337 351.1347 366.10587 351.29095L365.84024 350.72845Q366.2465 350.58783 366.41837 350.35345Q366.60587 350.11908 366.60587 349.6972L365.94962 349.6972L365.94962 348.3222ZM368.69962 347.85345L370.07462 347.71283Q370.13712 348.18158 370.41837 348.4472Q370.71524 348.71283 371.09024 348.71283Q371.51212 348.71283 371.809 348.36908Q372.10587 348.02533 372.10587 347.3222Q372.10587 346.66595 371.809 346.33783Q371.51212 345.99408 371.04337 345.99408Q370.44962 345.99408 369.98087 346.52533L368.8715 346.36908L369.57462 342.6347L373.19962 342.6347L373.19962 343.91595L370.6215 343.91595L370.40274 345.1347Q370.85587 344.90033 371.34024 344.90033Q372.2465 344.90033 372.88712 345.5722Q373.52774 346.22845 373.52774 347.29095Q373.52774 348.18158 373.01212 348.86908Q372.309 349.8222 371.07462 349.8222Q370.07462 349.8222 369.44962 349.29095Q368.82462 348.7597 368.69962 347.85345ZM374.69962 344.30658Q374.69962 343.33783 375.1215 342.8847Q375.54337 342.41595 376.26212 342.41595Q377.01212 342.41595 377.434 342.8847Q377.85587 343.33783 377.85587 344.30658Q377.85587 345.27533 377.434 345.74408Q377.01212 346.1972 376.29337 346.1972Q375.54337 346.1972 375.1215 345.74408Q374.69962 345.27533 374.69962 344.30658ZM375.76212 344.29095Q375.76212 344.99408 375.934 345.22845Q376.04337 345.41595 376.26212 345.41595Q376.48087 345.41595 376.60587 345.22845Q376.76212 344.99408 376.76212 344.29095Q376.76212 343.60345 376.60587 343.36908Q376.48087 343.18158 376.26212 343.18158Q376.04337 343.18158 375.934 343.35345Q375.76212 343.60345 375.76212 344.29095ZM377.309 349.97845L376.29337 349.97845L380.10587 342.41595L381.09024 342.41595L377.309 349.97845ZM379.52774 348.08783Q379.52774 347.1347 379.94962 346.66595Q380.3715 346.1972 381.10587 346.1972Q381.84024 346.1972 382.26212 346.66595Q382.684 347.1347 382.684 348.08783Q382.684 349.05658 382.26212 349.52533Q381.84024 349.97845 381.1215 349.97845Q380.3715 349.97845 379.94962 349.52533Q379.52774 349.05658 379.52774 348.08783ZM380.59024 348.08783Q380.59024 348.79095 380.76212 349.02533Q380.8715 349.1972 381.09024 349.1972Q381.309 349.1972 381.434 349.02533Q381.59024 348.79095 381.59024 348.08783Q381.59024 347.3847 381.434 347.15033Q381.309 346.97845 381.09024 346.97845Q380.8715 346.97845 380.76212 347.15033Q380.59024 347.3847 380.59024 348.08783Z" fill-rule="nonzero"/><path fill="#555555" d="M212.30121 184.6713L212.30121 185.95255L207.48871 185.95255Q207.56683 185.2338 207.95746 184.59317Q208.34808 183.93692 209.50433 182.8588Q210.42621 181.99942 210.64496 181.68692Q210.92621 181.26505 210.92621 180.8588Q210.92621 180.39005 210.67621 180.15567Q210.42621 179.90567 209.98871 179.90567Q209.56683 179.90567 209.30121 180.1713Q209.05121 180.4213 209.01996 181.01505L207.64496 180.89005Q207.76996 179.74942 208.41058 179.26505Q209.06683 178.76505 210.01996 178.76505Q211.08246 178.76505 211.69183 179.34317Q212.30121 179.90567 212.30121 180.74942Q212.30121 181.2338 212.12933 181.6713Q211.95746 182.1088 211.58246 182.59317Q211.33246 182.90567 210.67621 183.51505Q210.01996 184.1088 209.84808 184.31192Q209.67621 184.49942 209.56683 184.6713L212.30121 184.6713ZM213.61371 184.0463L214.94183 183.89005Q215.00433 184.40567 215.28558 184.6713Q215.56683 184.93692 215.95746 184.93692Q216.37933 184.93692 216.66058 184.62442Q216.95746 184.2963 216.95746 183.74942Q216.95746 183.2338 216.67621 182.93692Q216.41058 182.62442 216.00433 182.62442Q215.73871 182.62442 215.37933 182.71817L215.53558 181.6088Q216.08246 181.62442 216.37933 181.37442Q216.67621 181.1088 216.67621 180.68692Q216.67621 180.32755 216.45746 180.1088Q216.23871 179.89005 215.87933 179.89005Q215.53558 179.89005 215.28558 180.14005Q215.03558 180.37442 214.98871 180.84317L213.72308 180.64005Q213.84808 179.9838 214.11371 179.59317Q214.37933 179.20255 214.84808 178.9838Q215.33246 178.76505 215.92621 178.76505Q216.94183 178.76505 217.55121 179.40567Q218.05121 179.93692 218.05121 180.59317Q218.05121 181.5463 217.01996 182.1088Q217.62933 182.2338 217.98871 182.70255Q218.36371 183.15567 218.36371 183.7963Q218.36371 184.74942 217.67621 185.4213Q216.98871 186.07755 215.97308 186.07755Q215.00433 186.07755 214.36371 185.51505Q213.72308 184.95255 213.61371 184.0463ZM219.92621 184.57755L221.30121 184.57755L221.30121 185.56192Q221.30121 186.15567 221.19183 186.49942Q221.08246 186.84317 220.80121 187.1088Q220.51996 187.39005 220.08246 187.5463L219.81683 186.9838Q220.22308 186.84317 220.39496 186.6088Q220.58246 186.37442 220.58246 185.95255L219.92621 185.95255L219.92621 184.57755ZM222.69183 184.2963L224.01996 184.15567Q224.06683 184.56192 224.26996 184.76505Q224.47308 184.95255 224.81683 184.95255Q225.23871 184.95255 225.53558 184.56192Q225.83246 184.1713 225.92621 182.93692Q225.41058 183.53067 224.62933 183.53067Q223.78558 183.53067 223.16058 182.89005Q222.55121 182.2338 222.55121 181.18692Q222.55121 180.09317 223.19183 179.43692Q223.84808 178.76505 224.84808 178.76505Q225.94183 178.76505 226.62933 179.6088Q227.33246 180.45255 227.33246 182.37442Q227.33246 184.34317 226.59808 185.21817Q225.87933 186.07755 224.70746 186.07755Q223.87933 186.07755 223.34808 185.64005Q222.83246 185.18692 222.69183 184.2963ZM225.80121 181.2963Q225.80121 180.64005 225.48871 180.28067Q225.19183 179.90567 224.78558 179.90567Q224.41058 179.90567 224.16058 180.20255Q223.91058 180.49942 223.91058 181.18692Q223.91058 181.87442 224.17621 182.20255Q224.45746 182.53067 224.86371 182.53067Q225.25433 182.53067 225.51996 182.21817Q225.80121 181.90567 225.80121 181.2963ZM228.67621 180.56192Q228.67621 179.59317 229.09808 179.14005Q229.51996 178.6713 230.23871 178.6713Q230.98871 178.6713 231.41058 179.14005Q231.83246 179.59317 231.83246 180.56192Q231.83246 181.53067 231.41058 181.99942Q230.98871 182.45255 230.26996 182.45255Q229.51996 182.45255 229.09808 181.99942Q228.67621 181.53067 228.67621 180.56192ZM229.73871 180.5463Q229.73871 181.24942 229.91058 181.4838Q230.01996 181.6713 230.23871 181.6713Q230.45746 181.6713 230.58246 181.4838Q230.73871 181.24942 230.73871 180.5463Q230.73871 179.8588 230.58246 179.62442Q230.45746 179.43692 230.23871 179.43692Q230.01996 179.43692 229.91058 179.6088Q229.73871 179.8588 229.73871 180.5463ZM231.28558 186.2338L230.26996 186.2338L234.08246 178.6713L235.06683 178.6713L231.28558 186.2338ZM233.50433 184.34317Q233.50433 183.39005 233.92621 182.9213Q234.34808 182.45255 235.08246 182.45255Q235.81683 182.45255 236.23871 182.9213Q236.66058 183.39005 236.66058 184.34317Q236.66058 185.31192 236.23871 185.78067Q235.81683 186.2338 235.09808 186.2338Q234.34808 186.2338 233.92621 185.78067Q233.50433 185.31192 233.50433 184.34317ZM234.56683 184.34317Q234.56683 185.0463 234.73871 185.28067Q234.84808 185.45255 235.06683 185.45255Q235.28558 185.45255 235.41058 185.28067Q235.56683 185.0463 235.56683 184.34317Q235.56683 183.64005 235.41058 183.40567Q235.28558 183.2338 235.06683 183.2338Q234.84808 183.2338 234.73871 183.40567Q234.56683 183.64005 234.56683 184.34317Z" fill-rule="nonzero"/><path fill="#555555" d="M291.4456 110.4999L292.8206 110.359276Q292.8831 110.828026 293.16434 111.09365Q293.4612 111.359276 293.8362 111.359276Q294.2581 111.359276 294.55496 111.015526Q294.85184 110.671776 294.85184 109.96865Q294.85184 109.3124 294.55496 108.984276Q294.2581 108.640526 293.78934 108.640526Q293.1956 108.640526 292.72684 109.171776L291.61746 109.015526L292.3206 105.28115L295.9456 105.28115L295.9456 106.5624L293.36746 106.5624L293.1487 107.78115Q293.60184 107.546776 294.0862 107.546776Q294.99246 107.546776 295.6331 108.21865Q296.2737 108.8749 296.2737 109.9374Q296.2737 110.828026 295.7581 111.515526Q295.05496 112.46865 293.8206 112.46865Q292.8206 112.46865 292.1956 111.9374Q291.5706 111.40615 291.4456 110.4999ZM297.6956 110.96865L299.0706 110.96865L299.0706 111.953026Q299.0706 112.546776 298.9612 112.890526Q298.85184 113.234276 298.5706 113.4999Q298.28934 113.78115 297.85184 113.9374L297.5862 113.3749Q297.99246 113.234276 298.16434 112.9999Q298.35184 112.765526 298.35184 112.34365L297.6956 112.34365L297.6956 110.96865ZM301.61746 108.484276Q301.0706 108.2499 300.8362 107.859276Q300.60184 107.46865 300.60184 106.9999Q300.60184 106.203026 301.1487 105.6874Q301.7112 105.15615 302.74246 105.15615Q303.7581 105.15615 304.3206 105.6874Q304.8987 106.203026 304.8987 106.9999Q304.8987 107.4999 304.6331 107.890526Q304.36746 108.28115 303.8987 108.484276Q304.5081 108.71865 304.80496 109.1874Q305.11746 109.640526 305.11746 110.234276Q305.11746 111.234276 304.47684 111.859276Q303.85184 112.46865 302.80496 112.46865Q301.8362 112.46865 301.17996 111.953026Q300.41434 111.359276 300.41434 110.296776Q300.41434 109.71865 300.6956 109.234276Q300.99246 108.7499 301.61746 108.484276ZM301.8987 107.09365Q301.8987 107.515526 302.11746 107.7499Q302.35184 107.96865 302.74246 107.96865Q303.1331 107.96865 303.36746 107.734276Q303.60184 107.4999 303.60184 107.09365Q303.60184 106.703026 303.36746 106.484276Q303.1331 106.2499 302.7581 106.2499Q302.36746 106.2499 302.1331 106.484276Q301.8987 106.71865 301.8987 107.09365ZM301.7737 110.171776Q301.7737 110.734276 302.05496 111.046776Q302.35184 111.359276 302.78934 111.359276Q303.2112 111.359276 303.47684 111.0624Q303.7581 110.7499 303.7581 110.1874Q303.7581 109.671776 303.47684 109.3749Q303.1956 109.0624 302.7581 109.0624Q302.2581 109.0624 302.0081 109.421776Q301.7737 109.765526 301.7737 110.171776ZM306.4456 106.953026Q306.4456 105.984276 306.86746 105.53115Q307.28934 105.0624 308.0081 105.0624Q308.7581 105.0624 309.17996 105.53115Q309.60184 105.984276 309.60184 106.953026Q309.60184 107.921776 309.17996 108.390526Q308.7581 108.84365 308.03934 108.84365Q307.28934 108.84365 306.86746 108.390526Q306.4456 107.921776 306.4456 106.953026ZM307.5081 106.9374Q307.5081 107.640526 307.67996 107.8749Q307.78934 108.0624 308.0081 108.0624Q308.22684 108.0624 308.35184 107.8749Q308.5081 107.640526 308.5081 106.9374Q308.5081 106.2499 308.35184 106.015526Q308.22684 105.828026 308.0081 105.828026Q307.78934 105.828026 307.67996 105.9999Q307.5081 106.2499 307.5081 106.9374ZM309.05496 112.6249L308.03934 112.6249L311.85184 105.0624L312.8362 105.0624L309.05496 112.6249ZM311.2737 110.734276Q311.2737 109.78115 311.6956 109.3124Q312.11746 108.84365 312.85184 108.84365Q313.5862 108.84365 314.0081 109.3124Q314.42996 109.78115 314.42996 110.734276Q314.42996 111.703026 314.0081 112.171776Q313.5862 112.6249 312.86746 112.6249Q312.11746 112.6249 311.6956 112.171776Q311.2737 111.703026 311.2737 110.734276ZM312.3362 110.734276Q312.3362 111.4374 312.5081 111.671776Q312.61746 111.84365 312.8362 111.84365Q313.05496 111.84365 313.17996 111.671776Q313.3362 111.4374 313.3362 110.734276Q313.3362 110.03115 313.17996 109.796776Q313.05496 109.6249 312.8362 109.6249Q312.61746 109.6249 312.5081 109.796776Q312.3362 110.03115 312.3362 110.734276Z" fill-rule="nonzero"/><path fill="#d18485" d="M32.389034 154.66667C32.389034 157.98038 29.702744 160.66667 26.389036 160.66667C23.075327 160.66667 20.389036 157.98038 20.389036 154.66667C20.389036 151.35295 23.075327 148.66667 26.389036 148.66667C29.702744 148.66667 32.389034 151.35295 32.389034 154.66667Z" fill-rule="nonzero"/><path fill="#555555" d="M41.31091 158.66667L41.31091 150.07292L42.46716 150.07292L46.982784 156.82292L46.982784 150.07292L48.076534 150.07292L48.076534 158.66667L46.90466 158.66667L42.389034 151.91667L42.389034 158.66667L41.31091 158.66667ZM49.795284 155.5573Q49.795284 153.82292 50.74841 152.9948Q51.545284 152.3073 52.701534 152.3073Q53.982784 152.3073 54.795284 153.15105Q55.62341 153.97917 55.62341 155.46355Q55.62341 156.66667 55.264034 157.35417Q54.90466 158.04167 54.201534 158.4323Q53.514034 158.8073 52.701534 158.8073Q51.40466 158.8073 50.59216 157.97917Q49.795284 157.13542 49.795284 155.5573ZM50.87341 155.5573Q50.87341 156.7448 51.389034 157.33855Q51.920284 157.9323 52.701534 157.9323Q53.49841 157.9323 54.014034 157.33855Q54.52966 156.7448 54.52966 155.52605Q54.52966 154.3698 53.99841 153.77605Q53.482784 153.1823 52.701534 153.1823Q51.920284 153.1823 51.389034 153.77605Q50.87341 154.35417 50.87341 155.5573ZM57.170284 158.66667L57.170284 152.44792L58.12341 152.44792L58.12341 153.38542Q58.482784 152.72917 58.77966 152.52605Q59.09216 152.3073 59.46716 152.3073Q59.99841 152.3073 60.545284 152.63542L60.18591 153.6198Q59.795284 153.38542 59.420284 153.38542Q59.06091 153.38542 58.77966 153.60417Q58.514034 153.8073 58.40466 154.1823Q58.21716 154.7448 58.21716 155.40105L58.21716 158.66667L57.170284 158.66667ZM63.482784 157.72917L63.639034 158.65105Q63.18591 158.7448 62.84216 158.7448Q62.264034 158.7448 61.951534 158.57292Q61.639034 158.38542 61.49841 158.08855Q61.37341 157.79167 61.37341 156.83855L61.37341 153.26042L60.607784 153.26042L60.607784 152.44792L61.37341 152.44792L61.37341 150.90105L62.420284 150.27605L62.420284 152.44792L63.482784 152.44792L63.482784 153.26042L62.420284 153.26042L62.420284 156.90105Q62.420284 157.35417 62.46716 157.47917Q62.52966 157.60417 62.65466 157.6823Q62.77966 157.76042 63.014034 157.76042Q63.201534 157.76042 63.482784 157.72917ZM68.43591 156.66667L69.52966 156.79167Q69.27966 157.7448 68.57654 158.27605Q67.87341 158.8073 66.79529 158.8073Q65.43591 158.8073 64.62341 157.96355Q63.826534 157.1198 63.826534 155.60417Q63.826534 154.04167 64.63904 153.1823Q65.45154 152.3073 66.73279 152.3073Q67.98279 152.3073 68.76404 153.15105Q69.56091 153.9948 69.56091 155.54167Q69.56091 155.63542 69.56091 155.82292L64.92029 155.82292Q64.98279 156.85417 65.49841 157.40105Q66.01404 157.9323 66.79529 157.9323Q67.37341 157.9323 67.77966 157.63542Q68.20154 157.32292 68.43591 156.66667ZM64.98279 154.96355L68.45154 154.96355Q68.38904 154.16667 68.06091 153.77605Q67.54529 153.16667 66.74841 153.16667Q66.01404 153.16667 65.51404 153.65105Q65.02966 154.13542 64.98279 154.96355Z" fill-rule="nonzero"/><path fill="#cf9456" d="M32.389034 178.66667C32.389034 181.98038 29.702744 184.66667 26.389036 184.66667C23.075327 184.66667 20.389036 181.98038 20.389036 178.66667C20.389036 175.35295 23.075327 172.66667 26.389036 172.66667C29.702744 172.66667 32.389034 175.35295 32.389034 178.66667Z" fill-rule="nonzero"/><path fill="#555555" d="M41.31091 182.66667L41.31091 174.07292L42.46716 174.07292L46.982784 180.82292L46.982784 174.07292L48.076534 174.07292L48.076534 182.66667L46.90466 182.66667L42.389034 175.91667L42.389034 182.66667L41.31091 182.66667ZM49.795284 179.5573Q49.795284 177.82292 50.74841 176.9948Q51.545284 176.3073 52.701534 176.3073Q53.982784 176.3073 54.795284 177.15105Q55.62341 177.97917 55.62341 179.46355Q55.62341 180.66667 55.264034 181.35417Q54.90466 182.04167 54.201534 182.4323Q53.514034 182.8073 52.701534 182.8073Q51.40466 182.8073 50.59216 181.97917Q49.795284 181.13542 49.795284 179.5573ZM50.87341 179.5573Q50.87341 180.7448 51.389034 181.33855Q51.920284 181.9323 52.701534 181.9323Q53.49841 181.9323 54.014034 181.33855Q54.52966 180.7448 54.52966 179.52605Q54.52966 178.3698 53.99841 177.77605Q53.482784 177.1823 52.701534 177.1823Q51.920284 177.1823 51.389034 177.77605Q50.87341 178.35417 50.87341 179.5573ZM57.170284 182.66667L57.170284 176.44792L58.12341 176.44792L58.12341 177.38542Q58.482784 176.72917 58.77966 176.52605Q59.09216 176.3073 59.46716 176.3073Q59.99841 176.3073 60.545284 176.63542L60.18591 177.6198Q59.795284 177.38542 59.420284 177.38542Q59.06091 177.38542 58.77966 177.60417Q58.514034 177.8073 58.40466 178.1823Q58.21716 178.7448 58.21716 179.40105L58.21716 182.66667L57.170284 182.66667ZM65.21716 182.66667L65.21716 181.88542Q64.62341 182.8073 63.482784 182.8073Q62.732784 182.8073 62.107784 182.40105Q61.482784 181.97917 61.139034 181.2448Q60.795284 180.51042 60.795284 179.5573Q60.795284 178.63542 61.107784 177.8698Q61.420284 177.10417 62.045284 176.71355Q62.670284 176.3073 63.43591 176.3073Q63.99841 176.3073 64.43591 176.54167Q64.87341 176.77605 65.15466 177.15105L65.15466 174.07292L66.20154 174.07292L66.20154 182.66667L65.21716 182.66667ZM61.889034 179.5573Q61.889034 180.76042 62.389034 181.35417Q62.889034 181.9323 63.576534 181.9323Q64.26404 181.9323 64.74841 181.3698Q65.23279 180.8073 65.23279 179.65105Q65.23279 178.3698 64.73279 177.77605Q64.24841 177.1823 63.52966 177.1823Q62.826534 177.1823 62.357784 177.76042Q61.889034 178.32292 61.889034 179.5573ZM72.43591 180.66667L73.52966 180.79167Q73.27966 181.7448 72.57654 182.27605Q71.87341 182.8073 70.79529 182.8073Q69.43591 182.8073 68.62341 181.96355Q67.82654 181.1198 67.82654 179.60417Q67.82654 178.04167 68.63904 177.1823Q69.45154 176.3073 70.73279 176.3073Q71.98279 176.3073 72.76404 177.15105Q73.56091 177.9948 73.56091 179.54167Q73.56091 179.63542 73.56091 179.82292L68.92029 179.82292Q68.98279 180.85417 69.49841 181.40105Q70.01404 181.9323 70.79529 181.9323Q71.37341 181.9323 71.77966 181.63542Q72.20154 181.32292 72.43591 180.66667ZM68.98279 178.96355L72.45154 178.96355Q72.38904 178.16667 72.06091 177.77605Q71.54529 177.16667 70.74841 177.16667Q70.01404 177.16667 69.51404 177.65105Q69.02966 178.13542 68.98279 178.96355ZM74.76404 180.8073L75.79529 180.65105Q75.88904 181.27605 76.27966 181.60417Q76.68591 181.9323 77.42029 181.9323Q78.13904 181.9323 78.48279 181.65105Q78.84216 181.35417 78.84216 180.94792Q78.84216 180.58855 78.52966 180.38542Q78.31091 180.2448 77.45154 180.02605Q76.29529 179.72917 75.84216 179.52605Q75.40466 179.3073 75.17029 178.9323Q74.93591 178.5573 74.93591 178.08855Q74.93591 177.6823 75.12341 177.32292Q75.31091 176.96355 75.63904 176.72917Q75.88904 176.5573 76.31091 176.4323Q76.73279 176.3073 77.23279 176.3073Q77.95154 176.3073 78.49841 176.52605Q79.06091 176.72917 79.32654 177.08855Q79.59216 177.44792 79.68591 178.04167L78.65466 178.1823Q78.59216 177.71355 78.24841 177.44792Q77.92029 177.16667 77.29529 177.16667Q76.57654 177.16667 76.26404 177.41667Q75.95154 177.65105 75.95154 177.97917Q75.95154 178.1823 76.07654 178.33855Q76.21716 178.51042 76.48279 178.6198Q76.63904 178.6823 77.42029 178.88542Q78.54529 179.19792 78.98279 179.38542Q79.42029 179.57292 79.67029 179.9323Q79.92029 180.29167 79.92029 180.83855Q79.92029 181.3698 79.60779 181.83855Q79.31091 182.29167 78.73279 182.5573Q78.15466 182.8073 77.42029 182.8073Q76.20154 182.8073 75.56091 182.3073Q74.93591 181.79167 74.76404 180.8073ZM84.48279 181.72917L84.63904 182.65105Q84.18591 182.7448 83.84216 182.7448Q83.26404 182.7448 82.95154 182.57292Q82.63904 182.38542 82.49841 182.08855Q82.37341 181.79167 82.37341 180.83855L82.37341 177.26042L81.60779 177.26042L81.60779 176.44792L82.37341 176.44792L82.37341 174.90105L83.42029 174.27605L83.42029 176.44792L84.48279 176.44792L84.48279 177.26042L83.42029 177.26042L83.42029 180.90105Q83.42029 181.35417 83.46716 181.47917Q83.52966 181.60417 83.65466 181.6823Q83.77966 181.76042 84.01404 181.76042Q84.20154 181.76042 84.48279 181.72917ZM89.43591 180.66667L90.52966 180.79167Q90.27966 181.7448 89.57654 182.27605Q88.87341 182.8073 87.79529 182.8073Q86.43591 182.8073 85.62341 181.96355Q84.82654 181.1198 84.82654 179.60417Q84.82654 178.04167 85.63904 177.1823Q86.45154 176.3073 87.73279 176.3073Q88.98279 176.3073 89.76404 177.15105Q90.56091 177.9948 90.56091 179.54167Q90.56091 179.63542 90.56091 179.82292L85.92029 179.82292Q85.98279 180.85417 86.49841 181.40105Q87.01404 181.9323 87.79529 181.9323Q88.37341 181.9323 88.77966 181.63542Q89.20154 181.32292 89.43591 180.66667ZM85.98279 178.96355L89.45154 178.96355Q89.38904 178.16667 89.06091 177.77605Q88.54529 177.16667 87.74841 177.16667Q87.01404 177.16667 86.51404 177.65105Q86.02966 178.13542 85.98279 178.96355Z" fill-rule="nonzero"/><path fill="#ad3f83" d="M32.389034 202.66667C32.389034 205.98038 29.702744 208.66667 26.389036 208.66667C23.075327 208.66667 20.389036 205.98038 20.389036 202.66667C20.389036 199.35295 23.075327 196.66667 26.389036 196.66667C29.702744 196.66667 32.389034 199.35295 32.389034 202.66667Z" fill-rule="nonzero"/><path fill="#555555" d="M40.93591 203.90105L41.99841 203.8073Q42.076534 204.46355 42.357784 204.8698Q42.639034 205.27605 43.21716 205.54167Q43.81091 205.79167 44.545284 205.79167Q45.18591 205.79167 45.68591 205.60417Q46.18591 205.40105 46.420284 205.07292Q46.670284 204.72917 46.670284 204.33855Q46.670284 203.9323 46.43591 203.63542Q46.201534 203.32292 45.670284 203.1198Q45.31091 202.97917 44.12341 202.69792Q42.951534 202.41667 42.482784 202.16667Q41.857784 201.83855 41.56091 201.3698Q41.264034 200.88542 41.264034 200.29167Q41.264034 199.65105 41.62341 199.08855Q41.99841 198.51042 42.701534 198.22917Q43.420284 197.9323 44.27966 197.9323Q45.232784 197.9323 45.96716 198.2448Q46.701534 198.54167 47.09216 199.15105Q47.482784 199.7448 47.514034 200.4948L46.420284 200.57292Q46.326534 199.76042 45.81091 199.35417Q45.31091 198.9323 44.326534 198.9323Q43.295284 198.9323 42.826534 199.3073Q42.357784 199.6823 42.357784 200.21355Q42.357784 200.6823 42.68591 200.97917Q43.014034 201.27605 44.389034 201.58855Q45.77966 201.90105 46.295284 202.13542Q47.045284 202.4948 47.40466 203.02605Q47.764034 203.54167 47.764034 204.2448Q47.764034 204.9323 47.37341 205.54167Q46.982784 206.13542 46.24841 206.47917Q45.514034 206.8073 44.59216 206.8073Q43.420284 206.8073 42.62341 206.47917Q41.84216 206.13542 41.389034 205.44792Q40.951534 204.76042 40.93591 203.90105ZM53.264034 206.66667L53.264034 205.7448Q52.52966 206.8073 51.27966 206.8073Q50.732784 206.8073 50.24841 206.60417Q49.77966 206.38542 49.545284 206.07292Q49.31091 205.7448 49.21716 205.27605Q49.15466 204.97917 49.15466 204.29167L49.15466 200.44792L50.21716 200.44792L50.21716 203.90105Q50.21716 204.71355 50.27966 205.01042Q50.37341 205.41667 50.68591 205.66667Q51.014034 205.90105 51.49841 205.90105Q51.96716 205.90105 52.37341 205.66667Q52.795284 205.41667 52.96716 204.9948Q53.15466 204.57292 53.15466 203.77605L53.15466 200.44792L54.201534 200.44792L54.201534 206.66667L53.264034 206.66667ZM60.21716 206.66667L60.21716 205.88542Q59.62341 206.8073 58.482784 206.8073Q57.732784 206.8073 57.107784 206.40105Q56.482784 205.97917 56.139034 205.2448Q55.795284 204.51042 55.795284 203.5573Q55.795284 202.63542 56.107784 201.8698Q56.420284 201.10417 57.045284 200.71355Q57.670284 200.3073 58.43591 200.3073Q58.99841 200.3073 59.43591 200.54167Q59.87341 200.77605 60.15466 201.15105L60.15466 198.07292L61.201534 198.07292L61.201534 206.66667L60.21716 206.66667ZM56.889034 203.5573Q56.889034 204.76042 57.389034 205.35417Q57.889034 205.9323 58.576534 205.9323Q59.264034 205.9323 59.74841 205.3698Q60.232784 204.8073 60.232784 203.65105Q60.232784 202.3698 59.732784 201.77605Q59.24841 201.1823 58.52966 201.1823Q57.826534 201.1823 57.357784 201.76042Q56.889034 202.32292 56.889034 203.5573ZM67.43591 204.66667L68.52966 204.79167Q68.27966 205.7448 67.57654 206.27605Q66.87341 206.8073 65.79529 206.8073Q64.43591 206.8073 63.62341 205.96355Q62.826534 205.1198 62.826534 203.60417Q62.826534 202.04167 63.639034 201.1823Q64.45154 200.3073 65.73279 200.3073Q66.98279 200.3073 67.76404 201.15105Q68.56091 201.9948 68.56091 203.54167Q68.56091 203.63542 68.56091 203.82292L63.920284 203.82292Q63.982784 204.85417 64.49841 205.40105Q65.01404 205.9323 65.79529 205.9323Q66.37341 205.9323 66.77966 205.63542Q67.20154 205.32292 67.43591 204.66667ZM63.982784 202.96355L67.45154 202.96355Q67.38904 202.16667 67.06091 201.77605Q66.54529 201.16667 65.74841 201.16667Q65.01404 201.16667 64.51404 201.65105Q64.02966 202.13542 63.982784 202.96355ZM69.76404 204.8073L70.79529 204.65105Q70.88904 205.27605 71.27966 205.60417Q71.68591 205.9323 72.42029 205.9323Q73.13904 205.9323 73.48279 205.65105Q73.84216 205.35417 73.84216 204.94792Q73.84216 204.58855 73.52966 204.38542Q73.31091 204.2448 72.45154 204.02605Q71.29529 203.72917 70.84216 203.52605Q70.40466 203.3073 70.17029 202.9323Q69.93591 202.5573 69.93591 202.08855Q69.93591 201.6823 70.12341 201.32292Q70.31091 200.96355 70.63904 200.72917Q70.88904 200.5573 71.31091 200.4323Q71.73279 200.3073 72.23279 200.3073Q72.95154 200.3073 73.49841 200.52605Q74.06091 200.72917 74.32654 201.08855Q74.59216 201.44792 74.68591 202.04167L73.65466 202.1823Q73.59216 201.71355 73.24841 201.44792Q72.92029 201.16667 72.29529 201.16667Q71.57654 201.16667 71.26404 201.41667Q70.95154 201.65105 70.95154 201.97917Q70.95154 202.1823 71.07654 202.33855Q71.21716 202.51042 71.48279 202.6198Q71.63904 202.6823 72.42029 202.88542Q73.54529 203.19792 73.98279 203.38542Q74.42029 203.57292 74.67029 203.9323Q74.92029 204.29167 74.92029 204.83855Q74.92029 205.3698 74.60779 205.83855Q74.31091 206.29167 73.73279 206.5573Q73.15466 206.8073 72.42029 206.8073Q71.20154 206.8073 70.56091 206.3073Q69.93591 205.79167 69.76404 204.8073ZM79.48279 205.72917L79.63904 206.65105Q79.18591 206.7448 78.84216 206.7448Q78.26404 206.7448 77.95154 206.57292Q77.63904 206.38542 77.49841 206.08855Q77.37341 205.79167 77.37341 204.83855L77.37341 201.26042L76.60779 201.26042L76.60779 200.44792L77.37341 200.44792L77.37341 198.90105L78.42029 198.27605L78.42029 200.44792L79.48279 200.44792L79.48279 201.26042L78.42029 201.26042L78.42029 204.90105Q78.42029 205.35417 78.46716 205.47917Q78.52966 205.60417 78.65466 205.6823Q78.77966 205.76042 79.01404 205.76042Q79.20154 205.76042 79.48279 205.72917ZM84.43591 204.66667L85.52966 204.79167Q85.27966 205.7448 84.57654 206.27605Q83.87341 206.8073 82.79529 206.8073Q81.43591 206.8073 80.62341 205.96355Q79.82654 205.1198 79.82654 203.60417Q79.82654 202.04167 80.63904 201.1823Q81.45154 200.3073 82.73279 200.3073Q83.98279 200.3073 84.76404 201.15105Q85.56091 201.9948 85.56091 203.54167Q85.56091 203.63542 85.56091 203.82292L80.92029 203.82292Q80.98279 204.85417 81.49841 205.40105Q82.01404 205.9323 82.79529 205.9323Q83.37341 205.9323 83.77966 205.63542Q84.20154 205.32292 84.43591 204.66667ZM80.98279 202.96355L84.45154 202.96355Q84.38904 202.16667 84.06091 201.77605Q83.54529 201.16667 82.74841 201.16667Q82.01404 201.16667 81.51404 201.65105Q81.02966 202.13542 80.98279 202.96355Z" fill-rule="nonzero"/><path fill="#bda4a4" d="M32.389034 226.66667C32.389034 229.98038 29.702744 232.66667 26.389036 232.66667C23.075327 232.66667 20.389036 229.98038 20.389036 226.66667C20.389036 223.35295 23.075327 220.66667 26.389036 220.66667C29.702744 220.66667 32.389034 223.35295 32.389034 226.66667Z" fill-rule="nonzero"/><path fill="#555555" d="M40.93591 227.90105L41.99841 227.8073Q42.076534 228.46355 42.357784 228.8698Q42.639034 229.27605 43.21716 229.54167Q43.81091 229.79167 44.545284 229.79167Q45.18591 229.79167 45.68591 229.60417Q46.18591 229.40105 46.420284 229.07292Q46.670284 228.72917 46.670284 228.33855Q46.670284 227.9323 46.43591 227.63542Q46.201534 227.32292 45.670284 227.1198Q45.31091 226.97917 44.12341 226.69792Q42.951534 226.41667 42.482784 226.16667Q41.857784 225.83855 41.56091 225.3698Q41.264034 224.88542 41.264034 224.29167Q41.264034 223.65105 41.62341 223.08855Q41.99841 222.51042 42.701534 222.22917Q43.420284 221.9323 44.27966 221.9323Q45.232784 221.9323 45.96716 222.2448Q46.701534 222.54167 47.09216 223.15105Q47.482784 223.7448 47.514034 224.4948L46.420284 224.57292Q46.326534 223.76042 45.81091 223.35417Q45.31091 222.9323 44.326534 222.9323Q43.295284 222.9323 42.826534 223.3073Q42.357784 223.6823 42.357784 224.21355Q42.357784 224.6823 42.68591 224.97917Q43.014034 225.27605 44.389034 225.58855Q45.77966 225.90105 46.295284 226.13542Q47.045284 226.4948 47.40466 227.02605Q47.764034 227.54167 47.764034 228.2448Q47.764034 228.9323 47.37341 229.54167Q46.982784 230.13542 46.24841 230.47917Q45.514034 230.8073 44.59216 230.8073Q43.420284 230.8073 42.62341 230.47917Q41.84216 230.13542 41.389034 229.44792Q40.951534 228.76042 40.93591 227.90105ZM53.264034 230.66667L53.264034 229.7448Q52.52966 230.8073 51.27966 230.8073Q50.732784 230.8073 50.24841 230.60417Q49.77966 230.38542 49.545284 230.07292Q49.31091 229.7448 49.21716 229.27605Q49.15466 228.97917 49.15466 228.29167L49.15466 224.44792L50.21716 224.44792L50.21716 227.90105Q50.21716 228.71355 50.27966 229.01042Q50.37341 229.41667 50.68591 229.66667Q51.014034 229.90105 51.49841 229.90105Q51.96716 229.90105 52.37341 229.66667Q52.795284 229.41667 52.96716 228.9948Q53.15466 228.57292 53.15466 227.77605L53.15466 224.44792L54.201534 224.44792L54.201534 230.66667L53.264034 230.66667ZM56.15466 230.66667L56.15466 222.07292L57.21716 222.07292L57.21716 230.66667L56.15466 230.66667Z" fill-rule="nonzero"/><path fill="#c1cee0" d="M32.389034 250.66667C32.389034 253.98038 29.702744 256.66666 26.389036 256.66666C23.075327 256.66666 20.389036 253.98038 20.389036 250.66667C20.389036 247.35295 23.075327 244.66667 26.389036 244.66667C29.702744 244.66667 32.389034 247.35295 32.389034 250.66667Z" fill-rule="nonzero"/><path fill="#555555" d="M47.451534 251.65105L48.576534 251.94792Q48.21716 253.33855 47.295284 254.07292Q46.37341 254.8073 45.02966 254.8073Q43.639034 254.8073 42.764034 254.2448Q41.889034 253.6823 41.43591 252.6198Q40.982784 251.54167 40.982784 250.3073Q40.982784 248.96355 41.49841 247.96355Q42.014034 246.96355 42.951534 246.44792Q43.90466 245.9323 45.045284 245.9323Q46.326534 245.9323 47.201534 246.58855Q48.09216 247.2448 48.43591 248.4323L47.31091 248.69792Q47.014034 247.76042 46.43591 247.33855Q45.87341 246.90105 45.014034 246.90105Q44.02966 246.90105 43.357784 247.38542Q42.701534 247.85417 42.420284 248.65105Q42.15466 249.44792 42.15466 250.3073Q42.15466 251.40105 42.46716 252.21355Q42.795284 253.02605 43.46716 253.4323Q44.139034 253.83855 44.93591 253.83855Q45.889034 253.83855 46.545284 253.29167Q47.21716 252.7448 47.451534 251.65105ZM54.43591 252.66667L55.52966 252.79167Q55.27966 253.7448 54.576534 254.27605Q53.87341 254.8073 52.795284 254.8073Q51.43591 254.8073 50.62341 253.96355Q49.826534 253.1198 49.826534 251.60417Q49.826534 250.04167 50.639034 249.1823Q51.451534 248.3073 52.732784 248.3073Q53.982784 248.3073 54.764034 249.15105Q55.56091 249.9948 55.56091 251.54167Q55.56091 251.63542 55.56091 251.82292L50.920284 251.82292Q50.982784 252.85417 51.49841 253.40105Q52.014034 253.9323 52.795284 253.9323Q53.37341 253.9323 53.77966 253.63542Q54.201534 253.32292 54.43591 252.66667ZM50.982784 250.96355L54.451534 250.96355Q54.389034 250.16667 54.06091 249.77605Q53.545284 249.16667 52.74841 249.16667Q52.014034 249.16667 51.514034 249.65105Q51.02966 250.13542 50.982784 250.96355ZM57.18591 254.66667L57.18591 248.44792L58.12341 248.44792L58.12341 249.32292Q58.81091 248.3073 60.107784 248.3073Q60.670284 248.3073 61.139034 248.51042Q61.62341 248.71355 61.857784 249.04167Q62.09216 249.3698 62.18591 249.8073Q62.232784 250.10417 62.232784 250.83855L62.232784 254.66667L61.18591 254.66667L61.18591 250.88542Q61.18591 250.22917 61.06091 249.91667Q60.93591 249.60417 60.62341 249.41667Q60.31091 249.21355 59.889034 249.21355Q59.21716 249.21355 58.71716 249.65105Q58.232784 250.07292 58.232784 251.26042L58.232784 254.66667L57.18591 254.66667ZM66.48279 253.72917L66.63904 254.65105Q66.18591 254.7448 65.84216 254.7448Q65.26404 254.7448 64.95154 254.57292Q64.63904 254.38542 64.49841 254.08855Q64.37341 253.79167 64.37341 252.83855L64.37341 249.26042L63.607784 249.26042L63.607784 248.44792L64.37341 248.44792L64.37341 246.90105L65.42029 246.27605L65.42029 248.44792L66.48279 248.44792L66.48279 249.26042L65.42029 249.26042L65.42029 252.90105Q65.42029 253.35417 65.46716 253.47917Q65.52966 253.60417 65.65466 253.6823Q65.77966 253.76042 66.01404 253.76042Q66.20154 253.76042 66.48279 253.72917ZM67.17029 254.66667L67.17029 248.44792L68.12341 248.44792L68.12341 249.38542Q68.48279 248.72917 68.77966 248.52605Q69.09216 248.3073 69.46716 248.3073Q69.99841 248.3073 70.54529 248.63542L70.18591 249.6198Q69.79529 249.38542 69.42029 249.38542Q69.06091 249.38542 68.77966 249.60417Q68.51404 249.8073 68.40466 250.1823Q68.21716 250.7448 68.21716 251.40105L68.21716 254.66667L67.17029 254.66667ZM70.79529 251.5573Q70.79529 249.82292 71.74841 248.9948Q72.54529 248.3073 73.70154 248.3073Q74.98279 248.3073 75.79529 249.15105Q76.62341 249.97917 76.62341 251.46355Q76.62341 252.66667 76.26404 253.35417Q75.90466 254.04167 75.20154 254.4323Q74.51404 254.8073 73.70154 254.8073Q72.40466 254.8073 71.59216 253.97917Q70.79529 253.13542 70.79529 251.5573ZM71.87341 251.5573Q71.87341 252.7448 72.38904 253.33855Q72.92029 253.9323 73.70154 253.9323Q74.49841 253.9323 75.01404 253.33855Q75.52966 252.7448 75.52966 251.52605Q75.52966 250.3698 74.99841 249.77605Q74.48279 249.1823 73.70154 249.1823Q72.92029 249.1823 72.38904 249.77605Q71.87341 250.35417 71.87341 251.5573ZM77.76404 252.08855L77.76404 251.02605L81.01404 251.02605L81.01404 252.08855L77.76404 252.08855ZM81.79529 251.5573Q81.79529 249.82292 82.74841 248.9948Q83.54529 248.3073 84.70154 248.3073Q85.98279 248.3073 86.79529 249.15105Q87.62341 249.97917 87.62341 251.46355Q87.62341 252.66667 87.26404 253.35417Q86.90466 254.04167 86.20154 254.4323Q85.51404 254.8073 84.70154 254.8073Q83.40466 254.8073 82.59216 253.97917Q81.79529 253.13542 81.79529 251.5573ZM82.87341 251.5573Q82.87341 252.7448 83.38904 253.33855Q83.92029 253.9323 84.70154 253.9323Q85.49841 253.9323 86.01404 253.33855Q86.52966 252.7448 86.52966 251.52605Q86.52966 250.3698 85.99841 249.77605Q85.48279 249.1823 84.70154 249.1823Q83.92029 249.1823 83.38904 249.77605Q82.87341 250.35417 82.87341 251.5573ZM93.43591 252.66667L94.52966 252.79167Q94.27966 253.7448 93.57654 254.27605Q92.87341 254.8073 91.79529 254.8073Q90.43591 254.8073 89.62341 253.96355Q88.82654 253.1198 88.82654 251.60417Q88.82654 250.04167 89.63904 249.1823Q90.45154 248.3073 91.73279 248.3073Q92.98279 248.3073 93.76404 249.15105Q94.56091 249.9948 94.56091 251.54167Q94.56091 251.63542 94.56091 251.82292L89.92029 251.82292Q89.98279 252.85417 90.49841 253.40105Q91.01404 253.9323 91.79529 253.9323Q92.37341 253.9323 92.77966 253.63542Q93.20154 253.32292 93.43591 252.66667ZM89.98279 250.96355L93.45154 250.96355Q93.38904 250.16667 93.06091 249.77605Q92.54529 249.16667 91.74841 249.16667Q91.01404 249.16667 90.51404 249.65105Q90.02966 250.13542 89.98279 250.96355ZM95.76404 252.8073L96.79529 252.65105Q96.88904 253.27605 97.27966 253.60417Q97.68591 253.9323 98.42029 253.9323Q99.13904 253.9323 99.48279 253.65105Q99.84216 253.35417 99.84216 252.94792Q99.84216 252.58855 99.52966 252.38542Q99.31091 252.2448 98.45154 252.02605Q97.29529 251.72917 96.84216 251.52605Q96.40466 251.3073 96.17029 250.9323Q95.93591 250.5573 95.93591 250.08855Q95.93591 249.6823 96.12341 249.32292Q96.31091 248.96355 96.63904 248.72917Q96.88904 248.5573 97.31091 248.4323Q97.73279 248.3073 98.23279 248.3073Q98.95154 248.3073 99.49841 248.52605Q100.06091 248.72917 100.32654 249.08855Q100.59216 249.44792 100.68591 250.04167L99.65466 250.1823Q99.59216 249.71355 99.24841 249.44792Q98.92029 249.16667 98.29529 249.16667Q97.57654 249.16667 97.26404 249.41667Q96.95154 249.65105 96.95154 249.97917Q96.95154 250.1823 97.07654 250.33855Q97.21716 250.51042 97.48279 250.6198Q97.63904 250.6823 98.42029 250.88542Q99.54529 251.19792 99.98279 251.38542Q100.42029 251.57292 100.67029 251.9323Q100.92029 252.29167 100.92029 252.83855Q100.92029 253.3698 100.60779 253.83855Q100.31091 254.29167 99.73279 254.5573Q99.15466 254.8073 98.42029 254.8073Q97.20154 254.8073 96.56091 254.3073Q95.93591 253.79167 95.76404 252.8073ZM105.48279 253.72917L105.63904 254.65105Q105.18591 254.7448 104.84216 254.7448Q104.26404 254.7448 103.95154 254.57292Q103.63904 254.38542 103.49841 254.08855Q103.37341 253.79167 103.37341 252.83855L103.37341 249.26042L102.60779 249.26042L102.60779 248.44792L103.37341 248.44792L103.37341 246.90105L104.42029 246.27605L104.42029 248.44792L105.48279 248.44792L105.48279 249.26042L104.42029 249.26042L104.42029 252.90105Q104.42029 253.35417 104.46716 253.47917Q104.52966 253.60417 104.65466 253.6823Q104.77966 253.76042 105.01404 253.76042Q105.20154 253.76042 105.48279 253.72917ZM110.43591 252.66667L111.52966 252.79167Q111.27966 253.7448 110.57654 254.27605Q109.87341 254.8073 108.79529 254.8073Q107.43591 254.8073 106.62341 253.96355Q105.82654 253.1198 105.82654 251.60417Q105.82654 250.04167 106.63904 249.1823Q107.45154 248.3073 108.73279 248.3073Q109.98279 248.3073 110.76404 249.15105Q111.56091 249.9948 111.56091 251.54167Q111.56091 251.63542 111.56091 251.82292L106.92029 251.82292Q106.98279 252.85417 107.49841 253.40105Q108.01404 253.9323 108.79529 253.9323Q109.37341 253.9323 109.77966 253.63542Q110.20154 253.32292 110.43591 252.66667ZM106.98279 250.96355L110.45154 250.96355Q110.38904 250.16667 110.06091 249.77605Q109.54529 249.16667 108.74841 249.16667Q108.01404 249.16667 107.51404 249.65105Q107.02966 250.13542 106.98279 250.96355Z" fill-rule="nonzero"/><path fill="#ab3635" d="M32.389034 274.66666C32.389034 277.98038 29.702744 280.66666 26.389036 280.66666C23.075327 280.66666 20.389036 277.98038 20.389036 274.66666C20.389036 271.35297 23.075327 268.66666 26.389036 268.66666C29.702744 268.66666 32.389034 271.35297 32.389034 274.66666Z" fill-rule="nonzero"/><path fill="#555555" d="M40.96716 274.47916Q40.96716 272.33853 42.107784 271.1354Q43.264034 269.91666 45.076534 269.91666Q46.27966 269.91666 47.232784 270.49478Q48.18591 271.05728 48.68591 272.0729Q49.18591 273.08853 49.18591 274.3854Q49.18591 275.68228 48.65466 276.71353Q48.12341 277.74478 47.15466 278.27603Q46.201534 278.80728 45.076534 278.80728Q43.857784 278.80728 42.90466 278.22916Q41.951534 277.6354 41.451534 276.6354Q40.96716 275.61978 40.96716 274.47916ZM42.139034 274.49478Q42.139034 276.05728 42.96716 276.9479Q43.81091 277.83853 45.076534 277.83853Q46.357784 277.83853 47.18591 276.9479Q48.014034 276.04166 48.014034 274.36978Q48.014034 273.3229 47.65466 272.54166Q47.31091 271.7604 46.62341 271.33853Q45.93591 270.90103 45.09216 270.90103Q43.889034 270.90103 43.014034 271.72916Q42.139034 272.55728 42.139034 274.49478ZM54.264034 278.66666L54.264034 277.74478Q53.52966 278.80728 52.27966 278.80728Q51.732784 278.80728 51.24841 278.60416Q50.77966 278.3854 50.545284 278.0729Q50.31091 277.74478 50.21716 277.27603Q50.15466 276.97916 50.15466 276.29166L50.15466 272.4479L51.21716 272.4479L51.21716 275.90103Q51.21716 276.71353 51.27966 277.0104Q51.37341 277.41666 51.68591 277.66666Q52.014034 277.90103 52.49841 277.90103Q52.96716 277.90103 53.37341 277.66666Q53.795284 277.41666 53.96716 276.99478Q54.15466 276.5729 54.15466 275.77603L54.15466 272.4479L55.201534 272.4479L55.201534 278.66666L54.264034 278.66666ZM59.482784 277.72916L59.639034 278.65103Q59.18591 278.74478 58.84216 278.74478Q58.264034 278.74478 57.951534 278.5729Q57.639034 278.3854 57.49841 278.08853Q57.37341 277.79166 57.37341 276.83853L57.37341 273.2604L56.607784 273.2604L56.607784 272.4479L57.37341 272.4479L57.37341 270.90103L58.420284 270.27603L58.420284 272.4479L59.482784 272.4479L59.482784 273.2604L58.420284 273.2604L58.420284 276.90103Q58.420284 277.35416 58.46716 277.47916Q58.52966 277.60416 58.65466 277.68228Q58.77966 277.7604 59.014034 277.7604Q59.201534 277.7604 59.482784 277.72916ZM60.170284 278.66666L60.170284 272.4479L61.12341 272.4479L61.12341 273.3854Q61.482784 272.72916 61.77966 272.52603Q62.09216 272.30728 62.46716 272.30728Q62.99841 272.30728 63.545284 272.6354L63.18591 273.61978Q62.795284 273.3854 62.420284 273.3854Q62.06091 273.3854 61.77966 273.60416Q61.514034 273.80728 61.40466 274.18228Q61.21716 274.74478 61.21716 275.40103L61.21716 278.66666L60.170284 278.66666ZM63.795284 275.55728Q63.795284 273.8229 64.74841 272.99478Q65.54529 272.30728 66.70154 272.30728Q67.98279 272.30728 68.79529 273.15103Q69.62341 273.97916 69.62341 275.46353Q69.62341 276.66666 69.26404 277.35416Q68.90466 278.04166 68.20154 278.43228Q67.51404 278.80728 66.70154 278.80728Q65.40466 278.80728 64.59216 277.97916Q63.795284 277.1354 63.795284 275.55728ZM64.87341 275.55728Q64.87341 276.74478 65.38904 277.33853Q65.92029 277.93228 66.70154 277.93228Q67.49841 277.93228 68.01404 277.33853Q68.52966 276.74478 68.52966 275.52603Q68.52966 274.36978 67.99841 273.77603Q67.48279 273.18228 66.70154 273.18228Q65.92029 273.18228 65.38904 273.77603Q64.87341 274.35416 64.87341 275.55728ZM70.76404 276.80728L71.79529 276.65103Q71.88904 277.27603 72.27966 277.60416Q72.68591 277.93228 73.42029 277.93228Q74.13904 277.93228 74.48279 277.65103Q74.84216 277.35416 74.84216 276.9479Q74.84216 276.58853 74.52966 276.3854Q74.31091 276.24478 73.45154 276.02603Q72.29529 275.72916 71.84216 275.52603Q71.40466 275.30728 71.17029 274.93228Q70.93591 274.55728 70.93591 274.08853Q70.93591 273.68228 71.12341 273.3229Q71.31091 272.96353 71.63904 272.72916Q71.88904 272.55728 72.31091 272.43228Q72.73279 272.30728 73.23279 272.30728Q73.95154 272.30728 74.49841 272.52603Q75.06091 272.72916 75.32654 273.08853Q75.59216 273.4479 75.68591 274.04166L74.65466 274.18228Q74.59216 273.71353 74.24841 273.4479Q73.92029 273.16666 73.29529 273.16666Q72.57654 273.16666 72.26404 273.41666Q71.95154 273.65103 71.95154 273.97916Q71.95154 274.18228 72.07654 274.33853Q72.21716 274.5104 72.48279 274.61978Q72.63904 274.68228 73.42029 274.8854Q74.54529 275.1979 74.98279 275.3854Q75.42029 275.5729 75.67029 275.93228Q75.92029 276.29166 75.92029 276.83853Q75.92029 277.36978 75.60779 277.83853Q75.31091 278.29166 74.73279 278.55728Q74.15466 278.80728 73.42029 278.80728Q72.20154 278.80728 71.56091 278.30728Q70.93591 277.79166 70.76404 276.80728Z" fill-rule="nonzero"/><path fill="#555555" d="M80.42402 23.446877L84.658394 23.446877Q86.08027 23.446877 86.83027 23.665627Q87.845894 23.962502 88.564644 24.728127Q89.283394 25.478127 89.658394 26.571877Q90.033394 27.665627 90.033394 29.275002Q90.033394 30.696877 89.67402 31.712502Q89.252144 32.9625 88.45527 33.74375Q87.845894 34.321877 86.83027 34.65Q86.064644 34.9 84.783394 34.9L80.42402 34.9L80.42402 23.446877ZM82.73652 25.384377L82.73652 32.9625L84.470894 32.9625Q85.439644 32.9625 85.86152 32.853127Q86.42402 32.7125 86.79902 32.384377Q87.17402 32.040627 87.408394 31.275002Q87.64277 30.509377 87.64277 29.181252Q87.64277 27.853127 87.408394 27.150002Q87.17402 26.431252 86.752144 26.040627Q86.33027 25.634377 85.67402 25.493752Q85.189644 25.384377 83.783394 25.384377L82.73652 25.384377ZM92.42402 25.478127L92.42402 23.446877L94.61152 23.446877L94.61152 25.478127L92.42402 25.478127ZM92.42402 34.9L92.42402 26.603127L94.61152 26.603127L94.61152 34.9L92.42402 34.9ZM95.64277 32.525L97.845894 32.196877Q97.98652 32.8375 98.408394 33.165627Q98.845894 33.49375 99.627144 33.49375Q100.470894 33.49375 100.908394 33.18125Q101.189644 32.9625 101.189644 32.603127Q101.189644 32.353127 101.033394 32.18125Q100.877144 32.025 100.29902 31.900002Q97.64277 31.306252 96.939644 30.821877Q95.95527 30.150002 95.95527 28.962502Q95.95527 27.884377 96.79902 27.150002Q97.658394 26.415627 99.439644 26.415627Q101.14277 26.415627 101.970894 26.978127Q102.79902 27.525002 103.11152 28.603127L101.04902 28.993752Q100.908394 28.509377 100.533394 28.259377Q100.17402 27.993752 99.48652 27.993752Q98.61152 27.993752 98.23652 28.228127Q97.98652 28.400002 97.98652 28.681252Q97.98652 28.915627 98.20527 29.071877Q98.502144 29.290627 100.252144 29.696877Q102.01777 30.087502 102.70527 30.665627Q103.39277 31.259377 103.39277 32.30625Q103.39277 33.446877 102.439644 34.275Q101.48652 35.0875 99.627144 35.0875Q97.92402 35.0875 96.939644 34.4Q95.95527 33.7125 95.64277 32.525ZM109.220894 26.603127L109.220894 28.353127L107.720894 28.353127L107.720894 31.696877Q107.720894 32.7125 107.76777 32.884377Q107.814644 33.040627 107.95527 33.15Q108.11152 33.259377 108.33027 33.259377Q108.64277 33.259377 109.220894 33.05625L109.408394 34.759377Q108.64277 35.0875 107.67402 35.0875Q107.08027 35.0875 106.595894 34.884377Q106.127144 34.68125 105.89277 34.36875Q105.67402 34.05625 105.595894 33.509377Q105.51777 33.134377 105.51777 31.962502L105.51777 28.353127L104.51777 28.353127L104.51777 26.603127L105.51777 26.603127L105.51777 24.946877L107.720894 23.665627L107.720894 26.603127L109.220894 26.603127ZM112.51777 34.9L110.33027 34.9L110.33027 26.603127L112.36152 26.603127L112.36152 27.775002Q112.89277 26.946877 113.29902 26.681252Q113.720894 26.415627 114.252144 26.415627Q115.002144 26.415627 115.70527 26.821877L115.01777 28.743752Q114.470894 28.384377 113.98652 28.384377Q113.533394 28.384377 113.20527 28.634377Q112.89277 28.884377 112.70527 29.556252Q112.51777 30.212502 112.51777 32.3375L112.51777 34.9ZM116.42402 25.478127L116.42402 23.446877L118.61152 23.446877L118.61152 25.478127L116.42402 25.478127ZM116.42402 34.9L116.42402 26.603127L118.61152 26.603127L118.61152 34.9L116.42402 34.9ZM120.33027 34.9L120.33027 23.446877L122.51777 23.446877L122.51777 27.571877Q123.533394 26.415627 124.92402 26.415627Q126.439644 26.415627 127.42402 27.509377Q128.42401 28.603127 128.42401 30.665627Q128.42401 32.790627 127.408394 33.946877Q126.408394 35.0875 124.95527 35.0875Q124.252144 35.0875 123.54902 34.728127Q122.86152 34.36875 122.36152 33.68125L122.36152 34.9L120.33027 34.9ZM122.502144 30.571877Q122.502144 31.853127 122.908394 32.478127Q123.48652 33.353127 124.42402 33.353127Q125.158394 33.353127 125.658394 32.728127Q126.17402 32.103127 126.17402 30.775002Q126.17402 29.353127 125.658394 28.728127Q125.14277 28.087502 124.345894 28.087502Q123.54902 28.087502 123.01777 28.712502Q122.502144 29.321877 122.502144 30.571877ZM135.87714 34.9L135.87714 33.65Q135.42401 34.321877 134.68964 34.7125Q133.95526 35.0875 133.12714 35.0875Q132.29901 35.0875 131.62714 34.728127Q130.97089 34.353127 130.67401 33.696877Q130.37714 33.025 130.37714 31.853127L130.37714 26.603127L132.56464 26.603127L132.56464 30.415627Q132.56464 32.165627 132.68964 32.55625Q132.81464 32.946877 133.12714 33.18125Q133.45526 33.415627 133.93964 33.415627Q134.50214 33.415627 134.93964 33.103127Q135.39276 32.790627 135.54901 32.3375Q135.72089 31.884377 135.72089 30.103127L135.72089 26.603127L137.92401 26.603127L137.92401 34.9L135.87714 34.9ZM140.42401 25.478127L140.42401 23.446877L142.61151 23.446877L142.61151 25.478127L140.42401 25.478127ZM140.42401 34.9L140.42401 26.603127L142.61151 26.603127L142.61151 34.9L140.42401 34.9ZM151.65839 29.056252L149.48651 29.446877Q149.37714 28.790627 148.98651 28.462502Q148.61151 28.134377 147.98651 28.134377Q147.17401 28.134377 146.67401 28.712502Q146.18964 29.275002 146.18964 30.603127Q146.18964 32.071877 146.68964 32.68125Q147.18964 33.290627 148.01776 33.290627Q148.64276 33.290627 149.03339 32.946877Q149.43964 32.5875 149.61151 31.712502L151.76776 32.0875Q151.42401 33.571877 150.47089 34.3375Q149.51776 35.0875 147.92401 35.0875Q146.09589 35.0875 145.01776 33.946877Q143.93964 32.790627 143.93964 30.759377Q143.93964 28.696877 145.01776 27.556252Q146.11151 26.415627 147.95526 26.415627Q149.47089 26.415627 150.36151 27.071877Q151.26776 27.712502 151.65839 29.056252ZM145.73651 38.05625L145.73651 37.134377Q146.54901 37.2125 147.22089 37.2125Q147.90839 37.2125 148.25214 36.9625Q148.50214 36.775 148.50214 36.478127Q148.50214 36.2125 148.25214 36.009377Q148.01776 35.821877 147.51776 35.821877Q147.01776 35.821877 146.48651 35.978127L146.68964 35.2125Q147.29901 34.99375 148.00214 34.99375Q148.98651 34.99375 149.48651 35.415627Q150.00214 35.853127 150.00214 36.478127Q150.00214 37.165627 149.43964 37.5875Q148.67401 38.18125 147.26776 38.18125Q146.25214 38.18125 145.73651 38.05625ZM155.06464 29.134377L153.06464 28.775002Q153.40839 27.571877 154.22089 26.993752Q155.04901 26.415627 156.65839 26.415627Q158.12714 26.415627 158.84589 26.759377Q159.56464 27.103127 159.86151 27.650002Q160.15839 28.181252 160.15839 29.603127L160.12714 32.165627Q160.12714 33.259377 160.23651 33.790627Q160.34589 34.30625 160.62714 34.9L158.45526 34.9Q158.37714 34.68125 158.25214 34.24375Q158.18964 34.05625 158.17401 33.99375Q157.61151 34.540627 156.97089 34.821877Q156.33026 35.0875 155.59589 35.0875Q154.31464 35.0875 153.58026 34.4Q152.84589 33.696877 152.84589 32.634377Q152.84589 31.931252 153.17401 31.384377Q153.51776 30.821877 154.11151 30.540627Q154.72089 30.243752 155.86151 30.025002Q157.40839 29.728127 158.00214 29.478127L158.00214 29.259377Q158.00214 28.634377 157.68964 28.368752Q157.37714 28.087502 156.50214 28.087502Q155.92401 28.087502 155.59589 28.321877Q155.26776 28.556252 155.06464 29.134377ZM158.00214 30.915627Q157.58026 31.056252 156.65839 31.259377Q155.75214 31.446877 155.47089 31.634377Q155.03339 31.931252 155.03339 32.4Q155.03339 32.86875 155.37714 33.2125Q155.72089 33.540627 156.25214 33.540627Q156.84589 33.540627 157.39276 33.15Q157.78339 32.853127 157.90839 32.415627Q158.00214 32.134377 158.00214 31.353127L158.00214 30.915627ZM155.04901 25.478127L154.04901 25.478127Q154.03339 25.306252 154.03339 25.196877Q154.03339 24.384377 154.43964 23.946877Q154.84589 23.493752 155.47089 23.493752Q155.73651 23.493752 155.97089 23.556252Q156.20526 23.618752 156.83026 23.900002Q157.45526 24.165627 157.79901 24.165627Q158.04901 24.165627 158.22089 24.009377Q158.39276 23.853127 158.43964 23.493752L159.45526 23.493752Q159.43964 24.540627 159.04901 24.993752Q158.67401 25.446877 158.06464 25.446877Q157.79901 25.446877 157.53339 25.400002Q157.36151 25.353127 156.64276 25.087502Q155.92401 24.806252 155.59589 24.806252Q155.34589 24.806252 155.20526 24.962502Q155.06464 25.103127 155.04901 25.478127ZM161.90839 30.634377Q161.90839 29.540627 162.43964 28.525002Q162.98651 27.493752 163.97089 26.962502Q164.97089 26.415627 166.18964 26.415627Q168.06464 26.415627 169.26776 27.634377Q170.47089 28.853127 170.47089 30.728127Q170.47089 32.603127 169.25214 33.853127Q168.04901 35.0875 166.20526 35.0875Q165.06464 35.0875 164.01776 34.571877Q162.98651 34.05625 162.43964 33.05625Q161.90839 32.05625 161.90839 30.634377ZM164.15839 30.743752Q164.15839 31.978127 164.73651 32.634377Q165.33026 33.290627 166.18964 33.290627Q167.04901 33.290627 167.62714 32.634377Q168.22089 31.978127 168.22089 30.728127Q168.22089 29.509377 167.62714 28.853127Q167.04901 28.196877 166.18964 28.196877Q165.33026 28.196877 164.73651 28.853127Q164.15839 29.509377 164.15839 30.743752ZM184.03339 34.9L181.98651 34.9L181.98651 33.68125Q181.48651 34.384377 180.78339 34.74375Q180.09589 35.0875 179.39276 35.0875Q177.97089 35.0875 176.93964 33.93125Q175.92401 32.775 175.92401 30.712502Q175.92401 28.603127 176.90839 27.509377Q177.90839 26.415627 179.42401 26.415627Q180.81464 26.415627 181.83026 27.571877L181.83026 23.446877L184.03339 23.446877L184.03339 34.9ZM178.17401 30.571877Q178.17401 31.900002 178.53339 32.49375Q179.06464 33.353127 180.01776 33.353127Q180.78339 33.353127 181.31464 32.7125Q181.84589 32.05625 181.84589 30.775002Q181.84589 29.353127 181.33026 28.728127Q180.81464 28.087502 180.00214 28.087502Q179.22089 28.087502 178.68964 28.712502Q178.17401 29.337502 178.17401 30.571877ZM191.22089 32.259377L193.40839 32.61875Q192.98651 33.821877 192.08026 34.4625Q191.17401 35.0875 189.79901 35.0875Q187.64276 35.0875 186.59589 33.665627Q185.78339 32.540627 185.78339 30.806252Q185.78339 28.743752 186.86151 27.587502Q187.93964 26.415627 189.58026 26.415627Q191.43964 26.415627 192.50214 27.634377Q193.58026 28.853127 193.53339 31.384377L188.03339 31.384377Q188.04901 32.353127 188.54901 32.9Q189.06464 33.446877 189.83026 33.446877Q190.34589 33.446877 190.68964 33.165627Q191.04901 32.884377 191.22089 32.259377ZM191.34589 30.040627Q191.33026 29.087502 190.86151 28.587502Q190.39276 28.087502 189.72089 28.087502Q189.00214 28.087502 188.53339 28.618752Q188.06464 29.134377 188.06464 30.040627L191.34589 30.040627ZM199.42401 25.478127L199.42401 23.446877L201.61151 23.446877L201.61151 25.478127L199.42401 25.478127ZM199.42401 34.9L199.42401 26.603127L201.61151 26.603127L201.61151 34.9L199.42401 34.9ZM203.25214 26.603127L205.28339 26.603127L205.28339 27.728127Q206.36151 26.415627 207.86151 26.415627Q208.65839 26.415627 209.23651 26.743752Q209.83026 27.071877 210.20526 27.728127Q210.75214 27.071877 211.37714 26.743752Q212.01776 26.415627 212.73651 26.415627Q213.65839 26.415627 214.28339 26.790627Q214.92401 27.150002 215.23651 27.868752Q215.45526 28.400002 215.45526 29.587502L215.45526 34.9L213.26776 34.9L213.26776 30.150002Q213.26776 28.915627 213.03339 28.556252Q212.73651 28.087502 212.09589 28.087502Q211.64276 28.087502 211.23651 28.368752Q210.83026 28.650002 210.64276 29.196877Q210.47089 29.743752 210.47089 30.915627L210.47089 34.9L208.26776 34.9L208.26776 30.353127Q208.26776 29.134377 208.14276 28.790627Q208.03339 28.431252 207.78339 28.259377Q207.54901 28.087502 207.12714 28.087502Q206.61151 28.087502 206.20526 28.368752Q205.79901 28.634377 205.62714 29.150002Q205.45526 29.665627 205.45526 30.868752L205.45526 34.9L203.25214 34.9L203.25214 26.603127ZM217.42401 25.478127L217.42401 23.446877L219.61151 23.446877L219.61151 25.478127L217.42401 25.478127ZM217.42401 34.9L217.42401 26.603127L219.61151 26.603127L219.61151 34.9L217.42401 34.9ZM221.22089 35.446877L223.72089 35.759377Q223.78339 36.196877 224.01776 36.353127Q224.33026 36.5875 225.00214 36.5875Q225.86151 36.5875 226.28339 36.3375Q226.58026 36.165627 226.72089 35.775Q226.83026 35.509377 226.83026 34.759377L226.83026 33.55625Q225.84589 34.9 224.34589 34.9Q222.67401 34.9 221.68964 33.478127Q220.92401 32.36875 220.92401 30.696877Q220.92401 28.618752 221.92401 27.525002Q222.93964 26.415627 224.42401 26.415627Q225.97089 26.415627 226.97089 27.759377L226.97089 26.603127L229.01776 26.603127L229.01776 34.040627Q229.01776 35.525 228.76776 36.24375Q228.53339 36.978127 228.09589 37.384377Q227.65839 37.80625 226.92401 38.040627Q226.20526 38.275 225.08026 38.275Q222.97089 38.275 222.08026 37.540627Q221.20526 36.821877 221.20526 35.7125Q221.20526 35.603127 221.22089 35.446877ZM223.17401 30.571877Q223.17401 31.900002 223.68964 32.509377Q224.20526 33.11875 224.95526 33.11875Q225.75214 33.11875 226.29901 32.49375Q226.86151 31.868752 226.86151 30.634377Q226.86151 29.337502 226.33026 28.712502Q225.79901 28.087502 224.98651 28.087502Q224.20526 28.087502 223.68964 28.712502Q223.17401 29.321877 223.17401 30.571877ZM233.51776 34.9L231.33026 34.9L231.33026 26.603127L233.36151 26.603127L233.36151 27.775002Q233.89276 26.946877 234.29901 26.681252Q234.72089 26.415627 235.25214 26.415627Q236.00214 26.415627 236.70526 26.821877L236.01776 28.743752Q235.47089 28.384377 234.98651 28.384377Q234.53339 28.384377 234.20526 28.634377Q233.89276 28.884377 233.70526 29.556252Q233.51776 30.212502 233.51776 32.3375L233.51776 34.9ZM239.06464 29.134377L237.06464 28.775002Q237.40839 27.571877 238.22089 26.993752Q239.04901 26.415627 240.65839 26.415627Q242.12714 26.415627 242.84589 26.759377Q243.56464 27.103127 243.86151 27.650002Q244.15839 28.181252 244.15839 29.603127L244.12714 32.165627Q244.12714 33.259377 244.23651 33.790627Q244.34589 34.30625 244.62714 34.9L242.45526 34.9Q242.37714 34.68125 242.25214 34.24375Q242.18964 34.05625 242.17401 33.99375Q241.61151 34.540627 240.97089 34.821877Q240.33026 35.0875 239.59589 35.0875Q238.31464 35.0875 237.58026 34.4Q236.84589 33.696877 236.84589 32.634377Q236.84589 31.931252 237.17401 31.384377Q237.51776 30.821877 238.11151 30.540627Q238.72089 30.243752 239.86151 30.025002Q241.40839 29.728127 242.00214 29.478127L242.00214 29.259377Q242.00214 28.634377 241.68964 28.368752Q241.37714 28.087502 240.50214 28.087502Q239.92401 28.087502 239.59589 28.321877Q239.26776 28.556252 239.06464 29.134377ZM242.00214 30.915627Q241.58026 31.056252 240.65839 31.259377Q239.75214 31.446877 239.47089 31.634377Q239.03339 31.931252 239.03339 32.4Q239.03339 32.86875 239.37714 33.2125Q239.72089 33.540627 240.25214 33.540627Q240.84589 33.540627 241.39276 33.15Q241.78339 32.853127 241.90839 32.415627Q242.00214 32.134377 242.00214 31.353127L242.00214 30.915627ZM253.97089 34.9L251.76776 34.9L251.76776 30.665627Q251.76776 29.321877 251.62714 28.931252Q251.48651 28.525002 251.17401 28.306252Q250.86151 28.087502 250.40839 28.087502Q249.84589 28.087502 249.39276 28.400002Q248.93964 28.712502 248.76776 29.228127Q248.59589 29.743752 248.59589 31.134377L248.59589 34.9L246.40839 34.9L246.40839 26.603127L248.43964 26.603127L248.43964 27.821877Q249.53339 26.415627 251.17401 26.415627Q251.90839 26.415627 252.50214 26.681252Q253.11151 26.931252 253.40839 27.337502Q253.72089 27.743752 253.84589 28.259377Q253.97089 28.775002 253.97089 29.743752L253.97089 34.9ZM260.2209 26.603127L260.2209 28.353127L258.7209 28.353127L258.7209 31.696877Q258.7209 32.7125 258.76776 32.884377Q258.81464 33.040627 258.95526 33.15Q259.1115 33.259377 259.33026 33.259377Q259.64276 33.259377 260.2209 33.05625L260.4084 34.759377Q259.64276 35.0875 258.674 35.0875Q258.08026 35.0875 257.5959 34.884377Q257.12714 34.68125 256.89276 34.36875Q256.674 34.05625 256.5959 33.509377Q256.51776 33.134377 256.51776 31.962502L256.51776 28.353127L255.51776 28.353127L255.51776 26.603127L256.51776 26.603127L256.51776 24.946877L258.7209 23.665627L258.7209 26.603127L260.2209 26.603127ZM266.2209 32.259377L268.4084 32.61875Q267.9865 33.821877 267.08026 34.4625Q266.174 35.0875 264.799 35.0875Q262.64276 35.0875 261.5959 33.665627Q260.7834 32.540627 260.7834 30.806252Q260.7834 28.743752 261.8615 27.587502Q262.93964 26.415627 264.58026 26.415627Q266.43964 26.415627 267.50214 27.634377Q268.58026 28.853127 268.5334 31.384377L263.0334 31.384377Q263.049 32.353127 263.549 32.9Q264.06464 33.446877 264.83026 33.446877Q265.3459 33.446877 265.68964 33.165627Q266.049 32.884377 266.2209 32.259377ZM266.3459 30.040627Q266.33026 29.087502 265.8615 28.587502Q265.39276 28.087502 264.7209 28.087502Q264.00214 28.087502 263.5334 28.618752Q263.06464 29.134377 263.06464 30.040627L266.3459 30.040627ZM269.64276 32.525L271.8459 32.196877Q271.9865 32.8375 272.4084 33.165627Q272.8459 33.49375 273.62714 33.49375Q274.4709 33.49375 274.9084 33.18125Q275.18964 32.9625 275.18964 32.603127Q275.18964 32.353127 275.0334 32.18125Q274.87714 32.025 274.299 31.900002Q271.64276 31.306252 270.93964 30.821877Q269.95526 30.150002 269.95526 28.962502Q269.95526 27.884377 270.799 27.150002Q271.6584 26.415627 273.43964 26.415627Q275.14276 26.415627 275.9709 26.978127Q276.799 27.525002 277.1115 28.603127L275.049 28.993752Q274.9084 28.509377 274.5334 28.259377Q274.174 27.993752 273.4865 27.993752Q272.6115 27.993752 272.2365 28.228127Q271.9865 28.400002 271.9865 28.681252Q271.9865 28.915627 272.20526 29.071877Q272.50214 29.290627 274.25214 29.696877Q276.01776 30.087502 276.70526 30.665627Q277.39276 31.259377 277.39276 32.30625Q277.39276 33.446877 276.43964 34.275Q275.4865 35.0875 273.62714 35.0875Q271.924 35.0875 270.93964 34.4Q269.95526 33.7125 269.64276 32.525ZM283.3615 26.603127L285.4084 26.603127L285.4084 27.821877Q285.799 27.196877 286.4709 26.806252Q287.1584 26.415627 287.9865 26.415627Q289.43964 26.415627 290.43964 27.556252Q291.45526 28.681252 291.45526 30.696877Q291.45526 32.775 290.43964 33.93125Q289.424 35.0875 287.9709 35.0875Q287.2834 35.0875 286.7209 34.821877Q286.174 34.540627 285.549 33.86875L285.549 38.05625L283.3615 38.05625L283.3615 26.603127ZM285.5334 30.603127Q285.5334 32.009377 286.08026 32.68125Q286.64276 33.3375 287.43964 33.3375Q288.20526 33.3375 288.70526 32.728127Q289.2209 32.11875 289.2209 30.712502Q289.2209 29.415627 288.68964 28.790627Q288.174 28.150002 287.39276 28.150002Q286.5959 28.150002 286.06464 28.775002Q285.5334 29.384377 285.5334 30.603127ZM292.9084 30.634377Q292.9084 29.540627 293.43964 28.525002Q293.9865 27.493752 294.9709 26.962502Q295.9709 26.415627 297.18964 26.415627Q299.06464 26.415627 300.26776 27.634377Q301.4709 28.853127 301.4709 30.728127Q301.4709 32.603127 300.25214 33.853127Q299.049 35.0875 297.20526 35.0875Q296.06464 35.0875 295.01776 34.571877Q293.9865 34.05625 293.43964 33.05625Q292.9084 32.05625 292.9084 30.634377ZM295.1584 30.743752Q295.1584 31.978127 295.7365 32.634377Q296.33026 33.290627 297.18964 33.290627Q298.049 33.290627 298.62714 32.634377Q299.2209 31.978127 299.2209 30.728127Q299.2209 29.509377 298.62714 28.853127Q298.049 28.196877 297.18964 28.196877Q296.33026 28.196877 295.7365 28.853127Q295.1584 29.509377 295.1584 30.743752ZM305.51776 34.9L303.33026 34.9L303.33026 26.603127L305.3615 26.603127L305.3615 27.775002Q305.89276 26.946877 306.299 26.681252Q306.7209 26.415627 307.25214 26.415627Q308.00214 26.415627 308.70526 26.821877L308.01776 28.743752Q307.4709 28.384377 306.9865 28.384377Q306.5334 28.384377 306.20526 28.634377Q305.89276 28.884377 305.70526 29.556252Q305.51776 30.212502 305.51776 32.3375L305.51776 34.9ZM315.51776 34.9L313.33026 34.9L313.33026 26.603127L315.3615 26.603127L315.3615 27.775002Q315.89276 26.946877 316.299 26.681252Q316.7209 26.415627 317.25214 26.415627Q318.00214 26.415627 318.70526 26.821877L318.01776 28.743752Q317.4709 28.384377 316.9865 28.384377Q316.5334 28.384377 316.20526 28.634377Q315.89276 28.884377 315.70526 29.556252Q315.51776 30.212502 315.51776 32.3375L315.51776 34.9ZM324.2209 32.259377L326.4084 32.61875Q325.9865 33.821877 325.08026 34.4625Q324.174 35.0875 322.799 35.0875Q320.64276 35.0875 319.5959 33.665627Q318.7834 32.540627 318.7834 30.806252Q318.7834 28.743752 319.8615 27.587502Q320.93964 26.415627 322.58026 26.415627Q324.43964 26.415627 325.50214 27.634377Q326.58026 28.853127 326.5334 31.384377L321.0334 31.384377Q321.049 32.353127 321.549 32.9Q322.06464 33.446877 322.83026 33.446877Q323.3459 33.446877 323.68964 33.165627Q324.049 32.884377 324.2209 32.259377ZM324.3459 30.040627Q324.33026 29.087502 323.8615 28.587502Q323.39276 28.087502 322.7209 28.087502Q322.00214 28.087502 321.5334 28.618752Q321.06464 29.134377 321.06464 30.040627L324.3459 30.040627ZM328.2209 35.446877L330.7209 35.759377Q330.7834 36.196877 331.01776 36.353127Q331.33026 36.5875 332.00214 36.5875Q332.8615 36.5875 333.2834 36.3375Q333.58026 36.165627 333.7209 35.775Q333.83026 35.509377 333.83026 34.759377L333.83026 33.55625Q332.8459 34.9 331.3459 34.9Q329.674 34.9 328.68964 33.478127Q327.924 32.36875 327.924 30.696877Q327.924 28.618752 328.924 27.525002Q329.93964 26.415627 331.424 26.415627Q332.9709 26.415627 333.9709 27.759377L333.9709 26.603127L336.01776 26.603127L336.01776 34.040627Q336.01776 35.525 335.76776 36.24375Q335.5334 36.978127 335.0959 37.384377Q334.6584 37.80625 333.924 38.040627Q333.20526 38.275 332.08026 38.275Q329.9709 38.275 329.08026 37.540627Q328.20526 36.821877 328.20526 35.7125Q328.20526 35.603127 328.2209 35.446877ZM330.174 30.571877Q330.174 31.900002 330.68964 32.509377Q331.20526 33.11875 331.95526 33.11875Q332.75214 33.11875 333.299 32.49375Q333.8615 31.868752 333.8615 30.634377Q333.8615 29.337502 333.33026 28.712502Q332.799 28.087502 331.9865 28.087502Q331.20526 28.087502 330.68964 28.712502Q330.174 29.321877 330.174 30.571877ZM338.424 25.478127L338.424 23.446877L340.6115 23.446877L340.6115 25.478127L338.424 25.478127ZM338.424 34.9L338.424 26.603127L340.6115 26.603127L340.6115 34.9L338.424 34.9ZM344.06464 29.134377L342.06464 28.775002Q342.4084 27.571877 343.2209 26.993752Q344.049 26.415627 345.6584 26.415627Q347.12714 26.415627 347.8459 26.759377Q348.56464 27.103127 348.8615 27.650002Q349.1584 28.181252 349.1584 29.603127L349.12714 32.165627Q349.12714 33.259377 349.2365 33.790627Q349.3459 34.30625 349.62714 34.9L347.45526 34.9Q347.37714 34.68125 347.25214 34.24375Q347.18964 34.05625 347.174 33.99375Q346.6115 34.540627 345.9709 34.821877Q345.33026 35.0875 344.5959 35.0875Q343.31464 35.0875 342.58026 34.4Q341.8459 33.696877 341.8459 32.634377Q341.8459 31.931252 342.174 31.384377Q342.51776 30.821877 343.1115 30.540627Q343.7209 30.243752 344.8615 30.025002Q346.4084 29.728127 347.00214 29.478127L347.00214 29.259377Q347.00214 28.634377 346.68964 28.368752Q346.37714 28.087502 345.50214 28.087502Q344.924 28.087502 344.5959 28.321877Q344.26776 28.556252 344.06464 29.134377ZM347.00214 30.915627Q346.58026 31.056252 345.6584 31.259377Q344.75214 31.446877 344.4709 31.634377Q344.0334 31.931252 344.0334 32.4Q344.0334 32.86875 344.37714 33.2125Q344.7209 33.540627 345.25214 33.540627Q345.8459 33.540627 346.39276 33.15Q346.7834 32.853127 346.9084 32.415627Q347.00214 32.134377 347.00214 31.353127L347.00214 30.915627ZM344.049 25.478127L343.049 25.478127Q343.0334 25.306252 343.0334 25.196877Q343.0334 24.384377 343.43964 23.946877Q343.8459 23.493752 344.4709 23.493752Q344.7365 23.493752 344.9709 23.556252Q345.20526 23.618752 345.83026 23.900002Q346.45526 24.165627 346.799 24.165627Q347.049 24.165627 347.2209 24.009377Q347.39276 23.853127 347.43964 23.493752L348.45526 23.493752Q348.43964 24.540627 348.049 24.993752Q347.674 25.446877 347.06464 25.446877Q346.799 25.446877 346.5334 25.400002Q346.3615 25.353127 345.64276 25.087502Q344.924 24.806252 344.5959 24.806252Q344.3459 24.806252 344.20526 24.962502Q344.06464 25.103127 344.049 25.478127ZM350.9084 30.634377Q350.9084 29.540627 351.43964 28.525002Q351.9865 27.493752 352.9709 26.962502Q353.9709 26.415627 355.18964 26.415627Q357.06464 26.415627 358.26776 27.634377Q359.4709 28.853127 359.4709 30.728127Q359.4709 32.603127 358.25214 33.853127Q357.049 35.0875 355.20526 35.0875Q354.06464 35.0875 353.01776 34.571877Q351.9865 34.05625 351.43964 33.05625Q350.9084 32.05625 350.9084 30.634377ZM353.1584 30.743752Q353.1584 31.978127 353.7365 32.634377Q354.33026 33.290627 355.18964 33.290627Q356.049 33.290627 356.62714 32.634377Q357.2209 31.978127 357.2209 30.728127Q357.2209 29.509377 356.62714 28.853127Q356.049 28.196877 355.18964 28.196877Q354.33026 28.196877 353.7365 28.853127Q353.1584 29.509377 353.1584 30.743752ZM369.06464 38.275L367.549 38.275Q366.3615 36.4625 365.7365 34.525Q365.1115 32.571877 365.1115 30.743752Q365.1115 28.493752 365.87714 26.478127Q366.549 24.728127 367.58026 23.243752L369.08026 23.243752Q368.01776 25.618752 367.6115 27.275002Q367.20526 28.931252 367.20526 30.790627Q367.20526 32.071877 367.43964 33.415627Q367.68964 34.759377 368.0959 35.978127Q368.37714 36.775 369.06464 38.275ZM369.9709 26.275002Q369.9709 24.728127 370.64276 23.993752Q371.31464 23.243752 372.4709 23.243752Q373.674 23.243752 374.3459 23.993752Q375.01776 24.728127 375.01776 26.275002Q375.01776 27.806252 374.3459 28.556252Q373.674 29.290627 372.51776 29.290627Q371.31464 29.290627 370.64276 28.556252Q369.9709 27.821877 369.9709 26.275002ZM371.674 26.259377Q371.674 27.368752 371.93964 27.759377Q372.12714 28.040627 372.4709 28.040627Q372.83026 28.040627 373.01776 27.759377Q373.26776 27.368752 373.26776 26.259377Q373.26776 25.134377 373.01776 24.759377Q372.83026 24.478127 372.4709 24.478127Q372.12714 24.478127 371.93964 24.759377Q371.674 25.134377 371.674 26.259377ZM374.14276 35.3375L372.51776 35.3375L378.62714 23.243752L380.20526 23.243752L374.14276 35.3375ZM377.68964 32.321877Q377.68964 30.790627 378.3615 30.056252Q379.049 29.306252 380.2209 29.306252Q381.39276 29.306252 382.06464 30.056252Q382.75214 30.790627 382.75214 32.321877Q382.75214 33.86875 382.06464 34.61875Q381.39276 35.36875 380.2365 35.36875Q379.049 35.36875 378.3615 34.61875Q377.68964 33.86875 377.68964 32.321877ZM379.4084 32.321877Q379.4084 33.43125 379.6584 33.80625Q379.8615 34.103127 380.20526 34.103127Q380.549 34.103127 380.7365 33.821877Q381.00214 33.43125 381.00214 32.321877Q381.00214 31.196877 380.75214 30.821877Q380.549 30.540627 380.20526 30.540627Q379.8459 30.540627 379.6584 30.821877Q379.4084 31.196877 379.4084 32.321877ZM385.81464 38.275Q386.45526 36.884377 386.7209 36.134377Q386.9865 35.4 387.20526 34.43125Q387.43964 33.446877 387.549 32.5875Q387.6584 31.712502 387.6584 30.790627Q387.6584 28.931252 387.25214 27.275002Q386.8615 25.618752 385.799 23.243752L387.2834 23.243752Q388.4709 24.931252 389.1115 26.821877Q389.76776 28.696877 389.76776 30.634377Q389.76776 32.259377 389.25214 34.134377Q388.674 36.228127 387.33026 38.275L385.81464 38.275ZM400.2209 32.259377L402.4084 32.61875Q401.9865 33.821877 401.08026 34.4625Q400.174 35.0875 398.799 35.0875Q396.64276 35.0875 395.5959 33.665627Q394.7834 32.540627 394.7834 30.806252Q394.7834 28.743752 395.8615 27.587502Q396.93964 26.415627 398.58026 26.415627Q400.43964 26.415627 401.50214 27.634377Q402.58026 28.853127 402.5334 31.384377L397.0334 31.384377Q397.049 32.353127 397.549 32.9Q398.06464 33.446877 398.83026 33.446877Q399.3459 33.446877 399.68964 33.165627Q400.049 32.884377 400.2209 32.259377ZM400.3459 30.040627Q400.33026 29.087502 399.8615 28.587502Q399.39276 28.087502 398.7209 28.087502Q398.00214 28.087502 397.5334 28.618752Q397.06464 29.134377 397.06464 30.040627L400.3459 30.040627ZM404.25214 26.603127L406.2834 26.603127L406.2834 27.728127Q407.3615 26.415627 408.8615 26.415627Q409.6584 26.415627 410.2365 26.743752Q410.83026 27.071877 411.20526 27.728127Q411.75214 27.071877 412.37714 26.743752Q413.01776 26.415627 413.7365 26.415627Q414.6584 26.415627 415.2834 26.790627Q415.924 27.150002 416.2365 27.868752Q416.45526 28.400002 416.45526 29.587502L416.45526 34.9L414.26776 34.9L414.26776 30.150002Q414.26776 28.915627 414.0334 28.556252Q413.7365 28.087502 413.0959 28.087502Q412.64276 28.087502 412.2365 28.368752Q411.83026 28.650002 411.64276 29.196877Q411.4709 29.743752 411.4709 30.915627L411.4709 34.9L409.26776 34.9L409.26776 30.353127Q409.26776 29.134377 409.14276 28.790627Q409.0334 28.431252 408.7834 28.259377Q408.549 28.087502 408.12714 28.087502Q407.6115 28.087502 407.20526 28.368752Q406.799 28.634377 406.62714 29.150002Q406.45526 29.665627 406.45526 30.868752L406.45526 34.9L404.25214 34.9L404.25214 26.603127ZM429.3615 32.853127L429.3615 34.9L421.674 34.9Q421.799 33.74375 422.424 32.7125Q423.049 31.665627 424.89276 29.962502Q426.37714 28.571877 426.70526 28.087502Q427.1584 27.400002 427.1584 26.743752Q427.1584 26.009377 426.76776 25.618752Q426.37714 25.212502 425.674 25.212502Q424.9865 25.212502 424.58026 25.634377Q424.174 26.040627 424.1115 27.009377L421.924 26.790627Q422.12714 24.978127 423.1584 24.196877Q424.18964 23.400002 425.7365 23.400002Q427.424 23.400002 428.39276 24.321877Q429.3615 25.228127 429.3615 26.587502Q429.3615 27.353127 429.08026 28.056252Q428.81464 28.759377 428.20526 29.525002Q427.81464 30.025002 426.76776 30.978127Q425.7365 31.931252 425.45526 32.24375Q425.174 32.55625 425.00214 32.853127L429.3615 32.853127ZM434.6584 23.400002Q436.33026 23.400002 437.26776 24.587502Q438.37714 25.993752 438.37714 29.243752Q438.37714 32.49375 437.25214 33.915627Q436.33026 35.103127 434.6584 35.103127Q432.9865 35.103127 431.95526 33.821877Q430.93964 32.525 430.93964 29.228127Q430.93964 25.993752 432.06464 24.571877Q433.00214 23.400002 434.6584 23.400002ZM434.6584 25.212502Q434.26776 25.212502 433.95526 25.478127Q433.64276 25.728127 433.4709 26.384377Q433.2365 27.228127 433.2365 29.243752Q433.2365 31.259377 433.43964 32.025Q433.64276 32.775 433.95526 33.025Q434.26776 33.275 434.6584 33.275Q435.06464 33.275 435.37714 33.025Q435.68964 32.759377 435.8615 32.103127Q436.08026 31.259377 436.08026 29.243752Q436.08026 27.228127 435.87714 26.478127Q435.674 25.728127 435.3615 25.478127Q435.06464 25.212502 434.6584 25.212502ZM447.3615 32.853127L447.3615 34.9L439.674 34.9Q439.799 33.74375 440.424 32.7125Q441.049 31.665627 442.89276 29.962502Q444.37714 28.571877 444.70526 28.087502Q445.1584 27.400002 445.1584 26.743752Q445.1584 26.009377 444.76776 25.618752Q444.37714 25.212502 443.674 25.212502Q442.9865 25.212502 442.58026 25.634377Q442.174 26.040627 442.1115 27.009377L439.924 26.790627Q440.12714 24.978127 441.1584 24.196877Q442.18964 23.400002 443.7365 23.400002Q445.424 23.400002 446.39276 24.321877Q447.3615 25.228127 447.3615 26.587502Q447.3615 27.353127 447.08026 28.056252Q446.81464 28.759377 446.20526 29.525002Q445.81464 30.025002 444.76776 30.978127Q443.7365 31.931252 443.45526 32.24375Q443.174 32.55625 443.00214 32.853127L447.3615 32.853127ZM448.87714 31.853127L451.00214 31.603127Q451.0959 32.415627 451.5334 32.853127Q451.9865 33.275 452.62714 33.275Q453.299 33.275 453.76776 32.759377Q454.2365 32.24375 454.2365 31.368752Q454.2365 30.540627 453.7834 30.056252Q453.3459 29.571877 452.70526 29.571877Q452.2834 29.571877 451.68964 29.728127L451.93964 27.946877Q452.83026 27.962502 453.299 27.556252Q453.76776 27.150002 453.76776 26.462502Q453.76776 25.884377 453.424 25.540627Q453.08026 25.196877 452.50214 25.196877Q451.93964 25.196877 451.5334 25.587502Q451.14276 25.978127 451.06464 26.728127L449.0334 26.384377Q449.25214 25.353127 449.674 24.728127Q450.0959 24.103127 450.8615 23.759377Q451.62714 23.400002 452.56464 23.400002Q454.18964 23.400002 455.1584 24.431252Q455.9709 25.275002 455.9709 26.337502Q455.9709 27.837502 454.31464 28.743752Q455.299 28.946877 455.89276 29.681252Q456.4865 30.415627 456.4865 31.462502Q456.4865 32.9625 455.37714 34.040627Q454.2834 35.103127 452.64276 35.103127Q451.08026 35.103127 450.049 34.2125Q449.0334 33.30625 448.87714 31.853127ZM459.18964 28.712502L458.00214 27.790627Q458.56464 27.165627 459.174 26.587502Q459.424 26.353127 459.4865 26.290627Q459.2834 26.259377 458.3615 26.025002Q457.70526 25.868752 457.4865 25.790627L457.95526 24.415627Q458.9709 24.821877 459.7834 25.321877Q459.5959 24.056252 459.5959 23.243752L460.9865 23.243752Q460.9865 23.821877 460.76776 25.337502Q460.924 25.275002 461.43964 25.040627Q462.14276 24.712502 462.7365 24.493752L463.1584 25.900002Q462.2834 26.103127 461.14276 26.290627L462.08026 27.337502Q462.3615 27.665627 462.5334 27.868752L461.33026 28.650002L460.2834 26.915627Q459.799 27.759377 459.18964 28.712502Z" fill-rule="nonzero"/></svg>