<svg version="1.1" viewBox="0.0 0.0 529.0 398.0" fill="none" stroke="none" stroke-linecap="square" stroke-miterlimit="10" width="529" height="398" xmlns:xlink="http://www.w3.org/1999/xlink" xmlns="http://www.w3.org/2000/svg"><path fill="#ffffff" fill-opacity="0.0" d="M0 0L529.0 0L529.0 398.0L0 398.0L0 0Z" fill-rule="nonzero"/><path fill="#d18485" d="M320.43234 77.666664C365.21915 77.666664 407.77875 97.19959 436.98062 131.15703L378.70648 181.27017C364.10556 164.29146 342.82574 154.525 320.43234 154.525Z" fill-rule="nonzero"/><path fill="#cf9456" d="M436.98062 131.15703C449.0254 145.1633 458.44687 161.22598 464.7932 178.57466L392.61276 204.97899C389.4396 196.30466 384.72888 188.27332 378.70648 181.27017Z" fill-rule="nonzero"/><path fill="#ab3635" d="M317.36877 77.6972C318.38983 77.67684 319.41107 77.666664 320.43234 77.666664L320.43234 154.525C319.92172 154.525 319.4111 154.53009 318.90054 154.54027Z" fill-rule="nonzero"/><path fill="#c1cee0" d="M262.38147 89.04953C279.8582 81.92166 298.49814 78.073364 317.36877 77.6972L318.90054 154.54027C309.46524 154.72835 300.14526 156.6525 291.40692 160.21643Z" fill-rule="nonzero"/><path fill="#bda4a4" d="M174.47533 279.60532C149.11777 202.85378 187.5352 119.5756 262.38147 89.04953L291.40692 160.21643C253.98378 175.47946 234.77505 217.11856 247.45384 255.49432Z" fill-rule="nonzero"/><path fill="#ad3f83" d="M464.7932 178.57466C483.85876 230.69339 473.35104 289.0422 437.30133 331.2355C401.25162 373.4288 345.25787 392.91464 290.80215 382.21722C236.34648 371.51984 191.88495 332.30032 174.47533 279.60532L247.45384 255.49432C256.15866 281.84183 278.3894 301.45157 305.61725 306.8003C332.8451 312.149 360.84198 302.40607 378.86682 281.30942C396.8917 260.21277 402.14557 231.03836 392.61276 204.97899Z" fill-rule="nonzero"/><path fill="#555555" d="M359.44733 125.77123L358.07233 125.77123L358.07233 120.59936Q357.32233 121.30248 356.3067 121.64623L356.3067 120.39623Q356.83795 120.22436 357.46295 119.73998Q358.10358 119.23998 358.33795 118.58373L359.44733 118.58373L359.44733 125.77123ZM361.88483 123.86498L363.21295 123.70873Q363.27545 124.22436 363.5567 124.48998Q363.83795 124.75561 364.22858 124.75561Q364.65045 124.75561 364.9317 124.44311Q365.22858 124.11498 365.22858 123.56811Q365.22858 123.05248 364.94733 122.75561Q364.6817 122.44311 364.27545 122.44311Q364.00983 122.44311 363.65045 122.53686L363.8067 121.42748Q364.35358 121.44311 364.65045 121.19311Q364.94733 120.92748 364.94733 120.50561Q364.94733 120.14623 364.72858 119.92748Q364.50983 119.70873 364.15045 119.70873Q363.8067 119.70873 363.5567 119.95873Q363.3067 120.19311 363.25983 120.66186L361.9942 120.45873Q362.1192 119.80248 362.38483 119.41186Q362.65045 119.02123 363.1192 118.80248Q363.60358 118.58373 364.19733 118.58373Q365.21295 118.58373 365.82233 119.22436Q366.32233 119.75561 366.32233 120.41186Q366.32233 121.36498 365.29108 121.92748Q365.90045 122.05248 366.25983 122.52123Q366.63483 122.97436 366.63483 123.61498Q366.63483 124.56811 365.94733 125.23998Q365.25983 125.89623 364.2442 125.89623Q363.27545 125.89623 362.63483 125.33373Q361.9942 124.77123 361.88483 123.86498ZM368.19733 124.39623L369.57233 124.39623L369.57233 125.38061Q369.57233 125.97436 369.46295 126.31811Q369.35358 126.66186 369.07233 126.92748Q368.79108 127.20873 368.35358 127.36498L368.08795 126.80248Q368.4942 126.66186 368.66608 126.42748Q368.85358 126.19311 368.85358 125.77123L368.19733 125.77123L368.19733 124.39623ZM370.9317 119.98998L370.9317 118.70873L375.63483 118.70873L375.63483 119.70873Q375.04108 120.27123 374.4317 121.34936Q373.83795 122.41186 373.52545 123.61498Q373.21295 124.81811 373.21295 125.77123L371.90045 125.77123Q371.9317 124.28686 372.50983 122.73998Q373.08795 121.19311 374.0567 119.98998L370.9317 119.98998ZM376.94733 120.38061Q376.94733 119.41186 377.3692 118.95873Q377.79108 118.48998 378.50983 118.48998Q379.25983 118.48998 379.6817 118.95873Q380.10358 119.41186 380.10358 120.38061Q380.10358 121.34936 379.6817 121.81811Q379.25983 122.27123 378.54108 122.27123Q377.79108 122.27123 377.3692 121.81811Q376.94733 121.34936 376.94733 120.38061ZM378.00983 120.36498Q378.00983 121.06811 378.1817 121.30248Q378.29108 121.48998 378.50983 121.48998Q378.72858 121.48998 378.85358 121.30248Q379.00983 121.06811 379.00983 120.36498Q379.00983 119.67748 378.85358 119.44311Q378.72858 119.25561 378.50983 119.25561Q378.29108 119.25561 378.1817 119.42748Q378.00983 119.67748 378.00983 120.36498ZM379.5567 126.05248L378.54108 126.05248L382.35358 118.48998L383.33795 118.48998L379.5567 126.05248ZM381.77545 124.16186Q381.77545 123.20873 382.19733 122.73998Q382.6192 122.27123 383.35358 122.27123Q384.08795 122.27123 384.50983 122.73998Q384.9317 123.20873 384.9317 124.16186Q384.9317 125.13061 384.50983 125.59936Q384.08795 126.05248 383.3692 126.05248Q382.6192 126.05248 382.19733 125.59936Q381.77545 125.13061 381.77545 124.16186ZM382.83795 124.16186Q382.83795 124.86498 383.00983 125.09936Q383.1192 125.27123 383.33795 125.27123Q383.5567 125.27123 383.6817 125.09936Q383.83795 124.86498 383.83795 124.16186Q383.83795 123.45873 383.6817 123.22436Q383.5567 123.05248 383.33795 123.05248Q383.1192 123.05248 383.00983 123.22436Q382.83795 123.45873 382.83795 124.16186Z" fill-rule="nonzero"/><path fill="#555555" d="M411.48047 172.85382L412.85547 172.7132Q412.91797 173.18195 413.19922 173.44757Q413.4961 173.7132 413.8711 173.7132Q414.29297 173.7132 414.58984 173.36945Q414.88672 173.0257 414.88672 172.32257Q414.88672 171.66632 414.58984 171.3382Q414.29297 170.99445 413.82422 170.99445Q413.23047 170.99445 412.76172 171.5257L411.65234 171.36945L412.35547 167.63507L415.98047 167.63507L415.98047 168.91632L413.40234 168.91632L413.1836 170.13507Q413.63672 169.9007 414.1211 169.9007Q415.02734 169.9007 415.66797 170.57257Q416.3086 171.22882 416.3086 172.29132Q416.3086 173.18195 415.79297 173.86945Q415.08984 174.82257 413.85547 174.82257Q412.85547 174.82257 412.23047 174.29132Q411.60547 173.76007 411.48047 172.85382ZM417.73047 173.32257L419.10547 173.32257L419.10547 174.30695Q419.10547 174.9007 418.9961 175.24445Q418.88672 175.5882 418.60547 175.85382Q418.32422 176.13507 417.88672 176.29132L417.6211 175.72882Q418.02734 175.5882 418.19922 175.35382Q418.38672 175.11945 418.38672 174.69757L417.73047 174.69757L417.73047 173.32257ZM420.46484 168.91632L420.46484 167.63507L425.16797 167.63507L425.16797 168.63507Q424.57422 169.19757 423.96484 170.2757Q423.3711 171.3382 423.0586 172.54132Q422.7461 173.74445 422.7461 174.69757L421.4336 174.69757Q421.46484 173.2132 422.04297 171.66632Q422.6211 170.11945 423.58984 168.91632L420.46484 168.91632ZM426.48047 169.30695Q426.48047 168.3382 426.90234 167.88507Q427.32422 167.41632 428.04297 167.41632Q428.79297 167.41632 429.21484 167.88507Q429.63672 168.3382 429.63672 169.30695Q429.63672 170.2757 429.21484 170.74445Q428.79297 171.19757 428.07422 171.19757Q427.32422 171.19757 426.90234 170.74445Q426.48047 170.2757 426.48047 169.30695ZM427.54297 169.29132Q427.54297 169.99445 427.71484 170.22882Q427.82422 170.41632 428.04297 170.41632Q428.26172 170.41632 428.38672 170.22882Q428.54297 169.99445 428.54297 169.29132Q428.54297 168.60382 428.38672 168.36945Q428.26172 168.18195 428.04297 168.18195Q427.82422 168.18195 427.71484 168.35382Q427.54297 168.60382 427.54297 169.29132ZM429.08984 174.97882L428.07422 174.97882L431.88672 167.41632L432.8711 167.41632L429.08984 174.97882ZM431.3086 173.0882Q431.3086 172.13507 431.73047 171.66632Q432.15234 171.19757 432.88672 171.19757Q433.6211 171.19757 434.04297 171.66632Q434.46484 172.13507 434.46484 173.0882Q434.46484 174.05695 434.04297 174.5257Q433.6211 174.97882 432.90234 174.97882Q432.15234 174.97882 431.73047 174.5257Q431.3086 174.05695 431.3086 173.0882ZM432.3711 173.0882Q432.3711 173.79132 432.54297 174.0257Q432.65234 174.19757 432.8711 174.19757Q433.08984 174.19757 433.21484 174.0257Q433.3711 173.79132 433.3711 173.0882Q433.3711 172.38507 433.21484 172.1507Q433.08984 171.97882 432.8711 171.97882Q432.65234 171.97882 432.54297 172.1507Q432.3711 172.38507 432.3711 173.0882Z" fill-rule="nonzero"/><path fill="#555555" d="M345.8251 347.85345L347.2001 347.71283Q347.2626 348.18158 347.54385 348.4472Q347.84073 348.71283 348.21573 348.71283Q348.6376 348.71283 348.93448 348.36908Q349.23135 348.02533 349.23135 347.3222Q349.23135 346.66595 348.93448 346.33783Q348.6376 345.99408 348.16885 345.99408Q347.5751 345.99408 347.10635 346.52533L345.99698 346.36908L346.7001 342.6347L350.3251 342.6347L350.3251 343.91595L347.74698 343.91595L347.52823 345.1347Q347.98135 344.90033 348.46573 344.90033Q349.37198 344.90033 350.0126 345.5722Q350.65323 346.22845 350.65323 347.29095Q350.65323 348.18158 350.1376 348.86908Q349.43448 349.8222 348.2001 349.8222Q347.2001 349.8222 346.5751 349.29095Q345.9501 348.7597 345.8251 347.85345ZM354.1376 342.5097Q355.16885 342.5097 355.7626 343.24408Q356.4501 344.1347 356.4501 346.16595Q356.4501 348.1972 355.74698 349.08783Q355.16885 349.8222 354.1376 349.8222Q353.09073 349.8222 352.4501 349.02533Q351.80948 348.21283 351.80948 346.15033Q351.80948 344.1347 352.5126 343.24408Q353.09073 342.5097 354.1376 342.5097ZM354.1376 343.65033Q353.8876 343.65033 353.68448 343.80658Q353.49698 343.96283 353.3876 344.36908Q353.24698 344.90033 353.24698 346.16595Q353.24698 347.43158 353.37198 347.90033Q353.49698 348.36908 353.68448 348.52533Q353.8876 348.68158 354.1376 348.68158Q354.3876 348.68158 354.5751 348.52533Q354.77823 348.36908 354.87198 347.9472Q355.02823 347.43158 355.02823 346.16595Q355.02823 344.90033 354.8876 344.43158Q354.7626 343.96283 354.5751 343.80658Q354.3876 343.65033 354.1376 343.65033ZM358.0751 348.3222L359.4501 348.3222L359.4501 349.30658Q359.4501 349.90033 359.34073 350.24408Q359.23135 350.58783 358.9501 350.85345Q358.66885 351.1347 358.23135 351.29095L357.96573 350.72845Q358.37198 350.58783 358.54385 350.35345Q358.73135 350.11908 358.73135 349.6972L358.0751 349.6972L358.0751 348.3222ZM360.8251 347.85345L362.2001 347.71283Q362.2626 348.18158 362.54385 348.4472Q362.84073 348.71283 363.21573 348.71283Q363.6376 348.71283 363.93448 348.36908Q364.23135 348.02533 364.23135 347.3222Q364.23135 346.66595 363.93448 346.33783Q363.6376 345.99408 363.16885 345.99408Q362.5751 345.99408 362.10635 346.52533L360.99698 346.36908L361.7001 342.6347L365.3251 342.6347L365.3251 343.91595L362.74698 343.91595L362.52823 345.1347Q362.98135 344.90033 363.46573 344.90033Q364.37198 344.90033 365.0126 345.5722Q365.65323 346.22845 365.65323 347.29095Q365.65323 348.18158 365.1376 348.86908Q364.43448 349.8222 363.2001 349.8222Q362.2001 349.8222 361.5751 349.29095Q360.9501 348.7597 360.8251 347.85345ZM366.8251 344.30658Q366.8251 343.33783 367.24698 342.8847Q367.66885 342.41595 368.3876 342.41595Q369.1376 342.41595 369.55948 342.8847Q369.98135 343.33783 369.98135 344.30658Q369.98135 345.27533 369.55948 345.74408Q369.1376 346.1972 368.41885 346.1972Q367.66885 346.1972 367.24698 345.74408Q366.8251 345.27533 366.8251 344.30658ZM367.8876 344.29095Q367.8876 344.99408 368.05948 345.22845Q368.16885 345.41595 368.3876 345.41595Q368.60635 345.41595 368.73135 345.22845Q368.8876 344.99408 368.8876 344.29095Q368.8876 343.60345 368.73135 343.36908Q368.60635 343.18158 368.3876 343.18158Q368.16885 343.18158 368.05948 343.35345Q367.8876 343.60345 367.8876 344.29095ZM369.43448 349.97845L368.41885 349.97845L372.23135 342.41595L373.21573 342.41595L369.43448 349.97845ZM371.65323 348.08783Q371.65323 347.1347 372.0751 346.66595Q372.49698 346.1972 373.23135 346.1972Q373.96573 346.1972 374.3876 346.66595Q374.80948 347.1347 374.80948 348.08783Q374.80948 349.05658 374.3876 349.52533Q373.96573 349.97845 373.24698 349.97845Q372.49698 349.97845 372.0751 349.52533Q371.65323 349.05658 371.65323 348.08783ZM372.71573 348.08783Q372.71573 348.79095 372.8876 349.02533Q372.99698 349.1972 373.21573 349.1972Q373.43448 349.1972 373.55948 349.02533Q373.71573 348.79095 373.71573 348.08783Q373.71573 347.3847 373.55948 347.15033Q373.43448 346.97845 373.21573 346.97845Q372.99698 346.97845 372.8876 347.15033Q372.71573 347.3847 372.71573 348.08783Z" fill-rule="nonzero"/><path fill="#555555" d="M204.42668 184.6713L204.42668 185.95255L199.61418 185.95255Q199.6923 185.2338 200.08293 184.59317Q200.47356 183.93692 201.6298 182.8588Q202.55168 181.99942 202.77043 181.68692Q203.05168 181.26505 203.05168 180.8588Q203.05168 180.39005 202.80168 180.15567Q202.55168 179.90567 202.11418 179.90567Q201.6923 179.90567 201.42668 180.1713Q201.17668 180.4213 201.14543 181.01505L199.77043 180.89005Q199.89543 179.74942 200.53606 179.26505Q201.1923 178.76505 202.14543 178.76505Q203.20793 178.76505 203.8173 179.34317Q204.42668 179.90567 204.42668 180.74942Q204.42668 181.2338 204.2548 181.6713Q204.08293 182.1088 203.70793 182.59317Q203.45793 182.90567 202.80168 183.51505Q202.14543 184.1088 201.97356 184.31192Q201.80168 184.49942 201.6923 184.6713L204.42668 184.6713ZM205.73918 184.0463L207.0673 183.89005Q207.1298 184.40567 207.41106 184.6713Q207.6923 184.93692 208.08293 184.93692Q208.5048 184.93692 208.78606 184.62442Q209.08293 184.2963 209.08293 183.74942Q209.08293 183.2338 208.80168 182.93692Q208.53606 182.62442 208.1298 182.62442Q207.86418 182.62442 207.5048 182.71817L207.66106 181.6088Q208.20793 181.62442 208.5048 181.37442Q208.80168 181.1088 208.80168 180.68692Q208.80168 180.32755 208.58293 180.1088Q208.36418 179.89005 208.0048 179.89005Q207.66106 179.89005 207.41106 180.14005Q207.16106 180.37442 207.11418 180.84317L205.84856 180.64005Q205.97356 179.9838 206.23918 179.59317Q206.5048 179.20255 206.97356 178.9838Q207.45793 178.76505 208.05168 178.76505Q209.0673 178.76505 209.67668 179.40567Q210.17668 179.93692 210.17668 180.59317Q210.17668 181.5463 209.14543 182.1088Q209.7548 182.2338 210.11418 182.70255Q210.48918 183.15567 210.48918 183.7963Q210.48918 184.74942 209.80168 185.4213Q209.11418 186.07755 208.09856 186.07755Q207.1298 186.07755 206.48918 185.51505Q205.84856 184.95255 205.73918 184.0463ZM212.05168 184.57755L213.42668 184.57755L213.42668 185.56192Q213.42668 186.15567 213.3173 186.49942Q213.20793 186.84317 212.92668 187.1088Q212.64543 187.39005 212.20793 187.5463L211.9423 186.9838Q212.34856 186.84317 212.52043 186.6088Q212.70793 186.37442 212.70793 185.95255L212.05168 185.95255L212.05168 184.57755ZM214.8173 184.2963L216.14543 184.15567Q216.1923 184.56192 216.39543 184.76505Q216.59856 184.95255 216.9423 184.95255Q217.36418 184.95255 217.66106 184.56192Q217.95793 184.1713 218.05168 182.93692Q217.53606 183.53067 216.7548 183.53067Q215.91106 183.53067 215.28606 182.89005Q214.67668 182.2338 214.67668 181.18692Q214.67668 180.09317 215.3173 179.43692Q215.97356 178.76505 216.97356 178.76505Q218.0673 178.76505 218.7548 179.6088Q219.45793 180.45255 219.45793 182.37442Q219.45793 184.34317 218.72356 185.21817Q218.0048 186.07755 216.83293 186.07755Q216.0048 186.07755 215.47356 185.64005Q214.95793 185.18692 214.8173 184.2963ZM217.92668 181.2963Q217.92668 180.64005 217.61418 180.28067Q217.3173 179.90567 216.91106 179.90567Q216.53606 179.90567 216.28606 180.20255Q216.03606 180.49942 216.03606 181.18692Q216.03606 181.87442 216.30168 182.20255Q216.58293 182.53067 216.98918 182.53067Q217.3798 182.53067 217.64543 182.21817Q217.92668 181.90567 217.92668 181.2963ZM220.80168 180.56192Q220.80168 179.59317 221.22356 179.14005Q221.64543 178.6713 222.36418 178.6713Q223.11418 178.6713 223.53606 179.14005Q223.95793 179.59317 223.95793 180.56192Q223.95793 181.53067 223.53606 181.99942Q223.11418 182.45255 222.39543 182.45255Q221.64543 182.45255 221.22356 181.99942Q220.80168 181.53067 220.80168 180.56192ZM221.86418 180.5463Q221.86418 181.24942 222.03606 181.4838Q222.14543 181.6713 222.36418 181.6713Q222.58293 181.6713 222.70793 181.4838Q222.86418 181.24942 222.86418 180.5463Q222.86418 179.8588 222.70793 179.62442Q222.58293 179.43692 222.36418 179.43692Q222.14543 179.43692 222.03606 179.6088Q221.86418 179.8588 221.86418 180.5463ZM223.41106 186.2338L222.39543 186.2338L226.20793 178.6713L227.1923 178.6713L223.41106 186.2338ZM225.6298 184.34317Q225.6298 183.39005 226.05168 182.9213Q226.47356 182.45255 227.20793 182.45255Q227.9423 182.45255 228.36418 182.9213Q228.78606 183.39005 228.78606 184.34317Q228.78606 185.31192 228.36418 185.78067Q227.9423 186.2338 227.22356 186.2338Q226.47356 186.2338 226.05168 185.78067Q225.6298 185.31192 225.6298 184.34317ZM226.6923 184.34317Q226.6923 185.0463 226.86418 185.28067Q226.97356 185.45255 227.1923 185.45255Q227.41106 185.45255 227.53606 185.28067Q227.6923 185.0463 227.6923 184.34317Q227.6923 183.64005 227.53606 183.40567Q227.41106 183.2338 227.1923 183.2338Q226.97356 183.2338 226.86418 183.40567Q226.6923 183.64005 226.6923 184.34317Z" fill-rule="nonzero"/><path fill="#555555" d="M283.57104 110.4999L284.94604 110.359276Q285.00854 110.828026 285.2898 111.09365Q285.58667 111.359276 285.96167 111.359276Q286.38354 111.359276 286.68042 111.015526Q286.9773 110.671776 286.9773 109.96865Q286.9773 109.3124 286.68042 108.984276Q286.38354 108.640526 285.9148 108.640526Q285.32104 108.640526 284.8523 109.171776L283.74292 109.015526L284.44604 105.28115L288.07104 105.28115L288.07104 106.5624L285.49292 106.5624L285.27417 107.78115Q285.7273 107.546776 286.21167 107.546776Q287.11792 107.546776 287.75854 108.21865Q288.39917 108.8749 288.39917 109.9374Q288.39917 110.828026 287.88354 111.515526Q287.18042 112.46865 285.94604 112.46865Q284.94604 112.46865 284.32104 111.9374Q283.69604 111.40615 283.57104 110.4999ZM289.82104 110.96865L291.19604 110.96865L291.19604 111.953026Q291.19604 112.546776 291.08667 112.890526Q290.9773 113.234276 290.69604 113.4999Q290.4148 113.78115 289.9773 113.9374L289.71167 113.3749Q290.11792 113.234276 290.2898 112.9999Q290.4773 112.765526 290.4773 112.34365L289.82104 112.34365L289.82104 110.96865ZM293.74292 108.484276Q293.19604 108.2499 292.96167 107.859276Q292.7273 107.46865 292.7273 106.9999Q292.7273 106.203026 293.27417 105.6874Q293.83667 105.15615 294.86792 105.15615Q295.88354 105.15615 296.44604 105.6874Q297.02417 106.203026 297.02417 106.9999Q297.02417 107.4999 296.75854 107.890526Q296.49292 108.28115 296.02417 108.484276Q296.63354 108.71865 296.93042 109.1874Q297.24292 109.640526 297.24292 110.234276Q297.24292 111.234276 296.6023 111.859276Q295.9773 112.46865 294.93042 112.46865Q293.96167 112.46865 293.30542 111.953026Q292.5398 111.359276 292.5398 110.296776Q292.5398 109.71865 292.82104 109.234276Q293.11792 108.7499 293.74292 108.484276ZM294.02417 107.09365Q294.02417 107.515526 294.24292 107.7499Q294.4773 107.96865 294.86792 107.96865Q295.25854 107.96865 295.49292 107.734276Q295.7273 107.4999 295.7273 107.09365Q295.7273 106.703026 295.49292 106.484276Q295.25854 106.2499 294.88354 106.2499Q294.49292 106.2499 294.25854 106.484276Q294.02417 106.71865 294.02417 107.09365ZM293.89917 110.171776Q293.89917 110.734276 294.18042 111.046776Q294.4773 111.359276 294.9148 111.359276Q295.33667 111.359276 295.6023 111.0624Q295.88354 110.7499 295.88354 110.1874Q295.88354 109.671776 295.6023 109.3749Q295.32104 109.0624 294.88354 109.0624Q294.38354 109.0624 294.13354 109.421776Q293.89917 109.765526 293.89917 110.171776ZM298.57104 106.953026Q298.57104 105.984276 298.99292 105.53115Q299.4148 105.0624 300.13354 105.0624Q300.88354 105.0624 301.30542 105.53115Q301.7273 105.984276 301.7273 106.953026Q301.7273 107.921776 301.30542 108.390526Q300.88354 108.84365 300.1648 108.84365Q299.4148 108.84365 298.99292 108.390526Q298.57104 107.921776 298.57104 106.953026ZM299.63354 106.9374Q299.63354 107.640526 299.80542 107.8749Q299.9148 108.0624 300.13354 108.0624Q300.3523 108.0624 300.4773 107.8749Q300.63354 107.640526 300.63354 106.9374Q300.63354 106.2499 300.4773 106.015526Q300.3523 105.828026 300.13354 105.828026Q299.9148 105.828026 299.80542 105.9999Q299.63354 106.2499 299.63354 106.9374ZM301.18042 112.6249L300.1648 112.6249L303.9773 105.0624L304.96167 105.0624L301.18042 112.6249ZM303.39917 110.734276Q303.39917 109.78115 303.82104 109.3124Q304.24292 108.84365 304.9773 108.84365Q305.71167 108.84365 306.13354 109.3124Q306.55542 109.78115 306.55542 110.734276Q306.55542 111.703026 306.13354 112.171776Q305.71167 112.6249 304.99292 112.6249Q304.24292 112.6249 303.82104 112.171776Q303.39917 111.703026 303.39917 110.734276ZM304.46167 110.734276Q304.46167 111.4374 304.63354 111.671776Q304.74292 111.84365 304.96167 111.84365Q305.18042 111.84365 305.30542 111.671776Q305.46167 111.4374 305.46167 110.734276Q305.46167 110.03115 305.30542 109.796776Q305.18042 109.6249 304.96167 109.6249Q304.74292 109.6249 304.63354 109.796776Q304.46167 110.03115 304.46167 110.734276Z" fill-rule="nonzero"/><path fill="#d18485" d="M31.9 154.66667C31.9 157.98038 29.213709 160.66667 25.9 160.66667C22.586292 160.66667 19.9 157.98038 19.9 154.66667C19.9 151.35295 22.586292 148.66667 25.9 148.66667C29.213709 148.66667 31.9 151.35295 31.9 154.66667Z" fill-rule="nonzero"/><path fill="#555555" d="M40.821877 158.66667L40.821877 150.07292L41.978127 150.07292L46.49375 156.82292L46.49375 150.07292L47.5875 150.07292L47.5875 158.66667L46.415627 158.66667L41.9 151.91667L41.9 158.66667L40.821877 158.66667ZM49.30625 155.5573Q49.30625 153.82292 50.259377 152.9948Q51.05625 152.3073 52.2125 152.3073Q53.49375 152.3073 54.30625 153.15105Q55.134377 153.97917 55.134377 155.46355Q55.134377 156.66667 54.775 157.35417Q54.415627 158.04167 53.7125 158.4323Q53.025 158.8073 52.2125 158.8073Q50.915627 158.8073 50.103127 157.97917Q49.30625 157.13542 49.30625 155.5573ZM50.384377 155.5573Q50.384377 156.7448 50.9 157.33855Q51.43125 157.9323 52.2125 157.9323Q53.009377 157.9323 53.525 157.33855Q54.040627 156.7448 54.040627 155.52605Q54.040627 154.3698 53.509377 153.77605Q52.99375 153.1823 52.2125 153.1823Q51.43125 153.1823 50.9 153.77605Q50.384377 154.35417 50.384377 155.5573ZM56.68125 158.66667L56.68125 152.44792L57.634377 152.44792L57.634377 153.38542Q57.99375 152.72917 58.290627 152.52605Q58.603127 152.3073 58.978127 152.3073Q59.509377 152.3073 60.05625 152.63542L59.696877 153.6198Q59.30625 153.38542 58.93125 153.38542Q58.571877 153.38542 58.290627 153.60417Q58.025 153.8073 57.915627 154.1823Q57.728127 154.7448 57.728127 155.40105L57.728127 158.66667L56.68125 158.66667ZM62.99375 157.72917L63.15 158.65105Q62.696877 158.7448 62.353127 158.7448Q61.775 158.7448 61.4625 158.57292Q61.15 158.38542 61.009377 158.08855Q60.884377 157.79167 60.884377 156.83855L60.884377 153.26042L60.11875 153.26042L60.11875 152.44792L60.884377 152.44792L60.884377 150.90105L61.93125 150.27605L61.93125 152.44792L62.99375 152.44792L62.99375 153.26042L61.93125 153.26042L61.93125 156.90105Q61.93125 157.35417 61.978127 157.47917Q62.040627 157.60417 62.165627 157.6823Q62.290627 157.76042 62.525 157.76042Q62.7125 157.76042 62.99375 157.72917ZM67.94688 156.66667L69.04063 156.79167Q68.79063 157.7448 68.0875 158.27605Q67.38438 158.8073 66.30625 158.8073Q64.94688 158.8073 64.13438 157.96355Q63.3375 157.1198 63.3375 155.60417Q63.3375 154.04167 64.15 153.1823Q64.9625 152.3073 66.24375 152.3073Q67.49375 152.3073 68.275 153.15105Q69.07188 153.9948 69.07188 155.54167Q69.07188 155.63542 69.07188 155.82292L64.43125 155.82292Q64.49375 156.85417 65.00938 157.40105Q65.525 157.9323 66.30625 157.9323Q66.88438 157.9323 67.29063 157.63542Q67.7125 157.32292 67.94688 156.66667ZM64.49375 154.96355L67.9625 154.96355Q67.9 154.16667 67.57188 153.77605Q67.05625 153.16667 66.25938 153.16667Q65.525 153.16667 65.025 153.65105Q64.54063 154.13542 64.49375 154.96355Z" fill-rule="nonzero"/><path fill="#cf9456" d="M31.9 178.66667C31.9 181.98038 29.213709 184.66667 25.9 184.66667C22.586292 184.66667 19.9 181.98038 19.9 178.66667C19.9 175.35295 22.586292 172.66667 25.9 172.66667C29.213709 172.66667 31.9 175.35295 31.9 178.66667Z" fill-rule="nonzero"/><path fill="#555555" d="M40.821877 182.66667L40.821877 174.07292L41.978127 174.07292L46.49375 180.82292L46.49375 174.07292L47.5875 174.07292L47.5875 182.66667L46.415627 182.66667L41.9 175.91667L41.9 182.66667L40.821877 182.66667ZM49.30625 179.5573Q49.30625 177.82292 50.259377 176.9948Q51.05625 176.3073 52.2125 176.3073Q53.49375 176.3073 54.30625 177.15105Q55.134377 177.97917 55.134377 179.46355Q55.134377 180.66667 54.775 181.35417Q54.415627 182.04167 53.7125 182.4323Q53.025 182.8073 52.2125 182.8073Q50.915627 182.8073 50.103127 181.97917Q49.30625 181.13542 49.30625 179.5573ZM50.384377 179.5573Q50.384377 180.7448 50.9 181.33855Q51.43125 181.9323 52.2125 181.9323Q53.009377 181.9323 53.525 181.33855Q54.040627 180.7448 54.040627 179.52605Q54.040627 178.3698 53.509377 177.77605Q52.99375 177.1823 52.2125 177.1823Q51.43125 177.1823 50.9 177.77605Q50.384377 178.35417 50.384377 179.5573ZM56.68125 182.66667L56.68125 176.44792L57.634377 176.44792L57.634377 177.38542Q57.99375 176.72917 58.290627 176.52605Q58.603127 176.3073 58.978127 176.3073Q59.509377 176.3073 60.05625 176.63542L59.696877 177.6198Q59.30625 177.38542 58.93125 177.38542Q58.571877 177.38542 58.290627 177.60417Q58.025 177.8073 57.915627 178.1823Q57.728127 178.7448 57.728127 179.40105L57.728127 182.66667L56.68125 182.66667ZM64.72813 182.66667L64.72813 181.88542Q64.13438 182.8073 62.99375 182.8073Q62.24375 182.8073 61.61875 182.40105Q60.99375 181.97917 60.65 181.2448Q60.30625 180.51042 60.30625 179.5573Q60.30625 178.63542 60.61875 177.8698Q60.93125 177.10417 61.55625 176.71355Q62.18125 176.3073 62.946877 176.3073Q63.509377 176.3073 63.946877 176.54167Q64.38438 176.77605 64.66563 177.15105L64.66563 174.07292L65.7125 174.07292L65.7125 182.66667L64.72813 182.66667ZM61.4 179.5573Q61.4 180.76042 61.9 181.35417Q62.4 181.9323 63.0875 181.9323Q63.775 181.9323 64.25938 181.3698Q64.74375 180.8073 64.74375 179.65105Q64.74375 178.3698 64.24375 177.77605Q63.759377 177.1823 63.040627 177.1823Q62.3375 177.1823 61.86875 177.76042Q61.4 178.32292 61.4 179.5573ZM71.94688 180.66667L73.04063 180.79167Q72.79063 181.7448 72.0875 182.27605Q71.38438 182.8073 70.30625 182.8073Q68.94688 182.8073 68.13438 181.96355Q67.3375 181.1198 67.3375 179.60417Q67.3375 178.04167 68.15 177.1823Q68.9625 176.3073 70.24375 176.3073Q71.49375 176.3073 72.275 177.15105Q73.07188 177.9948 73.07188 179.54167Q73.07188 179.63542 73.07188 179.82292L68.43125 179.82292Q68.49375 180.85417 69.00938 181.40105Q69.525 181.9323 70.30625 181.9323Q70.88438 181.9323 71.29063 181.63542Q71.7125 181.32292 71.94688 180.66667ZM68.49375 178.96355L71.9625 178.96355Q71.9 178.16667 71.57188 177.77605Q71.05625 177.16667 70.25938 177.16667Q69.525 177.16667 69.025 177.65105Q68.54063 178.13542 68.49375 178.96355ZM74.275 180.8073L75.30625 180.65105Q75.4 181.27605 75.79063 181.60417Q76.19688 181.9323 76.93125 181.9323Q77.65 181.9323 77.99375 181.65105Q78.35313 181.35417 78.35313 180.94792Q78.35313 180.58855 78.04063 180.38542Q77.82188 180.2448 76.9625 180.02605Q75.80625 179.72917 75.35313 179.52605Q74.91563 179.3073 74.68125 178.9323Q74.44688 178.5573 74.44688 178.08855Q74.44688 177.6823 74.63438 177.32292Q74.82188 176.96355 75.15 176.72917Q75.4 176.5573 75.82188 176.4323Q76.24375 176.3073 76.74375 176.3073Q77.4625 176.3073 78.00938 176.52605Q78.57188 176.72917 78.8375 177.08855Q79.10313 177.44792 79.19688 178.04167L78.16563 178.1823Q78.10313 177.71355 77.75938 177.44792Q77.43125 177.16667 76.80625 177.16667Q76.0875 177.16667 75.775 177.41667Q75.4625 177.65105 75.4625 177.97917Q75.4625 178.1823 75.5875 178.33855Q75.72813 178.51042 75.99375 178.6198Q76.15 178.6823 76.93125 178.88542Q78.05625 179.19792 78.49375 179.38542Q78.93125 179.57292 79.18125 179.9323Q79.43125 180.29167 79.43125 180.83855Q79.43125 181.3698 79.11875 181.83855Q78.82188 182.29167 78.24375 182.5573Q77.66563 182.8073 76.93125 182.8073Q75.7125 182.8073 75.07188 182.3073Q74.44688 181.79167 74.275 180.8073ZM83.99375 181.72917L84.15 182.65105Q83.69688 182.7448 83.35313 182.7448Q82.775 182.7448 82.4625 182.57292Q82.15 182.38542 82.00938 182.08855Q81.88438 181.79167 81.88438 180.83855L81.88438 177.26042L81.11875 177.26042L81.11875 176.44792L81.88438 176.44792L81.88438 174.90105L82.93125 174.27605L82.93125 176.44792L83.99375 176.44792L83.99375 177.26042L82.93125 177.26042L82.93125 180.90105Q82.93125 181.35417 82.97813 181.47917Q83.04063 181.60417 83.16563 181.6823Q83.29063 181.76042 83.525 181.76042Q83.7125 181.76042 83.99375 181.72917ZM88.94688 180.66667L90.04063 180.79167Q89.79063 181.7448 89.0875 182.27605Q88.38438 182.8073 87.30625 182.8073Q85.94688 182.8073 85.13438 181.96355Q84.3375 181.1198 84.3375 179.60417Q84.3375 178.04167 85.15 177.1823Q85.9625 176.3073 87.24375 176.3073Q88.49375 176.3073 89.275 177.15105Q90.07188 177.9948 90.07188 179.54167Q90.07188 179.63542 90.07188 179.82292L85.43125 179.82292Q85.49375 180.85417 86.00938 181.40105Q86.525 181.9323 87.30625 181.9323Q87.88438 181.9323 88.29063 181.63542Q88.7125 181.32292 88.94688 180.66667ZM85.49375 178.96355L88.9625 178.96355Q88.9 178.16667 88.57188 177.77605Q88.05625 177.16667 87.25938 177.16667Q86.525 177.16667 86.025 177.65105Q85.54063 178.13542 85.49375 178.96355Z" fill-rule="nonzero"/><path fill="#ad3f83" d="M31.9 202.66667C31.9 205.98038 29.213709 208.66667 25.9 208.66667C22.586292 208.66667 19.9 205.98038 19.9 202.66667C19.9 199.35295 22.586292 196.66667 25.9 196.66667C29.213709 196.66667 31.9 199.35295 31.9 202.66667Z" fill-rule="nonzero"/><path fill="#555555" d="M40.446877 203.90105L41.509377 203.8073Q41.5875 204.46355 41.86875 204.8698Q42.15 205.27605 42.728127 205.54167Q43.321877 205.79167 44.05625 205.79167Q44.696877 205.79167 45.196877 205.60417Q45.696877 205.40105 45.93125 205.07292Q46.18125 204.72917 46.18125 204.33855Q46.18125 203.9323 45.946877 203.63542Q45.7125 203.32292 45.18125 203.1198Q44.821877 202.97917 43.634377 202.69792Q42.4625 202.41667 41.99375 202.16667Q41.36875 201.83855 41.071877 201.3698Q40.775 200.88542 40.775 200.29167Q40.775 199.65105 41.134377 199.08855Q41.509377 198.51042 42.2125 198.22917Q42.93125 197.9323 43.790627 197.9323Q44.74375 197.9323 45.478127 198.2448Q46.2125 198.54167 46.603127 199.15105Q46.99375 199.7448 47.025 200.4948L45.93125 200.57292Q45.8375 199.76042 45.321877 199.35417Q44.821877 198.9323 43.8375 198.9323Q42.80625 198.9323 42.3375 199.3073Q41.86875 199.6823 41.86875 200.21355Q41.86875 200.6823 42.196877 200.97917Q42.525 201.27605 43.9 201.58855Q45.290627 201.90105 45.80625 202.13542Q46.55625 202.4948 46.915627 203.02605Q47.275 203.54167 47.275 204.2448Q47.275 204.9323 46.884377 205.54167Q46.49375 206.13542 45.759377 206.47917Q45.025 206.8073 44.103127 206.8073Q42.93125 206.8073 42.134377 206.47917Q41.353127 206.13542 40.9 205.44792Q40.4625 204.76042 40.446877 203.90105ZM52.775 206.66667L52.775 205.7448Q52.040627 206.8073 50.790627 206.8073Q50.24375 206.8073 49.759377 206.60417Q49.290627 206.38542 49.05625 206.07292Q48.821877 205.7448 48.728127 205.27605Q48.665627 204.97917 48.665627 204.29167L48.665627 200.44792L49.728127 200.44792L49.728127 203.90105Q49.728127 204.71355 49.790627 205.01042Q49.884377 205.41667 50.196877 205.66667Q50.525 205.90105 51.009377 205.90105Q51.478127 205.90105 51.884377 205.66667Q52.30625 205.41667 52.478127 204.9948Q52.665627 204.57292 52.665627 203.77605L52.665627 200.44792L53.7125 200.44792L53.7125 206.66667L52.775 206.66667ZM59.728127 206.66667L59.728127 205.88542Q59.134377 206.8073 57.99375 206.8073Q57.24375 206.8073 56.61875 206.40105Q55.99375 205.97917 55.65 205.2448Q55.30625 204.51042 55.30625 203.5573Q55.30625 202.63542 55.61875 201.8698Q55.93125 201.10417 56.55625 200.71355Q57.18125 200.3073 57.946877 200.3073Q58.509377 200.3073 58.946877 200.54167Q59.384377 200.77605 59.665627 201.15105L59.665627 198.07292L60.7125 198.07292L60.7125 206.66667L59.728127 206.66667ZM56.4 203.5573Q56.4 204.76042 56.9 205.35417Q57.4 205.9323 58.0875 205.9323Q58.775 205.9323 59.259377 205.3698Q59.74375 204.8073 59.74375 203.65105Q59.74375 202.3698 59.24375 201.77605Q58.759377 201.1823 58.040627 201.1823Q57.3375 201.1823 56.86875 201.76042Q56.4 202.32292 56.4 203.5573ZM66.94688 204.66667L68.04063 204.79167Q67.79063 205.7448 67.0875 206.27605Q66.38438 206.8073 65.30625 206.8073Q63.946877 206.8073 63.134377 205.96355Q62.3375 205.1198 62.3375 203.60417Q62.3375 202.04167 63.15 201.1823Q63.9625 200.3073 65.24375 200.3073Q66.49375 200.3073 67.275 201.15105Q68.07188 201.9948 68.07188 203.54167Q68.07188 203.63542 68.07188 203.82292L63.43125 203.82292Q63.49375 204.85417 64.00938 205.40105Q64.525 205.9323 65.30625 205.9323Q65.88438 205.9323 66.29063 205.63542Q66.7125 205.32292 66.94688 204.66667ZM63.49375 202.96355L66.9625 202.96355Q66.9 202.16667 66.57188 201.77605Q66.05625 201.16667 65.25938 201.16667Q64.525 201.16667 64.025 201.65105Q63.540627 202.13542 63.49375 202.96355ZM69.275 204.8073L70.30625 204.65105Q70.4 205.27605 70.79063 205.60417Q71.19688 205.9323 71.93125 205.9323Q72.65 205.9323 72.99375 205.65105Q73.35313 205.35417 73.35313 204.94792Q73.35313 204.58855 73.04063 204.38542Q72.82188 204.2448 71.9625 204.02605Q70.80625 203.72917 70.35313 203.52605Q69.91563 203.3073 69.68125 202.9323Q69.44688 202.5573 69.44688 202.08855Q69.44688 201.6823 69.63438 201.32292Q69.82188 200.96355 70.15 200.72917Q70.4 200.5573 70.82188 200.4323Q71.24375 200.3073 71.74375 200.3073Q72.4625 200.3073 73.00938 200.52605Q73.57188 200.72917 73.8375 201.08855Q74.10313 201.44792 74.19688 202.04167L73.16563 202.1823Q73.10313 201.71355 72.75938 201.44792Q72.43125 201.16667 71.80625 201.16667Q71.0875 201.16667 70.775 201.41667Q70.4625 201.65105 70.4625 201.97917Q70.4625 202.1823 70.5875 202.33855Q70.72813 202.51042 70.99375 202.6198Q71.15 202.6823 71.93125 202.88542Q73.05625 203.19792 73.49375 203.38542Q73.93125 203.57292 74.18125 203.9323Q74.43125 204.29167 74.43125 204.83855Q74.43125 205.3698 74.11875 205.83855Q73.82188 206.29167 73.24375 206.5573Q72.66563 206.8073 71.93125 206.8073Q70.7125 206.8073 70.07188 206.3073Q69.44688 205.79167 69.275 204.8073ZM78.99375 205.72917L79.15 206.65105Q78.69688 206.7448 78.35313 206.7448Q77.775 206.7448 77.4625 206.57292Q77.15 206.38542 77.00938 206.08855Q76.88438 205.79167 76.88438 204.83855L76.88438 201.26042L76.11875 201.26042L76.11875 200.44792L76.88438 200.44792L76.88438 198.90105L77.93125 198.27605L77.93125 200.44792L78.99375 200.44792L78.99375 201.26042L77.93125 201.26042L77.93125 204.90105Q77.93125 205.35417 77.97813 205.47917Q78.04063 205.60417 78.16563 205.6823Q78.29063 205.76042 78.525 205.76042Q78.7125 205.76042 78.99375 205.72917ZM83.94688 204.66667L85.04063 204.79167Q84.79063 205.7448 84.0875 206.27605Q83.38438 206.8073 82.30625 206.8073Q80.94688 206.8073 80.13438 205.96355Q79.3375 205.1198 79.3375 203.60417Q79.3375 202.04167 80.15 201.1823Q80.9625 200.3073 82.24375 200.3073Q83.49375 200.3073 84.275 201.15105Q85.07188 201.9948 85.07188 203.54167Q85.07188 203.63542 85.07188 203.82292L80.43125 203.82292Q80.49375 204.85417 81.00938 205.40105Q81.525 205.9323 82.30625 205.9323Q82.88438 205.9323 83.29063 205.63542Q83.7125 205.32292 83.94688 204.66667ZM80.49375 202.96355L83.9625 202.96355Q83.9 202.16667 83.57188 201.77605Q83.05625 201.16667 82.25938 201.16667Q81.525 201.16667 81.025 201.65105Q80.54063 202.13542 80.49375 202.96355Z" fill-rule="nonzero"/><path fill="#bda4a4" d="M31.9 226.66667C31.9 229.98038 29.213709 232.66667 25.9 232.66667C22.586292 232.66667 19.9 229.98038 19.9 226.66667C19.9 223.35295 22.586292 220.66667 25.9 220.66667C29.213709 220.66667 31.9 223.35295 31.9 226.66667Z" fill-rule="nonzero"/><path fill="#555555" d="M40.446877 227.90105L41.509377 227.8073Q41.5875 228.46355 41.86875 228.8698Q42.15 229.27605 42.728127 229.54167Q43.321877 229.79167 44.05625 229.79167Q44.696877 229.79167 45.196877 229.60417Q45.696877 229.40105 45.93125 229.07292Q46.18125 228.72917 46.18125 228.33855Q46.18125 227.9323 45.946877 227.63542Q45.7125 227.32292 45.18125 227.1198Q44.821877 226.97917 43.634377 226.69792Q42.4625 226.41667 41.99375 226.16667Q41.36875 225.83855 41.071877 225.3698Q40.775 224.88542 40.775 224.29167Q40.775 223.65105 41.134377 223.08855Q41.509377 222.51042 42.2125 222.22917Q42.93125 221.9323 43.790627 221.9323Q44.74375 221.9323 45.478127 222.2448Q46.2125 222.54167 46.603127 223.15105Q46.99375 223.7448 47.025 224.4948L45.93125 224.57292Q45.8375 223.76042 45.321877 223.35417Q44.821877 222.9323 43.8375 222.9323Q42.80625 222.9323 42.3375 223.3073Q41.86875 223.6823 41.86875 224.21355Q41.86875 224.6823 42.196877 224.97917Q42.525 225.27605 43.9 225.58855Q45.290627 225.90105 45.80625 226.13542Q46.55625 226.4948 46.915627 227.02605Q47.275 227.54167 47.275 228.2448Q47.275 228.9323 46.884377 229.54167Q46.49375 230.13542 45.759377 230.47917Q45.025 230.8073 44.103127 230.8073Q42.93125 230.8073 42.134377 230.47917Q41.353127 230.13542 40.9 229.44792Q40.4625 228.76042 40.446877 227.90105ZM52.775 230.66667L52.775 229.7448Q52.040627 230.8073 50.790627 230.8073Q50.24375 230.8073 49.759377 230.60417Q49.290627 230.38542 49.05625 230.07292Q48.821877 229.7448 48.728127 229.27605Q48.665627 228.97917 48.665627 228.29167L48.665627 224.44792L49.728127 224.44792L49.728127 227.90105Q49.728127 228.71355 49.790627 229.01042Q49.884377 229.41667 50.196877 229.66667Q50.525 229.90105 51.009377 229.90105Q51.478127 229.90105 51.884377 229.66667Q52.30625 229.41667 52.478127 228.9948Q52.665627 228.57292 52.665627 227.77605L52.665627 224.44792L53.7125 224.44792L53.7125 230.66667L52.775 230.66667ZM55.665627 230.66667L55.665627 222.07292L56.728127 222.07292L56.728127 230.66667L55.665627 230.66667Z" fill-rule="nonzero"/><path fill="#c1cee0" d="M31.9 250.66667C31.9 253.98038 29.213709 256.66666 25.9 256.66666C22.586292 256.66666 19.9 253.98038 19.9 250.66667C19.9 247.35295 22.586292 244.66667 25.9 244.66667C29.213709 244.66667 31.9 247.35295 31.9 250.66667Z" fill-rule="nonzero"/><path fill="#555555" d="M46.9625 251.65105L48.0875 251.94792Q47.728127 253.33855 46.80625 254.07292Q45.884377 254.8073 44.540627 254.8073Q43.15 254.8073 42.275 254.2448Q41.4 253.6823 40.946877 252.6198Q40.49375 251.54167 40.49375 250.3073Q40.49375 248.96355 41.009377 247.96355Q41.525 246.96355 42.4625 246.44792Q43.415627 245.9323 44.55625 245.9323Q45.8375 245.9323 46.7125 246.58855Q47.603127 247.2448 47.946877 248.4323L46.821877 248.69792Q46.525 247.76042 45.946877 247.33855Q45.384377 246.90105 44.525 246.90105Q43.540627 246.90105 42.86875 247.38542Q42.2125 247.85417 41.93125 248.65105Q41.665627 249.44792 41.665627 250.3073Q41.665627 251.40105 41.978127 252.21355Q42.30625 253.02605 42.978127 253.4323Q43.65 253.83855 44.446877 253.83855Q45.4 253.83855 46.05625 253.29167Q46.728127 252.7448 46.9625 251.65105ZM53.946877 252.66667L55.040627 252.79167Q54.790627 253.7448 54.0875 254.27605Q53.384377 254.8073 52.30625 254.8073Q50.946877 254.8073 50.134377 253.96355Q49.3375 253.1198 49.3375 251.60417Q49.3375 250.04167 50.15 249.1823Q50.9625 248.3073 52.24375 248.3073Q53.49375 248.3073 54.275 249.15105Q55.071877 249.9948 55.071877 251.54167Q55.071877 251.63542 55.071877 251.82292L50.43125 251.82292Q50.49375 252.85417 51.009377 253.40105Q51.525 253.9323 52.30625 253.9323Q52.884377 253.9323 53.290627 253.63542Q53.7125 253.32292 53.946877 252.66667ZM50.49375 250.96355L53.9625 250.96355Q53.9 250.16667 53.571877 249.77605Q53.05625 249.16667 52.259377 249.16667Q51.525 249.16667 51.025 249.65105Q50.540627 250.13542 50.49375 250.96355ZM56.696877 254.66667L56.696877 248.44792L57.634377 248.44792L57.634377 249.32292Q58.321877 248.3073 59.61875 248.3073Q60.18125 248.3073 60.65 248.51042Q61.134377 248.71355 61.36875 249.04167Q61.603127 249.3698 61.696877 249.8073Q61.74375 250.10417 61.74375 250.83855L61.74375 254.66667L60.696877 254.66667L60.696877 250.88542Q60.696877 250.22917 60.571877 249.91667Q60.446877 249.60417 60.134377 249.41667Q59.821877 249.21355 59.4 249.21355Q58.728127 249.21355 58.228127 249.65105Q57.74375 250.07292 57.74375 251.26042L57.74375 254.66667L56.696877 254.66667ZM65.99375 253.72917L66.15 254.65105Q65.69688 254.7448 65.35313 254.7448Q64.775 254.7448 64.4625 254.57292Q64.15 254.38542 64.00938 254.08855Q63.884377 253.79167 63.884377 252.83855L63.884377 249.26042L63.11875 249.26042L63.11875 248.44792L63.884377 248.44792L63.884377 246.90105L64.93125 246.27605L64.93125 248.44792L65.99375 248.44792L65.99375 249.26042L64.93125 249.26042L64.93125 252.90105Q64.93125 253.35417 64.97813 253.47917Q65.04063 253.60417 65.16563 253.6823Q65.29063 253.76042 65.525 253.76042Q65.7125 253.76042 65.99375 253.72917ZM66.68125 254.66667L66.68125 248.44792L67.63438 248.44792L67.63438 249.38542Q67.99375 248.72917 68.29063 248.52605Q68.60313 248.3073 68.97813 248.3073Q69.50938 248.3073 70.05625 248.63542L69.69688 249.6198Q69.30625 249.38542 68.93125 249.38542Q68.57188 249.38542 68.29063 249.60417Q68.025 249.8073 67.91563 250.1823Q67.72813 250.7448 67.72813 251.40105L67.72813 254.66667L66.68125 254.66667ZM70.30625 251.5573Q70.30625 249.82292 71.25938 248.9948Q72.05625 248.3073 73.2125 248.3073Q74.49375 248.3073 75.30625 249.15105Q76.13438 249.97917 76.13438 251.46355Q76.13438 252.66667 75.775 253.35417Q75.41563 254.04167 74.7125 254.4323Q74.025 254.8073 73.2125 254.8073Q71.91563 254.8073 71.10313 253.97917Q70.30625 253.13542 70.30625 251.5573ZM71.38438 251.5573Q71.38438 252.7448 71.9 253.33855Q72.43125 253.9323 73.2125 253.9323Q74.00938 253.9323 74.525 253.33855Q75.04063 252.7448 75.04063 251.52605Q75.04063 250.3698 74.50938 249.77605Q73.99375 249.1823 73.2125 249.1823Q72.43125 249.1823 71.9 249.77605Q71.38438 250.35417 71.38438 251.5573ZM77.275 252.08855L77.275 251.02605L80.525 251.02605L80.525 252.08855L77.275 252.08855Z" fill-rule="nonzero"/><path fill="#555555" d="M40.30625 265.55728Q40.30625 263.8229 41.259377 262.99478Q42.05625 262.30728 43.2125 262.30728Q44.49375 262.30728 45.30625 263.15103Q46.134377 263.97916 46.134377 265.46353Q46.134377 266.66666 45.775 267.35416Q45.415627 268.04166 44.7125 268.43228Q44.025 268.80728 43.2125 268.80728Q41.915627 268.80728 41.103127 267.97916Q40.30625 267.1354 40.30625 265.55728ZM41.384377 265.55728Q41.384377 266.74478 41.9 267.33853Q42.43125 267.93228 43.2125 267.93228Q44.009377 267.93228 44.525 267.33853Q45.040627 266.74478 45.040627 265.52603Q45.040627 264.36978 44.509377 263.77603Q43.99375 263.18228 43.2125 263.18228Q42.43125 263.18228 41.9 263.77603Q41.384377 264.35416 41.384377 265.55728ZM51.946877 266.66666L53.040627 266.79166Q52.790627 267.74478 52.0875 268.27603Q51.384377 268.80728 50.30625 268.80728Q48.946877 268.80728 48.134377 267.96353Q47.3375 267.11978 47.3375 265.60416Q47.3375 264.04166 48.15 263.18228Q48.9625 262.30728 50.24375 262.30728Q51.49375 262.30728 52.275 263.15103Q53.071877 263.99478 53.071877 265.54166Q53.071877 265.6354 53.071877 265.8229L48.43125 265.8229Q48.49375 266.85416 49.009377 267.40103Q49.525 267.93228 50.30625 267.93228Q50.884377 267.93228 51.290627 267.6354Q51.7125 267.3229 51.946877 266.66666ZM48.49375 264.96353L51.9625 264.96353Q51.9 264.16666 51.571877 263.77603Q51.05625 263.16666 50.259377 263.16666Q49.525 263.16666 49.025 263.65103Q48.540627 264.1354 48.49375 264.96353ZM54.275 266.80728L55.30625 266.65103Q55.4 267.27603 55.790627 267.60416Q56.196877 267.93228 56.93125 267.93228Q57.65 267.93228 57.99375 267.65103Q58.353127 267.35416 58.353127 266.9479Q58.353127 266.58853 58.040627 266.3854Q57.821877 266.24478 56.9625 266.02603Q55.80625 265.72916 55.353127 265.52603Q54.915627 265.30728 54.68125 264.93228Q54.446877 264.55728 54.446877 264.08853Q54.446877 263.68228 54.634377 263.3229Q54.821877 262.96353 55.15 262.72916Q55.4 262.55728 55.821877 262.43228Q56.24375 262.30728 56.74375 262.30728Q57.4625 262.30728 58.009377 262.52603Q58.571877 262.72916 58.8375 263.08853Q59.103127 263.4479 59.196877 264.04166L58.165627 264.18228Q58.103127 263.71353 57.759377 263.4479Q57.43125 263.16666 56.80625 263.16666Q56.0875 263.16666 55.775 263.41666Q55.4625 263.65103 55.4625 263.97916Q55.4625 264.18228 55.5875 264.33853Q55.728127 264.5104 55.99375 264.61978Q56.15 264.68228 56.93125 264.8854Q58.05625 265.1979 58.49375 265.3854Q58.93125 265.5729 59.18125 265.93228Q59.43125 266.29166 59.43125 266.83853Q59.43125 267.36978 59.11875 267.83853Q58.821877 268.29166 58.24375 268.55728Q57.665627 268.80728 56.93125 268.80728Q55.7125 268.80728 55.071877 268.30728Q54.446877 267.79166 54.275 266.80728ZM63.99375 267.72916L64.15 268.65103Q63.696877 268.74478 63.353127 268.74478Q62.775 268.74478 62.4625 268.5729Q62.15 268.3854 62.009377 268.08853Q61.884377 267.79166 61.884377 266.83853L61.884377 263.2604L61.11875 263.2604L61.11875 262.4479L61.884377 262.4479L61.884377 260.90103L62.93125 260.27603L62.93125 262.4479L63.99375 262.4479L63.99375 263.2604L62.93125 263.2604L62.93125 266.90103Q62.93125 267.35416 62.978127 267.47916Q63.040627 267.60416 63.165627 267.68228Q63.290627 267.7604 63.525 267.7604Q63.7125 267.7604 63.99375 267.72916ZM68.94688 266.66666L70.04063 266.79166Q69.79063 267.74478 69.0875 268.27603Q68.38438 268.80728 67.30625 268.80728Q65.94688 268.80728 65.13438 267.96353Q64.3375 267.11978 64.3375 265.60416Q64.3375 264.04166 65.15 263.18228Q65.9625 262.30728 67.24375 262.30728Q68.49375 262.30728 69.275 263.15103Q70.07188 263.99478 70.07188 265.54166Q70.07188 265.6354 70.07188 265.8229L65.43125 265.8229Q65.49375 266.85416 66.00938 267.40103Q66.525 267.93228 67.30625 267.93228Q67.88438 267.93228 68.29063 267.6354Q68.7125 267.3229 68.94688 266.66666ZM65.49375 264.96353L68.9625 264.96353Q68.9 264.16666 68.57188 263.77603Q68.05625 263.16666 67.25938 263.16666Q66.525 263.16666 66.025 263.65103Q65.54063 264.1354 65.49375 264.96353Z" fill-rule="nonzero"/><path fill="#ab3635" d="M31.9 288.66666C31.9 291.98038 29.213709 294.66666 25.9 294.66666C22.586292 294.66666 19.9 291.98038 19.9 288.66666C19.9 285.35297 22.586292 282.66666 25.9 282.66666C29.213709 282.66666 31.9 285.35297 31.9 288.66666Z" fill-rule="nonzero"/><path fill="#555555" d="M40.478127 288.47916Q40.478127 286.33853 41.61875 285.1354Q42.775 283.91666 44.5875 283.91666Q45.790627 283.91666 46.74375 284.49478Q47.696877 285.05728 48.196877 286.0729Q48.696877 287.08853 48.696877 288.3854Q48.696877 289.68228 48.165627 290.71353Q47.634377 291.74478 46.665627 292.27603Q45.7125 292.80728 44.5875 292.80728Q43.36875 292.80728 42.415627 292.22916Q41.4625 291.6354 40.9625 290.6354Q40.478127 289.61978 40.478127 288.47916ZM41.65 288.49478Q41.65 290.05728 42.478127 290.9479Q43.321877 291.83853 44.5875 291.83853Q45.86875 291.83853 46.696877 290.9479Q47.525 290.04166 47.525 288.36978Q47.525 287.3229 47.165627 286.54166Q46.821877 285.7604 46.134377 285.33853Q45.446877 284.90103 44.603127 284.90103Q43.4 284.90103 42.525 285.72916Q41.65 286.55728 41.65 288.49478ZM53.775 292.66666L53.775 291.74478Q53.040627 292.80728 51.790627 292.80728Q51.24375 292.80728 50.759377 292.60416Q50.290627 292.3854 50.05625 292.0729Q49.821877 291.74478 49.728127 291.27603Q49.665627 290.97916 49.665627 290.29166L49.665627 286.4479L50.728127 286.4479L50.728127 289.90103Q50.728127 290.71353 50.790627 291.0104Q50.884377 291.41666 51.196877 291.66666Q51.525 291.90103 52.009377 291.90103Q52.478127 291.90103 52.884377 291.66666Q53.30625 291.41666 53.478127 290.99478Q53.665627 290.5729 53.665627 289.77603L53.665627 286.4479L54.7125 286.4479L54.7125 292.66666L53.775 292.66666ZM58.99375 291.72916L59.15 292.65103Q58.696877 292.74478 58.353127 292.74478Q57.775 292.74478 57.4625 292.5729Q57.15 292.3854 57.009377 292.08853Q56.884377 291.79166 56.884377 290.83853L56.884377 287.2604L56.11875 287.2604L56.11875 286.4479L56.884377 286.4479L56.884377 284.90103L57.93125 284.27603L57.93125 286.4479L58.99375 286.4479L58.99375 287.2604L57.93125 287.2604L57.93125 290.90103Q57.93125 291.35416 57.978127 291.47916Q58.040627 291.60416 58.165627 291.68228Q58.290627 291.7604 58.525 291.7604Q58.7125 291.7604 58.99375 291.72916ZM59.68125 292.66666L59.68125 286.4479L60.634377 286.4479L60.634377 287.3854Q60.99375 286.72916 61.290627 286.52603Q61.603127 286.30728 61.978127 286.30728Q62.509377 286.30728 63.05625 286.6354L62.696877 287.61978Q62.30625 287.3854 61.93125 287.3854Q61.571877 287.3854 61.290627 287.60416Q61.025 287.80728 60.915627 288.18228Q60.728127 288.74478 60.728127 289.40103L60.728127 292.66666L59.68125 292.66666ZM63.30625 289.55728Q63.30625 287.8229 64.25938 286.99478Q65.05625 286.30728 66.2125 286.30728Q67.49375 286.30728 68.30625 287.15103Q69.13438 287.97916 69.13438 289.46353Q69.13438 290.66666 68.775 291.35416Q68.41563 292.04166 67.7125 292.43228Q67.025 292.80728 66.2125 292.80728Q64.91563 292.80728 64.10313 291.97916Q63.30625 291.1354 63.30625 289.55728ZM64.38438 289.55728Q64.38438 290.74478 64.9 291.33853Q65.43125 291.93228 66.2125 291.93228Q67.00938 291.93228 67.525 291.33853Q68.04063 290.74478 68.04063 289.52603Q68.04063 288.36978 67.50938 287.77603Q66.99375 287.18228 66.2125 287.18228Q65.43125 287.18228 64.9 287.77603Q64.38438 288.35416 64.38438 289.55728ZM70.275 290.80728L71.30625 290.65103Q71.4 291.27603 71.79063 291.60416Q72.19688 291.93228 72.93125 291.93228Q73.65 291.93228 73.99375 291.65103Q74.35313 291.35416 74.35313 290.9479Q74.35313 290.58853 74.04063 290.3854Q73.82188 290.24478 72.9625 290.02603Q71.80625 289.72916 71.35313 289.52603Q70.91563 289.30728 70.68125 288.93228Q70.44688 288.55728 70.44688 288.08853Q70.44688 287.68228 70.63438 287.3229Q70.82188 286.96353 71.15 286.72916Q71.4 286.55728 71.82188 286.43228Q72.24375 286.30728 72.74375 286.30728Q73.4625 286.30728 74.00938 286.52603Q74.57188 286.72916 74.8375 287.08853Q75.10313 287.4479 75.19688 288.04166L74.16563 288.18228Q74.10313 287.71353 73.75938 287.4479Q73.43125 287.16666 72.80625 287.16666Q72.0875 287.16666 71.775 287.41666Q71.4625 287.65103 71.4625 287.97916Q71.4625 288.18228 71.5875 288.33853Q71.72813 288.5104 71.99375 288.61978Q72.15 288.68228 72.93125 288.8854Q74.05625 289.1979 74.49375 289.3854Q74.93125 289.5729 75.18125 289.93228Q75.43125 290.29166 75.43125 290.83853Q75.43125 291.36978 75.11875 291.83853Q74.82188 292.29166 74.24375 292.55728Q73.66563 292.80728 72.93125 292.80728Q71.7125 292.80728 71.07188 292.30728Q70.44688 291.79166 70.275 290.80728Z" fill-rule="nonzero"/><path fill="#555555" d="M74.13853 23.446877L78.3729 23.446877Q79.79478 23.446877 80.54478 23.665627Q81.5604 23.962502 82.27915 24.728127Q82.9979 25.478127 83.3729 26.571877Q83.7479 27.665627 83.7479 29.275002Q83.7479 30.696877 83.38853 31.712502Q82.96665 32.9625 82.16978 33.74375Q81.5604 34.321877 80.54478 34.65Q79.77915 34.9 78.4979 34.9L74.13853 34.9L74.13853 23.446877ZM76.45103 25.384377L76.45103 32.9625L78.1854 32.9625Q79.15415 32.9625 79.57603 32.853127Q80.13853 32.7125 80.51353 32.384377Q80.88853 32.040627 81.1229 31.275002Q81.35728 30.509377 81.35728 29.181252Q81.35728 27.853127 81.1229 27.150002Q80.88853 26.431252 80.46665 26.040627Q80.04478 25.634377 79.38853 25.493752Q78.90415 25.384377 77.4979 25.384377L76.45103 25.384377ZM86.13853 25.478127L86.13853 23.446877L88.32603 23.446877L88.32603 25.478127L86.13853 25.478127ZM86.13853 34.9L86.13853 26.603127L88.32603 26.603127L88.32603 34.9L86.13853 34.9ZM89.35728 32.525L91.5604 32.196877Q91.70103 32.8375 92.1229 33.165627Q92.5604 33.49375 93.34165 33.49375Q94.1854 33.49375 94.6229 33.18125Q94.90415 32.9625 94.90415 32.603127Q94.90415 32.353127 94.7479 32.18125Q94.59165 32.025 94.01353 31.900002Q91.35728 31.306252 90.65415 30.821877Q89.66978 30.150002 89.66978 28.962502Q89.66978 27.884377 90.51353 27.150002Q91.3729 26.415627 93.15415 26.415627Q94.85728 26.415627 95.6854 26.978127Q96.51353 27.525002 96.82603 28.603127L94.76353 28.993752Q94.6229 28.509377 94.2479 28.259377Q93.88853 27.993752 93.20103 27.993752Q92.32603 27.993752 91.95103 28.228127Q91.70103 28.400002 91.70103 28.681252Q91.70103 28.915627 91.91978 29.071877Q92.21665 29.290627 93.96665 29.696877Q95.73228 30.087502 96.41978 30.665627Q97.10728 31.259377 97.10728 32.30625Q97.10728 33.446877 96.15415 34.275Q95.20103 35.0875 93.34165 35.0875Q91.63853 35.0875 90.65415 34.4Q89.66978 33.7125 89.35728 32.525ZM102.9354 26.603127L102.9354 28.353127L101.4354 28.353127L101.4354 31.696877Q101.4354 32.7125 101.48228 32.884377Q101.52915 33.040627 101.66978 33.15Q101.82603 33.259377 102.04478 33.259377Q102.35728 33.259377 102.9354 33.05625L103.1229 34.759377Q102.35728 35.0875 101.38853 35.0875Q100.79478 35.0875 100.3104 34.884377Q99.84165 34.68125 99.60728 34.36875Q99.38853 34.05625 99.3104 33.509377Q99.23228 33.134377 99.23228 31.962502L99.23228 28.353127L98.23228 28.353127L98.23228 26.603127L99.23228 26.603127L99.23228 24.946877L101.4354 23.665627L101.4354 26.603127L102.9354 26.603127ZM106.23228 34.9L104.04478 34.9L104.04478 26.603127L106.07603 26.603127L106.07603 27.775002Q106.60728 26.946877 107.01353 26.681252Q107.4354 26.415627 107.96665 26.415627Q108.71665 26.415627 109.41978 26.821877L108.73228 28.743752Q108.1854 28.384377 107.70103 28.384377Q107.2479 28.384377 106.91978 28.634377Q106.60728 28.884377 106.41978 29.556252Q106.23228 30.212502 106.23228 32.3375L106.23228 34.9ZM110.13853 25.478127L110.13853 23.446877L112.32603 23.446877L112.32603 25.478127L110.13853 25.478127ZM110.13853 34.9L110.13853 26.603127L112.32603 26.603127L112.32603 34.9L110.13853 34.9ZM114.04478 34.9L114.04478 23.446877L116.23228 23.446877L116.23228 27.571877Q117.2479 26.415627 118.63853 26.415627Q120.15415 26.415627 121.13853 27.509377Q122.13853 28.603127 122.13853 30.665627Q122.13853 32.790627 121.1229 33.946877Q120.1229 35.0875 118.66978 35.0875Q117.96665 35.0875 117.26353 34.728127Q116.57603 34.36875 116.07603 33.68125L116.07603 34.9L114.04478 34.9ZM116.21665 30.571877Q116.21665 31.853127 116.6229 32.478127Q117.20103 33.353127 118.13853 33.353127Q118.8729 33.353127 119.3729 32.728127Q119.88853 32.103127 119.88853 30.775002Q119.88853 29.353127 119.3729 28.728127Q118.85728 28.087502 118.0604 28.087502Q117.26353 28.087502 116.73228 28.712502Q116.21665 29.321877 116.21665 30.571877ZM129.59164 34.9L129.59164 33.65Q129.13852 34.321877 128.40414 34.7125Q127.66978 35.0875 126.84165 35.0875Q126.01353 35.0875 125.34165 34.728127Q124.6854 34.353127 124.38853 33.696877Q124.09165 33.025 124.09165 31.853127L124.09165 26.603127L126.27915 26.603127L126.27915 30.415627Q126.27915 32.165627 126.40415 32.55625Q126.52915 32.946877 126.84165 33.18125Q127.16978 33.415627 127.65415 33.415627Q128.21664 33.415627 128.65414 33.103127Q129.10727 32.790627 129.26352 32.3375Q129.4354 31.884377 129.4354 30.103127L129.4354 26.603127L131.63852 26.603127L131.63852 34.9L129.59164 34.9ZM134.13852 25.478127L134.13852 23.446877L136.32602 23.446877L136.32602 25.478127L134.13852 25.478127ZM134.13852 34.9L134.13852 26.603127L136.32602 26.603127L136.32602 34.9L134.13852 34.9ZM145.3729 29.056252L143.20102 29.446877Q143.09164 28.790627 142.70102 28.462502Q142.32602 28.134377 141.70102 28.134377Q140.88852 28.134377 140.38852 28.712502Q139.90414 29.275002 139.90414 30.603127Q139.90414 32.071877 140.40414 32.68125Q140.90414 33.290627 141.73227 33.290627Q142.35727 33.290627 142.7479 32.946877Q143.15414 32.5875 143.32602 31.712502L145.48227 32.0875Q145.13852 33.571877 144.1854 34.3375Q143.23227 35.0875 141.63852 35.0875Q139.8104 35.0875 138.73227 33.946877Q137.65414 32.790627 137.65414 30.759377Q137.65414 28.696877 138.73227 27.556252Q139.82602 26.415627 141.66977 26.415627Q143.1854 26.415627 144.07602 27.071877Q144.98227 27.712502 145.3729 29.056252ZM139.45102 38.05625L139.45102 37.134377Q140.26352 37.2125 140.9354 37.2125Q141.6229 37.2125 141.96664 36.9625Q142.21664 36.775 142.21664 36.478127Q142.21664 36.2125 141.96664 36.009377Q141.73227 35.821877 141.23227 35.821877Q140.73227 35.821877 140.20102 35.978127L140.40414 35.2125Q141.01352 34.99375 141.71664 34.99375Q142.70102 34.99375 143.20102 35.415627Q143.71664 35.853127 143.71664 36.478127Q143.71664 37.165627 143.15414 37.5875Q142.38852 38.18125 140.98227 38.18125Q139.96664 38.18125 139.45102 38.05625ZM148.77914 29.134377L146.77914 28.775002Q147.1229 27.571877 147.9354 26.993752Q148.76352 26.415627 150.3729 26.415627Q151.84164 26.415627 152.5604 26.759377Q153.27914 27.103127 153.57602 27.650002Q153.8729 28.181252 153.8729 29.603127L153.84164 32.165627Q153.84164 33.259377 153.95102 33.790627Q154.0604 34.30625 154.34164 34.9L152.16977 34.9Q152.09164 34.68125 151.96664 34.24375Q151.90414 34.05625 151.88852 33.99375Q151.32602 34.540627 150.6854 34.821877Q150.04477 35.0875 149.3104 35.0875Q148.02914 35.0875 147.29477 34.4Q146.5604 33.696877 146.5604 32.634377Q146.5604 31.931252 146.88852 31.384377Q147.23227 30.821877 147.82602 30.540627Q148.4354 30.243752 149.57602 30.025002Q151.1229 29.728127 151.71664 29.478127L151.71664 29.259377Q151.71664 28.634377 151.40414 28.368752Q151.09164 28.087502 150.21664 28.087502Q149.63852 28.087502 149.3104 28.321877Q148.98227 28.556252 148.77914 29.134377ZM151.71664 30.915627Q151.29477 31.056252 150.3729 31.259377Q149.46664 31.446877 149.1854 31.634377Q148.7479 31.931252 148.7479 32.4Q148.7479 32.86875 149.09164 33.2125Q149.4354 33.540627 149.96664 33.540627Q150.5604 33.540627 151.10727 33.15Q151.4979 32.853127 151.6229 32.415627Q151.71664 32.134377 151.71664 31.353127L151.71664 30.915627ZM148.76352 25.478127L147.76352 25.478127Q147.7479 25.306252 147.7479 25.196877Q147.7479 24.384377 148.15414 23.946877Q148.5604 23.493752 149.1854 23.493752Q149.45102 23.493752 149.6854 23.556252Q149.91977 23.618752 150.54477 23.900002Q151.16977 24.165627 151.51352 24.165627Q151.76352 24.165627 151.9354 24.009377Q152.10727 23.853127 152.15414 23.493752L153.16977 23.493752Q153.15414 24.540627 152.76352 24.993752Q152.38852 25.446877 151.77914 25.446877Q151.51352 25.446877 151.2479 25.400002Q151.07602 25.353127 150.35727 25.087502Q149.63852 24.806252 149.3104 24.806252Q149.0604 24.806252 148.91977 24.962502Q148.77914 25.103127 148.76352 25.478127ZM155.6229 30.634377Q155.6229 29.540627 156.15414 28.525002Q156.70102 27.493752 157.6854 26.962502Q158.6854 26.415627 159.90414 26.415627Q161.77914 26.415627 162.98227 27.634377Q164.1854 28.853127 164.1854 30.728127Q164.1854 32.603127 162.96664 33.853127Q161.76352 35.0875 159.91977 35.0875Q158.77914 35.0875 157.73227 34.571877Q156.70102 34.05625 156.15414 33.05625Q155.6229 32.05625 155.6229 30.634377ZM157.8729 30.743752Q157.8729 31.978127 158.45102 32.634377Q159.04477 33.290627 159.90414 33.290627Q160.76352 33.290627 161.34164 32.634377Q161.9354 31.978127 161.9354 30.728127Q161.9354 29.509377 161.34164 28.853127Q160.76352 28.196877 159.90414 28.196877Q159.04477 28.196877 158.45102 28.853127Q157.8729 29.509377 157.8729 30.743752ZM177.7479 34.9L175.70102 34.9L175.70102 33.68125Q175.20102 34.384377 174.4979 34.74375Q173.8104 35.0875 173.10727 35.0875Q171.6854 35.0875 170.65414 33.93125Q169.63852 32.775 169.63852 30.712502Q169.63852 28.603127 170.6229 27.509377Q171.6229 26.415627 173.13852 26.415627Q174.52914 26.415627 175.54477 27.571877L175.54477 23.446877L177.7479 23.446877L177.7479 34.9ZM171.88852 30.571877Q171.88852 31.900002 172.2479 32.49375Q172.77914 33.353127 173.73227 33.353127Q174.4979 33.353127 175.02914 32.7125Q175.5604 32.05625 175.5604 30.775002Q175.5604 29.353127 175.04477 28.728127Q174.52914 28.087502 173.71664 28.087502Q172.9354 28.087502 172.40414 28.712502Q171.88852 29.337502 171.88852 30.571877ZM184.9354 32.259377L187.1229 32.61875Q186.70102 33.821877 185.79477 34.4625Q184.88852 35.0875 183.51352 35.0875Q181.35727 35.0875 180.3104 33.665627Q179.4979 32.540627 179.4979 30.806252Q179.4979 28.743752 180.57602 27.587502Q181.65414 26.415627 183.29477 26.415627Q185.15414 26.415627 186.21664 27.634377Q187.29477 28.853127 187.2479 31.384377L181.7479 31.384377Q181.76352 32.353127 182.26352 32.9Q182.77914 33.446877 183.54477 33.446877Q184.0604 33.446877 184.40414 33.165627Q184.76352 32.884377 184.9354 32.259377ZM185.0604 30.040627Q185.04477 29.087502 184.57602 28.587502Q184.10727 28.087502 183.4354 28.087502Q182.71664 28.087502 182.2479 28.618752Q181.77914 29.134377 181.77914 30.040627L185.0604 30.040627ZM193.13852 25.478127L193.13852 23.446877L195.32602 23.446877L195.32602 25.478127L193.13852 25.478127ZM193.13852 34.9L193.13852 26.603127L195.32602 26.603127L195.32602 34.9L193.13852 34.9ZM196.96664 26.603127L198.9979 26.603127L198.9979 27.728127Q200.07602 26.415627 201.57602 26.415627Q202.3729 26.415627 202.95102 26.743752Q203.54477 27.071877 203.91977 27.728127Q204.46664 27.071877 205.09164 26.743752Q205.73227 26.415627 206.45102 26.415627Q207.3729 26.415627 207.9979 26.790627Q208.63852 27.150002 208.95102 27.868752Q209.16977 28.400002 209.16977 29.587502L209.16977 34.9L206.98227 34.9L206.98227 30.150002Q206.98227 28.915627 206.7479 28.556252Q206.45102 28.087502 205.8104 28.087502Q205.35727 28.087502 204.95102 28.368752Q204.54477 28.650002 204.35727 29.196877Q204.1854 29.743752 204.1854 30.915627L204.1854 34.9L201.98227 34.9L201.98227 30.353127Q201.98227 29.134377 201.85727 28.790627Q201.7479 28.431252 201.4979 28.259377Q201.26352 28.087502 200.84164 28.087502Q200.32602 28.087502 199.91977 28.368752Q199.51352 28.634377 199.34164 29.150002Q199.16977 29.665627 199.16977 30.868752L199.16977 34.9L196.96664 34.9L196.96664 26.603127ZM211.13852 25.478127L211.13852 23.446877L213.32602 23.446877L213.32602 25.478127L211.13852 25.478127ZM211.13852 34.9L211.13852 26.603127L213.32602 26.603127L213.32602 34.9L211.13852 34.9ZM214.9354 35.446877L217.4354 35.759377Q217.4979 36.196877 217.73227 36.353127Q218.04477 36.5875 218.71664 36.5875Q219.57602 36.5875 219.9979 36.3375Q220.29477 36.165627 220.4354 35.775Q220.54477 35.509377 220.54477 34.759377L220.54477 33.55625Q219.5604 34.9 218.0604 34.9Q216.38852 34.9 215.40414 33.478127Q214.63852 32.36875 214.63852 30.696877Q214.63852 28.618752 215.63852 27.525002Q216.65414 26.415627 218.13852 26.415627Q219.6854 26.415627 220.6854 27.759377L220.6854 26.603127L222.73227 26.603127L222.73227 34.040627Q222.73227 35.525 222.48227 36.24375Q222.2479 36.978127 221.8104 37.384377Q221.3729 37.80625 220.63852 38.040627Q219.91977 38.275 218.79477 38.275Q216.6854 38.275 215.79477 37.540627Q214.91977 36.821877 214.91977 35.7125Q214.91977 35.603127 214.9354 35.446877ZM216.88852 30.571877Q216.88852 31.900002 217.40414 32.509377Q217.91977 33.11875 218.66977 33.11875Q219.46664 33.11875 220.01352 32.49375Q220.57602 31.868752 220.57602 30.634377Q220.57602 29.337502 220.04477 28.712502Q219.51352 28.087502 218.70102 28.087502Q217.91977 28.087502 217.40414 28.712502Q216.88852 29.321877 216.88852 30.571877ZM227.23227 34.9L225.04477 34.9L225.04477 26.603127L227.07602 26.603127L227.07602 27.775002Q227.60727 26.946877 228.01352 26.681252Q228.4354 26.415627 228.96664 26.415627Q229.71664 26.415627 230.41977 26.821877L229.73227 28.743752Q229.1854 28.384377 228.70102 28.384377Q228.2479 28.384377 227.91977 28.634377Q227.60727 28.884377 227.41977 29.556252Q227.23227 30.212502 227.23227 32.3375L227.23227 34.9ZM232.77914 29.134377L230.77914 28.775002Q231.1229 27.571877 231.9354 26.993752Q232.76352 26.415627 234.3729 26.415627Q235.84164 26.415627 236.5604 26.759377Q237.27914 27.103127 237.57602 27.650002Q237.8729 28.181252 237.8729 29.603127L237.84164 32.165627Q237.84164 33.259377 237.95102 33.790627Q238.0604 34.30625 238.34164 34.9L236.16977 34.9Q236.09164 34.68125 235.96664 34.24375Q235.90414 34.05625 235.88852 33.99375Q235.32602 34.540627 234.6854 34.821877Q234.04477 35.0875 233.3104 35.0875Q232.02914 35.0875 231.29477 34.4Q230.5604 33.696877 230.5604 32.634377Q230.5604 31.931252 230.88852 31.384377Q231.23227 30.821877 231.82602 30.540627Q232.4354 30.243752 233.57602 30.025002Q235.1229 29.728127 235.71664 29.478127L235.71664 29.259377Q235.71664 28.634377 235.40414 28.368752Q235.09164 28.087502 234.21664 28.087502Q233.63852 28.087502 233.3104 28.321877Q232.98227 28.556252 232.77914 29.134377ZM235.71664 30.915627Q235.29477 31.056252 234.3729 31.259377Q233.46664 31.446877 233.1854 31.634377Q232.7479 31.931252 232.7479 32.4Q232.7479 32.86875 233.09164 33.2125Q233.4354 33.540627 233.96664 33.540627Q234.5604 33.540627 235.10727 33.15Q235.4979 32.853127 235.6229 32.415627Q235.71664 32.134377 235.71664 31.353127L235.71664 30.915627ZM247.6854 34.9L245.48227 34.9L245.48227 30.665627Q245.48227 29.321877 245.34164 28.931252Q245.20102 28.525002 244.88852 28.306252Q244.57602 28.087502 244.1229 28.087502Q243.5604 28.087502 243.10727 28.400002Q242.65414 28.712502 242.48227 29.228127Q242.3104 29.743752 242.3104 31.134377L242.3104 34.9L240.1229 34.9L240.1229 26.603127L242.15414 26.603127L242.15414 27.821877Q243.2479 26.415627 244.88852 26.415627Q245.6229 26.415627 246.21664 26.681252Q246.82602 26.931252 247.1229 27.337502Q247.4354 27.743752 247.5604 28.259377Q247.6854 28.775002 247.6854 29.743752L247.6854 34.9ZM253.9354 26.603127L253.9354 28.353127L252.4354 28.353127L252.4354 31.696877Q252.4354 32.7125 252.48227 32.884377Q252.52914 33.040627 252.66977 33.15Q252.82602 33.259377 253.04477 33.259377Q253.35727 33.259377 253.9354 33.05625L254.1229 34.759377Q253.35727 35.0875 252.38852 35.0875Q251.79477 35.0875 251.3104 34.884377Q250.84164 34.68125 250.60727 34.36875Q250.38852 34.05625 250.3104 33.509377Q250.23227 33.134377 250.23227 31.962502L250.23227 28.353127L249.23227 28.353127L249.23227 26.603127L250.23227 26.603127L250.23227 24.946877L252.4354 23.665627L252.4354 26.603127L253.9354 26.603127ZM259.9354 32.259377L262.1229 32.61875Q261.70102 33.821877 260.79477 34.4625Q259.88852 35.0875 258.51352 35.0875Q256.35727 35.0875 255.3104 33.665627Q254.4979 32.540627 254.4979 30.806252Q254.4979 28.743752 255.57602 27.587502Q256.65414 26.415627 258.29477 26.415627Q260.15414 26.415627 261.21664 27.634377Q262.29477 28.853127 262.2479 31.384377L256.7479 31.384377Q256.76352 32.353127 257.26352 32.9Q257.77914 33.446877 258.54477 33.446877Q259.0604 33.446877 259.40414 33.165627Q259.76352 32.884377 259.9354 32.259377ZM260.0604 30.040627Q260.04477 29.087502 259.57602 28.587502Q259.10727 28.087502 258.4354 28.087502Q257.71664 28.087502 257.2479 28.618752Q256.77914 29.134377 256.77914 30.040627L260.0604 30.040627ZM263.35727 32.525L265.5604 32.196877Q265.70102 32.8375 266.1229 33.165627Q266.5604 33.49375 267.34164 33.49375Q268.1854 33.49375 268.6229 33.18125Q268.90414 32.9625 268.90414 32.603127Q268.90414 32.353127 268.7479 32.18125Q268.59164 32.025 268.01352 31.900002Q265.35727 31.306252 264.65414 30.821877Q263.66977 30.150002 263.66977 28.962502Q263.66977 27.884377 264.51352 27.150002Q265.3729 26.415627 267.15414 26.415627Q268.85727 26.415627 269.6854 26.978127Q270.51352 27.525002 270.82602 28.603127L268.76352 28.993752Q268.6229 28.509377 268.2479 28.259377Q267.88852 27.993752 267.20102 27.993752Q266.32602 27.993752 265.95102 28.228127Q265.70102 28.400002 265.70102 28.681252Q265.70102 28.915627 265.91977 29.071877Q266.21664 29.290627 267.96664 29.696877Q269.73227 30.087502 270.41977 30.665627Q271.10727 31.259377 271.10727 32.30625Q271.10727 33.446877 270.15414 34.275Q269.20102 35.0875 267.34164 35.0875Q265.63852 35.0875 264.65414 34.4Q263.66977 33.7125 263.35727 32.525ZM277.07602 26.603127L279.1229 26.603127L279.1229 27.821877Q279.51352 27.196877 280.1854 26.806252Q280.8729 26.415627 281.70102 26.415627Q283.15414 26.415627 284.15414 27.556252Q285.16977 28.681252 285.16977 30.696877Q285.16977 32.775 284.15414 33.93125Q283.13852 35.0875 281.6854 35.0875Q280.9979 35.0875 280.4354 34.821877Q279.88852 34.540627 279.26352 33.86875L279.26352 38.05625L277.07602 38.05625L277.07602 26.603127ZM279.2479 30.603127Q279.2479 32.009377 279.79477 32.68125Q280.35727 33.3375 281.15414 33.3375Q281.91977 33.3375 282.41977 32.728127Q282.9354 32.11875 282.9354 30.712502Q282.9354 29.415627 282.40414 28.790627Q281.88852 28.150002 281.10727 28.150002Q280.3104 28.150002 279.77914 28.775002Q279.2479 29.384377 279.2479 30.603127ZM286.6229 30.634377Q286.6229 29.540627 287.15414 28.525002Q287.70102 27.493752 288.6854 26.962502Q289.6854 26.415627 290.90414 26.415627Q292.77914 26.415627 293.98227 27.634377Q295.1854 28.853127 295.1854 30.728127Q295.1854 32.603127 293.96664 33.853127Q292.76352 35.0875 290.91977 35.0875Q289.77914 35.0875 288.73227 34.571877Q287.70102 34.05625 287.15414 33.05625Q286.6229 32.05625 286.6229 30.634377ZM288.8729 30.743752Q288.8729 31.978127 289.45102 32.634377Q290.04477 33.290627 290.90414 33.290627Q291.76352 33.290627 292.34164 32.634377Q292.9354 31.978127 292.9354 30.728127Q292.9354 29.509377 292.34164 28.853127Q291.76352 28.196877 290.90414 28.196877Q290.04477 28.196877 289.45102 28.853127Q288.8729 29.509377 288.8729 30.743752ZM299.23227 34.9L297.04477 34.9L297.04477 26.603127L299.07602 26.603127L299.07602 27.775002Q299.60727 26.946877 300.01352 26.681252Q300.4354 26.415627 300.96664 26.415627Q301.71664 26.415627 302.41977 26.821877L301.73227 28.743752Q301.1854 28.384377 300.70102 28.384377Q300.2479 28.384377 299.91977 28.634377Q299.60727 28.884377 299.41977 29.556252Q299.23227 30.212502 299.23227 32.3375L299.23227 34.9ZM309.23227 34.9L307.04477 34.9L307.04477 26.603127L309.07602 26.603127L309.07602 27.775002Q309.60727 26.946877 310.01352 26.681252Q310.4354 26.415627 310.96664 26.415627Q311.71664 26.415627 312.41977 26.821877L311.73227 28.743752Q311.1854 28.384377 310.70102 28.384377Q310.2479 28.384377 309.91977 28.634377Q309.60727 28.884377 309.41977 29.556252Q309.23227 30.212502 309.23227 32.3375L309.23227 34.9ZM317.9354 32.259377L320.1229 32.61875Q319.70102 33.821877 318.79477 34.4625Q317.88852 35.0875 316.51352 35.0875Q314.35727 35.0875 313.3104 33.665627Q312.4979 32.540627 312.4979 30.806252Q312.4979 28.743752 313.57602 27.587502Q314.65414 26.415627 316.29477 26.415627Q318.15414 26.415627 319.21664 27.634377Q320.29477 28.853127 320.2479 31.384377L314.7479 31.384377Q314.76352 32.353127 315.26352 32.9Q315.77914 33.446877 316.54477 33.446877Q317.0604 33.446877 317.40414 33.165627Q317.76352 32.884377 317.9354 32.259377ZM318.0604 30.040627Q318.04477 29.087502 317.57602 28.587502Q317.10727 28.087502 316.4354 28.087502Q315.71664 28.087502 315.2479 28.618752Q314.77914 29.134377 314.77914 30.040627L318.0604 30.040627ZM321.9354 35.446877L324.4354 35.759377Q324.4979 36.196877 324.73227 36.353127Q325.04477 36.5875 325.71664 36.5875Q326.57602 36.5875 326.9979 36.3375Q327.29477 36.165627 327.4354 35.775Q327.54477 35.509377 327.54477 34.759377L327.54477 33.55625Q326.5604 34.9 325.0604 34.9Q323.38852 34.9 322.40414 33.478127Q321.63852 32.36875 321.63852 30.696877Q321.63852 28.618752 322.63852 27.525002Q323.65414 26.415627 325.13852 26.415627Q326.6854 26.415627 327.6854 27.759377L327.6854 26.603127L329.73227 26.603127L329.73227 34.040627Q329.73227 35.525 329.48227 36.24375Q329.2479 36.978127 328.8104 37.384377Q328.3729 37.80625 327.63852 38.040627Q326.91977 38.275 325.79477 38.275Q323.6854 38.275 322.79477 37.540627Q321.91977 36.821877 321.91977 35.7125Q321.91977 35.603127 321.9354 35.446877ZM323.88852 30.571877Q323.88852 31.900002 324.40414 32.509377Q324.91977 33.11875 325.66977 33.11875Q326.46664 33.11875 327.01352 32.49375Q327.57602 31.868752 327.57602 30.634377Q327.57602 29.337502 327.04477 28.712502Q326.51352 28.087502 325.70102 28.087502Q324.91977 28.087502 324.40414 28.712502Q323.88852 29.321877 323.88852 30.571877ZM332.13852 25.478127L332.13852 23.446877L334.32602 23.446877L334.32602 25.478127L332.13852 25.478127ZM332.13852 34.9L332.13852 26.603127L334.32602 26.603127L334.32602 34.9L332.13852 34.9ZM337.77914 29.134377L335.77914 28.775002Q336.1229 27.571877 336.9354 26.993752Q337.76352 26.415627 339.3729 26.415627Q340.84164 26.415627 341.5604 26.759377Q342.27914 27.103127 342.57602 27.650002Q342.8729 28.181252 342.8729 29.603127L342.84164 32.165627Q342.84164 33.259377 342.95102 33.790627Q343.0604 34.30625 343.34164 34.9L341.16977 34.9Q341.09164 34.68125 340.96664 34.24375Q340.90414 34.05625 340.88852 33.99375Q340.32602 34.540627 339.6854 34.821877Q339.04477 35.0875 338.3104 35.0875Q337.02914 35.0875 336.29477 34.4Q335.5604 33.696877 335.5604 32.634377Q335.5604 31.931252 335.88852 31.384377Q336.23227 30.821877 336.82602 30.540627Q337.4354 30.243752 338.57602 30.025002Q340.1229 29.728127 340.71664 29.478127L340.71664 29.259377Q340.71664 28.634377 340.40414 28.368752Q340.09164 28.087502 339.21664 28.087502Q338.63852 28.087502 338.3104 28.321877Q337.98227 28.556252 337.77914 29.134377ZM340.71664 30.915627Q340.29477 31.056252 339.3729 31.259377Q338.46664 31.446877 338.1854 31.634377Q337.7479 31.931252 337.7479 32.4Q337.7479 32.86875 338.09164 33.2125Q338.4354 33.540627 338.96664 33.540627Q339.5604 33.540627 340.10727 33.15Q340.4979 32.853127 340.6229 32.415627Q340.71664 32.134377 340.71664 31.353127L340.71664 30.915627ZM337.76352 25.478127L336.76352 25.478127Q336.7479 25.306252 336.7479 25.196877Q336.7479 24.384377 337.15414 23.946877Q337.5604 23.493752 338.1854 23.493752Q338.45102 23.493752 338.6854 23.556252Q338.91977 23.618752 339.54477 23.900002Q340.16977 24.165627 340.51352 24.165627Q340.76352 24.165627 340.9354 24.009377Q341.10727 23.853127 341.15414 23.493752L342.16977 23.493752Q342.15414 24.540627 341.76352 24.993752Q341.38852 25.446877 340.77914 25.446877Q340.51352 25.446877 340.2479 25.400002Q340.07602 25.353127 339.35727 25.087502Q338.63852 24.806252 338.3104 24.806252Q338.0604 24.806252 337.91977 24.962502Q337.77914 25.103127 337.76352 25.478127ZM344.6229 30.634377Q344.6229 29.540627 345.15414 28.525002Q345.70102 27.493752 346.6854 26.962502Q347.6854 26.415627 348.90414 26.415627Q350.77914 26.415627 351.98227 27.634377Q353.1854 28.853127 353.1854 30.728127Q353.1854 32.603127 351.96664 33.853127Q350.76352 35.0875 348.91977 35.0875Q347.77914 35.0875 346.73227 34.571877Q345.70102 34.05625 345.15414 33.05625Q344.6229 32.05625 344.6229 30.634377ZM346.8729 30.743752Q346.8729 31.978127 347.45102 32.634377Q348.04477 33.290627 348.90414 33.290627Q349.76352 33.290627 350.34164 32.634377Q350.9354 31.978127 350.9354 30.728127Q350.9354 29.509377 350.34164 28.853127Q349.76352 28.196877 348.90414 28.196877Q348.04477 28.196877 347.45102 28.853127Q346.8729 29.509377 346.8729 30.743752ZM362.77914 38.275L361.26352 38.275Q360.07602 36.4625 359.45102 34.525Q358.82602 32.571877 358.82602 30.743752Q358.82602 28.493752 359.59164 26.478127Q360.26352 24.728127 361.29477 23.243752L362.79477 23.243752Q361.73227 25.618752 361.32602 27.275002Q360.91977 28.931252 360.91977 30.790627Q360.91977 32.071877 361.15414 33.415627Q361.40414 34.759377 361.8104 35.978127Q362.09164 36.775 362.77914 38.275ZM363.6854 26.275002Q363.6854 24.728127 364.35727 23.993752Q365.02914 23.243752 366.1854 23.243752Q367.38852 23.243752 368.0604 23.993752Q368.73227 24.728127 368.73227 26.275002Q368.73227 27.806252 368.0604 28.556252Q367.38852 29.290627 366.23227 29.290627Q365.02914 29.290627 364.35727 28.556252Q363.6854 27.821877 363.6854 26.275002ZM365.38852 26.259377Q365.38852 27.368752 365.65414 27.759377Q365.84164 28.040627 366.1854 28.040627Q366.54477 28.040627 366.73227 27.759377Q366.98227 27.368752 366.98227 26.259377Q366.98227 25.134377 366.73227 24.759377Q366.54477 24.478127 366.1854 24.478127Q365.84164 24.478127 365.65414 24.759377Q365.38852 25.134377 365.38852 26.259377ZM367.85727 35.3375L366.23227 35.3375L372.34164 23.243752L373.91977 23.243752L367.85727 35.3375ZM371.40414 32.321877Q371.40414 30.790627 372.07602 30.056252Q372.76352 29.306252 373.9354 29.306252Q375.10727 29.306252 375.77914 30.056252Q376.46664 30.790627 376.46664 32.321877Q376.46664 33.86875 375.77914 34.61875Q375.10727 35.36875 373.95102 35.36875Q372.76352 35.36875 372.07602 34.61875Q371.40414 33.86875 371.40414 32.321877ZM373.1229 32.321877Q373.1229 33.43125 373.3729 33.80625Q373.57602 34.103127 373.91977 34.103127Q374.26352 34.103127 374.45102 33.821877Q374.71664 33.43125 374.71664 32.321877Q374.71664 31.196877 374.46664 30.821877Q374.26352 30.540627 373.91977 30.540627Q373.5604 30.540627 373.3729 30.821877Q373.1229 31.196877 373.1229 32.321877ZM379.52914 38.275Q380.16977 36.884377 380.4354 36.134377Q380.70102 35.4 380.91977 34.43125Q381.15414 33.446877 381.26352 32.5875Q381.3729 31.712502 381.3729 30.790627Q381.3729 28.931252 380.96664 27.275002Q380.57602 25.618752 379.51352 23.243752L380.9979 23.243752Q382.1854 24.931252 382.82602 26.821877Q383.48227 28.696877 383.48227 30.634377Q383.48227 32.259377 382.96664 34.134377Q382.38852 36.228127 381.04477 38.275L379.52914 38.275ZM393.9354 32.259377L396.1229 32.61875Q395.70102 33.821877 394.79477 34.4625Q393.88852 35.0875 392.51352 35.0875Q390.35727 35.0875 389.3104 33.665627Q388.4979 32.540627 388.4979 30.806252Q388.4979 28.743752 389.57602 27.587502Q390.65414 26.415627 392.29477 26.415627Q394.15414 26.415627 395.21664 27.634377Q396.29477 28.853127 396.2479 31.384377L390.7479 31.384377Q390.76352 32.353127 391.26352 32.9Q391.77914 33.446877 392.54477 33.446877Q393.0604 33.446877 393.40414 33.165627Q393.76352 32.884377 393.9354 32.259377ZM394.0604 30.040627Q394.04477 29.087502 393.57602 28.587502Q393.10727 28.087502 392.4354 28.087502Q391.71664 28.087502 391.2479 28.618752Q390.77914 29.134377 390.77914 30.040627L394.0604 30.040627ZM397.96664 26.603127L399.9979 26.603127L399.9979 27.728127Q401.07602 26.415627 402.57602 26.415627Q403.3729 26.415627 403.95102 26.743752Q404.54477 27.071877 404.91977 27.728127Q405.46664 27.071877 406.09164 26.743752Q406.73227 26.415627 407.45102 26.415627Q408.3729 26.415627 408.9979 26.790627Q409.63852 27.150002 409.95102 27.868752Q410.16977 28.400002 410.16977 29.587502L410.16977 34.9L407.98227 34.9L407.98227 30.150002Q407.98227 28.915627 407.7479 28.556252Q407.45102 28.087502 406.8104 28.087502Q406.35727 28.087502 405.95102 28.368752Q405.54477 28.650002 405.35727 29.196877Q405.1854 29.743752 405.1854 30.915627L405.1854 34.9L402.98227 34.9L402.98227 30.353127Q402.98227 29.134377 402.85727 28.790627Q402.7479 28.431252 402.4979 28.259377Q402.26352 28.087502 401.84164 28.087502Q401.32602 28.087502 400.91977 28.368752Q400.51352 28.634377 400.34164 29.150002Q400.16977 29.665627 400.16977 30.868752L400.16977 34.9L397.96664 34.9L397.96664 26.603127ZM423.07602 32.853127L423.07602 34.9L415.38852 34.9Q415.51352 33.74375 416.13852 32.7125Q416.76352 31.665627 418.60727 29.962502Q420.09164 28.571877 420.41977 28.087502Q420.8729 27.400002 420.8729 26.743752Q420.8729 26.009377 420.48227 25.618752Q420.09164 25.212502 419.38852 25.212502Q418.70102 25.212502 418.29477 25.634377Q417.88852 26.040627 417.82602 27.009377L415.63852 26.790627Q415.84164 24.978127 416.8729 24.196877Q417.90414 23.400002 419.45102 23.400002Q421.13852 23.400002 422.10727 24.321877Q423.07602 25.228127 423.07602 26.587502Q423.07602 27.353127 422.79477 28.056252Q422.52914 28.759377 421.91977 29.525002Q421.52914 30.025002 420.48227 30.978127Q419.45102 31.931252 419.16977 32.24375Q418.88852 32.55625 418.71664 32.853127L423.07602 32.853127ZM428.3729 23.400002Q430.04477 23.400002 430.98227 24.587502Q432.09164 25.993752 432.09164 29.243752Q432.09164 32.49375 430.96664 33.915627Q430.04477 35.103127 428.3729 35.103127Q426.70102 35.103127 425.66977 33.821877Q424.65414 32.525 424.65414 29.228127Q424.65414 25.993752 425.77914 24.571877Q426.71664 23.400002 428.3729 23.400002ZM428.3729 25.212502Q427.98227 25.212502 427.66977 25.478127Q427.35727 25.728127 427.1854 26.384377Q426.95102 27.228127 426.95102 29.243752Q426.95102 31.259377 427.15414 32.025Q427.35727 32.775 427.66977 33.025Q427.98227 33.275 428.3729 33.275Q428.77914 33.275 429.09164 33.025Q429.40414 32.759377 429.57602 32.103127Q429.79477 31.259377 429.79477 29.243752Q429.79477 27.228127 429.59164 26.478127Q429.38852 25.728127 429.07602 25.478127Q428.77914 25.212502 428.3729 25.212502ZM441.07602 32.853127L441.07602 34.9L433.38852 34.9Q433.51352 33.74375 434.13852 32.7125Q434.76352 31.665627 436.60727 29.962502Q438.09164 28.571877 438.41977 28.087502Q438.8729 27.400002 438.8729 26.743752Q438.8729 26.009377 438.48227 25.618752Q438.09164 25.212502 437.38852 25.212502Q436.70102 25.212502 436.29477 25.634377Q435.88852 26.040627 435.82602 27.009377L433.63852 26.790627Q433.84164 24.978127 434.8729 24.196877Q435.90414 23.400002 437.45102 23.400002Q439.13852 23.400002 440.10727 24.321877Q441.07602 25.228127 441.07602 26.587502Q441.07602 27.353127 440.79477 28.056252Q440.52914 28.759377 439.91977 29.525002Q439.52914 30.025002 438.48227 30.978127Q437.45102 31.931252 437.16977 32.24375Q436.88852 32.55625 436.71664 32.853127L441.07602 32.853127ZM442.59164 31.853127L444.71664 31.603127Q444.8104 32.415627 445.2479 32.853127Q445.70102 33.275 446.34164 33.275Q447.01352 33.275 447.48227 32.759377Q447.95102 32.24375 447.95102 31.368752Q447.95102 30.540627 447.4979 30.056252Q447.0604 29.571877 446.41977 29.571877Q445.9979 29.571877 445.40414 29.728127L445.65414 27.946877Q446.54477 27.962502 447.01352 27.556252Q447.48227 27.150002 447.48227 26.462502Q447.48227 25.884377 447.13852 25.540627Q446.79477 25.196877 446.21664 25.196877Q445.65414 25.196877 445.2479 25.587502Q444.85727 25.978127 444.77914 26.728127L442.7479 26.384377Q442.96664 25.353127 443.38852 24.728127Q443.8104 24.103127 444.57602 23.759377Q445.34164 23.400002 446.27914 23.400002Q447.90414 23.400002 448.8729 24.431252Q449.6854 25.275002 449.6854 26.337502Q449.6854 27.837502 448.02914 28.743752Q449.01352 28.946877 449.60727 29.681252Q450.20102 30.415627 450.20102 31.462502Q450.20102 32.9625 449.09164 34.040627Q447.9979 35.103127 446.35727 35.103127Q444.79477 35.103127 443.76352 34.2125Q442.7479 33.30625 442.59164 31.853127ZM452.90414 28.712502L451.71664 27.790627Q452.27914 27.165627 452.88852 26.587502Q453.13852 26.353127 453.20102 26.290627Q452.9979 26.259377 452.07602 26.025002Q451.41977 25.868752 451.20102 25.790627L451.66977 24.415627Q452.6854 24.821877 453.4979 25.321877Q453.3104 24.056252 453.3104 23.243752L454.70102 23.243752Q454.70102 23.821877 454.48227 25.337502Q454.63852 25.275002 455.15414 25.040627Q455.85727 24.712502 456.45102 24.493752L456.8729 25.900002Q455.9979 26.103127 454.85727 26.290627L455.79477 27.337502Q456.07602 27.665627 456.2479 27.868752L455.04477 28.650002L453.9979 26.915627Q453.51352 27.759377 452.90414 28.712502Z" fill-rule="nonzero"/></svg>