<svg version="1.1" viewBox="0.0 0.0 529.0 398.0" fill="none" stroke="none" stroke-linecap="square" stroke-miterlimit="10" width="529" height="398" xmlns:xlink="http://www.w3.org/1999/xlink" xmlns="http://www.w3.org/2000/svg"><path fill="#ffffff" fill-opacity="0.0" d="M0 0L529.0 0L529.0 398.0L0 398.0L0 0Z" fill-rule="nonzero"/><path fill="#cf9456" d="M187.05688 84.395775C190.78015 84.395775 194.50217 84.532265 198.21544 84.80496L192.63615 160.77643C190.77953 160.64008 188.91852 160.57184 187.05688 160.57184Z" fill-rule="nonzero"/><path fill="#ab3635" d="M198.21544 84.80496C216.56271 86.152374 234.51427 90.8116 251.20097 98.55707L219.12892 167.65248C210.78558 163.77974 201.8098 161.45013 192.63615 160.77643Z" fill-rule="nonzero"/><path fill="#ad3f83" d="M251.20097 98.55707C310.95642 126.29378 346.11508 189.29593 338.34583 254.71516L262.70135 245.73152C266.586 213.02191 249.00665 181.52083 219.12892 167.65248Z" fill-rule="nonzero"/><path fill="#e28302" d="M338.34583 254.71516C328.69812 335.95114 256.61615 395.0673 175.06317 388.62717C93.51021 382.18704 31.600456 312.48975 34.82302 230.74638C38.04559 149.00302 105.25002 84.395775 187.05688 84.395775L187.05688 160.57184C146.15346 160.57184 112.55123 192.87546 110.93995 233.74713C109.32867 274.6188 140.28354 309.46747 181.06003 312.68753C221.83652 315.9076 257.8775 286.34952 262.70135 245.73152Z" fill-rule="nonzero"/><path fill="#555555" d="M206.40244 119.31844L207.77744 119.17782Q207.83994 119.64657 208.12119 119.91219Q208.41806 120.17782 208.79306 120.17782Q209.21494 120.17782 209.51181 119.83407Q209.80869 119.49032 209.80869 118.78719Q209.80869 118.13094 209.51181 117.80282Q209.21494 117.45907 208.74619 117.45907Q208.15244 117.45907 207.68369 117.99032L206.57431 117.83407L207.27744 114.09969L210.90244 114.09969L210.90244 115.38094L208.32431 115.38094L208.10556 116.59969Q208.55869 116.36532 209.04306 116.36532Q209.94931 116.36532 210.58994 117.03719Q211.23056 117.69344 211.23056 118.75594Q211.23056 119.64657 210.71494 120.33407Q210.01181 121.28719 208.77744 121.28719Q207.77744 121.28719 207.15244 120.75594Q206.52744 120.22469 206.40244 119.31844ZM212.65244 119.78719L214.02744 119.78719L214.02744 120.77157Q214.02744 121.36532 213.91806 121.70907Q213.80869 122.05282 213.52744 122.31844Q213.24619 122.59969 212.80869 122.75594L212.54306 122.19344Q212.94931 122.05282 213.12119 121.81844Q213.30869 121.58407 213.30869 121.16219L212.65244 121.16219L212.65244 119.78719ZM215.38681 115.38094L215.38681 114.09969L220.08994 114.09969L220.08994 115.09969Q219.49619 115.66219 218.88681 116.74032Q218.29306 117.80282 217.98056 119.00594Q217.66806 120.20907 217.66806 121.16219L216.35556 121.16219Q216.38681 119.67782 216.96494 118.13094Q217.54306 116.58407 218.51181 115.38094L215.38681 115.38094ZM221.40244 115.77157Q221.40244 114.80282 221.82431 114.34969Q222.24619 113.88094 222.96494 113.88094Q223.71494 113.88094 224.13681 114.34969Q224.55869 114.80282 224.55869 115.77157Q224.55869 116.74032 224.13681 117.20907Q223.71494 117.66219 222.99619 117.66219Q222.24619 117.66219 221.82431 117.20907Q221.40244 116.74032 221.40244 115.77157ZM222.46494 115.75594Q222.46494 116.45907 222.63681 116.69344Q222.74619 116.88094 222.96494 116.88094Q223.18369 116.88094 223.30869 116.69344Q223.46494 116.45907 223.46494 115.75594Q223.46494 115.06844 223.30869 114.83407Q223.18369 114.64657 222.96494 114.64657Q222.74619 114.64657 222.63681 114.81844Q222.46494 115.06844 222.46494 115.75594ZM224.01181 121.44344L222.99619 121.44344L226.80869 113.88094L227.79306 113.88094L224.01181 121.44344ZM226.23056 119.55282Q226.23056 118.59969 226.65244 118.13094Q227.07431 117.66219 227.80869 117.66219Q228.54306 117.66219 228.96494 118.13094Q229.38681 118.59969 229.38681 119.55282Q229.38681 120.52157 228.96494 120.99032Q228.54306 121.44344 227.82431 121.44344Q227.07431 121.44344 226.65244 120.99032Q226.23056 120.52157 226.23056 119.55282ZM227.29306 119.55282Q227.29306 120.25594 227.46494 120.49032Q227.57431 120.66219 227.79306 120.66219Q228.01181 120.66219 228.13681 120.49032Q228.29306 120.25594 228.29306 119.55282Q228.29306 118.84969 228.13681 118.61532Q228.01181 118.44344 227.79306 118.44344Q227.57431 118.44344 227.46494 118.61532Q227.29306 118.84969 227.29306 119.55282Z" fill-rule="nonzero"/><path fill="#555555" d="M277.80173 182.78033L277.80173 184.06158L272.98923 184.06158Q273.06735 183.34283 273.45798 182.70221Q273.8486 182.04596 275.00485 180.96783Q275.92673 180.10846 276.14548 179.79596Q276.42673 179.37408 276.42673 178.96783Q276.42673 178.49908 276.17673 178.26471Q275.92673 178.01471 275.48923 178.01471Q275.06735 178.01471 274.80173 178.28033Q274.55173 178.53033 274.52048 179.12408L273.14548 178.99908Q273.27048 177.85846 273.9111 177.37408Q274.56735 176.87408 275.52048 176.87408Q276.58298 176.87408 277.19235 177.45221Q277.80173 178.01471 277.80173 178.85846Q277.80173 179.34283 277.62985 179.78033Q277.45798 180.21783 277.08298 180.70221Q276.83298 181.01471 276.17673 181.62408Q275.52048 182.21783 275.3486 182.42096Q275.17673 182.60846 275.06735 182.78033L277.80173 182.78033ZM281.48923 176.87408Q282.52048 176.87408 283.11423 177.60846Q283.80173 178.49908 283.80173 180.53033Q283.80173 182.56158 283.0986 183.45221Q282.52048 184.18658 281.48923 184.18658Q280.44235 184.18658 279.80173 183.38971Q279.1611 182.57721 279.1611 180.51471Q279.1611 178.49908 279.86423 177.60846Q280.44235 176.87408 281.48923 176.87408ZM281.48923 178.01471Q281.23923 178.01471 281.0361 178.17096Q280.8486 178.32721 280.73923 178.73346Q280.5986 179.26471 280.5986 180.53033Q280.5986 181.79596 280.7236 182.26471Q280.8486 182.73346 281.0361 182.88971Q281.23923 183.04596 281.48923 183.04596Q281.73923 183.04596 281.92673 182.88971Q282.12985 182.73346 282.2236 182.31158Q282.37985 181.79596 282.37985 180.53033Q282.37985 179.26471 282.23923 178.79596Q282.11423 178.32721 281.92673 178.17096Q281.73923 178.01471 281.48923 178.01471ZM285.42673 182.68658L286.80173 182.68658L286.80173 183.67096Q286.80173 184.26471 286.69235 184.60846Q286.58298 184.95221 286.30173 185.21783Q286.02048 185.49908 285.58298 185.65533L285.31735 185.09283Q285.7236 184.95221 285.89548 184.71783Q286.08298 184.48346 286.08298 184.06158L285.42673 184.06158L285.42673 182.68658ZM290.48923 176.87408Q291.52048 176.87408 292.11423 177.60846Q292.80173 178.49908 292.80173 180.53033Q292.80173 182.56158 292.0986 183.45221Q291.52048 184.18658 290.48923 184.18658Q289.44235 184.18658 288.80173 183.38971Q288.1611 182.57721 288.1611 180.51471Q288.1611 178.49908 288.86423 177.60846Q289.44235 176.87408 290.48923 176.87408ZM290.48923 178.01471Q290.23923 178.01471 290.0361 178.17096Q289.8486 178.32721 289.73923 178.73346Q289.5986 179.26471 289.5986 180.53033Q289.5986 181.79596 289.7236 182.26471Q289.8486 182.73346 290.0361 182.88971Q290.23923 183.04596 290.48923 183.04596Q290.73923 183.04596 290.92673 182.88971Q291.12985 182.73346 291.2236 182.31158Q291.37985 181.79596 291.37985 180.53033Q291.37985 179.26471 291.23923 178.79596Q291.11423 178.32721 290.92673 178.17096Q290.73923 178.01471 290.48923 178.01471ZM294.17673 178.67096Q294.17673 177.70221 294.5986 177.24908Q295.02048 176.78033 295.73923 176.78033Q296.48923 176.78033 296.9111 177.24908Q297.33298 177.70221 297.33298 178.67096Q297.33298 179.63971 296.9111 180.10846Q296.48923 180.56158 295.77048 180.56158Q295.02048 180.56158 294.5986 180.10846Q294.17673 179.63971 294.17673 178.67096ZM295.23923 178.65533Q295.23923 179.35846 295.4111 179.59283Q295.52048 179.78033 295.73923 179.78033Q295.95798 179.78033 296.08298 179.59283Q296.23923 179.35846 296.23923 178.65533Q296.23923 177.96783 296.08298 177.73346Q295.95798 177.54596 295.73923 177.54596Q295.52048 177.54596 295.4111 177.71783Q295.23923 177.96783 295.23923 178.65533ZM296.7861 184.34283L295.77048 184.34283L299.58298 176.78033L300.56735 176.78033L296.7861 184.34283ZM299.00485 182.45221Q299.00485 181.49908 299.42673 181.03033Q299.8486 180.56158 300.58298 180.56158Q301.31735 180.56158 301.73923 181.03033Q302.1611 181.49908 302.1611 182.45221Q302.1611 183.42096 301.73923 183.88971Q301.31735 184.34283 300.5986 184.34283Q299.8486 184.34283 299.42673 183.88971Q299.00485 183.42096 299.00485 182.45221ZM300.06735 182.45221Q300.06735 183.15533 300.23923 183.38971Q300.3486 183.56158 300.56735 183.56158Q300.7861 183.56158 300.9111 183.38971Q301.06735 183.15533 301.06735 182.45221Q301.06735 181.74908 300.9111 181.51471Q300.7861 181.34283 300.56735 181.34283Q300.3486 181.34283 300.23923 181.51471Q300.06735 181.74908 300.06735 182.45221Z" fill-rule="nonzero"/><path fill="#555555" d="M86.30236 311.0142L86.30236 309.73294L91.005486 309.73294L91.005486 310.73294Q90.411736 311.29544 89.80236 312.37357Q89.20861 313.43607 88.89611 314.6392Q88.58361 315.84232 88.58361 316.79544L87.27111 316.79544Q87.30236 315.31107 87.880486 313.7642Q88.45861 312.21732 89.42736 311.0142L86.30236 311.0142ZM92.255486 314.8892L93.58361 314.73294Q93.64611 315.24857 93.92736 315.5142Q94.20861 315.77982 94.599236 315.77982Q95.02111 315.77982 95.30236 315.46732Q95.599236 315.1392 95.599236 314.59232Q95.599236 314.0767 95.317986 313.77982Q95.05236 313.46732 94.64611 313.46732Q94.380486 313.46732 94.02111 313.56107L94.17736 312.4517Q94.724236 312.46732 95.02111 312.21732Q95.317986 311.9517 95.317986 311.52982Q95.317986 311.17044 95.099236 310.9517Q94.880486 310.73294 94.52111 310.73294Q94.17736 310.73294 93.92736 310.98294Q93.67736 311.21732 93.630486 311.68607L92.36486 311.48294Q92.48986 310.8267 92.755486 310.43607Q93.02111 310.04544 93.48986 309.8267Q93.974236 309.60794 94.567986 309.60794Q95.58361 309.60794 96.192986 310.24857Q96.692986 310.77982 96.692986 311.43607Q96.692986 312.3892 95.661736 312.9517Q96.27111 313.0767 96.630486 313.54544Q97.005486 313.99857 97.005486 314.6392Q97.005486 315.59232 96.317986 316.2642Q95.630486 316.92044 94.61486 316.92044Q93.64611 316.92044 93.005486 316.35794Q92.36486 315.79544 92.255486 314.8892ZM98.567986 315.42044L99.942986 315.42044L99.942986 316.40482Q99.942986 316.99857 99.83361 317.34232Q99.724236 317.68607 99.442986 317.9517Q99.161736 318.23294 98.724236 318.3892L98.45861 317.8267Q98.86486 317.68607 99.036736 317.4517Q99.224236 317.21732 99.224236 316.79544L98.567986 316.79544L98.567986 315.42044ZM104.817986 316.79544L103.442986 316.79544L103.442986 311.62357Q102.692986 312.3267 101.67736 312.67044L101.67736 311.42044Q102.20861 311.24857 102.83361 310.7642Q103.474236 310.2642 103.70861 309.60794L104.817986 309.60794L104.817986 316.79544ZM107.317986 311.40482Q107.317986 310.43607 107.73986 309.98294Q108.161736 309.5142 108.880486 309.5142Q109.630486 309.5142 110.05236 309.98294Q110.474236 310.43607 110.474236 311.40482Q110.474236 312.37357 110.05236 312.84232Q109.630486 313.29544 108.911736 313.29544Q108.161736 313.29544 107.73986 312.84232Q107.317986 312.37357 107.317986 311.40482ZM108.380486 311.3892Q108.380486 312.09232 108.55236 312.3267Q108.661736 312.5142 108.880486 312.5142Q109.099236 312.5142 109.224236 312.3267Q109.380486 312.09232 109.380486 311.3892Q109.380486 310.7017 109.224236 310.46732Q109.099236 310.27982 108.880486 310.27982Q108.661736 310.27982 108.55236 310.4517Q108.380486 310.7017 108.380486 311.3892ZM109.92736 317.0767L108.911736 317.0767L112.724236 309.5142L113.70861 309.5142L109.92736 317.0767ZM112.14611 315.18607Q112.14611 314.23294 112.567986 313.7642Q112.98986 313.29544 113.724236 313.29544Q114.45861 313.29544 114.880486 313.7642Q115.30236 314.23294 115.30236 315.18607Q115.30236 316.15482 114.880486 316.62357Q114.45861 317.0767 113.73986 317.0767Q112.98986 317.0767 112.567986 316.62357Q112.14611 316.15482 112.14611 315.18607ZM113.20861 315.18607Q113.20861 315.8892 113.380486 316.12357Q113.48986 316.29544 113.70861 316.29544Q113.92736 316.29544 114.05236 316.12357Q114.20861 315.8892 114.20861 315.18607Q114.20861 314.48294 114.05236 314.24857Q113.92736 314.0767 113.70861 314.0767Q113.48986 314.0767 113.380486 314.24857Q113.20861 314.48294 113.20861 315.18607Z" fill-rule="nonzero"/><path fill="#cf9456" d="M389.407 175.70845C389.407 179.02216 386.72073 181.70845 383.407 181.70845C380.09332 181.70845 377.407 179.02216 377.407 175.70845C377.407 172.39473 380.09332 169.70845 383.407 169.70845C386.72073 169.70845 389.407 172.39473 389.407 175.70845Z" fill-rule="nonzero"/><path fill="#555555" d="M398.36014 179.70845L398.36014 171.1147L404.56326 171.1147L404.56326 172.13033L399.50076 172.13033L399.50076 174.75533L404.25076 174.75533L404.25076 175.77095L399.50076 175.77095L399.50076 178.69283L404.7664 178.69283L404.7664 179.70845L398.36014 179.70845ZM405.782 177.84908L406.81326 177.69283Q406.907 178.31783 407.29764 178.64595Q407.7039 178.97408 408.43826 178.97408Q409.157 178.97408 409.50076 178.69283Q409.86014 178.39595 409.86014 177.9897Q409.86014 177.63033 409.54764 177.4272Q409.3289 177.28658 408.4695 177.06783Q407.31326 176.77095 406.86014 176.56783Q406.42264 176.34908 406.18826 175.97408Q405.9539 175.59908 405.9539 175.13033Q405.9539 174.72408 406.1414 174.3647Q406.3289 174.00533 406.657 173.77095Q406.907 173.59908 407.3289 173.47408Q407.75076 173.34908 408.25076 173.34908Q408.9695 173.34908 409.5164 173.56783Q410.0789 173.77095 410.3445 174.13033Q410.61014 174.4897 410.7039 175.08345L409.67264 175.22408Q409.61014 174.75533 409.2664 174.4897Q408.93826 174.20845 408.31326 174.20845Q407.5945 174.20845 407.282 174.45845Q406.9695 174.69283 406.9695 175.02095Q406.9695 175.22408 407.0945 175.38033Q407.23514 175.5522 407.50076 175.66158Q407.657 175.72408 408.43826 175.9272Q409.56326 176.2397 410.00076 176.4272Q410.43826 176.6147 410.68826 176.97408Q410.93826 177.33345 410.93826 177.88033Q410.93826 178.41158 410.62576 178.88033Q410.3289 179.33345 409.75076 179.59908Q409.17264 179.84908 408.43826 179.84908Q407.2195 179.84908 406.5789 179.34908Q405.9539 178.83345 405.782 177.84908ZM413.2039 182.09908L413.2039 173.4897L414.157 173.4897L414.157 174.28658Q414.50076 173.81783 414.92264 173.58345Q415.36014 173.34908 415.9695 173.34908Q416.7664 173.34908 417.37576 173.75533Q417.98514 174.16158 418.282 174.91158Q418.5945 175.66158 418.5945 176.5522Q418.5945 177.50533 418.25076 178.27095Q417.92264 179.03658 417.2664 179.44283Q416.61014 179.84908 415.8914 179.84908Q415.36014 179.84908 414.93826 179.63033Q414.5164 179.39595 414.25076 179.06783L414.25076 182.09908L413.2039 182.09908ZM414.157 176.63033Q414.157 177.83345 414.6414 178.41158Q415.12576 178.97408 415.81326 178.97408Q416.5164 178.97408 417.0164 178.38033Q417.5164 177.78658 417.5164 176.53658Q417.5164 175.34908 417.032 174.77095Q416.54764 174.1772 415.86014 174.1772Q415.18826 174.1772 414.67264 174.8022Q414.157 175.4272 414.157 176.63033ZM420.56326 179.70845L420.56326 173.4897L421.62576 173.4897L421.62576 179.70845L420.56326 179.70845ZM420.5164 172.70845L421.29764 171.06783L422.68826 171.06783L421.3914 172.70845L420.5164 172.70845ZM423.18826 179.70845L423.18826 173.4897L424.1414 173.4897L424.1414 174.4272Q424.50076 173.77095 424.79764 173.56783Q425.11014 173.34908 425.48514 173.34908Q426.0164 173.34908 426.56326 173.6772L426.2039 174.66158Q425.81326 174.4272 425.43826 174.4272Q425.0789 174.4272 424.79764 174.64595Q424.532 174.84908 424.42264 175.22408Q424.23514 175.78658 424.23514 176.44283L424.23514 179.70845L423.18826 179.70845ZM427.2039 172.33345L427.2039 171.1147L428.2664 171.1147L428.2664 172.33345L427.2039 172.33345ZM427.2039 179.70845L427.2039 173.4897L428.2664 173.4897L428.2664 179.70845L427.2039 179.70845ZM432.50076 178.77095L432.657 179.69283Q432.2039 179.78658 431.86014 179.78658Q431.282 179.78658 430.9695 179.6147Q430.657 179.4272 430.5164 179.13033Q430.3914 178.83345 430.3914 177.88033L430.3914 174.3022L429.62576 174.3022L429.62576 173.4897L430.3914 173.4897L430.3914 171.94283L431.43826 171.31783L431.43826 173.4897L432.50076 173.4897L432.50076 174.3022L431.43826 174.3022L431.43826 177.94283Q431.43826 178.39595 431.48514 178.52095Q431.54764 178.64595 431.67264 178.72408Q431.79764 178.8022 432.032 178.8022Q432.2195 178.8022 432.50076 178.77095ZM432.81326 176.59908Q432.81326 174.8647 433.7664 174.03658Q434.56326 173.34908 435.7195 173.34908Q437.00076 173.34908 437.81326 174.19283Q438.6414 175.02095 438.6414 176.50533Q438.6414 177.70845 438.282 178.39595Q437.92264 179.08345 437.2195 179.47408Q436.532 179.84908 435.7195 179.84908Q434.42264 179.84908 433.61014 179.02095Q432.81326 178.1772 432.81326 176.59908ZM433.8914 176.59908Q433.8914 177.78658 434.407 178.38033Q434.93826 178.97408 435.7195 178.97408Q436.5164 178.97408 437.032 178.38033Q437.54764 177.78658 437.54764 176.56783Q437.54764 175.41158 437.0164 174.81783Q436.50076 174.22408 435.7195 174.22408Q434.93826 174.22408 434.407 174.81783Q433.8914 175.39595 433.8914 176.59908ZM442.9539 176.94283L444.0164 176.84908Q444.0945 177.50533 444.37576 177.91158Q444.657 178.31783 445.23514 178.58345Q445.8289 178.83345 446.56326 178.83345Q447.2039 178.83345 447.7039 178.64595Q448.2039 178.44283 448.43826 178.1147Q448.68826 177.77095 448.68826 177.38033Q448.68826 176.97408 448.4539 176.6772Q448.2195 176.3647 447.68826 176.16158Q447.3289 176.02095 446.1414 175.7397Q444.9695 175.45845 444.50076 175.20845Q443.87576 174.88033 443.5789 174.41158Q443.282 173.9272 443.282 173.33345Q443.282 172.69283 443.6414 172.13033Q444.0164 171.5522 444.7195 171.27095Q445.43826 170.97408 446.29764 170.97408Q447.25076 170.97408 447.98514 171.28658Q448.7195 171.58345 449.11014 172.19283Q449.50076 172.78658 449.532 173.53658L448.43826 173.6147Q448.3445 172.8022 447.8289 172.39595Q447.3289 171.97408 446.3445 171.97408Q445.31326 171.97408 444.8445 172.34908Q444.37576 172.72408 444.37576 173.25533Q444.37576 173.72408 444.7039 174.02095Q445.032 174.31783 446.407 174.63033Q447.79764 174.94283 448.31326 175.1772Q449.06326 175.53658 449.42264 176.06783Q449.782 176.58345 449.782 177.28658Q449.782 177.97408 449.3914 178.58345Q449.00076 179.1772 448.2664 179.52095Q447.532 179.84908 446.61014 179.84908Q445.43826 179.84908 444.6414 179.52095Q443.86014 179.1772 443.407 178.4897Q442.9695 177.8022 442.9539 176.94283ZM455.2664 178.94283Q454.67264 179.44283 454.12576 179.64595Q453.5945 179.84908 452.9695 179.84908Q451.93826 179.84908 451.3914 179.34908Q450.8445 178.84908 450.8445 178.06783Q450.8445 177.6147 451.04764 177.2397Q451.25076 176.84908 451.5945 176.63033Q451.93826 176.39595 452.36014 176.28658Q452.657 176.19283 453.29764 176.1147Q454.56326 175.97408 455.17264 175.75533Q455.17264 175.53658 455.17264 175.4897Q455.17264 174.83345 454.87576 174.56783Q454.4695 174.22408 453.67264 174.22408Q452.93826 174.22408 452.5789 174.4897Q452.2195 174.7397 452.04764 175.39595L451.0164 175.25533Q451.157 174.59908 451.48514 174.19283Q451.81326 173.78658 452.42264 173.56783Q453.032 173.34908 453.8289 173.34908Q454.62576 173.34908 455.12576 173.53658Q455.62576 173.72408 455.86014 174.00533Q456.0945 174.28658 456.18826 174.72408Q456.23514 174.9897 456.23514 175.69283L456.23514 177.09908Q456.23514 178.56783 456.29764 178.95845Q456.37576 179.34908 456.5789 179.70845L455.4695 179.70845Q455.31326 179.38033 455.2664 178.94283ZM455.17264 176.58345Q454.5945 176.81783 453.4539 176.9897Q452.79764 177.08345 452.532 177.20845Q452.2664 177.31783 452.11014 177.53658Q451.9695 177.75533 451.9695 178.03658Q451.9695 178.45845 452.282 178.7397Q452.61014 179.02095 453.2195 179.02095Q453.8289 179.02095 454.29764 178.75533Q454.782 178.4897 455.00076 178.02095Q455.17264 177.66158 455.17264 176.97408L455.17264 176.58345ZM458.2039 179.70845L458.2039 173.4897L459.1414 173.4897L459.1414 174.3647Q459.8289 173.34908 461.12576 173.34908Q461.68826 173.34908 462.157 173.5522Q462.6414 173.75533 462.87576 174.08345Q463.11014 174.41158 463.2039 174.84908Q463.25076 175.14595 463.25076 175.88033L463.25076 179.70845L462.2039 179.70845L462.2039 175.9272Q462.2039 175.27095 462.0789 174.95845Q461.9539 174.64595 461.6414 174.45845Q461.3289 174.25533 460.907 174.25533Q460.23514 174.25533 459.73514 174.69283Q459.25076 175.1147 459.25076 176.3022L459.25076 179.70845L458.2039 179.70845ZM467.50076 178.77095L467.657 179.69283Q467.2039 179.78658 466.86014 179.78658Q466.282 179.78658 465.9695 179.6147Q465.657 179.4272 465.5164 179.13033Q465.3914 178.83345 465.3914 177.88033L465.3914 174.3022L464.62576 174.3022L464.62576 173.4897L465.3914 173.4897L465.3914 171.94283L466.43826 171.31783L466.43826 173.4897L467.50076 173.4897L467.50076 174.3022L466.43826 174.3022L466.43826 177.94283Q466.43826 178.39595 466.48514 178.52095Q466.54764 178.64595 466.67264 178.72408Q466.79764 178.8022 467.032 178.8022Q467.2195 178.8022 467.50076 178.77095ZM467.81326 176.59908Q467.81326 174.8647 468.7664 174.03658Q469.56326 173.34908 470.7195 173.34908Q472.00076 173.34908 472.81326 174.19283Q473.6414 175.02095 473.6414 176.50533Q473.6414 177.70845 473.282 178.39595Q472.92264 179.08345 472.2195 179.47408Q471.532 179.84908 470.7195 179.84908Q469.42264 179.84908 468.61014 179.02095Q467.81326 178.1772 467.81326 176.59908ZM468.8914 176.59908Q468.8914 177.78658 469.407 178.38033Q469.93826 178.97408 470.7195 178.97408Q471.5164 178.97408 472.032 178.38033Q472.54764 177.78658 472.54764 176.56783Q472.54764 175.41158 472.0164 174.81783Q471.50076 174.22408 470.7195 174.22408Q469.93826 174.22408 469.407 174.81783Q468.8914 175.39595 468.8914 176.59908ZM480.2195 182.2397Q479.3445 181.13033 478.73514 179.66158Q478.1414 178.1772 478.1414 176.59908Q478.1414 175.20845 478.5789 173.9272Q479.11014 172.44283 480.2195 170.97408L480.9695 170.97408Q480.2664 172.19283 480.032 172.70845Q479.67264 173.52095 479.4695 174.39595Q479.2195 175.4897 479.2195 176.59908Q479.2195 179.4272 480.9695 182.2397L480.2195 182.2397ZM482.36014 179.70845L482.36014 171.1147L488.56326 171.1147L488.56326 172.13033L483.50076 172.13033L483.50076 174.75533L488.25076 174.75533L488.25076 175.77095L483.50076 175.77095L483.50076 178.69283L488.7664 178.69283L488.7664 179.70845L482.36014 179.70845ZM489.9539 176.94283L491.0164 176.84908Q491.0945 177.50533 491.37576 177.91158Q491.657 178.31783 492.23514 178.58345Q492.8289 178.83345 493.56326 178.83345Q494.2039 178.83345 494.7039 178.64595Q495.2039 178.44283 495.43826 178.1147Q495.68826 177.77095 495.68826 177.38033Q495.68826 176.97408 495.4539 176.6772Q495.2195 176.3647 494.68826 176.16158Q494.3289 176.02095 493.1414 175.7397Q491.9695 175.45845 491.50076 175.20845Q490.87576 174.88033 490.5789 174.41158Q490.282 173.9272 490.282 173.33345Q490.282 172.69283 490.6414 172.13033Q491.0164 171.5522 491.7195 171.27095Q492.43826 170.97408 493.29764 170.97408Q494.25076 170.97408 494.98514 171.28658Q495.7195 171.58345 496.11014 172.19283Q496.50076 172.78658 496.532 173.53658L495.43826 173.6147Q495.3445 172.8022 494.8289 172.39595Q494.3289 171.97408 493.3445 171.97408Q492.31326 171.97408 491.8445 172.34908Q491.37576 172.72408 491.37576 173.25533Q491.37576 173.72408 491.7039 174.02095Q492.032 174.31783 493.407 174.63033Q494.79764 174.94283 495.31326 175.1772Q496.06326 175.53658 496.42264 176.06783Q496.782 176.58345 496.782 177.28658Q496.782 177.97408 496.3914 178.58345Q496.00076 179.1772 495.2664 179.52095Q494.532 179.84908 493.61014 179.84908Q492.43826 179.84908 491.6414 179.52095Q490.86014 179.1772 490.407 178.4897Q489.9695 177.8022 489.9539 176.94283ZM498.8914 182.2397L498.1414 182.2397Q499.8914 179.4272 499.8914 176.59908Q499.8914 175.50533 499.6414 174.41158Q499.43826 173.53658 499.0789 172.72408Q498.8445 172.20845 498.1414 170.97408L498.8914 170.97408Q499.98514 172.44283 500.5164 173.9272Q500.9695 175.20845 500.9695 176.59908Q500.9695 178.1772 500.36014 179.66158Q499.75076 181.13033 498.8914 182.2397Z" fill-rule="nonzero"/><path fill="#ab3635" d="M389.407 199.70845C389.407 203.02216 386.72073 205.70845 383.407 205.70845C380.09332 205.70845 377.407 203.02216 377.407 199.70845C377.407 196.39473 380.09332 193.70845 383.407 193.70845C386.72073 193.70845 389.407 196.39473 389.407 199.70845Z" fill-rule="nonzero"/><path fill="#555555" d="M398.29764 203.70845L398.29764 195.1147L400.0164 195.1147L402.04764 201.19283Q402.3289 202.0522 402.4539 202.47408Q402.5945 202.00533 402.907 201.09908L404.9695 195.1147L406.50076 195.1147L406.50076 203.70845L405.407 203.70845L405.407 196.52095L402.907 203.70845L401.87576 203.70845L399.3914 196.39595L399.3914 203.70845L398.29764 203.70845ZM407.2039 196.33345L407.2039 195.1147L408.2664 195.1147L408.2664 196.33345L407.2039 196.33345ZM407.2039 203.70845L407.2039 197.4897L408.2664 197.4897L408.2664 203.70845L407.2039 203.70845ZM410.2039 203.70845L410.2039 197.4897L411.1414 197.4897L411.1414 198.3647Q411.8289 197.34908 413.12576 197.34908Q413.68826 197.34908 414.157 197.5522Q414.6414 197.75533 414.87576 198.08345Q415.11014 198.41158 415.2039 198.84908Q415.25076 199.14595 415.25076 199.88033L415.25076 203.70845L414.2039 203.70845L414.2039 199.9272Q414.2039 199.27095 414.0789 198.95845Q413.9539 198.64595 413.6414 198.45845Q413.3289 198.25533 412.907 198.25533Q412.23514 198.25533 411.73514 198.69283Q411.25076 199.1147 411.25076 200.3022L411.25076 203.70845L410.2039 203.70845ZM421.2664 202.94283Q420.67264 203.44283 420.12576 203.64595Q419.5945 203.84908 418.9695 203.84908Q417.93826 203.84908 417.3914 203.34908Q416.8445 202.84908 416.8445 202.06783Q416.8445 201.6147 417.04764 201.2397Q417.25076 200.84908 417.5945 200.63033Q417.93826 200.39595 418.36014 200.28658Q418.657 200.19283 419.29764 200.1147Q420.56326 199.97408 421.17264 199.75533Q421.17264 199.53658 421.17264 199.4897Q421.17264 198.83345 420.87576 198.56783Q420.4695 198.22408 419.67264 198.22408Q418.93826 198.22408 418.5789 198.4897Q418.2195 198.7397 418.04764 199.39595L417.0164 199.25533Q417.157 198.59908 417.48514 198.19283Q417.81326 197.78658 418.42264 197.56783Q419.032 197.34908 419.8289 197.34908Q420.62576 197.34908 421.12576 197.53658Q421.62576 197.72408 421.86014 198.00533Q422.0945 198.28658 422.18826 198.72408Q422.23514 198.9897 422.23514 199.69283L422.23514 201.09908Q422.23514 202.56783 422.29764 202.95845Q422.37576 203.34908 422.5789 203.70845L421.4695 203.70845Q421.31326 203.38033 421.2664 202.94283ZM421.17264 200.58345Q420.5945 200.81783 419.4539 200.9897Q418.79764 201.08345 418.532 201.20845Q418.2664 201.31783 418.11014 201.53658Q417.9695 201.75533 417.9695 202.03658Q417.9695 202.45845 418.282 202.7397Q418.61014 203.02095 419.2195 203.02095Q419.8289 203.02095 420.29764 202.75533Q420.782 202.4897 421.00076 202.02095Q421.17264 201.66158 421.17264 200.97408L421.17264 200.58345ZM423.782 201.84908L424.81326 201.69283Q424.907 202.31783 425.29764 202.64595Q425.7039 202.97408 426.43826 202.97408Q427.157 202.97408 427.50076 202.69283Q427.86014 202.39595 427.86014 201.9897Q427.86014 201.63033 427.54764 201.4272Q427.3289 201.28658 426.4695 201.06783Q425.31326 200.77095 424.86014 200.56783Q424.42264 200.34908 424.18826 199.97408Q423.9539 199.59908 423.9539 199.13033Q423.9539 198.72408 424.1414 198.3647Q424.3289 198.00533 424.657 197.77095Q424.907 197.59908 425.3289 197.47408Q425.75076 197.34908 426.25076 197.34908Q426.9695 197.34908 427.5164 197.56783Q428.0789 197.77095 428.3445 198.13033Q428.61014 198.4897 428.7039 199.08345L427.67264 199.22408Q427.61014 198.75533 427.2664 198.4897Q426.93826 198.20845 426.31326 198.20845Q425.5945 198.20845 425.282 198.45845Q424.9695 198.69283 424.9695 199.02095Q424.9695 199.22408 425.0945 199.38033Q425.23514 199.5522 425.50076 199.66158Q425.657 199.72408 426.43826 199.9272Q427.56326 200.2397 428.00076 200.4272Q428.43826 200.6147 428.68826 200.97408Q428.93826 201.33345 428.93826 201.88033Q428.93826 202.41158 428.62576 202.88033Q428.3289 203.33345 427.75076 203.59908Q427.17264 203.84908 426.43826 203.84908Q425.2195 203.84908 424.5789 203.34908Q423.9539 202.83345 423.782 201.84908ZM438.36014 200.33345L438.36014 199.33345L441.98514 199.31783L441.98514 202.50533Q441.157 203.1772 440.2664 203.52095Q439.37576 203.84908 438.43826 203.84908Q437.17264 203.84908 436.12576 203.31783Q435.0945 202.77095 434.56326 201.75533Q434.04764 200.72408 434.04764 199.45845Q434.04764 198.19283 434.56326 197.1147Q435.0945 196.02095 436.0789 195.50533Q437.06326 194.97408 438.3445 194.97408Q439.282 194.97408 440.032 195.27095Q440.782 195.56783 441.2039 196.1147Q441.6414 196.64595 441.86014 197.52095L440.8445 197.8022Q440.6414 197.14595 440.3445 196.77095Q440.06326 196.39595 439.532 196.1772Q439.00076 195.94283 438.36014 195.94283Q437.5789 195.94283 437.00076 196.1772Q436.43826 196.41158 436.0789 196.8022Q435.73514 197.19283 435.54764 197.66158Q435.2195 198.45845 435.2195 199.38033Q435.2195 200.53658 435.61014 201.31783Q436.0164 202.08345 436.7664 202.45845Q437.5164 202.83345 438.37576 202.83345Q439.11014 202.83345 439.81326 202.5522Q440.5164 202.25533 440.87576 201.94283L440.87576 200.33345L438.36014 200.33345ZM447.4539 201.70845L448.54764 201.83345Q448.29764 202.78658 447.5945 203.31783Q446.8914 203.84908 445.81326 203.84908Q444.4539 203.84908 443.6414 203.00533Q442.8445 202.16158 442.8445 200.64595Q442.8445 199.08345 443.657 198.22408Q444.4695 197.34908 445.75076 197.34908Q447.00076 197.34908 447.782 198.19283Q448.5789 199.03658 448.5789 200.58345Q448.5789 200.6772 448.5789 200.8647L443.93826 200.8647Q444.00076 201.89595 444.5164 202.44283Q445.032 202.97408 445.81326 202.97408Q446.3914 202.97408 446.79764 202.6772Q447.2195 202.3647 447.4539 201.70845ZM444.00076 200.00533L447.4695 200.00533Q447.407 199.20845 447.0789 198.81783Q446.56326 198.20845 445.7664 198.20845Q445.032 198.20845 444.532 198.69283Q444.04764 199.1772 444.00076 200.00533ZM450.18826 203.70845L450.18826 197.4897L451.1414 197.4897L451.1414 198.4272Q451.50076 197.77095 451.79764 197.56783Q452.11014 197.34908 452.48514 197.34908Q453.0164 197.34908 453.56326 197.6772L453.2039 198.66158Q452.81326 198.4272 452.43826 198.4272Q452.0789 198.4272 451.79764 198.64595Q451.532 198.84908 451.42264 199.22408Q451.23514 199.78658 451.23514 200.44283L451.23514 203.70845L450.18826 203.70845ZM458.2664 202.94283Q457.67264 203.44283 457.12576 203.64595Q456.5945 203.84908 455.9695 203.84908Q454.93826 203.84908 454.3914 203.34908Q453.8445 202.84908 453.8445 202.06783Q453.8445 201.6147 454.04764 201.2397Q454.25076 200.84908 454.5945 200.63033Q454.93826 200.39595 455.36014 200.28658Q455.657 200.19283 456.29764 200.1147Q457.56326 199.97408 458.17264 199.75533Q458.17264 199.53658 458.17264 199.4897Q458.17264 198.83345 457.87576 198.56783Q457.4695 198.22408 456.67264 198.22408Q455.93826 198.22408 455.5789 198.4897Q455.2195 198.7397 455.04764 199.39595L454.0164 199.25533Q454.157 198.59908 454.48514 198.19283Q454.81326 197.78658 455.42264 197.56783Q456.032 197.34908 456.8289 197.34908Q457.62576 197.34908 458.12576 197.53658Q458.62576 197.72408 458.86014 198.00533Q459.0945 198.28658 459.18826 198.72408Q459.23514 198.9897 459.23514 199.69283L459.23514 201.09908Q459.23514 202.56783 459.29764 202.95845Q459.37576 203.34908 459.5789 203.70845L458.4695 203.70845Q458.31326 203.38033 458.2664 202.94283ZM458.17264 200.58345Q457.5945 200.81783 456.4539 200.9897Q455.79764 201.08345 455.532 201.20845Q455.2664 201.31783 455.11014 201.53658Q454.9695 201.75533 454.9695 202.03658Q454.9695 202.45845 455.282 202.7397Q455.61014 203.02095 456.2195 203.02095Q456.8289 203.02095 457.29764 202.75533Q457.782 202.4897 458.00076 202.02095Q458.17264 201.66158 458.17264 200.97408L458.17264 200.58345ZM461.2039 196.33345L461.2039 195.1147L462.2664 195.1147L462.2664 196.33345L461.2039 196.33345ZM461.2039 203.70845L461.2039 197.4897L462.2664 197.4897L462.2664 203.70845L461.2039 203.70845ZM463.782 201.84908L464.81326 201.69283Q464.907 202.31783 465.29764 202.64595Q465.7039 202.97408 466.43826 202.97408Q467.157 202.97408 467.50076 202.69283Q467.86014 202.39595 467.86014 201.9897Q467.86014 201.63033 467.54764 201.4272Q467.3289 201.28658 466.4695 201.06783Q465.31326 200.77095 464.86014 200.56783Q464.42264 200.34908 464.18826 199.97408Q463.9539 199.59908 463.9539 199.13033Q463.9539 198.72408 464.1414 198.3647Q464.3289 198.00533 464.657 197.77095Q464.907 197.59908 465.3289 197.47408Q465.75076 197.34908 466.25076 197.34908Q466.9695 197.34908 467.5164 197.56783Q468.0789 197.77095 468.3445 198.13033Q468.61014 198.4897 468.7039 199.08345L467.67264 199.22408Q467.61014 198.75533 467.2664 198.4897Q466.93826 198.20845 466.31326 198.20845Q465.5945 198.20845 465.282 198.45845Q464.9695 198.69283 464.9695 199.02095Q464.9695 199.22408 465.0945 199.38033Q465.23514 199.5522 465.50076 199.66158Q465.657 199.72408 466.43826 199.9272Q467.56326 200.2397 468.00076 200.4272Q468.43826 200.6147 468.68826 200.97408Q468.93826 201.33345 468.93826 201.88033Q468.93826 202.41158 468.62576 202.88033Q468.3289 203.33345 467.75076 203.59908Q467.17264 203.84908 466.43826 203.84908Q465.2195 203.84908 464.5789 203.34908Q463.9539 202.83345 463.782 201.84908ZM476.2195 206.2397Q475.3445 205.13033 474.73514 203.66158Q474.1414 202.1772 474.1414 200.59908Q474.1414 199.20845 474.5789 197.9272Q475.11014 196.44283 476.2195 194.97408L476.9695 194.97408Q476.2664 196.19283 476.032 196.70845Q475.67264 197.52095 475.4695 198.39595Q475.2195 199.4897 475.2195 200.59908Q475.2195 203.4272 476.9695 206.2397L476.2195 206.2397ZM478.29764 203.70845L478.29764 195.1147L480.0164 195.1147L482.04764 201.19283Q482.3289 202.0522 482.4539 202.47408Q482.5945 202.00533 482.907 201.09908L484.9695 195.1147L486.50076 195.1147L486.50076 203.70845L485.407 203.70845L485.407 196.52095L482.907 203.70845L481.87576 203.70845L479.3914 196.39595L479.3914 203.70845L478.29764 203.70845ZM491.36014 200.33345L491.36014 199.33345L494.98514 199.31783L494.98514 202.50533Q494.157 203.1772 493.2664 203.52095Q492.37576 203.84908 491.43826 203.84908Q490.17264 203.84908 489.12576 203.31783Q488.0945 202.77095 487.56326 201.75533Q487.04764 200.72408 487.04764 199.45845Q487.04764 198.19283 487.56326 197.1147Q488.0945 196.02095 489.0789 195.50533Q490.06326 194.97408 491.3445 194.97408Q492.282 194.97408 493.032 195.27095Q493.782 195.56783 494.2039 196.1147Q494.6414 196.64595 494.86014 197.52095L493.8445 197.8022Q493.6414 197.14595 493.3445 196.77095Q493.06326 196.39595 492.532 196.1772Q492.00076 195.94283 491.36014 195.94283Q490.5789 195.94283 490.00076 196.1772Q489.43826 196.41158 489.0789 196.8022Q488.73514 197.19283 488.54764 197.66158Q488.2195 198.45845 488.2195 199.38033Q488.2195 200.53658 488.61014 201.31783Q489.0164 202.08345 489.7664 202.45845Q490.5164 202.83345 491.37576 202.83345Q492.11014 202.83345 492.81326 202.5522Q493.5164 202.25533 493.87576 201.94283L493.87576 200.33345L491.36014 200.33345ZM496.8914 206.2397L496.1414 206.2397Q497.8914 203.4272 497.8914 200.59908Q497.8914 199.50533 497.6414 198.41158Q497.43826 197.53658 497.0789 196.72408Q496.8445 196.20845 496.1414 194.97408L496.8914 194.97408Q497.98514 196.44283 498.5164 197.9272Q498.9695 199.20845 498.9695 200.59908Q498.9695 202.1772 498.36014 203.66158Q497.75076 205.13033 496.8914 206.2397Z" fill-rule="nonzero"/><path fill="#ad3f83" d="M389.407 223.70845C389.407 227.02216 386.72073 229.70845 383.407 229.70845C380.09332 229.70845 377.407 227.02216 377.407 223.70845C377.407 220.39473 380.09332 217.70845 383.407 217.70845C386.72073 217.70845 389.407 220.39473 389.407 223.70845Z" fill-rule="nonzero"/><path fill="#555555" d="M398.3445 227.70845L398.3445 219.1147L402.157 219.1147Q403.31326 219.1147 403.907 219.34908Q404.50076 219.58345 404.86014 220.1772Q405.2195 220.75533 405.2195 221.45845Q405.2195 222.38033 404.62576 223.00533Q404.032 223.63033 402.79764 223.8022Q403.25076 224.02095 403.48514 224.22408Q403.98514 224.6772 404.42264 225.3647L405.92264 227.70845L404.48514 227.70845L403.36014 225.9272Q402.86014 225.14595 402.532 224.7397Q402.2195 224.33345 401.9539 224.1772Q401.7039 224.00533 401.43826 223.9272Q401.25076 223.89595 400.81326 223.89595L399.48514 223.89595L399.48514 227.70845L398.3445 227.70845ZM399.48514 222.91158L401.93826 222.91158Q402.7039 222.91158 403.1414 222.75533Q403.5945 222.58345 403.81326 222.2397Q404.04764 221.88033 404.04764 221.45845Q404.04764 220.84908 403.5945 220.45845Q403.157 220.06783 402.2039 220.06783L399.48514 220.06783L399.48514 222.91158ZM407.2039 220.33345L407.2039 219.1147L408.2664 219.1147L408.2664 220.33345L407.2039 220.33345ZM407.2039 227.70845L407.2039 221.4897L408.2664 221.4897L408.2664 227.70845L407.2039 227.70845ZM409.81326 224.59908Q409.81326 222.8647 410.7664 222.03658Q411.56326 221.34908 412.7195 221.34908Q414.00076 221.34908 414.81326 222.19283Q415.6414 223.02095 415.6414 224.50533Q415.6414 225.70845 415.282 226.39595Q414.92264 227.08345 414.2195 227.47408Q413.532 227.84908 412.7195 227.84908Q411.42264 227.84908 410.61014 227.02095Q409.81326 226.1772 409.81326 224.59908ZM410.8914 224.59908Q410.8914 225.78658 411.407 226.38033Q411.93826 226.97408 412.7195 226.97408Q413.5164 226.97408 414.032 226.38033Q414.54764 225.78658 414.54764 224.56783Q414.54764 223.41158 414.0164 222.81783Q413.50076 222.22408 412.7195 222.22408Q411.93826 222.22408 411.407 222.81783Q410.8914 223.39595 410.8914 224.59908ZM424.23514 227.70845L424.23514 226.9272Q423.6414 227.84908 422.50076 227.84908Q421.75076 227.84908 421.12576 227.44283Q420.50076 227.02095 420.157 226.28658Q419.81326 225.5522 419.81326 224.59908Q419.81326 223.6772 420.12576 222.91158Q420.43826 222.14595 421.06326 221.75533Q421.68826 221.34908 422.4539 221.34908Q423.0164 221.34908 423.4539 221.58345Q423.8914 221.81783 424.17264 222.19283L424.17264 219.1147L425.2195 219.1147L425.2195 227.70845L424.23514 227.70845ZM420.907 224.59908Q420.907 225.8022 421.407 226.39595Q421.907 226.97408 422.5945 226.97408Q423.282 226.97408 423.7664 226.41158Q424.25076 225.84908 424.25076 224.69283Q424.25076 223.41158 423.75076 222.81783Q423.2664 222.22408 422.54764 222.22408Q421.8445 222.22408 421.37576 222.8022Q420.907 223.3647 420.907 224.59908ZM431.4539 225.70845L432.54764 225.83345Q432.29764 226.78658 431.5945 227.31783Q430.8914 227.84908 429.81326 227.84908Q428.4539 227.84908 427.6414 227.00533Q426.8445 226.16158 426.8445 224.64595Q426.8445 223.08345 427.657 222.22408Q428.4695 221.34908 429.75076 221.34908Q431.00076 221.34908 431.782 222.19283Q432.5789 223.03658 432.5789 224.58345Q432.5789 224.6772 432.5789 224.8647L427.93826 224.8647Q428.00076 225.89595 428.5164 226.44283Q429.032 226.97408 429.81326 226.97408Q430.3914 226.97408 430.79764 226.6772Q431.2195 226.3647 431.4539 225.70845ZM428.00076 224.00533L431.4695 224.00533Q431.407 223.20845 431.0789 222.81783Q430.56326 222.20845 429.7664 222.20845Q429.032 222.20845 428.532 222.69283Q428.04764 223.1772 428.00076 224.00533ZM436.75076 225.27095L437.782 225.13033Q437.81326 226.1147 438.1414 226.47408Q438.4695 226.83345 439.06326 226.83345Q439.48514 226.83345 439.79764 226.64595Q440.11014 226.44283 440.2195 226.1147Q440.3445 225.77095 440.3445 225.03658L440.3445 219.1147L441.4695 219.1147L441.4695 224.97408Q441.4695 226.0522 441.2039 226.64595Q440.9539 227.2397 440.3914 227.5522Q439.8289 227.84908 439.06326 227.84908Q437.93826 227.84908 437.3289 227.20845Q436.73514 226.5522 436.75076 225.27095ZM447.2664 226.94283Q446.67264 227.44283 446.12576 227.64595Q445.5945 227.84908 444.9695 227.84908Q443.93826 227.84908 443.3914 227.34908Q442.8445 226.84908 442.8445 226.06783Q442.8445 225.6147 443.04764 225.2397Q443.25076 224.84908 443.5945 224.63033Q443.93826 224.39595 444.36014 224.28658Q444.657 224.19283 445.29764 224.1147Q446.56326 223.97408 447.17264 223.75533Q447.17264 223.53658 447.17264 223.4897Q447.17264 222.83345 446.87576 222.56783Q446.4695 222.22408 445.67264 222.22408Q444.93826 222.22408 444.5789 222.4897Q444.2195 222.7397 444.04764 223.39595L443.0164 223.25533Q443.157 222.59908 443.48514 222.19283Q443.81326 221.78658 444.42264 221.56783Q445.032 221.34908 445.8289 221.34908Q446.62576 221.34908 447.12576 221.53658Q447.62576 221.72408 447.86014 222.00533Q448.0945 222.28658 448.18826 222.72408Q448.23514 222.9897 448.23514 223.69283L448.23514 225.09908Q448.23514 226.56783 448.29764 226.95845Q448.37576 227.34908 448.5789 227.70845L447.4695 227.70845Q447.31326 227.38033 447.2664 226.94283ZM447.17264 224.58345Q446.5945 224.81783 445.4539 224.9897Q444.79764 225.08345 444.532 225.20845Q444.2664 225.31783 444.11014 225.53658Q443.9695 225.75533 443.9695 226.03658Q443.9695 226.45845 444.282 226.7397Q444.61014 227.02095 445.2195 227.02095Q445.8289 227.02095 446.29764 226.75533Q446.782 226.4897 447.00076 226.02095Q447.17264 225.66158 447.17264 224.97408L447.17264 224.58345ZM450.2039 227.70845L450.2039 221.4897L451.1414 221.4897L451.1414 222.3647Q451.8289 221.34908 453.12576 221.34908Q453.68826 221.34908 454.157 221.5522Q454.6414 221.75533 454.87576 222.08345Q455.11014 222.41158 455.2039 222.84908Q455.25076 223.14595 455.25076 223.88033L455.25076 227.70845L454.2039 227.70845L454.2039 223.9272Q454.2039 223.27095 454.0789 222.95845Q453.9539 222.64595 453.6414 222.45845Q453.3289 222.25533 452.907 222.25533Q452.23514 222.25533 451.73514 222.69283Q451.25076 223.1147 451.25076 224.3022L451.25076 227.70845L450.2039 227.70845ZM461.4539 225.70845L462.54764 225.83345Q462.29764 226.78658 461.5945 227.31783Q460.8914 227.84908 459.81326 227.84908Q458.4539 227.84908 457.6414 227.00533Q456.8445 226.16158 456.8445 224.64595Q456.8445 223.08345 457.657 222.22408Q458.4695 221.34908 459.75076 221.34908Q461.00076 221.34908 461.782 222.19283Q462.5789 223.03658 462.5789 224.58345Q462.5789 224.6772 462.5789 224.8647L457.93826 224.8647Q458.00076 225.89595 458.5164 226.44283Q459.032 226.97408 459.81326 226.97408Q460.3914 226.97408 460.79764 226.6772Q461.2195 226.3647 461.4539 225.70845ZM458.00076 224.00533L461.4695 224.00533Q461.407 223.20845 461.0789 222.81783Q460.56326 222.20845 459.7664 222.20845Q459.032 222.20845 458.532 222.69283Q458.04764 223.1772 458.00076 224.00533ZM464.2039 220.33345L464.2039 219.1147L465.2664 219.1147L465.2664 220.33345L464.2039 220.33345ZM464.2039 227.70845L464.2039 221.4897L465.2664 221.4897L465.2664 227.70845L464.2039 227.70845ZM467.18826 227.70845L467.18826 221.4897L468.1414 221.4897L468.1414 222.4272Q468.50076 221.77095 468.79764 221.56783Q469.11014 221.34908 469.48514 221.34908Q470.0164 221.34908 470.56326 221.6772L470.2039 222.66158Q469.81326 222.4272 469.43826 222.4272Q469.0789 222.4272 468.79764 222.64595Q468.532 222.84908 468.42264 223.22408Q468.23514 223.78658 468.23514 224.44283L468.23514 227.70845L467.18826 227.70845ZM470.81326 224.59908Q470.81326 222.8647 471.7664 222.03658Q472.56326 221.34908 473.7195 221.34908Q475.00076 221.34908 475.81326 222.19283Q476.6414 223.02095 476.6414 224.50533Q476.6414 225.70845 476.282 226.39595Q475.92264 227.08345 475.2195 227.47408Q474.532 227.84908 473.7195 227.84908Q472.42264 227.84908 471.61014 227.02095Q470.81326 226.1772 470.81326 224.59908ZM471.8914 224.59908Q471.8914 225.78658 472.407 226.38033Q472.93826 226.97408 473.7195 226.97408Q474.5164 226.97408 475.032 226.38033Q475.54764 225.78658 475.54764 224.56783Q475.54764 223.41158 475.0164 222.81783Q474.50076 222.22408 473.7195 222.22408Q472.93826 222.22408 472.407 222.81783Q471.8914 223.39595 471.8914 224.59908Z" fill-rule="nonzero"/><path fill="#555555" d="M400.2195 244.2397Q399.3445 243.13033 398.73514 241.66158Q398.1414 240.1772 398.1414 238.59908Q398.1414 237.20845 398.5789 235.9272Q399.11014 234.44283 400.2195 232.97408L400.9695 232.97408Q400.2664 234.19283 400.032 234.70845Q399.67264 235.52095 399.4695 236.39595Q399.2195 237.4897 399.2195 238.59908Q399.2195 241.4272 400.9695 244.2397L400.2195 244.2397ZM402.3445 241.70845L402.3445 233.1147L406.157 233.1147Q407.31326 233.1147 407.907 233.34908Q408.50076 233.58345 408.86014 234.1772Q409.2195 234.75533 409.2195 235.45845Q409.2195 236.38033 408.62576 237.00533Q408.032 237.63033 406.79764 237.8022Q407.25076 238.02095 407.48514 238.22408Q407.98514 238.6772 408.42264 239.3647L409.92264 241.70845L408.48514 241.70845L407.36014 239.9272Q406.86014 239.14595 406.532 238.7397Q406.2195 238.33345 405.9539 238.1772Q405.7039 238.00533 405.43826 237.9272Q405.25076 237.89595 404.81326 237.89595L403.48514 237.89595L403.48514 241.70845L402.3445 241.70845ZM403.48514 236.91158L405.93826 236.91158Q406.7039 236.91158 407.1414 236.75533Q407.5945 236.58345 407.81326 236.2397Q408.04764 235.88033 408.04764 235.45845Q408.04764 234.84908 407.5945 234.45845Q407.157 234.06783 406.2039 234.06783L403.48514 234.06783L403.48514 236.91158ZM410.75076 239.27095L411.782 239.13033Q411.81326 240.1147 412.1414 240.47408Q412.4695 240.83345 413.06326 240.83345Q413.48514 240.83345 413.79764 240.64595Q414.11014 240.44283 414.2195 240.1147Q414.3445 239.77095 414.3445 239.03658L414.3445 233.1147L415.4695 233.1147L415.4695 238.97408Q415.4695 240.0522 415.2039 240.64595Q414.9539 241.2397 414.3914 241.5522Q413.8289 241.84908 413.06326 241.84908Q411.93826 241.84908 411.3289 241.20845Q410.73514 240.5522 410.75076 239.27095ZM417.8914 244.2397L417.1414 244.2397Q418.8914 241.4272 418.8914 238.59908Q418.8914 237.50533 418.6414 236.41158Q418.43826 235.53658 418.0789 234.72408Q417.8445 234.20845 417.1414 232.97408L417.8914 232.97408Q418.98514 234.44283 419.5164 235.9272Q419.9695 237.20845 419.9695 238.59908Q419.9695 240.1772 419.36014 241.66158Q418.75076 243.13033 417.8914 244.2397Z" fill-rule="nonzero"/><path fill="#e28302" d="M389.407 261.70844C389.407 265.02216 386.72073 267.70844 383.407 267.70844C380.09332 267.70844 377.407 265.02216 377.407 261.70844C377.407 258.39474 380.09332 255.70845 383.407 255.70845C386.72073 255.70845 389.407 258.39474 389.407 261.70844Z" fill-rule="nonzero"/><path fill="#555555" d="M397.9539 262.9428L399.0164 262.84906Q399.0945 263.5053 399.37576 263.91156Q399.657 264.3178 400.23514 264.58344Q400.8289 264.83344 401.56326 264.83344Q402.2039 264.83344 402.7039 264.64594Q403.2039 264.4428 403.43826 264.1147Q403.68826 263.77094 403.68826 263.3803Q403.68826 262.97406 403.4539 262.6772Q403.2195 262.3647 402.68826 262.16156Q402.3289 262.02094 401.1414 261.7397Q399.9695 261.45844 399.50076 261.20844Q398.87576 260.8803 398.5789 260.41156Q398.282 259.9272 398.282 259.33344Q398.282 258.6928 398.6414 258.1303Q399.0164 257.5522 399.7195 257.27094Q400.43826 256.97406 401.29764 256.97406Q402.25076 256.97406 402.98514 257.28656Q403.7195 257.58344 404.11014 258.1928Q404.50076 258.78656 404.532 259.53656L403.43826 259.6147Q403.3445 258.8022 402.8289 258.39594Q402.3289 257.97406 401.3445 257.97406Q400.31326 257.97406 399.8445 258.34906Q399.37576 258.72406 399.37576 259.2553Q399.37576 259.72406 399.7039 260.02094Q400.032 260.3178 401.407 260.6303Q402.79764 260.9428 403.31326 261.1772Q404.06326 261.53656 404.42264 262.0678Q404.782 262.58344 404.782 263.28656Q404.782 263.97406 404.3914 264.58344Q404.00076 265.1772 403.2664 265.52094Q402.532 265.84906 401.61014 265.84906Q400.43826 265.84906 399.6414 265.52094Q398.86014 265.1772 398.407 264.4897Q397.9695 263.8022 397.9539 262.9428ZM410.2664 264.9428Q409.67264 265.4428 409.12576 265.64594Q408.5945 265.84906 407.9695 265.84906Q406.93826 265.84906 406.3914 265.34906Q405.8445 264.84906 405.8445 264.0678Q405.8445 263.6147 406.04764 263.2397Q406.25076 262.84906 406.5945 262.6303Q406.93826 262.39594 407.36014 262.28656Q407.657 262.1928 408.29764 262.1147Q409.56326 261.97406 410.17264 261.7553Q410.17264 261.53656 410.17264 261.4897Q410.17264 260.83344 409.87576 260.5678Q409.4695 260.22406 408.67264 260.22406Q407.93826 260.22406 407.5789 260.4897Q407.2195 260.7397 407.04764 261.39594L406.0164 261.2553Q406.157 260.59906 406.48514 260.1928Q406.81326 259.78656 407.42264 259.5678Q408.032 259.34906 408.8289 259.34906Q409.62576 259.34906 410.12576 259.53656Q410.62576 259.72406 410.86014 260.0053Q411.0945 260.28656 411.18826 260.72406Q411.23514 260.9897 411.23514 261.6928L411.23514 263.09906Q411.23514 264.5678 411.29764 264.95844Q411.37576 265.34906 411.5789 265.70844L410.4695 265.70844Q410.31326 265.3803 410.2664 264.9428ZM410.17264 262.58344Q409.5945 262.8178 408.4539 262.9897Q407.79764 263.08344 407.532 263.20844Q407.2664 263.3178 407.11014 263.53656Q406.9695 263.7553 406.9695 264.03656Q406.9695 264.45844 407.282 264.7397Q407.61014 265.02094 408.2195 265.02094Q408.8289 265.02094 409.29764 264.7553Q409.782 264.4897 410.00076 264.02094Q410.17264 263.66156 410.17264 262.97406L410.17264 262.58344ZM406.75076 258.5678Q406.73514 257.95844 407.0789 257.59906Q407.407 257.22406 407.93826 257.22406Q408.29764 257.22406 408.92264 257.5522Q409.2664 257.72406 409.4695 257.72406Q409.657 257.72406 409.75076 257.6303Q409.86014 257.52094 409.907 257.20844L410.67264 257.20844Q410.6414 257.8803 410.3289 258.22406Q410.0164 258.5522 409.5164 258.5522Q409.1414 258.5522 408.54764 258.22406Q408.157 258.0053 407.9695 258.0053Q407.7664 258.0053 407.6414 258.14594Q407.5164 258.28656 407.532 258.5678L406.75076 258.5678ZM412.81326 262.59906Q412.81326 260.8647 413.7664 260.03656Q414.56326 259.34906 415.7195 259.34906Q417.00076 259.34906 417.81326 260.1928Q418.6414 261.02094 418.6414 262.5053Q418.6414 263.70844 418.282 264.39594Q417.92264 265.08344 417.2195 265.47406Q416.532 265.84906 415.7195 265.84906Q414.42264 265.84906 413.61014 265.02094Q412.81326 264.1772 412.81326 262.59906ZM413.8914 262.59906Q413.8914 263.78656 414.407 264.3803Q414.93826 264.97406 415.7195 264.97406Q416.5164 264.97406 417.032 264.3803Q417.54764 263.78656 417.54764 262.5678Q417.54764 261.41156 417.0164 260.8178Q416.50076 260.22406 415.7195 260.22406Q414.93826 260.22406 414.407 260.8178Q413.8914 261.39594 413.8914 262.59906ZM423.3289 265.70844L423.3289 257.1147L426.5789 257.1147Q427.42264 257.1147 427.87576 257.1928Q428.5164 257.3022 428.93826 257.59906Q429.37576 257.89594 429.62576 258.4272Q429.8914 258.95844 429.8914 259.59906Q429.8914 260.6928 429.18826 261.45844Q428.50076 262.20844 426.67264 262.20844L424.4695 262.20844L424.4695 265.70844L423.3289 265.70844ZM424.4695 261.20844L426.68826 261.20844Q427.79764 261.20844 428.25076 260.8022Q428.7195 260.3803 428.7195 259.6303Q428.7195 259.09906 428.43826 258.72406Q428.17264 258.33344 427.73514 258.20844Q427.43826 258.1303 426.67264 258.1303L424.4695 258.1303L424.4695 261.20844ZM435.2664 264.9428Q434.67264 265.4428 434.12576 265.64594Q433.5945 265.84906 432.9695 265.84906Q431.93826 265.84906 431.3914 265.34906Q430.8445 264.84906 430.8445 264.0678Q430.8445 263.6147 431.04764 263.2397Q431.25076 262.84906 431.5945 262.6303Q431.93826 262.39594 432.36014 262.28656Q432.657 262.1928 433.29764 262.1147Q434.56326 261.97406 435.17264 261.7553Q435.17264 261.53656 435.17264 261.4897Q435.17264 260.83344 434.87576 260.5678Q434.4695 260.22406 433.67264 260.22406Q432.93826 260.22406 432.5789 260.4897Q432.2195 260.7397 432.04764 261.39594L431.0164 261.2553Q431.157 260.59906 431.48514 260.1928Q431.81326 259.78656 432.42264 259.5678Q433.032 259.34906 433.8289 259.34906Q434.62576 259.34906 435.12576 259.53656Q435.62576 259.72406 435.86014 260.0053Q436.0945 260.28656 436.18826 260.72406Q436.23514 260.9897 436.23514 261.6928L436.23514 263.09906Q436.23514 264.5678 436.29764 264.95844Q436.37576 265.34906 436.5789 265.70844L435.4695 265.70844Q435.31326 265.3803 435.2664 264.9428ZM435.17264 262.58344Q434.5945 262.8178 433.4539 262.9897Q432.79764 263.08344 432.532 263.20844Q432.2664 263.3178 432.11014 263.53656Q431.9695 263.7553 431.9695 264.03656Q431.9695 264.45844 432.282 264.7397Q432.61014 265.02094 433.2195 265.02094Q433.8289 265.02094 434.29764 264.7553Q434.782 264.4897 435.00076 264.02094Q435.17264 263.66156 435.17264 262.97406L435.17264 262.58344ZM442.282 265.70844L442.282 264.78656Q441.54764 265.84906 440.29764 265.84906Q439.75076 265.84906 439.2664 265.64594Q438.79764 265.4272 438.56326 265.1147Q438.3289 264.78656 438.23514 264.3178Q438.17264 264.02094 438.17264 263.33344L438.17264 259.4897L439.23514 259.4897L439.23514 262.9428Q439.23514 263.7553 439.29764 264.0522Q439.3914 264.45844 439.7039 264.70844Q440.032 264.9428 440.5164 264.9428Q440.98514 264.9428 441.3914 264.70844Q441.81326 264.45844 441.98514 264.03656Q442.17264 263.6147 442.17264 262.8178L442.17264 259.4897L443.2195 259.4897L443.2195 265.70844L442.282 265.70844ZM445.17264 265.70844L445.17264 257.1147L446.23514 257.1147L446.23514 265.70844L445.17264 265.70844ZM447.81326 262.59906Q447.81326 260.8647 448.7664 260.03656Q449.56326 259.34906 450.7195 259.34906Q452.00076 259.34906 452.81326 260.1928Q453.6414 261.02094 453.6414 262.5053Q453.6414 263.70844 453.282 264.39594Q452.92264 265.08344 452.2195 265.47406Q451.532 265.84906 450.7195 265.84906Q449.42264 265.84906 448.61014 265.02094Q447.81326 264.1772 447.81326 262.59906ZM448.8914 262.59906Q448.8914 263.78656 449.407 264.3803Q449.93826 264.97406 450.7195 264.97406Q451.5164 264.97406 452.032 264.3803Q452.54764 263.78656 452.54764 262.5678Q452.54764 261.41156 452.0164 260.8178Q451.50076 260.22406 450.7195 260.22406Q449.93826 260.22406 449.407 260.8178Q448.8914 261.39594 448.8914 262.59906ZM460.2195 268.2397Q459.3445 267.1303 458.73514 265.66156Q458.1414 264.1772 458.1414 262.59906Q458.1414 261.20844 458.5789 259.9272Q459.11014 258.4428 460.2195 256.97406L460.9695 256.97406Q460.2664 258.1928 460.032 258.70844Q459.67264 259.52094 459.4695 260.39594Q459.2195 261.4897 459.2195 262.59906Q459.2195 265.4272 460.9695 268.2397L460.2195 268.2397ZM461.9539 262.9428L463.0164 262.84906Q463.0945 263.5053 463.37576 263.91156Q463.657 264.3178 464.23514 264.58344Q464.8289 264.83344 465.56326 264.83344Q466.2039 264.83344 466.7039 264.64594Q467.2039 264.4428 467.43826 264.1147Q467.68826 263.77094 467.68826 263.3803Q467.68826 262.97406 467.4539 262.6772Q467.2195 262.3647 466.68826 262.16156Q466.3289 262.02094 465.1414 261.7397Q463.9695 261.45844 463.50076 261.20844Q462.87576 260.8803 462.5789 260.41156Q462.282 259.9272 462.282 259.33344Q462.282 258.6928 462.6414 258.1303Q463.0164 257.5522 463.7195 257.27094Q464.43826 256.97406 465.29764 256.97406Q466.25076 256.97406 466.98514 257.28656Q467.7195 257.58344 468.11014 258.1928Q468.50076 258.78656 468.532 259.53656L467.43826 259.6147Q467.3445 258.8022 466.8289 258.39594Q466.3289 257.97406 465.3445 257.97406Q464.31326 257.97406 463.8445 258.34906Q463.37576 258.72406 463.37576 259.2553Q463.37576 259.72406 463.7039 260.02094Q464.032 260.3178 465.407 260.6303Q466.79764 260.9428 467.31326 261.1772Q468.06326 261.53656 468.42264 262.0678Q468.782 262.58344 468.782 263.28656Q468.782 263.97406 468.3914 264.58344Q468.00076 265.1772 467.2664 265.52094Q466.532 265.84906 465.61014 265.84906Q464.43826 265.84906 463.6414 265.52094Q462.86014 265.1772 462.407 264.4897Q461.9695 263.8022 461.9539 262.9428ZM470.3289 265.70844L470.3289 257.1147L473.5789 257.1147Q474.42264 257.1147 474.87576 257.1928Q475.5164 257.3022 475.93826 257.59906Q476.37576 257.89594 476.62576 258.4272Q476.8914 258.95844 476.8914 259.59906Q476.8914 260.6928 476.18826 261.45844Q475.50076 262.20844 473.67264 262.20844L471.4695 262.20844L471.4695 265.70844L470.3289 265.70844ZM471.4695 261.20844L473.68826 261.20844Q474.79764 261.20844 475.25076 260.8022Q475.7195 260.3803 475.7195 259.6303Q475.7195 259.09906 475.43826 258.72406Q475.17264 258.33344 474.73514 258.20844Q474.43826 258.1303 473.67264 258.1303L471.4695 258.1303L471.4695 261.20844ZM478.8914 268.2397L478.1414 268.2397Q479.8914 265.4272 479.8914 262.59906Q479.8914 261.5053 479.6414 260.41156Q479.43826 259.53656 479.0789 258.72406Q478.8445 258.20844 478.1414 256.97406L478.8914 256.97406Q479.98514 258.4428 480.5164 259.9272Q480.9695 261.20844 480.9695 262.59906Q480.9695 264.1772 480.36014 265.66156Q479.75076 267.1303 478.8914 268.2397Z" fill-rule="nonzero"/><path fill="#555555" d="M68.44909 23.446877L72.683464 23.446877Q74.10534 23.446877 74.85534 23.665627Q75.870964 23.962502 76.589714 24.728127Q77.308464 25.478127 77.683464 26.571877Q78.058464 27.665627 78.058464 29.275002Q78.058464 30.696877 77.69909 31.712502Q77.277214 32.9625 76.48034 33.74375Q75.870964 34.321877 74.85534 34.65Q74.089714 34.9 72.808464 34.9L68.44909 34.9L68.44909 23.446877ZM70.76159 25.384377L70.76159 32.9625L72.495964 32.9625Q73.464714 32.9625 73.88659 32.853127Q74.44909 32.7125 74.82409 32.384377Q75.19909 32.040627 75.433464 31.275002Q75.66784 30.509377 75.66784 29.181252Q75.66784 27.853127 75.433464 27.150002Q75.19909 26.431252 74.777214 26.040627Q74.35534 25.634377 73.69909 25.493752Q73.214714 25.384377 71.808464 25.384377L70.76159 25.384377ZM80.44909 25.478127L80.44909 23.446877L82.63659 23.446877L82.63659 25.478127L80.44909 25.478127ZM80.44909 34.9L80.44909 26.603127L82.63659 26.603127L82.63659 34.9L80.44909 34.9ZM83.66784 32.525L85.870964 32.196877Q86.01159 32.8375 86.433464 33.165627Q86.870964 33.49375 87.652214 33.49375Q88.495964 33.49375 88.933464 33.18125Q89.214714 32.9625 89.214714 32.603127Q89.214714 32.353127 89.058464 32.18125Q88.902214 32.025 88.32409 31.900002Q85.66784 31.306252 84.964714 30.821877Q83.98034 30.150002 83.98034 28.962502Q83.98034 27.884377 84.82409 27.150002Q85.683464 26.415627 87.464714 26.415627Q89.16784 26.415627 89.995964 26.978127Q90.82409 27.525002 91.13659 28.603127L89.07409 28.993752Q88.933464 28.509377 88.558464 28.259377Q88.19909 27.993752 87.51159 27.993752Q86.63659 27.993752 86.26159 28.228127Q86.01159 28.400002 86.01159 28.681252Q86.01159 28.915627 86.23034 29.071877Q86.527214 29.290627 88.277214 29.696877Q90.04284 30.087502 90.73034 30.665627Q91.41784 31.259377 91.41784 32.30625Q91.41784 33.446877 90.464714 34.275Q89.51159 35.0875 87.652214 35.0875Q85.94909 35.0875 84.964714 34.4Q83.98034 33.7125 83.66784 32.525ZM97.245964 26.603127L97.245964 28.353127L95.745964 28.353127L95.745964 31.696877Q95.745964 32.7125 95.79284 32.884377Q95.839714 33.040627 95.98034 33.15Q96.13659 33.259377 96.35534 33.259377Q96.66784 33.259377 97.245964 33.05625L97.433464 34.759377Q96.66784 35.0875 95.69909 35.0875Q95.10534 35.0875 94.620964 34.884377Q94.152214 34.68125 93.91784 34.36875Q93.69909 34.05625 93.620964 33.509377Q93.54284 33.134377 93.54284 31.962502L93.54284 28.353127L92.54284 28.353127L92.54284 26.603127L93.54284 26.603127L93.54284 24.946877L95.745964 23.665627L95.745964 26.603127L97.245964 26.603127ZM100.54284 34.9L98.35534 34.9L98.35534 26.603127L100.38659 26.603127L100.38659 27.775002Q100.91784 26.946877 101.32409 26.681252Q101.745964 26.415627 102.277214 26.415627Q103.027214 26.415627 103.73034 26.821877L103.04284 28.743752Q102.495964 28.384377 102.01159 28.384377Q101.558464 28.384377 101.23034 28.634377Q100.91784 28.884377 100.73034 29.556252Q100.54284 30.212502 100.54284 32.3375L100.54284 34.9ZM104.44909 25.478127L104.44909 23.446877L106.63659 23.446877L106.63659 25.478127L104.44909 25.478127ZM104.44909 34.9L104.44909 26.603127L106.63659 26.603127L106.63659 34.9L104.44909 34.9ZM108.35534 34.9L108.35534 23.446877L110.54284 23.446877L110.54284 27.571877Q111.558464 26.415627 112.94909 26.415627Q114.464714 26.415627 115.44909 27.509377Q116.44909 28.603127 116.44909 30.665627Q116.44909 32.790627 115.433464 33.946877Q114.433464 35.0875 112.98034 35.0875Q112.277214 35.0875 111.57409 34.728127Q110.88659 34.36875 110.38659 33.68125L110.38659 34.9L108.35534 34.9ZM110.527214 30.571877Q110.527214 31.853127 110.933464 32.478127Q111.51159 33.353127 112.44909 33.353127Q113.183464 33.353127 113.683464 32.728127Q114.19909 32.103127 114.19909 30.775002Q114.19909 29.353127 113.683464 28.728127Q113.16784 28.087502 112.370964 28.087502Q111.57409 28.087502 111.04284 28.712502Q110.527214 29.321877 110.527214 30.571877ZM123.902214 34.9L123.902214 33.65Q123.44909 34.321877 122.714714 34.7125Q121.98034 35.0875 121.152214 35.0875Q120.32409 35.0875 119.652214 34.728127Q118.995964 34.353127 118.69909 33.696877Q118.402214 33.025 118.402214 31.853127L118.402214 26.603127L120.589714 26.603127L120.589714 30.415627Q120.589714 32.165627 120.714714 32.55625Q120.839714 32.946877 121.152214 33.18125Q121.48034 33.415627 121.964714 33.415627Q122.527214 33.415627 122.964714 33.103127Q123.41784 32.790627 123.57409 32.3375Q123.745964 31.884377 123.745964 30.103127L123.745964 26.603127L125.94909 26.603127L125.94909 34.9L123.902214 34.9ZM128.4491 25.478127L128.4491 23.446877L130.6366 23.446877L130.6366 25.478127L128.4491 25.478127ZM128.4491 34.9L128.4491 26.603127L130.6366 26.603127L130.6366 34.9L128.4491 34.9ZM139.68347 29.056252L137.5116 29.446877Q137.40222 28.790627 137.0116 28.462502Q136.6366 28.134377 136.0116 28.134377Q135.1991 28.134377 134.6991 28.712502Q134.21472 29.275002 134.21472 30.603127Q134.21472 32.071877 134.71472 32.68125Q135.21472 33.290627 136.04285 33.290627Q136.66785 33.290627 137.05847 32.946877Q137.46472 32.5875 137.6366 31.712502L139.79285 32.0875Q139.4491 33.571877 138.49597 34.3375Q137.54285 35.0875 135.9491 35.0875Q134.12097 35.0875 133.04285 33.946877Q131.96472 32.790627 131.96472 30.759377Q131.96472 28.696877 133.04285 27.556252Q134.1366 26.415627 135.98035 26.415627Q137.49597 26.415627 138.3866 27.071877Q139.29285 27.712502 139.68347 29.056252ZM133.7616 38.05625L133.7616 37.134377Q134.5741 37.2125 135.24597 37.2125Q135.93347 37.2125 136.27722 36.9625Q136.52722 36.775 136.52722 36.478127Q136.52722 36.2125 136.27722 36.009377Q136.04285 35.821877 135.54285 35.821877Q135.04285 35.821877 134.5116 35.978127L134.71472 35.2125Q135.3241 34.99375 136.02722 34.99375Q137.0116 34.99375 137.5116 35.415627Q138.02722 35.853127 138.02722 36.478127Q138.02722 37.165627 137.46472 37.5875Q136.6991 38.18125 135.29285 38.18125Q134.27722 38.18125 133.7616 38.05625ZM143.08972 29.134377L141.08972 28.775002Q141.43347 27.571877 142.24597 26.993752Q143.0741 26.415627 144.68347 26.415627Q146.15222 26.415627 146.87097 26.759377Q147.58972 27.103127 147.8866 27.650002Q148.18347 28.181252 148.18347 29.603127L148.15222 32.165627Q148.15222 33.259377 148.2616 33.790627Q148.37097 34.30625 148.65222 34.9L146.48035 34.9Q146.40222 34.68125 146.27722 34.24375Q146.21472 34.05625 146.1991 33.99375Q145.6366 34.540627 144.99597 34.821877Q144.35535 35.0875 143.62097 35.0875Q142.33972 35.0875 141.60535 34.4Q140.87097 33.696877 140.87097 32.634377Q140.87097 31.931252 141.1991 31.384377Q141.54285 30.821877 142.1366 30.540627Q142.74597 30.243752 143.8866 30.025002Q145.43347 29.728127 146.02722 29.478127L146.02722 29.259377Q146.02722 28.634377 145.71472 28.368752Q145.40222 28.087502 144.52722 28.087502Q143.9491 28.087502 143.62097 28.321877Q143.29285 28.556252 143.08972 29.134377ZM146.02722 30.915627Q145.60535 31.056252 144.68347 31.259377Q143.77722 31.446877 143.49597 31.634377Q143.05847 31.931252 143.05847 32.4Q143.05847 32.86875 143.40222 33.2125Q143.74597 33.540627 144.27722 33.540627Q144.87097 33.540627 145.41785 33.15Q145.80847 32.853127 145.93347 32.415627Q146.02722 32.134377 146.02722 31.353127L146.02722 30.915627ZM143.0741 25.478127L142.0741 25.478127Q142.05847 25.306252 142.05847 25.196877Q142.05847 24.384377 142.46472 23.946877Q142.87097 23.493752 143.49597 23.493752Q143.7616 23.493752 143.99597 23.556252Q144.23035 23.618752 144.85535 23.900002Q145.48035 24.165627 145.8241 24.165627Q146.0741 24.165627 146.24597 24.009377Q146.41785 23.853127 146.46472 23.493752L147.48035 23.493752Q147.46472 24.540627 147.0741 24.993752Q146.6991 25.446877 146.08972 25.446877Q145.8241 25.446877 145.55847 25.400002Q145.3866 25.353127 144.66785 25.087502Q143.9491 24.806252 143.62097 24.806252Q143.37097 24.806252 143.23035 24.962502Q143.08972 25.103127 143.0741 25.478127ZM149.93347 30.634377Q149.93347 29.540627 150.46472 28.525002Q151.0116 27.493752 151.99597 26.962502Q152.99597 26.415627 154.21472 26.415627Q156.08972 26.415627 157.29285 27.634377Q158.49597 28.853127 158.49597 30.728127Q158.49597 32.603127 157.27722 33.853127Q156.0741 35.0875 154.23035 35.0875Q153.08972 35.0875 152.04285 34.571877Q151.0116 34.05625 150.46472 33.05625Q149.93347 32.05625 149.93347 30.634377ZM152.18347 30.743752Q152.18347 31.978127 152.7616 32.634377Q153.35535 33.290627 154.21472 33.290627Q155.0741 33.290627 155.65222 32.634377Q156.24597 31.978127 156.24597 30.728127Q156.24597 29.509377 155.65222 28.853127Q155.0741 28.196877 154.21472 28.196877Q153.35535 28.196877 152.7616 28.853127Q152.18347 29.509377 152.18347 30.743752ZM172.05847 34.9L170.0116 34.9L170.0116 33.68125Q169.5116 34.384377 168.80847 34.74375Q168.12097 35.0875 167.41785 35.0875Q165.99597 35.0875 164.96472 33.93125Q163.9491 32.775 163.9491 30.712502Q163.9491 28.603127 164.93347 27.509377Q165.93347 26.415627 167.4491 26.415627Q168.83972 26.415627 169.85535 27.571877L169.85535 23.446877L172.05847 23.446877L172.05847 34.9ZM166.1991 30.571877Q166.1991 31.900002 166.55847 32.49375Q167.08972 33.353127 168.04285 33.353127Q168.80847 33.353127 169.33972 32.7125Q169.87097 32.05625 169.87097 30.775002Q169.87097 29.353127 169.35535 28.728127Q168.83972 28.087502 168.02722 28.087502Q167.24597 28.087502 166.71472 28.712502Q166.1991 29.337502 166.1991 30.571877ZM179.24597 32.259377L181.43347 32.61875Q181.0116 33.821877 180.10535 34.4625Q179.1991 35.0875 177.8241 35.0875Q175.66785 35.0875 174.62097 33.665627Q173.80847 32.540627 173.80847 30.806252Q173.80847 28.743752 174.8866 27.587502Q175.96472 26.415627 177.60535 26.415627Q179.46472 26.415627 180.52722 27.634377Q181.60535 28.853127 181.55847 31.384377L176.05847 31.384377Q176.0741 32.353127 176.5741 32.9Q177.08972 33.446877 177.85535 33.446877Q178.37097 33.446877 178.71472 33.165627Q179.0741 32.884377 179.24597 32.259377ZM179.37097 30.040627Q179.35535 29.087502 178.8866 28.587502Q178.41785 28.087502 177.74597 28.087502Q177.02722 28.087502 176.55847 28.618752Q176.08972 29.134377 176.08972 30.040627L179.37097 30.040627ZM187.4491 25.478127L187.4491 23.446877L189.6366 23.446877L189.6366 25.478127L187.4491 25.478127ZM187.4491 34.9L187.4491 26.603127L189.6366 26.603127L189.6366 34.9L187.4491 34.9ZM191.27722 26.603127L193.30847 26.603127L193.30847 27.728127Q194.3866 26.415627 195.8866 26.415627Q196.68347 26.415627 197.2616 26.743752Q197.85535 27.071877 198.23035 27.728127Q198.77722 27.071877 199.40222 26.743752Q200.04285 26.415627 200.7616 26.415627Q201.68347 26.415627 202.30847 26.790627Q202.9491 27.150002 203.2616 27.868752Q203.48035 28.400002 203.48035 29.587502L203.48035 34.9L201.29285 34.9L201.29285 30.150002Q201.29285 28.915627 201.05847 28.556252Q200.7616 28.087502 200.12097 28.087502Q199.66785 28.087502 199.2616 28.368752Q198.85535 28.650002 198.66785 29.196877Q198.49597 29.743752 198.49597 30.915627L198.49597 34.9L196.29285 34.9L196.29285 30.353127Q196.29285 29.134377 196.16785 28.790627Q196.05847 28.431252 195.80847 28.259377Q195.5741 28.087502 195.15222 28.087502Q194.6366 28.087502 194.23035 28.368752Q193.8241 28.634377 193.65222 29.150002Q193.48035 29.665627 193.48035 30.868752L193.48035 34.9L191.27722 34.9L191.27722 26.603127ZM205.4491 25.478127L205.4491 23.446877L207.6366 23.446877L207.6366 25.478127L205.4491 25.478127ZM205.4491 34.9L205.4491 26.603127L207.6366 26.603127L207.6366 34.9L205.4491 34.9ZM209.24597 35.446877L211.74597 35.759377Q211.80847 36.196877 212.04285 36.353127Q212.35535 36.5875 213.02722 36.5875Q213.8866 36.5875 214.30847 36.3375Q214.60535 36.165627 214.74597 35.775Q214.85535 35.509377 214.85535 34.759377L214.85535 33.55625Q213.87097 34.9 212.37097 34.9Q210.6991 34.9 209.71472 33.478127Q208.9491 32.36875 208.9491 30.696877Q208.9491 28.618752 209.9491 27.525002Q210.96472 26.415627 212.4491 26.415627Q213.99597 26.415627 214.99597 27.759377L214.99597 26.603127L217.04285 26.603127L217.04285 34.040627Q217.04285 35.525 216.79285 36.24375Q216.55847 36.978127 216.12097 37.384377Q215.68347 37.80625 214.9491 38.040627Q214.23035 38.275 213.10535 38.275Q210.99597 38.275 210.10535 37.540627Q209.23035 36.821877 209.23035 35.7125Q209.23035 35.603127 209.24597 35.446877ZM211.1991 30.571877Q211.1991 31.900002 211.71472 32.509377Q212.23035 33.11875 212.98035 33.11875Q213.77722 33.11875 214.3241 32.49375Q214.8866 31.868752 214.8866 30.634377Q214.8866 29.337502 214.35535 28.712502Q213.8241 28.087502 213.0116 28.087502Q212.23035 28.087502 211.71472 28.712502Q211.1991 29.321877 211.1991 30.571877ZM221.54285 34.9L219.35535 34.9L219.35535 26.603127L221.3866 26.603127L221.3866 27.775002Q221.91785 26.946877 222.3241 26.681252Q222.74597 26.415627 223.27722 26.415627Q224.02722 26.415627 224.73035 26.821877L224.04285 28.743752Q223.49597 28.384377 223.0116 28.384377Q222.55847 28.384377 222.23035 28.634377Q221.91785 28.884377 221.73035 29.556252Q221.54285 30.212502 221.54285 32.3375L221.54285 34.9ZM227.08972 29.134377L225.08972 28.775002Q225.43347 27.571877 226.24597 26.993752Q227.0741 26.415627 228.68347 26.415627Q230.15222 26.415627 230.87097 26.759377Q231.58972 27.103127 231.8866 27.650002Q232.18347 28.181252 232.18347 29.603127L232.15222 32.165627Q232.15222 33.259377 232.2616 33.790627Q232.37097 34.30625 232.65222 34.9L230.48035 34.9Q230.40222 34.68125 230.27722 34.24375Q230.21472 34.05625 230.1991 33.99375Q229.6366 34.540627 228.99597 34.821877Q228.35535 35.0875 227.62097 35.0875Q226.33972 35.0875 225.60535 34.4Q224.87097 33.696877 224.87097 32.634377Q224.87097 31.931252 225.1991 31.384377Q225.54285 30.821877 226.1366 30.540627Q226.74597 30.243752 227.8866 30.025002Q229.43347 29.728127 230.02722 29.478127L230.02722 29.259377Q230.02722 28.634377 229.71472 28.368752Q229.40222 28.087502 228.52722 28.087502Q227.9491 28.087502 227.62097 28.321877Q227.29285 28.556252 227.08972 29.134377ZM230.02722 30.915627Q229.60535 31.056252 228.68347 31.259377Q227.77722 31.446877 227.49597 31.634377Q227.05847 31.931252 227.05847 32.4Q227.05847 32.86875 227.40222 33.2125Q227.74597 33.540627 228.27722 33.540627Q228.87097 33.540627 229.41785 33.15Q229.80847 32.853127 229.93347 32.415627Q230.02722 32.134377 230.02722 31.353127L230.02722 30.915627ZM241.99597 34.9L239.79285 34.9L239.79285 30.665627Q239.79285 29.321877 239.65222 28.931252Q239.5116 28.525002 239.1991 28.306252Q238.8866 28.087502 238.43347 28.087502Q237.87097 28.087502 237.41785 28.400002Q236.96472 28.712502 236.79285 29.228127Q236.62097 29.743752 236.62097 31.134377L236.62097 34.9L234.43347 34.9L234.43347 26.603127L236.46472 26.603127L236.46472 27.821877Q237.55847 26.415627 239.1991 26.415627Q239.93347 26.415627 240.52722 26.681252Q241.1366 26.931252 241.43347 27.337502Q241.74597 27.743752 241.87097 28.259377Q241.99597 28.775002 241.99597 29.743752L241.99597 34.9ZM248.24597 26.603127L248.24597 28.353127L246.74597 28.353127L246.74597 31.696877Q246.74597 32.7125 246.79285 32.884377Q246.83972 33.040627 246.98035 33.15Q247.1366 33.259377 247.35535 33.259377Q247.66785 33.259377 248.24597 33.05625L248.43347 34.759377Q247.66785 35.0875 246.6991 35.0875Q246.10535 35.0875 245.62097 34.884377Q245.15222 34.68125 244.91785 34.36875Q244.6991 34.05625 244.62097 33.509377Q244.54285 33.134377 244.54285 31.962502L244.54285 28.353127L243.54285 28.353127L243.54285 26.603127L244.54285 26.603127L244.54285 24.946877L246.74597 23.665627L246.74597 26.603127L248.24597 26.603127ZM254.24597 32.259377L256.43347 32.61875Q256.0116 33.821877 255.10535 34.4625Q254.1991 35.0875 252.8241 35.0875Q250.66785 35.0875 249.62097 33.665627Q248.80847 32.540627 248.80847 30.806252Q248.80847 28.743752 249.8866 27.587502Q250.96472 26.415627 252.60535 26.415627Q254.46472 26.415627 255.52722 27.634377Q256.60535 28.853127 256.55847 31.384377L251.05847 31.384377Q251.0741 32.353127 251.5741 32.9Q252.08972 33.446877 252.85535 33.446877Q253.37097 33.446877 253.71472 33.165627Q254.0741 32.884377 254.24597 32.259377ZM254.37097 30.040627Q254.35535 29.087502 253.8866 28.587502Q253.41785 28.087502 252.74597 28.087502Q252.02722 28.087502 251.55847 28.618752Q251.08972 29.134377 251.08972 30.040627L254.37097 30.040627ZM257.66785 32.525L259.87097 32.196877Q260.0116 32.8375 260.43347 33.165627Q260.87097 33.49375 261.65222 33.49375Q262.49597 33.49375 262.93347 33.18125Q263.21472 32.9625 263.21472 32.603127Q263.21472 32.353127 263.05847 32.18125Q262.90222 32.025 262.3241 31.900002Q259.66785 31.306252 258.96472 30.821877Q257.98035 30.150002 257.98035 28.962502Q257.98035 27.884377 258.8241 27.150002Q259.68347 26.415627 261.46472 26.415627Q263.16785 26.415627 263.99597 26.978127Q264.8241 27.525002 265.1366 28.603127L263.0741 28.993752Q262.93347 28.509377 262.55847 28.259377Q262.1991 27.993752 261.5116 27.993752Q260.6366 27.993752 260.2616 28.228127Q260.0116 28.400002 260.0116 28.681252Q260.0116 28.915627 260.23035 29.071877Q260.52722 29.290627 262.27722 29.696877Q264.04285 30.087502 264.73035 30.665627Q265.41785 31.259377 265.41785 32.30625Q265.41785 33.446877 264.46472 34.275Q263.5116 35.0875 261.65222 35.0875Q259.9491 35.0875 258.96472 34.4Q257.98035 33.7125 257.66785 32.525ZM278.99597 34.9L276.79285 34.9L276.79285 30.665627Q276.79285 29.321877 276.65222 28.931252Q276.5116 28.525002 276.1991 28.306252Q275.8866 28.087502 275.43347 28.087502Q274.87097 28.087502 274.41785 28.400002Q273.96472 28.712502 273.79285 29.228127Q273.62097 29.743752 273.62097 31.134377L273.62097 34.9L271.43347 34.9L271.43347 26.603127L273.46472 26.603127L273.46472 27.821877Q274.55847 26.415627 276.1991 26.415627Q276.93347 26.415627 277.52722 26.681252Q278.1366 26.931252 278.43347 27.337502Q278.74597 27.743752 278.87097 28.259377Q278.99597 28.775002 278.99597 29.743752L278.99597 34.9ZM280.93347 30.634377Q280.93347 29.540627 281.46472 28.525002Q282.0116 27.493752 282.99597 26.962502Q283.99597 26.415627 285.21472 26.415627Q287.08972 26.415627 288.29285 27.634377Q289.49597 28.853127 289.49597 30.728127Q289.49597 32.603127 288.27722 33.853127Q287.0741 35.0875 285.23035 35.0875Q284.08972 35.0875 283.04285 34.571877Q282.0116 34.05625 281.46472 33.05625Q280.93347 32.05625 280.93347 30.634377ZM283.18347 30.743752Q283.18347 31.978127 283.7616 32.634377Q284.35535 33.290627 285.21472 33.290627Q286.0741 33.290627 286.65222 32.634377Q287.24597 31.978127 287.24597 30.728127Q287.24597 29.509377 286.65222 28.853127Q286.0741 28.196877 285.21472 28.196877Q284.35535 28.196877 283.7616 28.853127Q283.18347 29.509377 283.18347 30.743752ZM294.87097 31.165627L297.12097 30.946877Q297.3241 32.0875 297.9491 32.61875Q298.5741 33.15 299.62097 33.15Q300.74597 33.15 301.30847 32.68125Q301.87097 32.196877 301.87097 31.571877Q301.87097 31.165627 301.6366 30.884377Q301.40222 30.587502 300.80847 30.384377Q300.40222 30.243752 298.9491 29.884377Q297.08972 29.415627 296.33972 28.743752Q295.29285 27.806252 295.29285 26.446877Q295.29285 25.571877 295.77722 24.806252Q296.27722 24.040627 297.21472 23.650002Q298.15222 23.243752 299.46472 23.243752Q301.62097 23.243752 302.71472 24.196877Q303.80847 25.134377 303.85535 26.712502L301.54285 26.821877Q301.40222 25.931252 300.90222 25.556252Q300.41785 25.165627 299.4491 25.165627Q298.43347 25.165627 297.87097 25.571877Q297.49597 25.837502 297.49597 26.290627Q297.49597 26.696877 297.83972 26.978127Q298.27722 27.353127 299.96472 27.759377Q301.65222 28.150002 302.46472 28.571877Q303.27722 28.993752 303.73035 29.743752Q304.18347 30.478127 304.18347 31.556252Q304.18347 32.540627 303.6366 33.4Q303.08972 34.259377 302.08972 34.68125Q301.08972 35.103127 299.60535 35.103127Q297.43347 35.103127 296.2616 34.103127Q295.10535 33.0875 294.87097 31.165627ZM311.90222 34.9L311.90222 33.65Q311.4491 34.321877 310.71472 34.7125Q309.98035 35.0875 309.15222 35.0875Q308.3241 35.0875 307.65222 34.728127Q306.99597 34.353127 306.6991 33.696877Q306.40222 33.025 306.40222 31.853127L306.40222 26.603127L308.58972 26.603127L308.58972 30.415627Q308.58972 32.165627 308.71472 32.55625Q308.83972 32.946877 309.15222 33.18125Q309.48035 33.415627 309.96472 33.415627Q310.52722 33.415627 310.96472 33.103127Q311.41785 32.790627 311.5741 32.3375Q311.74597 31.884377 311.74597 30.103127L311.74597 26.603127L313.9491 26.603127L313.9491 34.9L311.90222 34.9ZM324.05847 34.9L322.0116 34.9L322.0116 33.68125Q321.5116 34.384377 320.80847 34.74375Q320.12097 35.0875 319.41785 35.0875Q317.99597 35.0875 316.96472 33.93125Q315.9491 32.775 315.9491 30.712502Q315.9491 28.603127 316.93347 27.509377Q317.93347 26.415627 319.4491 26.415627Q320.83972 26.415627 321.85535 27.571877L321.85535 23.446877L324.05847 23.446877L324.05847 34.9ZM318.1991 30.571877Q318.1991 31.900002 318.55847 32.49375Q319.08972 33.353127 320.04285 33.353127Q320.80847 33.353127 321.33972 32.7125Q321.87097 32.05625 321.87097 30.775002Q321.87097 29.353127 321.35535 28.728127Q320.83972 28.087502 320.02722 28.087502Q319.24597 28.087502 318.71472 28.712502Q318.1991 29.337502 318.1991 30.571877ZM331.24597 32.259377L333.43347 32.61875Q333.0116 33.821877 332.10535 34.4625Q331.1991 35.0875 329.8241 35.0875Q327.66785 35.0875 326.62097 33.665627Q325.80847 32.540627 325.80847 30.806252Q325.80847 28.743752 326.8866 27.587502Q327.96472 26.415627 329.60535 26.415627Q331.46472 26.415627 332.52722 27.634377Q333.60535 28.853127 333.55847 31.384377L328.05847 31.384377Q328.0741 32.353127 328.5741 32.9Q329.08972 33.446877 329.85535 33.446877Q330.37097 33.446877 330.71472 33.165627Q331.0741 32.884377 331.24597 32.259377ZM331.37097 30.040627Q331.35535 29.087502 330.8866 28.587502Q330.41785 28.087502 329.74597 28.087502Q329.02722 28.087502 328.55847 28.618752Q328.08972 29.134377 328.08972 30.040627L331.37097 30.040627ZM334.66785 32.525L336.87097 32.196877Q337.0116 32.8375 337.43347 33.165627Q337.87097 33.49375 338.65222 33.49375Q339.49597 33.49375 339.93347 33.18125Q340.21472 32.9625 340.21472 32.603127Q340.21472 32.353127 340.05847 32.18125Q339.90222 32.025 339.3241 31.900002Q336.66785 31.306252 335.96472 30.821877Q334.98035 30.150002 334.98035 28.962502Q334.98035 27.884377 335.8241 27.150002Q336.68347 26.415627 338.46472 26.415627Q340.16785 26.415627 340.99597 26.978127Q341.8241 27.525002 342.1366 28.603127L340.0741 28.993752Q339.93347 28.509377 339.55847 28.259377Q339.1991 27.993752 338.5116 27.993752Q337.6366 27.993752 337.2616 28.228127Q337.0116 28.400002 337.0116 28.681252Q337.0116 28.915627 337.23035 29.071877Q337.52722 29.290627 339.27722 29.696877Q341.04285 30.087502 341.73035 30.665627Q342.41785 31.259377 342.41785 32.30625Q342.41785 33.446877 341.46472 34.275Q340.5116 35.0875 338.65222 35.0875Q336.9491 35.0875 335.96472 34.4Q334.98035 33.7125 334.66785 32.525ZM348.24597 26.603127L348.24597 28.353127L346.74597 28.353127L346.74597 31.696877Q346.74597 32.7125 346.79285 32.884377Q346.83972 33.040627 346.98035 33.15Q347.1366 33.259377 347.35535 33.259377Q347.66785 33.259377 348.24597 33.05625L348.43347 34.759377Q347.66785 35.0875 346.6991 35.0875Q346.10535 35.0875 345.62097 34.884377Q345.15222 34.68125 344.91785 34.36875Q344.6991 34.05625 344.62097 33.509377Q344.54285 33.134377 344.54285 31.962502L344.54285 28.353127L343.54285 28.353127L343.54285 26.603127L344.54285 26.603127L344.54285 24.946877L346.74597 23.665627L346.74597 26.603127L348.24597 26.603127ZM354.24597 32.259377L356.43347 32.61875Q356.0116 33.821877 355.10535 34.4625Q354.1991 35.0875 352.8241 35.0875Q350.66785 35.0875 349.62097 33.665627Q348.80847 32.540627 348.80847 30.806252Q348.80847 28.743752 349.8866 27.587502Q350.96472 26.415627 352.60535 26.415627Q354.46472 26.415627 355.52722 27.634377Q356.60535 28.853127 356.55847 31.384377L351.05847 31.384377Q351.0741 32.353127 351.5741 32.9Q352.08972 33.446877 352.85535 33.446877Q353.37097 33.446877 353.71472 33.165627Q354.0741 32.884377 354.24597 32.259377ZM354.37097 30.040627Q354.35535 29.087502 353.8866 28.587502Q353.41785 28.087502 352.74597 28.087502Q352.02722 28.087502 351.55847 28.618752Q351.08972 29.134377 351.08972 30.040627L354.37097 30.040627ZM366.08972 38.275L364.5741 38.275Q363.3866 36.4625 362.7616 34.525Q362.1366 32.571877 362.1366 30.743752Q362.1366 28.493752 362.90222 26.478127Q363.5741 24.728127 364.60535 23.243752L366.10535 23.243752Q365.04285 25.618752 364.6366 27.275002Q364.23035 28.931252 364.23035 30.790627Q364.23035 32.071877 364.46472 33.415627Q364.71472 34.759377 365.12097 35.978127Q365.40222 36.775 366.08972 38.275ZM366.99597 26.275002Q366.99597 24.728127 367.66785 23.993752Q368.33972 23.243752 369.49597 23.243752Q370.6991 23.243752 371.37097 23.993752Q372.04285 24.728127 372.04285 26.275002Q372.04285 27.806252 371.37097 28.556252Q370.6991 29.290627 369.54285 29.290627Q368.33972 29.290627 367.66785 28.556252Q366.99597 27.821877 366.99597 26.275002ZM368.6991 26.259377Q368.6991 27.368752 368.96472 27.759377Q369.15222 28.040627 369.49597 28.040627Q369.85535 28.040627 370.04285 27.759377Q370.29285 27.368752 370.29285 26.259377Q370.29285 25.134377 370.04285 24.759377Q369.85535 24.478127 369.49597 24.478127Q369.15222 24.478127 368.96472 24.759377Q368.6991 25.134377 368.6991 26.259377ZM371.16785 35.3375L369.54285 35.3375L375.65222 23.243752L377.23035 23.243752L371.16785 35.3375ZM374.71472 32.321877Q374.71472 30.790627 375.3866 30.056252Q376.0741 29.306252 377.24597 29.306252Q378.41785 29.306252 379.08972 30.056252Q379.77722 30.790627 379.77722 32.321877Q379.77722 33.86875 379.08972 34.61875Q378.41785 35.36875 377.2616 35.36875Q376.0741 35.36875 375.3866 34.61875Q374.71472 33.86875 374.71472 32.321877ZM376.43347 32.321877Q376.43347 33.43125 376.68347 33.80625Q376.8866 34.103127 377.23035 34.103127Q377.5741 34.103127 377.7616 33.821877Q378.02722 33.43125 378.02722 32.321877Q378.02722 31.196877 377.77722 30.821877Q377.5741 30.540627 377.23035 30.540627Q376.87097 30.540627 376.68347 30.821877Q376.43347 31.196877 376.43347 32.321877ZM382.83972 38.275Q383.48035 36.884377 383.74597 36.134377Q384.0116 35.4 384.23035 34.43125Q384.46472 33.446877 384.5741 32.5875Q384.68347 31.712502 384.68347 30.790627Q384.68347 28.931252 384.27722 27.275002Q383.8866 25.618752 382.8241 23.243752L384.30847 23.243752Q385.49597 24.931252 386.1366 26.821877Q386.79285 28.696877 386.79285 30.634377Q386.79285 32.259377 386.27722 34.134377Q385.6991 36.228127 384.35535 38.275L382.83972 38.275ZM397.24597 32.259377L399.43347 32.61875Q399.0116 33.821877 398.10535 34.4625Q397.1991 35.0875 395.8241 35.0875Q393.66785 35.0875 392.62097 33.665627Q391.80847 32.540627 391.80847 30.806252Q391.80847 28.743752 392.8866 27.587502Q393.96472 26.415627 395.60535 26.415627Q397.46472 26.415627 398.52722 27.634377Q399.60535 28.853127 399.55847 31.384377L394.05847 31.384377Q394.0741 32.353127 394.5741 32.9Q395.08972 33.446877 395.85535 33.446877Q396.37097 33.446877 396.71472 33.165627Q397.0741 32.884377 397.24597 32.259377ZM397.37097 30.040627Q397.35535 29.087502 396.8866 28.587502Q396.41785 28.087502 395.74597 28.087502Q395.02722 28.087502 394.55847 28.618752Q394.08972 29.134377 394.08972 30.040627L397.37097 30.040627ZM401.27722 26.603127L403.30847 26.603127L403.30847 27.728127Q404.3866 26.415627 405.8866 26.415627Q406.68347 26.415627 407.2616 26.743752Q407.85535 27.071877 408.23035 27.728127Q408.77722 27.071877 409.40222 26.743752Q410.04285 26.415627 410.7616 26.415627Q411.68347 26.415627 412.30847 26.790627Q412.9491 27.150002 413.2616 27.868752Q413.48035 28.400002 413.48035 29.587502L413.48035 34.9L411.29285 34.9L411.29285 30.150002Q411.29285 28.915627 411.05847 28.556252Q410.7616 28.087502 410.12097 28.087502Q409.66785 28.087502 409.2616 28.368752Q408.85535 28.650002 408.66785 29.196877Q408.49597 29.743752 408.49597 30.915627L408.49597 34.9L406.29285 34.9L406.29285 30.353127Q406.29285 29.134377 406.16785 28.790627Q406.05847 28.431252 405.80847 28.259377Q405.5741 28.087502 405.15222 28.087502Q404.6366 28.087502 404.23035 28.368752Q403.8241 28.634377 403.65222 29.150002Q403.48035 29.665627 403.48035 30.868752L403.48035 34.9L401.27722 34.9L401.27722 26.603127ZM426.3866 32.853127L426.3866 34.9L418.6991 34.9Q418.8241 33.74375 419.4491 32.7125Q420.0741 31.665627 421.91785 29.962502Q423.40222 28.571877 423.73035 28.087502Q424.18347 27.400002 424.18347 26.743752Q424.18347 26.009377 423.79285 25.618752Q423.40222 25.212502 422.6991 25.212502Q422.0116 25.212502 421.60535 25.634377Q421.1991 26.040627 421.1366 27.009377L418.9491 26.790627Q419.15222 24.978127 420.18347 24.196877Q421.21472 23.400002 422.7616 23.400002Q424.4491 23.400002 425.41785 24.321877Q426.3866 25.228127 426.3866 26.587502Q426.3866 27.353127 426.10535 28.056252Q425.83972 28.759377 425.23035 29.525002Q424.83972 30.025002 423.79285 30.978127Q422.7616 31.931252 422.48035 32.24375Q422.1991 32.55625 422.02722 32.853127L426.3866 32.853127ZM431.68347 23.400002Q433.35535 23.400002 434.29285 24.587502Q435.40222 25.993752 435.40222 29.243752Q435.40222 32.49375 434.27722 33.915627Q433.35535 35.103127 431.68347 35.103127Q430.0116 35.103127 428.98035 33.821877Q427.96472 32.525 427.96472 29.228127Q427.96472 25.993752 429.08972 24.571877Q430.02722 23.400002 431.68347 23.400002ZM431.68347 25.212502Q431.29285 25.212502 430.98035 25.478127Q430.66785 25.728127 430.49597 26.384377Q430.2616 27.228127 430.2616 29.243752Q430.2616 31.259377 430.46472 32.025Q430.66785 32.775 430.98035 33.025Q431.29285 33.275 431.68347 33.275Q432.08972 33.275 432.40222 33.025Q432.71472 32.759377 432.8866 32.103127Q433.10535 31.259377 433.10535 29.243752Q433.10535 27.228127 432.90222 26.478127Q432.6991 25.728127 432.3866 25.478127Q432.08972 25.212502 431.68347 25.212502ZM444.3866 32.853127L444.3866 34.9L436.6991 34.9Q436.8241 33.74375 437.4491 32.7125Q438.0741 31.665627 439.91785 29.962502Q441.40222 28.571877 441.73035 28.087502Q442.18347 27.400002 442.18347 26.743752Q442.18347 26.009377 441.79285 25.618752Q441.40222 25.212502 440.6991 25.212502Q440.0116 25.212502 439.60535 25.634377Q439.1991 26.040627 439.1366 27.009377L436.9491 26.790627Q437.15222 24.978127 438.18347 24.196877Q439.21472 23.400002 440.7616 23.400002Q442.4491 23.400002 443.41785 24.321877Q444.3866 25.228127 444.3866 26.587502Q444.3866 27.353127 444.10535 28.056252Q443.83972 28.759377 443.23035 29.525002Q442.83972 30.025002 441.79285 30.978127Q440.7616 31.931252 440.48035 32.24375Q440.1991 32.55625 440.02722 32.853127L444.3866 32.853127ZM445.90222 31.853127L448.02722 31.603127Q448.12097 32.415627 448.55847 32.853127Q449.0116 33.275 449.65222 33.275Q450.3241 33.275 450.79285 32.759377Q451.2616 32.24375 451.2616 31.368752Q451.2616 30.540627 450.80847 30.056252Q450.37097 29.571877 449.73035 29.571877Q449.30847 29.571877 448.71472 29.728127L448.96472 27.946877Q449.85535 27.962502 450.3241 27.556252Q450.79285 27.150002 450.79285 26.462502Q450.79285 25.884377 450.4491 25.540627Q450.10535 25.196877 449.52722 25.196877Q448.96472 25.196877 448.55847 25.587502Q448.16785 25.978127 448.08972 26.728127L446.05847 26.384377Q446.27722 25.353127 446.6991 24.728127Q447.12097 24.103127 447.8866 23.759377Q448.65222 23.400002 449.58972 23.400002Q451.21472 23.400002 452.18347 24.431252Q452.99597 25.275002 452.99597 26.337502Q452.99597 27.837502 451.33972 28.743752Q452.3241 28.946877 452.91785 29.681252Q453.5116 30.415627 453.5116 31.462502Q453.5116 32.9625 452.40222 34.040627Q451.30847 35.103127 449.66785 35.103127Q448.10535 35.103127 447.0741 34.2125Q446.05847 33.30625 445.90222 31.853127ZM456.21472 28.712502L455.02722 27.790627Q455.58972 27.165627 456.1991 26.587502Q456.4491 26.353127 456.5116 26.290627Q456.30847 26.259377 455.3866 26.025002Q454.73035 25.868752 454.5116 25.790627L454.98035 24.415627Q455.99597 24.821877 456.80847 25.321877Q456.62097 24.056252 456.62097 23.243752L458.0116 23.243752Q458.0116 23.821877 457.79285 25.337502Q457.9491 25.275002 458.46472 25.040627Q459.16785 24.712502 459.7616 24.493752L460.18347 25.900002Q459.30847 26.103127 458.16785 26.290627L459.10535 27.337502Q459.3866 27.665627 459.55847 27.868752L458.35535 28.650002L457.30847 26.915627Q456.8241 27.759377 456.21472 28.712502Z" fill-rule="nonzero"/></svg>